<?xml version="1.0" encoding="utf-8" standalone="no"?>
<!DOCTYPE svg PUBLIC "-//W3C//DTD SVG 1.1//EN"
  "http://www.w3.org/Graphics/SVG/1.1/DTD/svg11.dtd">
<!-- Created with matplotlib (http://matplotlib.org/) -->
<svg height="408pt" version="1.1" viewBox="0 0 770 408" width="770pt" xmlns="http://www.w3.org/2000/svg" xmlns:xlink="http://www.w3.org/1999/xlink">
 <defs>
  <style type="text/css">
*{stroke-linecap:butt;stroke-linejoin:round;}
  </style>
 </defs>
 <g id="figure_1">
  <g id="patch_1">
   <path d="M 0 408.43 
L 770.63625 408.43 
L 770.63625 0 
L 0 0 
z
" style="fill:#ffffff;"/>
  </g>
  <g id="axes_1">
   <g id="patch_2">
    <path d="M 33.2875 348.478125 
L 647.0875 348.478125 
L 647.0875 22.318125 
L 33.2875 22.318125 
z
" style="fill:#ffffff;"/>
   </g>
   <g id="matplotlib.axis_1">
    <g id="xtick_1">
     <g id="line2d_1">
      <defs>
       <path d="M 0 0 
L 0 3.5 
" id="m76f3975851" style="stroke:#000000;stroke-width:0.8;"/>
      </defs>
      <g>
       <use style="stroke:#000000;stroke-width:0.8;" x="61.1875" xlink:href="#m76f3975851" y="348.478125"/>
      </g>
     </g>
     <g id="text_1">
      <!-- 01 -->
      <defs>
       <path d="M 31.78125 66.40625 
Q 24.171875 66.40625 20.328125 58.90625 
Q 16.5 51.421875 16.5 36.375 
Q 16.5 21.390625 20.328125 13.890625 
Q 24.171875 6.390625 31.78125 6.390625 
Q 39.453125 6.390625 43.28125 13.890625 
Q 47.125 21.390625 47.125 36.375 
Q 47.125 51.421875 43.28125 58.90625 
Q 39.453125 66.40625 31.78125 66.40625 
z
M 31.78125 74.21875 
Q 44.046875 74.21875 50.515625 64.515625 
Q 56.984375 54.828125 56.984375 36.375 
Q 56.984375 17.96875 50.515625 8.265625 
Q 44.046875 -1.421875 31.78125 -1.421875 
Q 19.53125 -1.421875 13.0625 8.265625 
Q 6.59375 17.96875 6.59375 36.375 
Q 6.59375 54.828125 13.0625 64.515625 
Q 19.53125 74.21875 31.78125 74.21875 
z
" id="DejaVuSans-30"/>
       <path d="M 12.40625 8.296875 
L 28.515625 8.296875 
L 28.515625 63.921875 
L 10.984375 60.40625 
L 10.984375 69.390625 
L 28.421875 72.90625 
L 38.28125 72.90625 
L 38.28125 8.296875 
L 54.390625 8.296875 
L 54.390625 0 
L 12.40625 0 
z
" id="DejaVuSans-31"/>
      </defs>
      <g transform="translate(54.825 363.076563)scale(0.1 -0.1)">
       <use xlink:href="#DejaVuSans-30"/>
       <use x="63.623047" xlink:href="#DejaVuSans-31"/>
      </g>
      <!-- May -->
      <defs>
       <path d="M 9.8125 72.90625 
L 24.515625 72.90625 
L 43.109375 23.296875 
L 61.8125 72.90625 
L 76.515625 72.90625 
L 76.515625 0 
L 66.890625 0 
L 66.890625 64.015625 
L 48.09375 14.015625 
L 38.1875 14.015625 
L 19.390625 64.015625 
L 19.390625 0 
L 9.8125 0 
z
" id="DejaVuSans-4d"/>
       <path d="M 34.28125 27.484375 
Q 23.390625 27.484375 19.1875 25 
Q 14.984375 22.515625 14.984375 16.5 
Q 14.984375 11.71875 18.140625 8.90625 
Q 21.296875 6.109375 26.703125 6.109375 
Q 34.1875 6.109375 38.703125 11.40625 
Q 43.21875 16.703125 43.21875 25.484375 
L 43.21875 27.484375 
z
M 52.203125 31.203125 
L 52.203125 0 
L 43.21875 0 
L 43.21875 8.296875 
Q 40.140625 3.328125 35.546875 0.953125 
Q 30.953125 -1.421875 24.3125 -1.421875 
Q 15.921875 -1.421875 10.953125 3.296875 
Q 6 8.015625 6 15.921875 
Q 6 25.140625 12.171875 29.828125 
Q 18.359375 34.515625 30.609375 34.515625 
L 43.21875 34.515625 
L 43.21875 35.40625 
Q 43.21875 41.609375 39.140625 45 
Q 35.0625 48.390625 27.6875 48.390625 
Q 23 48.390625 18.546875 47.265625 
Q 14.109375 46.140625 10.015625 43.890625 
L 10.015625 52.203125 
Q 14.9375 54.109375 19.578125 55.046875 
Q 24.21875 56 28.609375 56 
Q 40.484375 56 46.34375 49.84375 
Q 52.203125 43.703125 52.203125 31.203125 
z
" id="DejaVuSans-61"/>
       <path d="M 32.171875 -5.078125 
Q 28.375 -14.84375 24.75 -17.8125 
Q 21.140625 -20.796875 15.09375 -20.796875 
L 7.90625 -20.796875 
L 7.90625 -13.28125 
L 13.1875 -13.28125 
Q 16.890625 -13.28125 18.9375 -11.515625 
Q 21 -9.765625 23.484375 -3.21875 
L 25.09375 0.875 
L 2.984375 54.6875 
L 12.5 54.6875 
L 29.59375 11.921875 
L 46.6875 54.6875 
L 56.203125 54.6875 
z
" id="DejaVuSans-79"/>
      </defs>
      <g transform="translate(50.85 374.274375)scale(0.1 -0.1)">
       <use xlink:href="#DejaVuSans-4d"/>
       <use x="86.279297" xlink:href="#DejaVuSans-61"/>
       <use x="147.558594" xlink:href="#DejaVuSans-79"/>
      </g>
      <!-- 2014 -->
      <defs>
       <path d="M 19.1875 8.296875 
L 53.609375 8.296875 
L 53.609375 0 
L 7.328125 0 
L 7.328125 8.296875 
Q 12.9375 14.109375 22.625 23.890625 
Q 32.328125 33.6875 34.8125 36.53125 
Q 39.546875 41.84375 41.421875 45.53125 
Q 43.3125 49.21875 43.3125 52.78125 
Q 43.3125 58.59375 39.234375 62.25 
Q 35.15625 65.921875 28.609375 65.921875 
Q 23.96875 65.921875 18.8125 64.3125 
Q 13.671875 62.703125 7.8125 59.421875 
L 7.8125 69.390625 
Q 13.765625 71.78125 18.9375 73 
Q 24.125 74.21875 28.421875 74.21875 
Q 39.75 74.21875 46.484375 68.546875 
Q 53.21875 62.890625 53.21875 53.421875 
Q 53.21875 48.921875 51.53125 44.890625 
Q 49.859375 40.875 45.40625 35.40625 
Q 44.1875 33.984375 37.640625 27.21875 
Q 31.109375 20.453125 19.1875 8.296875 
z
" id="DejaVuSans-32"/>
       <path d="M 37.796875 64.3125 
L 12.890625 25.390625 
L 37.796875 25.390625 
z
M 35.203125 72.90625 
L 47.609375 72.90625 
L 47.609375 25.390625 
L 58.015625 25.390625 
L 58.015625 17.1875 
L 47.609375 17.1875 
L 47.609375 0 
L 37.796875 0 
L 37.796875 17.1875 
L 4.890625 17.1875 
L 4.890625 26.703125 
z
" id="DejaVuSans-34"/>
      </defs>
      <g transform="translate(48.4625 385.472188)scale(0.1 -0.1)">
       <use xlink:href="#DejaVuSans-32"/>
       <use x="63.623047" xlink:href="#DejaVuSans-30"/>
       <use x="127.246094" xlink:href="#DejaVuSans-31"/>
       <use x="190.869141" xlink:href="#DejaVuSans-34"/>
      </g>
     </g>
    </g>
    <g id="xtick_2">
     <g id="line2d_2">
      <g>
       <use style="stroke:#000000;stroke-width:0.8;" x="646.014423" xlink:href="#m76f3975851" y="348.478125"/>
      </g>
     </g>
    </g>
    <g id="xtick_3">
     <g id="line2d_3">
      <defs>
       <path d="M 0 0 
L 0 2 
" id="meff0c0e089" style="stroke:#000000;stroke-width:0.6;"/>
      </defs>
      <g>
       <use style="stroke:#000000;stroke-width:0.6;" x="61.1875" xlink:href="#meff0c0e089" y="348.478125"/>
      </g>
     </g>
    </g>
    <g id="xtick_4">
     <g id="line2d_4">
      <g>
       <use style="stroke:#000000;stroke-width:0.6;" x="104.110577" xlink:href="#meff0c0e089" y="348.478125"/>
      </g>
     </g>
     <g id="text_2">
      <!-- 02 -->
      <g transform="translate(97.748077 361.476562)scale(0.1 -0.1)">
       <use xlink:href="#DejaVuSans-30"/>
       <use x="63.623047" xlink:href="#DejaVuSans-32"/>
      </g>
     </g>
    </g>
    <g id="xtick_5">
     <g id="line2d_5">
      <g>
       <use style="stroke:#000000;stroke-width:0.6;" x="147.033654" xlink:href="#meff0c0e089" y="348.478125"/>
      </g>
     </g>
     <g id="text_3">
      <!-- 03 -->
      <defs>
       <path d="M 40.578125 39.3125 
Q 47.65625 37.796875 51.625 33 
Q 55.609375 28.21875 55.609375 21.1875 
Q 55.609375 10.40625 48.1875 4.484375 
Q 40.765625 -1.421875 27.09375 -1.421875 
Q 22.515625 -1.421875 17.65625 -0.515625 
Q 12.796875 0.390625 7.625 2.203125 
L 7.625 11.71875 
Q 11.71875 9.328125 16.59375 8.109375 
Q 21.484375 6.890625 26.8125 6.890625 
Q 36.078125 6.890625 40.9375 10.546875 
Q 45.796875 14.203125 45.796875 21.1875 
Q 45.796875 27.640625 41.28125 31.265625 
Q 36.765625 34.90625 28.71875 34.90625 
L 20.21875 34.90625 
L 20.21875 43.015625 
L 29.109375 43.015625 
Q 36.375 43.015625 40.234375 45.921875 
Q 44.09375 48.828125 44.09375 54.296875 
Q 44.09375 59.90625 40.109375 62.90625 
Q 36.140625 65.921875 28.71875 65.921875 
Q 24.65625 65.921875 20.015625 65.03125 
Q 15.375 64.15625 9.8125 62.3125 
L 9.8125 71.09375 
Q 15.4375 72.65625 20.34375 73.4375 
Q 25.25 74.21875 29.59375 74.21875 
Q 40.828125 74.21875 47.359375 69.109375 
Q 53.90625 64.015625 53.90625 55.328125 
Q 53.90625 49.265625 50.4375 45.09375 
Q 46.96875 40.921875 40.578125 39.3125 
z
" id="DejaVuSans-33"/>
      </defs>
      <g transform="translate(140.671154 361.476562)scale(0.1 -0.1)">
       <use xlink:href="#DejaVuSans-30"/>
       <use x="63.623047" xlink:href="#DejaVuSans-33"/>
      </g>
     </g>
    </g>
    <g id="xtick_6">
     <g id="line2d_6">
      <g>
       <use style="stroke:#000000;stroke-width:0.6;" x="189.956731" xlink:href="#meff0c0e089" y="348.478125"/>
      </g>
     </g>
     <g id="text_4">
      <!-- 04 -->
      <g transform="translate(183.594231 361.476562)scale(0.1 -0.1)">
       <use xlink:href="#DejaVuSans-30"/>
       <use x="63.623047" xlink:href="#DejaVuSans-34"/>
      </g>
     </g>
    </g>
    <g id="xtick_7">
     <g id="line2d_7">
      <g>
       <use style="stroke:#000000;stroke-width:0.6;" x="232.879808" xlink:href="#meff0c0e089" y="348.478125"/>
      </g>
     </g>
     <g id="text_5">
      <!-- 05 -->
      <defs>
       <path d="M 10.796875 72.90625 
L 49.515625 72.90625 
L 49.515625 64.59375 
L 19.828125 64.59375 
L 19.828125 46.734375 
Q 21.96875 47.46875 24.109375 47.828125 
Q 26.265625 48.1875 28.421875 48.1875 
Q 40.625 48.1875 47.75 41.5 
Q 54.890625 34.8125 54.890625 23.390625 
Q 54.890625 11.625 47.5625 5.09375 
Q 40.234375 -1.421875 26.90625 -1.421875 
Q 22.3125 -1.421875 17.546875 -0.640625 
Q 12.796875 0.140625 7.71875 1.703125 
L 7.71875 11.625 
Q 12.109375 9.234375 16.796875 8.0625 
Q 21.484375 6.890625 26.703125 6.890625 
Q 35.15625 6.890625 40.078125 11.328125 
Q 45.015625 15.765625 45.015625 23.390625 
Q 45.015625 31 40.078125 35.4375 
Q 35.15625 39.890625 26.703125 39.890625 
Q 22.75 39.890625 18.8125 39.015625 
Q 14.890625 38.140625 10.796875 36.28125 
z
" id="DejaVuSans-35"/>
      </defs>
      <g transform="translate(226.517308 361.476562)scale(0.1 -0.1)">
       <use xlink:href="#DejaVuSans-30"/>
       <use x="63.623047" xlink:href="#DejaVuSans-35"/>
      </g>
     </g>
    </g>
    <g id="xtick_8">
     <g id="line2d_8">
      <g>
       <use style="stroke:#000000;stroke-width:0.6;" x="275.802885" xlink:href="#meff0c0e089" y="348.478125"/>
      </g>
     </g>
     <g id="text_6">
      <!-- 06 -->
      <defs>
       <path d="M 33.015625 40.375 
Q 26.375 40.375 22.484375 35.828125 
Q 18.609375 31.296875 18.609375 23.390625 
Q 18.609375 15.53125 22.484375 10.953125 
Q 26.375 6.390625 33.015625 6.390625 
Q 39.65625 6.390625 43.53125 10.953125 
Q 47.40625 15.53125 47.40625 23.390625 
Q 47.40625 31.296875 43.53125 35.828125 
Q 39.65625 40.375 33.015625 40.375 
z
M 52.59375 71.296875 
L 52.59375 62.3125 
Q 48.875 64.0625 45.09375 64.984375 
Q 41.3125 65.921875 37.59375 65.921875 
Q 27.828125 65.921875 22.671875 59.328125 
Q 17.53125 52.734375 16.796875 39.40625 
Q 19.671875 43.65625 24.015625 45.921875 
Q 28.375 48.1875 33.59375 48.1875 
Q 44.578125 48.1875 50.953125 41.515625 
Q 57.328125 34.859375 57.328125 23.390625 
Q 57.328125 12.15625 50.6875 5.359375 
Q 44.046875 -1.421875 33.015625 -1.421875 
Q 20.359375 -1.421875 13.671875 8.265625 
Q 6.984375 17.96875 6.984375 36.375 
Q 6.984375 53.65625 15.1875 63.9375 
Q 23.390625 74.21875 37.203125 74.21875 
Q 40.921875 74.21875 44.703125 73.484375 
Q 48.484375 72.75 52.59375 71.296875 
z
" id="DejaVuSans-36"/>
      </defs>
      <g transform="translate(269.440385 361.476562)scale(0.1 -0.1)">
       <use xlink:href="#DejaVuSans-30"/>
       <use x="63.623047" xlink:href="#DejaVuSans-36"/>
      </g>
     </g>
    </g>
    <g id="xtick_9">
     <g id="line2d_9">
      <g>
       <use style="stroke:#000000;stroke-width:0.6;" x="318.725962" xlink:href="#meff0c0e089" y="348.478125"/>
      </g>
     </g>
     <g id="text_7">
      <!-- 07 -->
      <defs>
       <path d="M 8.203125 72.90625 
L 55.078125 72.90625 
L 55.078125 68.703125 
L 28.609375 0 
L 18.3125 0 
L 43.21875 64.59375 
L 8.203125 64.59375 
z
" id="DejaVuSans-37"/>
      </defs>
      <g transform="translate(312.363462 361.476562)scale(0.1 -0.1)">
       <use xlink:href="#DejaVuSans-30"/>
       <use x="63.623047" xlink:href="#DejaVuSans-37"/>
      </g>
     </g>
    </g>
    <g id="xtick_10">
     <g id="line2d_10">
      <g>
       <use style="stroke:#000000;stroke-width:0.6;" x="361.649038" xlink:href="#meff0c0e089" y="348.478125"/>
      </g>
     </g>
     <g id="text_8">
      <!-- 08 -->
      <defs>
       <path d="M 31.78125 34.625 
Q 24.75 34.625 20.71875 30.859375 
Q 16.703125 27.09375 16.703125 20.515625 
Q 16.703125 13.921875 20.71875 10.15625 
Q 24.75 6.390625 31.78125 6.390625 
Q 38.8125 6.390625 42.859375 10.171875 
Q 46.921875 13.96875 46.921875 20.515625 
Q 46.921875 27.09375 42.890625 30.859375 
Q 38.875 34.625 31.78125 34.625 
z
M 21.921875 38.8125 
Q 15.578125 40.375 12.03125 44.71875 
Q 8.5 49.078125 8.5 55.328125 
Q 8.5 64.0625 14.71875 69.140625 
Q 20.953125 74.21875 31.78125 74.21875 
Q 42.671875 74.21875 48.875 69.140625 
Q 55.078125 64.0625 55.078125 55.328125 
Q 55.078125 49.078125 51.53125 44.71875 
Q 48 40.375 41.703125 38.8125 
Q 48.828125 37.15625 52.796875 32.3125 
Q 56.78125 27.484375 56.78125 20.515625 
Q 56.78125 9.90625 50.3125 4.234375 
Q 43.84375 -1.421875 31.78125 -1.421875 
Q 19.734375 -1.421875 13.25 4.234375 
Q 6.78125 9.90625 6.78125 20.515625 
Q 6.78125 27.484375 10.78125 32.3125 
Q 14.796875 37.15625 21.921875 38.8125 
z
M 18.3125 54.390625 
Q 18.3125 48.734375 21.84375 45.5625 
Q 25.390625 42.390625 31.78125 42.390625 
Q 38.140625 42.390625 41.71875 45.5625 
Q 45.3125 48.734375 45.3125 54.390625 
Q 45.3125 60.0625 41.71875 63.234375 
Q 38.140625 66.40625 31.78125 66.40625 
Q 25.390625 66.40625 21.84375 63.234375 
Q 18.3125 60.0625 18.3125 54.390625 
z
" id="DejaVuSans-38"/>
      </defs>
      <g transform="translate(355.286538 361.476562)scale(0.1 -0.1)">
       <use xlink:href="#DejaVuSans-30"/>
       <use x="63.623047" xlink:href="#DejaVuSans-38"/>
      </g>
     </g>
    </g>
    <g id="xtick_11">
     <g id="line2d_11">
      <g>
       <use style="stroke:#000000;stroke-width:0.6;" x="404.572115" xlink:href="#meff0c0e089" y="348.478125"/>
      </g>
     </g>
     <g id="text_9">
      <!-- 09 -->
      <defs>
       <path d="M 10.984375 1.515625 
L 10.984375 10.5 
Q 14.703125 8.734375 18.5 7.8125 
Q 22.3125 6.890625 25.984375 6.890625 
Q 35.75 6.890625 40.890625 13.453125 
Q 46.046875 20.015625 46.78125 33.40625 
Q 43.953125 29.203125 39.59375 26.953125 
Q 35.25 24.703125 29.984375 24.703125 
Q 19.046875 24.703125 12.671875 31.3125 
Q 6.296875 37.9375 6.296875 49.421875 
Q 6.296875 60.640625 12.9375 67.421875 
Q 19.578125 74.21875 30.609375 74.21875 
Q 43.265625 74.21875 49.921875 64.515625 
Q 56.59375 54.828125 56.59375 36.375 
Q 56.59375 19.140625 48.40625 8.859375 
Q 40.234375 -1.421875 26.421875 -1.421875 
Q 22.703125 -1.421875 18.890625 -0.6875 
Q 15.09375 0.046875 10.984375 1.515625 
z
M 30.609375 32.421875 
Q 37.25 32.421875 41.125 36.953125 
Q 45.015625 41.5 45.015625 49.421875 
Q 45.015625 57.28125 41.125 61.84375 
Q 37.25 66.40625 30.609375 66.40625 
Q 23.96875 66.40625 20.09375 61.84375 
Q 16.21875 57.28125 16.21875 49.421875 
Q 16.21875 41.5 20.09375 36.953125 
Q 23.96875 32.421875 30.609375 32.421875 
z
" id="DejaVuSans-39"/>
      </defs>
      <g transform="translate(398.209615 361.476562)scale(0.1 -0.1)">
       <use xlink:href="#DejaVuSans-30"/>
       <use x="63.623047" xlink:href="#DejaVuSans-39"/>
      </g>
     </g>
    </g>
    <g id="xtick_12">
     <g id="line2d_12">
      <g>
       <use style="stroke:#000000;stroke-width:0.6;" x="447.495192" xlink:href="#meff0c0e089" y="348.478125"/>
      </g>
     </g>
     <g id="text_10">
      <!-- 10 -->
      <g transform="translate(441.132692 361.476562)scale(0.1 -0.1)">
       <use xlink:href="#DejaVuSans-31"/>
       <use x="63.623047" xlink:href="#DejaVuSans-30"/>
      </g>
     </g>
    </g>
    <g id="xtick_13">
     <g id="line2d_13">
      <g>
       <use style="stroke:#000000;stroke-width:0.6;" x="490.418269" xlink:href="#meff0c0e089" y="348.478125"/>
      </g>
     </g>
     <g id="text_11">
      <!-- 11 -->
      <g transform="translate(484.055769 361.476562)scale(0.1 -0.1)">
       <use xlink:href="#DejaVuSans-31"/>
       <use x="63.623047" xlink:href="#DejaVuSans-31"/>
      </g>
     </g>
    </g>
    <g id="xtick_14">
     <g id="line2d_14">
      <g>
       <use style="stroke:#000000;stroke-width:0.6;" x="533.341346" xlink:href="#meff0c0e089" y="348.478125"/>
      </g>
     </g>
     <g id="text_12">
      <!-- 12 -->
      <g transform="translate(526.978846 361.476562)scale(0.1 -0.1)">
       <use xlink:href="#DejaVuSans-31"/>
       <use x="63.623047" xlink:href="#DejaVuSans-32"/>
      </g>
     </g>
    </g>
    <g id="xtick_15">
     <g id="line2d_15">
      <g>
       <use style="stroke:#000000;stroke-width:0.6;" x="576.264423" xlink:href="#meff0c0e089" y="348.478125"/>
      </g>
     </g>
     <g id="text_13">
      <!-- 13 -->
      <g transform="translate(569.901923 361.476562)scale(0.1 -0.1)">
       <use xlink:href="#DejaVuSans-31"/>
       <use x="63.623047" xlink:href="#DejaVuSans-33"/>
      </g>
     </g>
    </g>
    <g id="xtick_16">
     <g id="line2d_16">
      <g>
       <use style="stroke:#000000;stroke-width:0.6;" x="619.1875" xlink:href="#meff0c0e089" y="348.478125"/>
      </g>
     </g>
     <g id="text_14">
      <!-- 14 -->
      <g transform="translate(612.825 361.476562)scale(0.1 -0.1)">
       <use xlink:href="#DejaVuSans-31"/>
       <use x="63.623047" xlink:href="#DejaVuSans-34"/>
      </g>
     </g>
    </g>
    <g id="text_15">
     <!-- time -->
     <defs>
      <path d="M 18.3125 70.21875 
L 18.3125 54.6875 
L 36.8125 54.6875 
L 36.8125 47.703125 
L 18.3125 47.703125 
L 18.3125 18.015625 
Q 18.3125 11.328125 20.140625 9.421875 
Q 21.96875 7.515625 27.59375 7.515625 
L 36.8125 7.515625 
L 36.8125 0 
L 27.59375 0 
Q 17.1875 0 13.234375 3.875 
Q 9.28125 7.765625 9.28125 18.015625 
L 9.28125 47.703125 
L 2.6875 47.703125 
L 2.6875 54.6875 
L 9.28125 54.6875 
L 9.28125 70.21875 
z
" id="DejaVuSans-74"/>
      <path d="M 9.421875 54.6875 
L 18.40625 54.6875 
L 18.40625 0 
L 9.421875 0 
z
M 9.421875 75.984375 
L 18.40625 75.984375 
L 18.40625 64.59375 
L 9.421875 64.59375 
z
" id="DejaVuSans-69"/>
      <path d="M 52 44.1875 
Q 55.375 50.25 60.0625 53.125 
Q 64.75 56 71.09375 56 
Q 79.640625 56 84.28125 50.015625 
Q 88.921875 44.046875 88.921875 33.015625 
L 88.921875 0 
L 79.890625 0 
L 79.890625 32.71875 
Q 79.890625 40.578125 77.09375 44.375 
Q 74.3125 48.1875 68.609375 48.1875 
Q 61.625 48.1875 57.5625 43.546875 
Q 53.515625 38.921875 53.515625 30.90625 
L 53.515625 0 
L 44.484375 0 
L 44.484375 32.71875 
Q 44.484375 40.625 41.703125 44.40625 
Q 38.921875 48.1875 33.109375 48.1875 
Q 26.21875 48.1875 22.15625 43.53125 
Q 18.109375 38.875 18.109375 30.90625 
L 18.109375 0 
L 9.078125 0 
L 9.078125 54.6875 
L 18.109375 54.6875 
L 18.109375 46.1875 
Q 21.1875 51.21875 25.484375 53.609375 
Q 29.78125 56 35.6875 56 
Q 41.65625 56 45.828125 52.96875 
Q 50 49.953125 52 44.1875 
z
" id="DejaVuSans-6d"/>
      <path d="M 56.203125 29.59375 
L 56.203125 25.203125 
L 14.890625 25.203125 
Q 15.484375 15.921875 20.484375 11.0625 
Q 25.484375 6.203125 34.421875 6.203125 
Q 39.59375 6.203125 44.453125 7.46875 
Q 49.3125 8.734375 54.109375 11.28125 
L 54.109375 2.78125 
Q 49.265625 0.734375 44.1875 -0.34375 
Q 39.109375 -1.421875 33.890625 -1.421875 
Q 20.796875 -1.421875 13.15625 6.1875 
Q 5.515625 13.8125 5.515625 26.8125 
Q 5.515625 40.234375 12.765625 48.109375 
Q 20.015625 56 32.328125 56 
Q 43.359375 56 49.78125 48.890625 
Q 56.203125 41.796875 56.203125 29.59375 
z
M 47.21875 32.234375 
Q 47.125 39.59375 43.09375 43.984375 
Q 39.0625 48.390625 32.421875 48.390625 
Q 24.90625 48.390625 20.390625 44.140625 
Q 15.875 39.890625 15.1875 32.171875 
z
" id="DejaVuSans-65"/>
     </defs>
     <g transform="translate(328.891406 399.150312)scale(0.1 -0.1)">
      <use xlink:href="#DejaVuSans-74"/>
      <use x="39.208984" xlink:href="#DejaVuSans-69"/>
      <use x="66.992188" xlink:href="#DejaVuSans-6d"/>
      <use x="164.404297" xlink:href="#DejaVuSans-65"/>
     </g>
    </g>
   </g>
   <g id="matplotlib.axis_2">
    <g id="ytick_1">
     <g id="line2d_17">
      <defs>
       <path d="M 0 0 
L -3.5 0 
" id="m90afa047ec" style="stroke:#000000;stroke-width:0.8;"/>
      </defs>
      <g>
       <use style="stroke:#000000;stroke-width:0.8;" x="33.2875" xlink:href="#m90afa047ec" y="333.65267"/>
      </g>
     </g>
     <g id="text_16">
      <!-- 0 -->
      <g transform="translate(19.925 337.451889)scale(0.1 -0.1)">
       <use xlink:href="#DejaVuSans-30"/>
      </g>
     </g>
    </g>
    <g id="ytick_2">
     <g id="line2d_18">
      <g>
       <use style="stroke:#000000;stroke-width:0.8;" x="33.2875" xlink:href="#m90afa047ec" y="289.725398"/>
      </g>
     </g>
     <g id="text_17">
      <!-- 20 -->
      <g transform="translate(13.5625 293.524616)scale(0.1 -0.1)">
       <use xlink:href="#DejaVuSans-32"/>
       <use x="63.623047" xlink:href="#DejaVuSans-30"/>
      </g>
     </g>
    </g>
    <g id="ytick_3">
     <g id="line2d_19">
      <g>
       <use style="stroke:#000000;stroke-width:0.8;" x="33.2875" xlink:href="#m90afa047ec" y="245.798125"/>
      </g>
     </g>
     <g id="text_18">
      <!-- 40 -->
      <g transform="translate(13.5625 249.597344)scale(0.1 -0.1)">
       <use xlink:href="#DejaVuSans-34"/>
       <use x="63.623047" xlink:href="#DejaVuSans-30"/>
      </g>
     </g>
    </g>
    <g id="ytick_4">
     <g id="line2d_20">
      <g>
       <use style="stroke:#000000;stroke-width:0.8;" x="33.2875" xlink:href="#m90afa047ec" y="201.870852"/>
      </g>
     </g>
     <g id="text_19">
      <!-- 60 -->
      <g transform="translate(13.5625 205.670071)scale(0.1 -0.1)">
       <use xlink:href="#DejaVuSans-36"/>
       <use x="63.623047" xlink:href="#DejaVuSans-30"/>
      </g>
     </g>
    </g>
    <g id="ytick_5">
     <g id="line2d_21">
      <g>
       <use style="stroke:#000000;stroke-width:0.8;" x="33.2875" xlink:href="#m90afa047ec" y="157.94358"/>
      </g>
     </g>
     <g id="text_20">
      <!-- 80 -->
      <g transform="translate(13.5625 161.742798)scale(0.1 -0.1)">
       <use xlink:href="#DejaVuSans-38"/>
       <use x="63.623047" xlink:href="#DejaVuSans-30"/>
      </g>
     </g>
    </g>
    <g id="ytick_6">
     <g id="line2d_22">
      <g>
       <use style="stroke:#000000;stroke-width:0.8;" x="33.2875" xlink:href="#m90afa047ec" y="114.016307"/>
      </g>
     </g>
     <g id="text_21">
      <!-- 100 -->
      <g transform="translate(7.2 117.815526)scale(0.1 -0.1)">
       <use xlink:href="#DejaVuSans-31"/>
       <use x="63.623047" xlink:href="#DejaVuSans-30"/>
       <use x="127.246094" xlink:href="#DejaVuSans-30"/>
      </g>
     </g>
    </g>
    <g id="ytick_7">
     <g id="line2d_23">
      <g>
       <use style="stroke:#000000;stroke-width:0.8;" x="33.2875" xlink:href="#m90afa047ec" y="70.089034"/>
      </g>
     </g>
     <g id="text_22">
      <!-- 120 -->
      <g transform="translate(7.2 73.888253)scale(0.1 -0.1)">
       <use xlink:href="#DejaVuSans-31"/>
       <use x="63.623047" xlink:href="#DejaVuSans-32"/>
       <use x="127.246094" xlink:href="#DejaVuSans-30"/>
      </g>
     </g>
    </g>
    <g id="ytick_8">
     <g id="line2d_24">
      <g>
       <use style="stroke:#000000;stroke-width:0.8;" x="33.2875" xlink:href="#m90afa047ec" y="26.161761"/>
      </g>
     </g>
     <g id="text_23">
      <!-- 140 -->
      <g transform="translate(7.2 29.96098)scale(0.1 -0.1)">
       <use xlink:href="#DejaVuSans-31"/>
       <use x="63.623047" xlink:href="#DejaVuSans-34"/>
       <use x="127.246094" xlink:href="#DejaVuSans-30"/>
      </g>
     </g>
    </g>
   </g>
   <g id="line2d_25">
    <path clip-path="url(#p3d4a026f89)" d="M 61.1875 331.989753 
L 64.764423 332.052071 
L 66.552885 331.820317 
L 68.341346 331.116253 
L 70.129808 330.240909 
L 71.918269 329.12841 
L 75.495192 327.242419 
L 77.283654 326.729863 
L 79.072115 326.423829 
L 86.225962 324.451229 
L 88.014423 324.320406 
L 93.379808 324.727584 
L 100.533654 326.173841 
L 104.110577 327.085111 
L 105.899038 327.147072 
L 107.6875 327.097119 
L 109.475962 326.744423 
L 111.264423 326.149899 
L 113.052885 325.714662 
L 114.841346 325.441268 
L 116.629808 324.87106 
L 118.418269 324.132971 
L 120.206731 323.642592 
L 123.783654 323.461138 
L 125.572115 323.316299 
L 127.360577 323.482839 
L 129.149038 323.925097 
L 136.302885 327.567549 
L 141.668269 329.525439 
L 145.245192 331.345821 
L 147.033654 331.725226 
L 150.610577 331.88941 
L 152.399038 331.877932 
L 155.975962 330.360279 
L 159.552885 329.694621 
L 161.341346 329.238043 
L 163.129808 329.147282 
L 168.495192 327.712332 
L 172.072115 326.737294 
L 173.860577 326.091833 
L 175.649038 325.60918 
L 182.802885 326.003556 
L 186.379808 326.698193 
L 189.956731 327.589095 
L 191.745192 327.812999 
L 193.533654 327.772362 
L 195.322115 327.524962 
L 198.899038 326.058355 
L 202.475962 323.788792 
L 204.264423 323.425408 
L 207.841346 323.831494 
L 213.206731 324.75191 
L 214.995192 324.622859 
L 216.783654 325.071368 
L 218.572115 325.94462 
L 222.149038 328.050418 
L 225.725962 330.112271 
L 227.514423 331.048516 
L 229.302885 331.629222 
L 232.879808 332.194567 
L 234.668269 332.255171 
L 238.245192 331.82354 
L 240.033654 331.297874 
L 241.822115 330.512055 
L 243.610577 329.887292 
L 245.399038 329.825719 
L 256.129808 330.286311 
L 259.706731 329.879955 
L 261.495192 329.407124 
L 263.283654 329.344948 
L 265.072115 329.487789 
L 266.860577 329.292493 
L 270.4375 328.414511 
L 275.802885 327.219458 
L 277.591346 326.505529 
L 279.379808 326.055583 
L 281.168269 325.915143 
L 284.745192 324.723236 
L 286.533654 324.750742 
L 290.110577 325.234921 
L 291.899038 325.575711 
L 293.6875 325.747006 
L 297.264423 325.030186 
L 299.052885 324.240341 
L 300.841346 323.729313 
L 307.995192 324.521313 
L 309.783654 324.381144 
L 313.360577 326.04272 
L 315.149038 326.844476 
L 316.9375 328.031816 
L 322.302885 330.715702 
L 324.091346 331.457212 
L 325.879808 331.200734 
L 329.456731 329.815418 
L 331.245192 329.402804 
L 333.033654 329.165902 
L 334.822115 329.145248 
L 340.1875 329.627956 
L 343.764423 329.744488 
L 345.552885 329.389019 
L 350.918269 328.929442 
L 352.706731 328.905244 
L 354.495192 328.574164 
L 356.283654 327.861101 
L 361.649038 326.843671 
L 363.4375 326.358378 
L 365.225962 325.542047 
L 370.591346 324.737365 
L 372.379808 324.15375 
L 374.168269 323.975347 
L 381.322115 325.405887 
L 384.899038 325.787262 
L 388.475962 325.138182 
L 390.264423 325.178652 
L 392.052885 325.341371 
L 393.841346 324.981301 
L 395.629808 324.454426 
L 397.418269 324.054824 
L 399.206731 323.864007 
L 404.572115 323.958483 
L 406.360577 324.126251 
L 408.149038 324.730822 
L 411.725962 326.384285 
L 413.514423 326.756258 
L 417.091346 327.13442 
L 418.879808 327.765384 
L 424.245192 330.123842 
L 427.822115 331.464229 
L 429.610577 331.585369 
L 431.399038 331.854492 
L 433.1875 331.694313 
L 434.975962 331.31772 
L 436.764423 330.823194 
L 438.552885 330.639942 
L 442.129808 330.912285 
L 445.706731 331.439893 
L 447.495192 331.592114 
L 451.072115 331.469847 
L 452.860577 330.905455 
L 454.649038 330.145701 
L 456.4375 329.596091 
L 458.225962 329.193384 
L 460.014423 328.122022 
L 461.802885 327.22231 
L 463.591346 326.565255 
L 467.168269 325.716775 
L 470.745192 324.814621 
L 472.533654 324.053281 
L 474.322115 324.251813 
L 476.110577 324.993092 
L 477.899038 325.472319 
L 479.6875 326.231744 
L 488.629808 330.966907 
L 490.418269 331.683569 
L 492.206731 331.841029 
L 495.783654 331.181194 
L 501.149038 329.055497 
L 502.9375 328.694439 
L 504.725962 328.456816 
L 513.668269 326.238641 
L 519.033654 324.116434 
L 524.399038 325.944734 
L 527.975962 326.850669 
L 531.552885 327.703816 
L 533.341346 327.98637 
L 538.706731 327.758197 
L 540.495192 327.115545 
L 542.283654 326.593947 
L 547.649038 326.360069 
L 549.4375 326.021962 
L 553.014423 324.037896 
L 554.802885 323.54385 
L 558.379808 324.551962 
L 560.168269 324.818548 
L 565.533654 327.737119 
L 569.110577 329.049493 
L 572.6875 330.479176 
L 574.475962 331.47488 
L 578.052885 332.002255 
L 579.841346 332.034267 
L 581.629808 331.906101 
L 586.995192 330.254791 
L 590.572115 329.408443 
L 592.360577 329.264027 
L 594.149038 329.405368 
L 595.9375 329.191981 
L 597.725962 328.720167 
L 599.514423 328.110099 
L 601.302885 327.760982 
L 603.091346 327.10321 
L 604.879808 325.997658 
L 606.668269 325.653163 
L 608.456731 325.64683 
L 612.033654 326.352378 
L 619.1875 328.116534 
L 619.1875 328.116534 
" style="fill:none;stroke:#1f77b4;stroke-linecap:square;stroke-width:1.5;"/>
   </g>
   <g id="line2d_26">
    <path clip-path="url(#p3d4a026f89)" d="M 61.1875 37.14358 
L 619.1875 37.14358 
L 619.1875 37.14358 
" style="fill:none;stroke:#ff7f0e;stroke-linecap:square;stroke-width:1.5;"/>
   </g>
   <g id="line2d_27">
    <path clip-path="url(#p3d4a026f89)" d="M 61.1875 118.572129 
L 62.975962 118.366438 
L 64.764423 119.548455 
L 66.552885 122.132523 
L 68.341346 127.723706 
L 70.129808 128.106786 
L 71.918269 132.73597 
L 73.706731 136.105285 
L 75.495192 132.167793 
L 77.283654 127.344631 
L 79.072115 130.962618 
L 80.860577 131.934905 
L 82.649038 134.106687 
L 84.4375 130.710125 
L 86.225962 138.631643 
L 88.014423 125.365956 
L 89.802885 125.185786 
L 91.591346 125.593297 
L 93.379808 123.34115 
L 95.168269 123.901183 
L 96.956731 123.629788 
L 98.745192 121.67268 
L 100.533654 119.978504 
L 102.322115 120.779184 
L 104.110577 122.172086 
L 105.899038 122.784502 
L 107.6875 124.804231 
L 109.475962 128.23506 
L 111.264423 127.54382 
L 113.052885 127.64473 
L 114.841346 133.531991 
L 116.629808 135.368282 
L 118.418269 133.05968 
L 120.206731 87.296569 
L 123.783654 88.467895 
L 125.572115 88.074091 
L 127.360577 86.574245 
L 129.149038 74.614225 
L 130.9375 76.65128 
L 132.725962 74.081639 
L 134.514423 71.760118 
L 136.302885 75.384306 
L 138.091346 74.071502 
L 139.879808 73.086463 
L 143.456731 68.03115 
L 145.245192 67.912377 
L 147.033654 118.175979 
L 148.822115 119.012702 
L 150.610577 118.874676 
L 152.399038 124.336293 
L 154.1875 126.800617 
L 155.975962 121.542244 
L 157.764423 122.137584 
L 159.552885 124.539337 
L 161.341346 122.141254 
L 163.129808 120.849546 
L 164.918269 129.20842 
L 166.706731 127.999826 
L 168.495192 128.848732 
L 170.283654 130.601641 
L 172.072115 131.713814 
L 173.860577 134.320756 
L 175.649038 123.670407 
L 177.4375 123.842534 
L 179.225962 124.471589 
L 182.802885 121.956676 
L 184.591346 122.281677 
L 186.379808 119.874578 
L 188.168269 120.359909 
L 189.956731 122.229797 
L 191.745192 123.138525 
L 193.533654 124.411096 
L 195.322115 126.987356 
L 197.110577 131.290283 
L 198.899038 132.248226 
L 200.6875 144.963917 
L 202.475962 140.97959 
L 204.264423 87.683989 
L 206.052885 86.956823 
L 207.841346 85.635472 
L 209.629808 85.563819 
L 211.418269 83.291346 
L 213.206731 84.758951 
L 214.995192 85.356855 
L 216.783654 75.537012 
L 218.572115 73.548518 
L 220.360577 69.114988 
L 222.149038 67.790001 
L 223.9375 68.19277 
L 225.725962 67.641451 
L 227.514423 66.542481 
L 229.302885 117.011775 
L 231.091346 116.230517 
L 232.879808 117.9354 
L 234.668269 118.265092 
L 236.456731 119.073329 
L 238.245192 120.916121 
L 240.033654 125.798754 
L 241.822115 124.643649 
L 245.399038 120.854087 
L 247.1875 120.335192 
L 248.975962 120.244872 
L 250.764423 121.253338 
L 252.552885 118.963403 
L 254.341346 119.407261 
L 256.129808 120.184732 
L 257.918269 120.132199 
L 259.706731 121.590889 
L 261.495192 122.746346 
L 263.283654 120.326864 
L 265.072115 121.334106 
L 266.860577 127.328963 
L 268.649038 126.396826 
L 270.4375 126.727389 
L 272.225962 126.88782 
L 274.014423 128.370607 
L 275.802885 129.694354 
L 277.591346 132.730021 
L 279.379808 124.247264 
L 281.168269 127.69046 
L 282.956731 131.978054 
L 284.745192 128.812856 
L 286.533654 125.8908 
L 288.322115 124.717899 
L 290.110577 123.218121 
L 291.899038 122.947815 
L 293.6875 124.509393 
L 295.475962 127.680557 
L 297.264423 135.313621 
L 299.052885 135.853898 
L 300.841346 86.927163 
L 302.629808 86.490478 
L 304.418269 85.647537 
L 307.995192 85.696534 
L 309.783654 86.915634 
L 311.572115 74.741225 
L 313.360577 75.577865 
L 315.149038 67.202201 
L 316.9375 71.713702 
L 318.725962 68.740705 
L 320.514423 71.002437 
L 322.302885 70.652402 
L 324.091346 119.666893 
L 325.879808 124.634165 
L 327.668269 125.020479 
L 329.456731 124.853379 
L 331.245192 121.462581 
L 333.033654 121.726972 
L 334.822115 120.271466 
L 336.610577 120.373314 
L 338.399038 120.05877 
L 340.1875 120.679614 
L 341.975962 118.995895 
L 343.764423 122.461629 
L 345.552885 121.019009 
L 347.341346 120.815898 
L 349.129808 122.136277 
L 350.918269 121.524666 
L 352.706731 122.326686 
L 354.495192 130.531345 
L 356.283654 126.133222 
L 358.072115 127.734279 
L 359.860577 127.069432 
L 361.649038 130.371602 
L 363.4375 134.19213 
L 365.225962 136.716226 
L 367.014423 126.321637 
L 368.802885 127.685332 
L 370.591346 130.211255 
L 372.379808 130.603601 
L 374.168269 124.58567 
L 375.956731 123.244211 
L 377.745192 124.409689 
L 379.533654 124.014778 
L 381.322115 125.142151 
L 383.110577 122.982116 
L 384.899038 125.482367 
L 386.6875 126.271182 
L 388.475962 125.837982 
L 390.264423 125.737809 
L 392.052885 124.641487 
L 393.841346 133.463338 
L 395.629808 131.696739 
L 397.418269 132.698317 
L 399.206731 86.002348 
L 400.995192 85.884363 
L 402.783654 85.901656 
L 404.572115 86.946433 
L 406.360577 88.486914 
L 408.149038 78.621275 
L 409.9375 76.835573 
L 411.725962 79.579201 
L 413.514423 80.836658 
L 415.302885 80.637703 
L 417.091346 78.296291 
L 418.879808 74.880073 
L 420.668269 72.171635 
L 422.456731 72.306847 
L 424.245192 72.663451 
L 426.033654 70.572404 
L 427.822115 118.439331 
L 429.610577 116.3512 
L 431.399038 117.680778 
L 433.1875 121.397481 
L 434.975962 120.543045 
L 436.764423 120.590451 
L 438.552885 119.266754 
L 440.341346 118.326908 
L 442.129808 116.584875 
L 443.918269 116.860979 
L 445.706731 117.830468 
L 447.495192 119.551622 
L 449.283654 119.604021 
L 451.072115 120.63613 
L 452.860577 125.838652 
L 454.649038 126.262368 
L 456.4375 123.757291 
L 458.225962 135.033897 
L 460.014423 136.751214 
L 461.802885 134.202352 
L 463.591346 130.620894 
L 465.379808 129.327159 
L 467.168269 131.196294 
L 468.956731 131.570358 
L 470.745192 133.536532 
L 472.533654 138.546869 
L 474.322115 78.876081 
L 476.110577 77.886333 
L 477.899038 78.277909 
L 479.6875 73.317155 
L 481.475962 72.065145 
L 483.264423 71.244055 
L 485.052885 68.592088 
L 486.841346 66.790936 
L 488.629808 66.480112 
L 490.418269 118.079442 
L 492.206731 119.72958 
L 493.995192 120.256167 
L 495.783654 124.445029 
L 497.572115 127.642284 
L 499.360577 128.351956 
L 501.149038 124.126363 
L 504.725962 123.955459 
L 506.514423 131.356104 
L 508.302885 128.93813 
L 510.091346 128.404003 
L 511.879808 128.880872 
L 513.668269 132.324789 
L 517.245192 133.235879 
L 519.033654 123.249439 
L 520.822115 120.243431 
L 526.1875 121.291527 
L 527.975962 120.322524 
L 529.764423 120.192624 
L 531.552885 120.931437 
L 533.341346 121.972176 
L 535.129808 121.752929 
L 536.918269 122.321759 
L 538.706731 125.682595 
L 540.495192 129.951053 
L 542.283654 126.900706 
L 544.072115 125.575602 
L 545.860577 124.691507 
L 547.649038 126.862383 
L 549.4375 133.300477 
L 551.225962 140.530437 
L 553.014423 137.484782 
L 554.802885 84.525711 
L 556.591346 82.903339 
L 558.379808 84.995843 
L 560.168269 84.213479 
L 561.956731 71.852818 
L 563.745192 72.465367 
L 565.533654 74.03105 
L 567.322115 74.820586 
L 569.110577 72.485509 
L 570.899038 70.9985 
L 572.6875 65.698502 
L 574.475962 117.251834 
L 576.264423 116.205566 
L 578.052885 118.955444 
L 579.841346 118.453122 
L 581.629808 121.074508 
L 583.418269 125.645462 
L 585.206731 124.191681 
L 586.995192 120.91964 
L 588.783654 121.487197 
L 590.572115 121.802864 
L 592.360577 121.023098 
L 594.149038 120.06931 
L 595.9375 127.097751 
L 597.725962 130.55638 
L 599.514423 126.212416 
L 601.302885 131.481597 
L 603.091346 134.059382 
L 604.879808 136.375524 
L 606.668269 124.781642 
L 608.456731 124.076796 
L 610.245192 122.31819 
L 613.822115 119.436669 
L 615.610577 119.630547 
L 617.399038 119.975153 
L 619.1875 121.655169 
L 619.1875 121.655169 
" style="fill:none;stroke:#2ca02c;stroke-linecap:square;stroke-width:1.5;"/>
   </g>
   <g id="line2d_28">
    <path clip-path="url(#p3d4a026f89)" d="M 61.1875 48.125398 
L 118.418269 48.125398 
L 120.206731 333.65267 
L 145.245192 333.65267 
L 147.033654 48.125398 
L 202.475962 48.125398 
L 204.264423 333.65267 
L 227.514423 333.65267 
L 229.302885 48.125398 
L 299.052885 48.125398 
L 300.841346 333.65267 
L 322.302885 333.65267 
L 324.091346 48.125398 
L 397.418269 48.125398 
L 399.206731 333.65267 
L 426.033654 333.65267 
L 427.822115 48.125398 
L 472.533654 48.125398 
L 474.322115 333.65267 
L 488.629808 333.65267 
L 490.418269 48.125398 
L 553.014423 48.125398 
L 554.802885 333.65267 
L 572.6875 333.65267 
L 574.475962 48.125398 
L 619.1875 48.125398 
L 619.1875 48.125398 
" style="fill:none;stroke:#d62728;stroke-linecap:square;stroke-width:1.5;"/>
   </g>
   <g id="line2d_29">
    <path clip-path="url(#p3d4a026f89)" d="M 61.1875 118.529533 
L 62.975962 118.323792 
L 64.764423 119.50616 
L 66.552885 122.090983 
L 68.341346 127.683791 
L 70.129808 128.066988 
L 71.918269 132.697513 
L 73.706731 136.067783 
L 75.495192 132.129168 
L 77.283654 127.304615 
L 79.072115 130.923658 
L 80.860577 131.896214 
L 82.649038 134.068615 
L 84.4375 130.671065 
L 86.225962 138.594861 
L 88.014423 125.325354 
L 89.802885 125.145134 
L 91.591346 125.552779 
L 93.379808 123.299978 
L 95.168269 123.860162 
L 96.956731 123.588683 
L 98.745192 121.631005 
L 100.533654 119.936327 
L 102.322115 120.737258 
L 104.110577 122.130563 
L 105.899038 122.743162 
L 107.6875 124.763478 
L 109.475962 128.195313 
L 111.264423 127.503855 
L 113.052885 127.604799 
L 114.841346 133.493752 
L 116.629808 135.330562 
L 118.418269 133.021307 
L 120.206731 333.65267 
L 145.245192 333.65267 
L 147.033654 118.133265 
L 148.822115 118.97024 
L 150.610577 118.83218 
L 152.399038 124.295407 
L 154.1875 126.760451 
L 155.975962 121.500536 
L 157.764423 122.09606 
L 159.552885 124.498501 
L 161.341346 122.099713 
L 163.129808 120.807637 
L 164.918269 129.16894 
L 166.706731 127.959995 
L 168.495192 128.809152 
L 170.283654 130.562563 
L 172.072115 131.675056 
L 173.860577 134.282752 
L 175.649038 123.629319 
L 177.4375 123.801496 
L 179.225962 124.430736 
L 182.802885 121.915085 
L 184.591346 122.24017 
L 186.379808 119.832384 
L 188.168269 120.317849 
L 189.956731 122.188274 
L 191.745192 123.09727 
L 193.533654 124.370226 
L 195.322115 126.94724 
L 197.110577 131.25139 
L 198.899038 132.209618 
L 200.6875 144.928895 
L 202.475962 140.943462 
L 204.264423 333.65267 
L 227.514423 333.65267 
L 229.302885 116.968726 
L 231.091346 116.187233 
L 232.879808 117.892619 
L 234.668269 118.222412 
L 236.456731 119.0309 
L 238.245192 120.874212 
L 240.033654 125.758286 
L 241.822115 124.602846 
L 245.399038 120.812161 
L 247.1875 120.293132 
L 248.975962 120.202779 
L 250.764423 121.211529 
L 252.552885 118.920925 
L 254.341346 119.364916 
L 256.129808 120.142622 
L 257.918269 120.090072 
L 259.706731 121.549181 
L 261.495192 122.704973 
L 263.283654 120.284787 
L 265.072115 121.292331 
L 266.860577 127.288931 
L 268.649038 126.356542 
L 270.4375 126.687189 
L 272.225962 126.847671 
L 274.014423 128.330876 
L 275.802885 129.655025 
L 277.591346 132.691548 
L 279.379808 124.206344 
L 281.168269 127.650545 
L 282.956731 131.939363 
L 284.745192 128.773276 
L 286.533654 125.850365 
L 288.322115 124.677113 
L 290.110577 123.176899 
L 291.899038 122.906509 
L 293.6875 124.468556 
L 295.475962 127.640625 
L 297.264423 135.275884 
L 299.052885 135.816329 
L 300.841346 333.65267 
L 322.302885 333.65267 
L 324.091346 119.624632 
L 325.879808 124.593345 
L 327.668269 124.979793 
L 329.456731 124.812643 
L 331.245192 121.420857 
L 333.033654 121.685314 
L 334.822115 120.229372 
L 336.610577 120.331254 
L 338.399038 120.016626 
L 340.1875 120.637655 
L 341.975962 118.953433 
L 343.764423 122.420189 
L 345.552885 120.977133 
L 347.341346 120.773972 
L 349.129808 122.094736 
L 350.918269 121.482941 
L 352.706731 122.285196 
L 354.495192 130.492251 
L 356.283654 126.092855 
L 358.072115 127.694364 
L 359.860577 127.029332 
L 361.649038 130.332457 
L 363.4375 134.154092 
L 365.225962 136.678891 
L 367.014423 126.28132 
L 368.802885 127.645417 
L 370.591346 130.172077 
L 372.379808 130.564524 
L 374.168269 124.54485 
L 375.956731 123.202989 
L 377.745192 124.368819 
L 379.533654 123.973791 
L 381.322115 125.101498 
L 383.110577 122.940827 
L 384.899038 125.441815 
L 386.6875 126.230848 
L 388.475962 125.797531 
L 390.264423 125.697324 
L 392.052885 124.600684 
L 393.841346 133.425082 
L 395.629808 131.65798 
L 397.418269 132.659843 
L 399.206731 333.65267 
L 426.033654 333.65267 
L 427.822115 118.396701 
L 429.610577 116.30795 
L 431.399038 117.637914 
L 433.1875 121.355723 
L 434.975962 120.501036 
L 436.764423 120.548458 
L 438.552885 119.224376 
L 440.341346 118.284262 
L 442.129808 116.541709 
L 443.918269 116.81788 
L 445.706731 117.787654 
L 447.495192 119.509327 
L 449.283654 119.561726 
L 451.072115 120.594154 
L 452.860577 125.798201 
L 454.649038 126.222034 
L 456.4375 123.716237 
L 458.225962 134.996077 
L 460.014423 136.71388 
L 461.802885 134.164314 
L 463.591346 130.581834 
L 465.379808 129.287713 
L 467.168269 131.157384 
L 468.956731 131.531549 
L 470.745192 133.49831 
L 472.533654 138.510054 
L 474.322115 333.65267 
L 488.629808 333.65267 
L 490.418269 118.036712 
L 492.206731 119.687319 
L 493.995192 120.214073 
L 495.783654 124.404176 
L 497.572115 127.602352 
L 499.360577 128.312243 
L 501.149038 124.085409 
L 504.725962 123.914455 
L 506.514423 131.317245 
L 508.302885 128.898584 
L 510.091346 128.36429 
L 511.879808 128.841309 
L 513.668269 132.286198 
L 517.245192 133.197556 
L 519.033654 123.208217 
L 520.822115 120.201338 
L 526.1875 121.249735 
L 527.975962 120.280447 
L 529.764423 120.150514 
L 531.552885 120.889545 
L 533.341346 121.930602 
L 535.129808 121.711271 
L 536.918269 122.280269 
L 538.706731 125.642094 
L 540.495192 129.911792 
L 542.283654 126.860557 
L 544.072115 125.535067 
L 545.860577 124.65072 
L 547.649038 126.822217 
L 549.4375 133.262171 
L 551.225962 140.494192 
L 553.014423 137.447665 
L 554.802885 333.65267 
L 572.6875 333.65267 
L 574.475962 117.208836 
L 576.264423 116.162266 
L 578.052885 118.912965 
L 579.841346 118.410509 
L 581.629808 121.032649 
L 583.418269 125.60496 
L 585.206731 124.150744 
L 586.995192 120.877748 
L 588.783654 121.445473 
L 590.572115 121.761223 
L 592.360577 120.981239 
L 594.149038 120.027167 
L 595.9375 127.057652 
L 597.725962 130.517286 
L 599.514423 126.172065 
L 601.302885 131.442771 
L 603.091346 134.021293 
L 604.879808 136.338089 
L 606.668269 124.740873 
L 608.456731 124.035825 
L 610.245192 122.2767 
L 613.822115 119.394341 
L 615.610577 119.588269 
L 617.399038 119.932976 
L 619.1875 121.613494 
L 619.1875 121.613494 
" style="fill:none;stroke:#9467bd;stroke-linecap:square;stroke-width:1.5;"/>
   </g>
   <g id="line2d_30">
    <path clip-path="url(#p3d4a026f89)" d="M 61.1875 333.65267 
L 619.1875 333.65267 
L 619.1875 333.65267 
" style="fill:none;stroke:#8c564b;stroke-linecap:square;stroke-width:1.5;"/>
   </g>
   <g id="line2d_31">
    <path clip-path="url(#p3d4a026f89)" d="M 61.1875 333.65267 
L 619.1875 333.65267 
L 619.1875 333.65267 
" style="fill:none;stroke:#e377c2;stroke-linecap:square;stroke-width:1.5;"/>
   </g>
   <g id="line2d_32">
    <path clip-path="url(#p3d4a026f89)" d="M 61.1875 327.11943 
L 619.1875 327.117957 
L 619.1875 327.117957 
" style="fill:none;stroke:#7f7f7f;stroke-linecap:square;stroke-width:1.5;"/>
   </g>
   <g id="line2d_33">
    <path clip-path="url(#p3d4a026f89)" d="M 61.1875 258.787917 
L 62.975962 258.898881 
L 64.764423 258.261708 
L 66.552885 256.873145 
L 68.341346 253.889457 
L 70.129808 253.686079 
L 71.918269 251.239174 
L 73.706731 249.470857 
L 75.495192 251.538436 
L 77.283654 254.090834 
L 79.072115 252.17416 
L 80.860577 251.661189 
L 82.649038 250.5185 
L 84.4375 252.307562 
L 86.225962 248.15197 
L 88.014423 255.144166 
L 89.802885 255.24025 
L 91.591346 255.022954 
L 93.379808 256.22575 
L 95.168269 255.926228 
L 96.956731 256.071343 
L 98.745192 257.119799 
L 100.533654 258.030202 
L 102.322115 257.599617 
L 104.110577 256.851931 
L 105.899038 256.523747 
L 107.6875 255.44383 
L 109.475962 253.618004 
L 111.264423 253.985005 
L 113.052885 253.9314 
L 114.841346 250.820443 
L 116.629808 249.856744 
L 118.418269 251.068756 
L 120.206731 276.03166 
L 123.783654 275.369443 
L 125.572115 275.591958 
L 127.360577 276.440596 
L 129.149038 283.27311 
L 130.9375 282.101257 
L 134.514423 284.920526 
L 136.302885 282.829718 
L 138.091346 283.585874 
L 139.879808 284.154152 
L 143.456731 287.082596 
L 145.245192 287.151639 
L 147.033654 259.001668 
L 148.822115 258.550354 
L 150.610577 258.624755 
L 152.399038 255.693709 
L 154.1875 254.380075 
L 155.975962 257.189801 
L 157.764423 256.870431 
L 159.552885 255.585267 
L 161.341346 256.868462 
L 163.129808 257.561805 
L 164.918269 253.101974 
L 166.706731 253.742851 
L 168.495192 253.292567 
L 170.283654 252.364879 
L 172.072115 251.777767 
L 173.860577 250.406103 
L 175.649038 256.049618 
L 177.4375 255.95758 
L 179.225962 255.621445 
L 182.802885 256.967445 
L 184.591346 256.793181 
L 186.379808 258.086137 
L 188.168269 257.825014 
L 189.956731 256.820989 
L 191.745192 256.334201 
L 193.533654 255.653752 
L 195.322115 254.280765 
L 197.110577 252.001212 
L 198.899038 251.496049 
L 200.6875 244.873118 
L 202.475962 246.931697 
L 204.264423 275.812496 
L 206.052885 276.223954 
L 207.841346 276.972712 
L 209.629808 277.013352 
L 211.418269 278.304531 
L 213.206731 277.470179 
L 214.995192 277.130767 
L 216.783654 282.741849 
L 218.572115 283.887486 
L 220.360577 286.453064 
L 222.149038 287.222797 
L 223.9375 286.988665 
L 225.725962 287.309175 
L 227.514423 287.948774 
L 229.302885 259.630656 
L 231.091346 260.053425 
L 232.879808 259.131543 
L 234.668269 258.953568 
L 236.456731 258.517678 
L 238.245192 257.526037 
L 240.033654 254.913465 
L 241.822115 255.529567 
L 245.399038 257.559366 
L 247.1875 257.838311 
L 248.975962 257.886889 
L 250.764423 257.344903 
L 252.552885 258.576931 
L 254.341346 258.337759 
L 256.129808 257.919246 
L 257.918269 257.947507 
L 259.706731 257.163694 
L 261.495192 256.54419 
L 263.283654 257.842793 
L 265.072115 257.301536 
L 266.860577 254.09917 
L 268.649038 254.594941 
L 272.225962 254.3337 
L 275.802885 252.84468 
L 277.591346 251.242324 
L 279.379808 255.741257 
L 281.168269 253.907111 
L 282.956731 251.638441 
L 286.533654 254.864417 
L 288.322115 255.489928 
L 290.110577 256.291596 
L 291.899038 256.436292 
L 293.6875 255.601253 
L 295.475962 253.912373 
L 297.264423 249.88539 
L 299.052885 249.602416 
L 300.841346 276.24074 
L 302.629808 276.488047 
L 304.418269 276.965867 
L 307.995192 276.938071 
L 309.783654 276.247267 
L 311.572115 283.199954 
L 313.360577 282.718343 
L 315.149038 287.564705 
L 316.9375 284.947337 
L 318.725962 286.670359 
L 320.514423 285.358945 
L 322.302885 285.561645 
L 324.091346 258.197939 
L 325.879808 255.534636 
L 327.668269 255.328442 
L 329.456731 255.417614 
L 331.245192 257.232556 
L 333.033654 257.090667 
L 334.822115 257.872595 
L 336.610577 257.817808 
L 338.399038 257.987012 
L 340.1875 257.65313 
L 341.975962 258.559411 
L 343.764423 256.696728 
L 345.552885 257.470764 
L 347.341346 257.579885 
L 349.129808 256.871126 
L 350.918269 257.199235 
L 352.706731 256.769051 
L 354.495192 252.402021 
L 356.283654 254.73528 
L 358.072115 253.883844 
L 359.860577 254.237122 
L 361.649038 252.486442 
L 363.4375 250.473634 
L 365.225962 249.151353 
L 367.014423 254.634965 
L 368.802885 253.909834 
L 370.591346 252.571232 
L 372.379808 252.36384 
L 374.168269 255.560517 
L 375.956731 256.277629 
L 377.745192 255.654506 
L 379.533654 255.865509 
L 381.322115 255.263525 
L 383.110577 256.417927 
L 384.899038 255.082081 
L 386.6875 254.661826 
L 388.475962 254.89256 
L 390.264423 254.94594 
L 392.052885 255.530723 
L 393.841346 250.856538 
L 395.629808 251.786765 
L 397.418269 251.259014 
L 399.206731 276.764574 
L 402.783654 276.821757 
L 404.572115 276.229831 
L 406.360577 275.358651 
L 408.149038 280.971132 
L 409.9375 281.995407 
L 411.725962 280.422728 
L 413.514423 279.703965 
L 415.302885 279.817598 
L 417.091346 281.157318 
L 418.879808 283.11999 
L 420.668269 284.682594 
L 422.456731 284.604448 
L 424.245192 284.398413 
L 426.033654 285.607978 
L 427.822115 258.859553 
L 429.610577 259.988082 
L 431.399038 259.269067 
L 433.1875 257.267511 
L 434.975962 257.72655 
L 436.764423 257.701055 
L 438.552885 258.41345 
L 440.341346 258.920205 
L 442.129808 259.8616 
L 443.918269 259.712221 
L 445.706731 259.188215 
L 447.495192 258.259999 
L 449.283654 258.231797 
L 451.072115 257.676506 
L 452.860577 254.8922 
L 454.649038 254.666526 
L 456.4375 256.003151 
L 458.225962 250.031997 
L 460.014423 249.133071 
L 461.802885 250.468263 
L 463.591346 252.354699 
L 465.379808 253.039085 
L 467.168269 252.050821 
L 468.956731 251.853432 
L 470.745192 250.818056 
L 472.533654 248.196125 
L 474.322115 280.825192 
L 476.110577 281.392384 
L 477.899038 281.167888 
L 479.6875 284.020993 
L 481.475962 284.744159 
L 483.264423 285.219092 
L 485.052885 286.756666 
L 486.841346 287.804095 
L 488.629808 287.985099 
L 490.418269 259.053774 
L 492.206731 258.164191 
L 493.995192 257.880814 
L 495.783654 255.63563 
L 497.572115 253.932699 
L 499.360577 253.555986 
L 501.149038 255.805872 
L 504.725962 255.897214 
L 506.514423 251.966475 
L 508.302885 253.245179 
L 510.091346 253.528379 
L 511.879808 253.275526 
L 513.668269 251.455564 
L 517.245192 250.976149 
L 519.033654 256.274831 
L 520.822115 257.887668 
L 526.1875 257.324392 
L 527.975962 257.845131 
L 529.764423 257.914999 
L 531.552885 257.517809 
L 533.341346 256.959125 
L 535.129808 257.076742 
L 536.918269 256.771699 
L 538.706731 254.975356 
L 540.495192 252.708848 
L 542.283654 254.326847 
L 544.072115 255.032389 
L 545.860577 255.504012 
L 547.649038 254.346921 
L 549.4375 250.942149 
L 551.225962 247.164711 
L 553.014423 248.749941 
L 554.802885 277.602663 
L 556.591346 278.525417 
L 558.379808 277.335663 
L 560.168269 277.78009 
L 561.956731 284.866916 
L 563.745192 284.512846 
L 565.533654 283.6092 
L 567.322115 283.154245 
L 569.110577 284.501213 
L 570.899038 285.361228 
L 572.6875 288.440607 
L 574.475962 259.500857 
L 576.264423 260.06694 
L 578.052885 258.581195 
L 579.841346 258.852104 
L 581.629808 257.440945 
L 583.418269 254.995155 
L 585.206731 255.770975 
L 586.995192 257.524135 
L 588.783654 257.219352 
L 590.572115 257.049956 
L 594.149038 257.981339 
L 595.9375 254.222066 
L 597.725962 252.388791 
L 599.514423 254.693044 
L 601.302885 251.900176 
L 603.091346 250.543343 
L 604.879808 249.329488 
L 606.668269 255.455895 
L 608.456731 255.832364 
L 610.245192 256.773609 
L 613.822115 258.321915 
L 617.399038 258.032004 
L 619.1875 257.129199 
L 619.1875 257.129199 
" style="fill:none;stroke:#bcbd22;stroke-linecap:square;stroke-width:1.5;"/>
   </g>
   <g id="patch_3">
    <path d="M 33.2875 348.478125 
L 33.2875 22.318125 
" style="fill:none;stroke:#000000;stroke-linecap:square;stroke-linejoin:miter;stroke-width:0.8;"/>
   </g>
   <g id="patch_4">
    <path d="M 647.0875 348.478125 
L 647.0875 22.318125 
" style="fill:none;stroke:#000000;stroke-linecap:square;stroke-linejoin:miter;stroke-width:0.8;"/>
   </g>
   <g id="patch_5">
    <path d="M 33.2875 348.478125 
L 647.0875 348.478125 
" style="fill:none;stroke:#000000;stroke-linecap:square;stroke-linejoin:miter;stroke-width:0.8;"/>
   </g>
   <g id="patch_6">
    <path d="M 33.2875 22.318125 
L 647.0875 22.318125 
" style="fill:none;stroke:#000000;stroke-linecap:square;stroke-linejoin:miter;stroke-width:0.8;"/>
   </g>
   <g id="text_24">
    <!-- Cluster near pump 1, 2, 3 in the first half of May 2014 -->
    <defs>
     <path d="M 64.40625 67.28125 
L 64.40625 56.890625 
Q 59.421875 61.53125 53.78125 63.8125 
Q 48.140625 66.109375 41.796875 66.109375 
Q 29.296875 66.109375 22.65625 58.46875 
Q 16.015625 50.828125 16.015625 36.375 
Q 16.015625 21.96875 22.65625 14.328125 
Q 29.296875 6.6875 41.796875 6.6875 
Q 48.140625 6.6875 53.78125 8.984375 
Q 59.421875 11.28125 64.40625 15.921875 
L 64.40625 5.609375 
Q 59.234375 2.09375 53.4375 0.328125 
Q 47.65625 -1.421875 41.21875 -1.421875 
Q 24.65625 -1.421875 15.125 8.703125 
Q 5.609375 18.84375 5.609375 36.375 
Q 5.609375 53.953125 15.125 64.078125 
Q 24.65625 74.21875 41.21875 74.21875 
Q 47.75 74.21875 53.53125 72.484375 
Q 59.328125 70.75 64.40625 67.28125 
z
" id="DejaVuSans-43"/>
     <path d="M 9.421875 75.984375 
L 18.40625 75.984375 
L 18.40625 0 
L 9.421875 0 
z
" id="DejaVuSans-6c"/>
     <path d="M 8.5 21.578125 
L 8.5 54.6875 
L 17.484375 54.6875 
L 17.484375 21.921875 
Q 17.484375 14.15625 20.5 10.265625 
Q 23.53125 6.390625 29.59375 6.390625 
Q 36.859375 6.390625 41.078125 11.03125 
Q 45.3125 15.671875 45.3125 23.6875 
L 45.3125 54.6875 
L 54.296875 54.6875 
L 54.296875 0 
L 45.3125 0 
L 45.3125 8.40625 
Q 42.046875 3.421875 37.71875 1 
Q 33.40625 -1.421875 27.6875 -1.421875 
Q 18.265625 -1.421875 13.375 4.4375 
Q 8.5 10.296875 8.5 21.578125 
z
M 31.109375 56 
z
" id="DejaVuSans-75"/>
     <path d="M 44.28125 53.078125 
L 44.28125 44.578125 
Q 40.484375 46.53125 36.375 47.5 
Q 32.28125 48.484375 27.875 48.484375 
Q 21.1875 48.484375 17.84375 46.4375 
Q 14.5 44.390625 14.5 40.28125 
Q 14.5 37.15625 16.890625 35.375 
Q 19.28125 33.59375 26.515625 31.984375 
L 29.59375 31.296875 
Q 39.15625 29.25 43.1875 25.515625 
Q 47.21875 21.78125 47.21875 15.09375 
Q 47.21875 7.46875 41.1875 3.015625 
Q 35.15625 -1.421875 24.609375 -1.421875 
Q 20.21875 -1.421875 15.453125 -0.5625 
Q 10.6875 0.296875 5.421875 2 
L 5.421875 11.28125 
Q 10.40625 8.6875 15.234375 7.390625 
Q 20.0625 6.109375 24.8125 6.109375 
Q 31.15625 6.109375 34.5625 8.28125 
Q 37.984375 10.453125 37.984375 14.40625 
Q 37.984375 18.0625 35.515625 20.015625 
Q 33.0625 21.96875 24.703125 23.78125 
L 21.578125 24.515625 
Q 13.234375 26.265625 9.515625 29.90625 
Q 5.8125 33.546875 5.8125 39.890625 
Q 5.8125 47.609375 11.28125 51.796875 
Q 16.75 56 26.8125 56 
Q 31.78125 56 36.171875 55.265625 
Q 40.578125 54.546875 44.28125 53.078125 
z
" id="DejaVuSans-73"/>
     <path d="M 41.109375 46.296875 
Q 39.59375 47.171875 37.8125 47.578125 
Q 36.03125 48 33.890625 48 
Q 26.265625 48 22.1875 43.046875 
Q 18.109375 38.09375 18.109375 28.8125 
L 18.109375 0 
L 9.078125 0 
L 9.078125 54.6875 
L 18.109375 54.6875 
L 18.109375 46.1875 
Q 20.953125 51.171875 25.484375 53.578125 
Q 30.03125 56 36.53125 56 
Q 37.453125 56 38.578125 55.875 
Q 39.703125 55.765625 41.0625 55.515625 
z
" id="DejaVuSans-72"/>
     <path id="DejaVuSans-20"/>
     <path d="M 54.890625 33.015625 
L 54.890625 0 
L 45.90625 0 
L 45.90625 32.71875 
Q 45.90625 40.484375 42.875 44.328125 
Q 39.84375 48.1875 33.796875 48.1875 
Q 26.515625 48.1875 22.3125 43.546875 
Q 18.109375 38.921875 18.109375 30.90625 
L 18.109375 0 
L 9.078125 0 
L 9.078125 54.6875 
L 18.109375 54.6875 
L 18.109375 46.1875 
Q 21.34375 51.125 25.703125 53.5625 
Q 30.078125 56 35.796875 56 
Q 45.21875 56 50.046875 50.171875 
Q 54.890625 44.34375 54.890625 33.015625 
z
" id="DejaVuSans-6e"/>
     <path d="M 18.109375 8.203125 
L 18.109375 -20.796875 
L 9.078125 -20.796875 
L 9.078125 54.6875 
L 18.109375 54.6875 
L 18.109375 46.390625 
Q 20.953125 51.265625 25.265625 53.625 
Q 29.59375 56 35.59375 56 
Q 45.5625 56 51.78125 48.09375 
Q 58.015625 40.1875 58.015625 27.296875 
Q 58.015625 14.40625 51.78125 6.484375 
Q 45.5625 -1.421875 35.59375 -1.421875 
Q 29.59375 -1.421875 25.265625 0.953125 
Q 20.953125 3.328125 18.109375 8.203125 
z
M 48.6875 27.296875 
Q 48.6875 37.203125 44.609375 42.84375 
Q 40.53125 48.484375 33.40625 48.484375 
Q 26.265625 48.484375 22.1875 42.84375 
Q 18.109375 37.203125 18.109375 27.296875 
Q 18.109375 17.390625 22.1875 11.75 
Q 26.265625 6.109375 33.40625 6.109375 
Q 40.53125 6.109375 44.609375 11.75 
Q 48.6875 17.390625 48.6875 27.296875 
z
" id="DejaVuSans-70"/>
     <path d="M 11.71875 12.40625 
L 22.015625 12.40625 
L 22.015625 4 
L 14.015625 -11.625 
L 7.71875 -11.625 
L 11.71875 4 
z
" id="DejaVuSans-2c"/>
     <path d="M 54.890625 33.015625 
L 54.890625 0 
L 45.90625 0 
L 45.90625 32.71875 
Q 45.90625 40.484375 42.875 44.328125 
Q 39.84375 48.1875 33.796875 48.1875 
Q 26.515625 48.1875 22.3125 43.546875 
Q 18.109375 38.921875 18.109375 30.90625 
L 18.109375 0 
L 9.078125 0 
L 9.078125 75.984375 
L 18.109375 75.984375 
L 18.109375 46.1875 
Q 21.34375 51.125 25.703125 53.5625 
Q 30.078125 56 35.796875 56 
Q 45.21875 56 50.046875 50.171875 
Q 54.890625 44.34375 54.890625 33.015625 
z
" id="DejaVuSans-68"/>
     <path d="M 37.109375 75.984375 
L 37.109375 68.5 
L 28.515625 68.5 
Q 23.6875 68.5 21.796875 66.546875 
Q 19.921875 64.59375 19.921875 59.515625 
L 19.921875 54.6875 
L 34.71875 54.6875 
L 34.71875 47.703125 
L 19.921875 47.703125 
L 19.921875 0 
L 10.890625 0 
L 10.890625 47.703125 
L 2.296875 47.703125 
L 2.296875 54.6875 
L 10.890625 54.6875 
L 10.890625 58.5 
Q 10.890625 67.625 15.140625 71.796875 
Q 19.390625 75.984375 28.609375 75.984375 
z
" id="DejaVuSans-66"/>
     <path d="M 30.609375 48.390625 
Q 23.390625 48.390625 19.1875 42.75 
Q 14.984375 37.109375 14.984375 27.296875 
Q 14.984375 17.484375 19.15625 11.84375 
Q 23.34375 6.203125 30.609375 6.203125 
Q 37.796875 6.203125 41.984375 11.859375 
Q 46.1875 17.53125 46.1875 27.296875 
Q 46.1875 37.015625 41.984375 42.703125 
Q 37.796875 48.390625 30.609375 48.390625 
z
M 30.609375 56 
Q 42.328125 56 49.015625 48.375 
Q 55.71875 40.765625 55.71875 27.296875 
Q 55.71875 13.875 49.015625 6.21875 
Q 42.328125 -1.421875 30.609375 -1.421875 
Q 18.84375 -1.421875 12.171875 6.21875 
Q 5.515625 13.875 5.515625 27.296875 
Q 5.515625 40.765625 12.171875 48.375 
Q 18.84375 56 30.609375 56 
z
" id="DejaVuSans-6f"/>
    </defs>
    <g transform="translate(178.084375 16.318125)scale(0.12 -0.12)">
     <use xlink:href="#DejaVuSans-43"/>
     <use x="69.824219" xlink:href="#DejaVuSans-6c"/>
     <use x="97.607422" xlink:href="#DejaVuSans-75"/>
     <use x="160.986328" xlink:href="#DejaVuSans-73"/>
     <use x="213.085938" xlink:href="#DejaVuSans-74"/>
     <use x="252.294922" xlink:href="#DejaVuSans-65"/>
     <use x="313.818359" xlink:href="#DejaVuSans-72"/>
     <use x="354.931641" xlink:href="#DejaVuSans-20"/>
     <use x="386.71875" xlink:href="#DejaVuSans-6e"/>
     <use x="450.097656" xlink:href="#DejaVuSans-65"/>
     <use x="511.621094" xlink:href="#DejaVuSans-61"/>
     <use x="572.900391" xlink:href="#DejaVuSans-72"/>
     <use x="614.013672" xlink:href="#DejaVuSans-20"/>
     <use x="645.800781" xlink:href="#DejaVuSans-70"/>
     <use x="709.277344" xlink:href="#DejaVuSans-75"/>
     <use x="772.65625" xlink:href="#DejaVuSans-6d"/>
     <use x="870.068359" xlink:href="#DejaVuSans-70"/>
     <use x="933.544922" xlink:href="#DejaVuSans-20"/>
     <use x="965.332031" xlink:href="#DejaVuSans-31"/>
     <use x="1028.955078" xlink:href="#DejaVuSans-2c"/>
     <use x="1060.742188" xlink:href="#DejaVuSans-20"/>
     <use x="1092.529297" xlink:href="#DejaVuSans-32"/>
     <use x="1156.152344" xlink:href="#DejaVuSans-2c"/>
     <use x="1187.939453" xlink:href="#DejaVuSans-20"/>
     <use x="1219.726562" xlink:href="#DejaVuSans-33"/>
     <use x="1283.349609" xlink:href="#DejaVuSans-20"/>
     <use x="1315.136719" xlink:href="#DejaVuSans-69"/>
     <use x="1342.919922" xlink:href="#DejaVuSans-6e"/>
     <use x="1406.298828" xlink:href="#DejaVuSans-20"/>
     <use x="1438.085938" xlink:href="#DejaVuSans-74"/>
     <use x="1477.294922" xlink:href="#DejaVuSans-68"/>
     <use x="1540.673828" xlink:href="#DejaVuSans-65"/>
     <use x="1602.197266" xlink:href="#DejaVuSans-20"/>
     <use x="1633.984375" xlink:href="#DejaVuSans-66"/>
     <use x="1669.189453" xlink:href="#DejaVuSans-69"/>
     <use x="1696.972656" xlink:href="#DejaVuSans-72"/>
     <use x="1738.085938" xlink:href="#DejaVuSans-73"/>
     <use x="1790.185547" xlink:href="#DejaVuSans-74"/>
     <use x="1829.394531" xlink:href="#DejaVuSans-20"/>
     <use x="1861.181641" xlink:href="#DejaVuSans-68"/>
     <use x="1924.560547" xlink:href="#DejaVuSans-61"/>
     <use x="1985.839844" xlink:href="#DejaVuSans-6c"/>
     <use x="2013.623047" xlink:href="#DejaVuSans-66"/>
     <use x="2048.828125" xlink:href="#DejaVuSans-20"/>
     <use x="2080.615234" xlink:href="#DejaVuSans-6f"/>
     <use x="2141.796875" xlink:href="#DejaVuSans-66"/>
     <use x="2177.001953" xlink:href="#DejaVuSans-20"/>
     <use x="2208.789062" xlink:href="#DejaVuSans-4d"/>
     <use x="2295.068359" xlink:href="#DejaVuSans-61"/>
     <use x="2356.347656" xlink:href="#DejaVuSans-79"/>
     <use x="2415.527344" xlink:href="#DejaVuSans-20"/>
     <use x="2447.314453" xlink:href="#DejaVuSans-32"/>
     <use x="2510.9375" xlink:href="#DejaVuSans-30"/>
     <use x="2574.560547" xlink:href="#DejaVuSans-31"/>
     <use x="2638.183594" xlink:href="#DejaVuSans-34"/>
    </g>
   </g>
   <g id="legend_1">
    <g id="patch_7">
     <path d="M 562.0175 211.34525 
L 761.43625 211.34525 
Q 763.43625 211.34525 763.43625 209.34525 
L 763.43625 78.242125 
Q 763.43625 76.242125 761.43625 76.242125 
L 562.0175 76.242125 
Q 560.0175 76.242125 560.0175 78.242125 
L 560.0175 209.34525 
Q 560.0175 211.34525 562.0175 211.34525 
z
" style="fill:#ffffff;opacity:0.8;stroke:#cccccc;stroke-linejoin:miter;"/>
    </g>
    <g id="line2d_34">
     <path d="M 564.0175 84.340562 
L 584.0175 84.340562 
" style="fill:none;stroke:#1f77b4;stroke-linecap:square;stroke-width:1.5;"/>
    </g>
    <g id="line2d_35"/>
    <g id="text_25">
     <!-- Level of tank 1 (meters) -->
     <defs>
      <path d="M 9.8125 72.90625 
L 19.671875 72.90625 
L 19.671875 8.296875 
L 55.171875 8.296875 
L 55.171875 0 
L 9.8125 0 
z
" id="DejaVuSans-4c"/>
      <path d="M 2.984375 54.6875 
L 12.5 54.6875 
L 29.59375 8.796875 
L 46.6875 54.6875 
L 56.203125 54.6875 
L 35.6875 0 
L 23.484375 0 
z
" id="DejaVuSans-76"/>
      <path d="M 9.078125 75.984375 
L 18.109375 75.984375 
L 18.109375 31.109375 
L 44.921875 54.6875 
L 56.390625 54.6875 
L 27.390625 29.109375 
L 57.625 0 
L 45.90625 0 
L 18.109375 26.703125 
L 18.109375 0 
L 9.078125 0 
z
" id="DejaVuSans-6b"/>
      <path d="M 31 75.875 
Q 24.46875 64.65625 21.28125 53.65625 
Q 18.109375 42.671875 18.109375 31.390625 
Q 18.109375 20.125 21.3125 9.0625 
Q 24.515625 -2 31 -13.1875 
L 23.1875 -13.1875 
Q 15.875 -1.703125 12.234375 9.375 
Q 8.59375 20.453125 8.59375 31.390625 
Q 8.59375 42.28125 12.203125 53.3125 
Q 15.828125 64.359375 23.1875 75.875 
z
" id="DejaVuSans-28"/>
      <path d="M 8.015625 75.875 
L 15.828125 75.875 
Q 23.140625 64.359375 26.78125 53.3125 
Q 30.421875 42.28125 30.421875 31.390625 
Q 30.421875 20.453125 26.78125 9.375 
Q 23.140625 -1.703125 15.828125 -13.1875 
L 8.015625 -13.1875 
Q 14.5 -2 17.703125 9.0625 
Q 20.90625 20.125 20.90625 31.390625 
Q 20.90625 42.671875 17.703125 53.65625 
Q 14.5 64.65625 8.015625 75.875 
z
" id="DejaVuSans-29"/>
     </defs>
     <g transform="translate(592.0175 87.840562)scale(0.1 -0.1)">
      <use xlink:href="#DejaVuSans-4c"/>
      <use x="55.697266" xlink:href="#DejaVuSans-65"/>
      <use x="117.220703" xlink:href="#DejaVuSans-76"/>
      <use x="176.400391" xlink:href="#DejaVuSans-65"/>
      <use x="237.923828" xlink:href="#DejaVuSans-6c"/>
      <use x="265.707031" xlink:href="#DejaVuSans-20"/>
      <use x="297.494141" xlink:href="#DejaVuSans-6f"/>
      <use x="358.675781" xlink:href="#DejaVuSans-66"/>
      <use x="393.880859" xlink:href="#DejaVuSans-20"/>
      <use x="425.667969" xlink:href="#DejaVuSans-74"/>
      <use x="464.876953" xlink:href="#DejaVuSans-61"/>
      <use x="526.15625" xlink:href="#DejaVuSans-6e"/>
      <use x="589.535156" xlink:href="#DejaVuSans-6b"/>
      <use x="647.445312" xlink:href="#DejaVuSans-20"/>
      <use x="679.232422" xlink:href="#DejaVuSans-31"/>
      <use x="742.855469" xlink:href="#DejaVuSans-20"/>
      <use x="774.642578" xlink:href="#DejaVuSans-28"/>
      <use x="813.65625" xlink:href="#DejaVuSans-6d"/>
      <use x="911.068359" xlink:href="#DejaVuSans-65"/>
      <use x="972.591797" xlink:href="#DejaVuSans-74"/>
      <use x="1011.800781" xlink:href="#DejaVuSans-65"/>
      <use x="1073.324219" xlink:href="#DejaVuSans-72"/>
      <use x="1114.4375" xlink:href="#DejaVuSans-73"/>
      <use x="1166.537109" xlink:href="#DejaVuSans-29"/>
     </g>
    </g>
    <g id="line2d_36">
     <path d="M 564.0175 99.018687 
L 584.0175 99.018687 
" style="fill:none;stroke:#ff7f0e;stroke-linecap:square;stroke-width:1.5;"/>
    </g>
    <g id="line2d_37"/>
    <g id="text_26">
     <!-- Status of pump 1 (ON/OFF) x 135 -->
     <defs>
      <path d="M 53.515625 70.515625 
L 53.515625 60.890625 
Q 47.90625 63.578125 42.921875 64.890625 
Q 37.9375 66.21875 33.296875 66.21875 
Q 25.25 66.21875 20.875 63.09375 
Q 16.5 59.96875 16.5 54.203125 
Q 16.5 49.359375 19.40625 46.890625 
Q 22.3125 44.4375 30.421875 42.921875 
L 36.375 41.703125 
Q 47.40625 39.59375 52.65625 34.296875 
Q 57.90625 29 57.90625 20.125 
Q 57.90625 9.515625 50.796875 4.046875 
Q 43.703125 -1.421875 29.984375 -1.421875 
Q 24.8125 -1.421875 18.96875 -0.25 
Q 13.140625 0.921875 6.890625 3.21875 
L 6.890625 13.375 
Q 12.890625 10.015625 18.65625 8.296875 
Q 24.421875 6.59375 29.984375 6.59375 
Q 38.421875 6.59375 43.015625 9.90625 
Q 47.609375 13.234375 47.609375 19.390625 
Q 47.609375 24.75 44.3125 27.78125 
Q 41.015625 30.8125 33.5 32.328125 
L 27.484375 33.5 
Q 16.453125 35.6875 11.515625 40.375 
Q 6.59375 45.0625 6.59375 53.421875 
Q 6.59375 63.09375 13.40625 68.65625 
Q 20.21875 74.21875 32.171875 74.21875 
Q 37.3125 74.21875 42.625 73.28125 
Q 47.953125 72.359375 53.515625 70.515625 
z
" id="DejaVuSans-53"/>
      <path d="M 39.40625 66.21875 
Q 28.65625 66.21875 22.328125 58.203125 
Q 16.015625 50.203125 16.015625 36.375 
Q 16.015625 22.609375 22.328125 14.59375 
Q 28.65625 6.59375 39.40625 6.59375 
Q 50.140625 6.59375 56.421875 14.59375 
Q 62.703125 22.609375 62.703125 36.375 
Q 62.703125 50.203125 56.421875 58.203125 
Q 50.140625 66.21875 39.40625 66.21875 
z
M 39.40625 74.21875 
Q 54.734375 74.21875 63.90625 63.9375 
Q 73.09375 53.65625 73.09375 36.375 
Q 73.09375 19.140625 63.90625 8.859375 
Q 54.734375 -1.421875 39.40625 -1.421875 
Q 24.03125 -1.421875 14.8125 8.828125 
Q 5.609375 19.09375 5.609375 36.375 
Q 5.609375 53.65625 14.8125 63.9375 
Q 24.03125 74.21875 39.40625 74.21875 
z
" id="DejaVuSans-4f"/>
      <path d="M 9.8125 72.90625 
L 23.09375 72.90625 
L 55.421875 11.921875 
L 55.421875 72.90625 
L 64.984375 72.90625 
L 64.984375 0 
L 51.703125 0 
L 19.390625 60.984375 
L 19.390625 0 
L 9.8125 0 
z
" id="DejaVuSans-4e"/>
      <path d="M 25.390625 72.90625 
L 33.6875 72.90625 
L 8.296875 -9.28125 
L 0 -9.28125 
z
" id="DejaVuSans-2f"/>
      <path d="M 9.8125 72.90625 
L 51.703125 72.90625 
L 51.703125 64.59375 
L 19.671875 64.59375 
L 19.671875 43.109375 
L 48.578125 43.109375 
L 48.578125 34.8125 
L 19.671875 34.8125 
L 19.671875 0 
L 9.8125 0 
z
" id="DejaVuSans-46"/>
      <path d="M 54.890625 54.6875 
L 35.109375 28.078125 
L 55.90625 0 
L 45.3125 0 
L 29.390625 21.484375 
L 13.484375 0 
L 2.875 0 
L 24.125 28.609375 
L 4.6875 54.6875 
L 15.28125 54.6875 
L 29.78125 35.203125 
L 44.28125 54.6875 
z
" id="DejaVuSans-78"/>
     </defs>
     <g transform="translate(592.0175 102.518687)scale(0.1 -0.1)">
      <use xlink:href="#DejaVuSans-53"/>
      <use x="63.476562" xlink:href="#DejaVuSans-74"/>
      <use x="102.685547" xlink:href="#DejaVuSans-61"/>
      <use x="163.964844" xlink:href="#DejaVuSans-74"/>
      <use x="203.173828" xlink:href="#DejaVuSans-75"/>
      <use x="266.552734" xlink:href="#DejaVuSans-73"/>
      <use x="318.652344" xlink:href="#DejaVuSans-20"/>
      <use x="350.439453" xlink:href="#DejaVuSans-6f"/>
      <use x="411.621094" xlink:href="#DejaVuSans-66"/>
      <use x="446.826172" xlink:href="#DejaVuSans-20"/>
      <use x="478.613281" xlink:href="#DejaVuSans-70"/>
      <use x="542.089844" xlink:href="#DejaVuSans-75"/>
      <use x="605.46875" xlink:href="#DejaVuSans-6d"/>
      <use x="702.880859" xlink:href="#DejaVuSans-70"/>
      <use x="766.357422" xlink:href="#DejaVuSans-20"/>
      <use x="798.144531" xlink:href="#DejaVuSans-31"/>
      <use x="861.767578" xlink:href="#DejaVuSans-20"/>
      <use x="893.554688" xlink:href="#DejaVuSans-28"/>
      <use x="932.568359" xlink:href="#DejaVuSans-4f"/>
      <use x="1011.279297" xlink:href="#DejaVuSans-4e"/>
      <use x="1086.083984" xlink:href="#DejaVuSans-2f"/>
      <use x="1119.775391" xlink:href="#DejaVuSans-4f"/>
      <use x="1198.486328" xlink:href="#DejaVuSans-46"/>
      <use x="1256.005859" xlink:href="#DejaVuSans-46"/>
      <use x="1313.525391" xlink:href="#DejaVuSans-29"/>
      <use x="1352.539062" xlink:href="#DejaVuSans-20"/>
      <use x="1384.326172" xlink:href="#DejaVuSans-78"/>
      <use x="1443.505859" xlink:href="#DejaVuSans-20"/>
      <use x="1475.292969" xlink:href="#DejaVuSans-31"/>
      <use x="1538.916016" xlink:href="#DejaVuSans-33"/>
      <use x="1602.539062" xlink:href="#DejaVuSans-35"/>
     </g>
    </g>
    <g id="line2d_38">
     <path d="M 564.0175 113.696812 
L 584.0175 113.696812 
" style="fill:none;stroke:#2ca02c;stroke-linecap:square;stroke-width:1.5;"/>
    </g>
    <g id="line2d_39"/>
    <g id="text_27">
     <!-- Flow in pump 1 (LPS) -->
     <defs>
      <path d="M 4.203125 54.6875 
L 13.1875 54.6875 
L 24.421875 12.015625 
L 35.59375 54.6875 
L 46.1875 54.6875 
L 57.421875 12.015625 
L 68.609375 54.6875 
L 77.59375 54.6875 
L 63.28125 0 
L 52.6875 0 
L 40.921875 44.828125 
L 29.109375 0 
L 18.5 0 
z
" id="DejaVuSans-77"/>
      <path d="M 19.671875 64.796875 
L 19.671875 37.40625 
L 32.078125 37.40625 
Q 38.96875 37.40625 42.71875 40.96875 
Q 46.484375 44.53125 46.484375 51.125 
Q 46.484375 57.671875 42.71875 61.234375 
Q 38.96875 64.796875 32.078125 64.796875 
z
M 9.8125 72.90625 
L 32.078125 72.90625 
Q 44.34375 72.90625 50.609375 67.359375 
Q 56.890625 61.8125 56.890625 51.125 
Q 56.890625 40.328125 50.609375 34.8125 
Q 44.34375 29.296875 32.078125 29.296875 
L 19.671875 29.296875 
L 19.671875 0 
L 9.8125 0 
z
" id="DejaVuSans-50"/>
     </defs>
     <g transform="translate(592.0175 117.196812)scale(0.1 -0.1)">
      <use xlink:href="#DejaVuSans-46"/>
      <use x="57.519531" xlink:href="#DejaVuSans-6c"/>
      <use x="85.302734" xlink:href="#DejaVuSans-6f"/>
      <use x="146.484375" xlink:href="#DejaVuSans-77"/>
      <use x="228.271484" xlink:href="#DejaVuSans-20"/>
      <use x="260.058594" xlink:href="#DejaVuSans-69"/>
      <use x="287.841797" xlink:href="#DejaVuSans-6e"/>
      <use x="351.220703" xlink:href="#DejaVuSans-20"/>
      <use x="383.007812" xlink:href="#DejaVuSans-70"/>
      <use x="446.484375" xlink:href="#DejaVuSans-75"/>
      <use x="509.863281" xlink:href="#DejaVuSans-6d"/>
      <use x="607.275391" xlink:href="#DejaVuSans-70"/>
      <use x="670.751953" xlink:href="#DejaVuSans-20"/>
      <use x="702.539062" xlink:href="#DejaVuSans-31"/>
      <use x="766.162109" xlink:href="#DejaVuSans-20"/>
      <use x="797.949219" xlink:href="#DejaVuSans-28"/>
      <use x="836.962891" xlink:href="#DejaVuSans-4c"/>
      <use x="892.675781" xlink:href="#DejaVuSans-50"/>
      <use x="952.978516" xlink:href="#DejaVuSans-53"/>
      <use x="1016.455078" xlink:href="#DejaVuSans-29"/>
     </g>
    </g>
    <g id="line2d_40">
     <path d="M 564.0175 128.374937 
L 584.0175 128.374937 
" style="fill:none;stroke:#d62728;stroke-linecap:square;stroke-width:1.5;"/>
    </g>
    <g id="line2d_41"/>
    <g id="text_28">
     <!-- Status of pump 2 (ON/OFF) x 130 -->
     <g transform="translate(592.0175 131.874937)scale(0.1 -0.1)">
      <use xlink:href="#DejaVuSans-53"/>
      <use x="63.476562" xlink:href="#DejaVuSans-74"/>
      <use x="102.685547" xlink:href="#DejaVuSans-61"/>
      <use x="163.964844" xlink:href="#DejaVuSans-74"/>
      <use x="203.173828" xlink:href="#DejaVuSans-75"/>
      <use x="266.552734" xlink:href="#DejaVuSans-73"/>
      <use x="318.652344" xlink:href="#DejaVuSans-20"/>
      <use x="350.439453" xlink:href="#DejaVuSans-6f"/>
      <use x="411.621094" xlink:href="#DejaVuSans-66"/>
      <use x="446.826172" xlink:href="#DejaVuSans-20"/>
      <use x="478.613281" xlink:href="#DejaVuSans-70"/>
      <use x="542.089844" xlink:href="#DejaVuSans-75"/>
      <use x="605.46875" xlink:href="#DejaVuSans-6d"/>
      <use x="702.880859" xlink:href="#DejaVuSans-70"/>
      <use x="766.357422" xlink:href="#DejaVuSans-20"/>
      <use x="798.144531" xlink:href="#DejaVuSans-32"/>
      <use x="861.767578" xlink:href="#DejaVuSans-20"/>
      <use x="893.554688" xlink:href="#DejaVuSans-28"/>
      <use x="932.568359" xlink:href="#DejaVuSans-4f"/>
      <use x="1011.279297" xlink:href="#DejaVuSans-4e"/>
      <use x="1086.083984" xlink:href="#DejaVuSans-2f"/>
      <use x="1119.775391" xlink:href="#DejaVuSans-4f"/>
      <use x="1198.486328" xlink:href="#DejaVuSans-46"/>
      <use x="1256.005859" xlink:href="#DejaVuSans-46"/>
      <use x="1313.525391" xlink:href="#DejaVuSans-29"/>
      <use x="1352.539062" xlink:href="#DejaVuSans-20"/>
      <use x="1384.326172" xlink:href="#DejaVuSans-78"/>
      <use x="1443.505859" xlink:href="#DejaVuSans-20"/>
      <use x="1475.292969" xlink:href="#DejaVuSans-31"/>
      <use x="1538.916016" xlink:href="#DejaVuSans-33"/>
      <use x="1602.539062" xlink:href="#DejaVuSans-30"/>
     </g>
    </g>
    <g id="line2d_42">
     <path d="M 564.0175 143.053062 
L 584.0175 143.053062 
" style="fill:none;stroke:#9467bd;stroke-linecap:square;stroke-width:1.5;"/>
    </g>
    <g id="line2d_43"/>
    <g id="text_29">
     <!-- Flow in pump 2 (LPS) -->
     <g transform="translate(592.0175 146.553062)scale(0.1 -0.1)">
      <use xlink:href="#DejaVuSans-46"/>
      <use x="57.519531" xlink:href="#DejaVuSans-6c"/>
      <use x="85.302734" xlink:href="#DejaVuSans-6f"/>
      <use x="146.484375" xlink:href="#DejaVuSans-77"/>
      <use x="228.271484" xlink:href="#DejaVuSans-20"/>
      <use x="260.058594" xlink:href="#DejaVuSans-69"/>
      <use x="287.841797" xlink:href="#DejaVuSans-6e"/>
      <use x="351.220703" xlink:href="#DejaVuSans-20"/>
      <use x="383.007812" xlink:href="#DejaVuSans-70"/>
      <use x="446.484375" xlink:href="#DejaVuSans-75"/>
      <use x="509.863281" xlink:href="#DejaVuSans-6d"/>
      <use x="607.275391" xlink:href="#DejaVuSans-70"/>
      <use x="670.751953" xlink:href="#DejaVuSans-20"/>
      <use x="702.539062" xlink:href="#DejaVuSans-32"/>
      <use x="766.162109" xlink:href="#DejaVuSans-20"/>
      <use x="797.949219" xlink:href="#DejaVuSans-28"/>
      <use x="836.962891" xlink:href="#DejaVuSans-4c"/>
      <use x="892.675781" xlink:href="#DejaVuSans-50"/>
      <use x="952.978516" xlink:href="#DejaVuSans-53"/>
      <use x="1016.455078" xlink:href="#DejaVuSans-29"/>
     </g>
    </g>
    <g id="line2d_44">
     <path d="M 564.0175 157.731187 
L 584.0175 157.731187 
" style="fill:none;stroke:#8c564b;stroke-linecap:square;stroke-width:1.5;"/>
    </g>
    <g id="line2d_45"/>
    <g id="text_30">
     <!-- Status of pump 3 (ON/OFF) x 125 -->
     <g transform="translate(592.0175 161.231187)scale(0.1 -0.1)">
      <use xlink:href="#DejaVuSans-53"/>
      <use x="63.476562" xlink:href="#DejaVuSans-74"/>
      <use x="102.685547" xlink:href="#DejaVuSans-61"/>
      <use x="163.964844" xlink:href="#DejaVuSans-74"/>
      <use x="203.173828" xlink:href="#DejaVuSans-75"/>
      <use x="266.552734" xlink:href="#DejaVuSans-73"/>
      <use x="318.652344" xlink:href="#DejaVuSans-20"/>
      <use x="350.439453" xlink:href="#DejaVuSans-6f"/>
      <use x="411.621094" xlink:href="#DejaVuSans-66"/>
      <use x="446.826172" xlink:href="#DejaVuSans-20"/>
      <use x="478.613281" xlink:href="#DejaVuSans-70"/>
      <use x="542.089844" xlink:href="#DejaVuSans-75"/>
      <use x="605.46875" xlink:href="#DejaVuSans-6d"/>
      <use x="702.880859" xlink:href="#DejaVuSans-70"/>
      <use x="766.357422" xlink:href="#DejaVuSans-20"/>
      <use x="798.144531" xlink:href="#DejaVuSans-33"/>
      <use x="861.767578" xlink:href="#DejaVuSans-20"/>
      <use x="893.554688" xlink:href="#DejaVuSans-28"/>
      <use x="932.568359" xlink:href="#DejaVuSans-4f"/>
      <use x="1011.279297" xlink:href="#DejaVuSans-4e"/>
      <use x="1086.083984" xlink:href="#DejaVuSans-2f"/>
      <use x="1119.775391" xlink:href="#DejaVuSans-4f"/>
      <use x="1198.486328" xlink:href="#DejaVuSans-46"/>
      <use x="1256.005859" xlink:href="#DejaVuSans-46"/>
      <use x="1313.525391" xlink:href="#DejaVuSans-29"/>
      <use x="1352.539062" xlink:href="#DejaVuSans-20"/>
      <use x="1384.326172" xlink:href="#DejaVuSans-78"/>
      <use x="1443.505859" xlink:href="#DejaVuSans-20"/>
      <use x="1475.292969" xlink:href="#DejaVuSans-31"/>
      <use x="1538.916016" xlink:href="#DejaVuSans-32"/>
      <use x="1602.539062" xlink:href="#DejaVuSans-35"/>
     </g>
    </g>
    <g id="line2d_46">
     <path d="M 564.0175 172.409312 
L 584.0175 172.409312 
" style="fill:none;stroke:#e377c2;stroke-linecap:square;stroke-width:1.5;"/>
    </g>
    <g id="line2d_47"/>
    <g id="text_31">
     <!-- Flow in pump 3 (LPS) -->
     <g transform="translate(592.0175 175.909312)scale(0.1 -0.1)">
      <use xlink:href="#DejaVuSans-46"/>
      <use x="57.519531" xlink:href="#DejaVuSans-6c"/>
      <use x="85.302734" xlink:href="#DejaVuSans-6f"/>
      <use x="146.484375" xlink:href="#DejaVuSans-77"/>
      <use x="228.271484" xlink:href="#DejaVuSans-20"/>
      <use x="260.058594" xlink:href="#DejaVuSans-69"/>
      <use x="287.841797" xlink:href="#DejaVuSans-6e"/>
      <use x="351.220703" xlink:href="#DejaVuSans-20"/>
      <use x="383.007812" xlink:href="#DejaVuSans-70"/>
      <use x="446.484375" xlink:href="#DejaVuSans-75"/>
      <use x="509.863281" xlink:href="#DejaVuSans-6d"/>
      <use x="607.275391" xlink:href="#DejaVuSans-70"/>
      <use x="670.751953" xlink:href="#DejaVuSans-20"/>
      <use x="702.539062" xlink:href="#DejaVuSans-33"/>
      <use x="766.162109" xlink:href="#DejaVuSans-20"/>
      <use x="797.949219" xlink:href="#DejaVuSans-28"/>
      <use x="836.962891" xlink:href="#DejaVuSans-4c"/>
      <use x="892.675781" xlink:href="#DejaVuSans-50"/>
      <use x="952.978516" xlink:href="#DejaVuSans-53"/>
      <use x="1016.455078" xlink:href="#DejaVuSans-29"/>
     </g>
    </g>
    <g id="line2d_48">
     <path d="M 564.0175 187.087437 
L 584.0175 187.087437 
" style="fill:none;stroke:#7f7f7f;stroke-linecap:square;stroke-width:1.5;"/>
    </g>
    <g id="line2d_49"/>
    <g id="text_32">
     <!-- Pressure in junction 280 (meters) -->
     <defs>
      <path d="M 9.421875 54.6875 
L 18.40625 54.6875 
L 18.40625 -0.984375 
Q 18.40625 -11.421875 14.421875 -16.109375 
Q 10.453125 -20.796875 1.609375 -20.796875 
L -1.8125 -20.796875 
L -1.8125 -13.1875 
L 0.59375 -13.1875 
Q 5.71875 -13.1875 7.5625 -10.8125 
Q 9.421875 -8.453125 9.421875 -0.984375 
z
M 9.421875 75.984375 
L 18.40625 75.984375 
L 18.40625 64.59375 
L 9.421875 64.59375 
z
" id="DejaVuSans-6a"/>
      <path d="M 48.78125 52.59375 
L 48.78125 44.1875 
Q 44.96875 46.296875 41.140625 47.34375 
Q 37.3125 48.390625 33.40625 48.390625 
Q 24.65625 48.390625 19.8125 42.84375 
Q 14.984375 37.3125 14.984375 27.296875 
Q 14.984375 17.28125 19.8125 11.734375 
Q 24.65625 6.203125 33.40625 6.203125 
Q 37.3125 6.203125 41.140625 7.25 
Q 44.96875 8.296875 48.78125 10.40625 
L 48.78125 2.09375 
Q 45.015625 0.34375 40.984375 -0.53125 
Q 36.96875 -1.421875 32.421875 -1.421875 
Q 20.0625 -1.421875 12.78125 6.34375 
Q 5.515625 14.109375 5.515625 27.296875 
Q 5.515625 40.671875 12.859375 48.328125 
Q 20.21875 56 33.015625 56 
Q 37.15625 56 41.109375 55.140625 
Q 45.0625 54.296875 48.78125 52.59375 
z
" id="DejaVuSans-63"/>
     </defs>
     <g transform="translate(592.0175 190.587437)scale(0.1 -0.1)">
      <use xlink:href="#DejaVuSans-50"/>
      <use x="60.287109" xlink:href="#DejaVuSans-72"/>
      <use x="101.369141" xlink:href="#DejaVuSans-65"/>
      <use x="162.892578" xlink:href="#DejaVuSans-73"/>
      <use x="214.992188" xlink:href="#DejaVuSans-73"/>
      <use x="267.091797" xlink:href="#DejaVuSans-75"/>
      <use x="330.470703" xlink:href="#DejaVuSans-72"/>
      <use x="371.552734" xlink:href="#DejaVuSans-65"/>
      <use x="433.076172" xlink:href="#DejaVuSans-20"/>
      <use x="464.863281" xlink:href="#DejaVuSans-69"/>
      <use x="492.646484" xlink:href="#DejaVuSans-6e"/>
      <use x="556.025391" xlink:href="#DejaVuSans-20"/>
      <use x="587.8125" xlink:href="#DejaVuSans-6a"/>
      <use x="615.595703" xlink:href="#DejaVuSans-75"/>
      <use x="678.974609" xlink:href="#DejaVuSans-6e"/>
      <use x="742.353516" xlink:href="#DejaVuSans-63"/>
      <use x="797.333984" xlink:href="#DejaVuSans-74"/>
      <use x="836.542969" xlink:href="#DejaVuSans-69"/>
      <use x="864.326172" xlink:href="#DejaVuSans-6f"/>
      <use x="925.507812" xlink:href="#DejaVuSans-6e"/>
      <use x="988.886719" xlink:href="#DejaVuSans-20"/>
      <use x="1020.673828" xlink:href="#DejaVuSans-32"/>
      <use x="1084.296875" xlink:href="#DejaVuSans-38"/>
      <use x="1147.919922" xlink:href="#DejaVuSans-30"/>
      <use x="1211.542969" xlink:href="#DejaVuSans-20"/>
      <use x="1243.330078" xlink:href="#DejaVuSans-28"/>
      <use x="1282.34375" xlink:href="#DejaVuSans-6d"/>
      <use x="1379.755859" xlink:href="#DejaVuSans-65"/>
      <use x="1441.279297" xlink:href="#DejaVuSans-74"/>
      <use x="1480.488281" xlink:href="#DejaVuSans-65"/>
      <use x="1542.011719" xlink:href="#DejaVuSans-72"/>
      <use x="1583.125" xlink:href="#DejaVuSans-73"/>
      <use x="1635.224609" xlink:href="#DejaVuSans-29"/>
     </g>
    </g>
    <g id="line2d_50">
     <path d="M 564.0175 201.765562 
L 584.0175 201.765562 
" style="fill:none;stroke:#bcbd22;stroke-linecap:square;stroke-width:1.5;"/>
    </g>
    <g id="line2d_51"/>
    <g id="text_33">
     <!-- Pressure in junction 269 (meters) -->
     <g transform="translate(592.0175 205.265562)scale(0.1 -0.1)">
      <use xlink:href="#DejaVuSans-50"/>
      <use x="60.287109" xlink:href="#DejaVuSans-72"/>
      <use x="101.369141" xlink:href="#DejaVuSans-65"/>
      <use x="162.892578" xlink:href="#DejaVuSans-73"/>
      <use x="214.992188" xlink:href="#DejaVuSans-73"/>
      <use x="267.091797" xlink:href="#DejaVuSans-75"/>
      <use x="330.470703" xlink:href="#DejaVuSans-72"/>
      <use x="371.552734" xlink:href="#DejaVuSans-65"/>
      <use x="433.076172" xlink:href="#DejaVuSans-20"/>
      <use x="464.863281" xlink:href="#DejaVuSans-69"/>
      <use x="492.646484" xlink:href="#DejaVuSans-6e"/>
      <use x="556.025391" xlink:href="#DejaVuSans-20"/>
      <use x="587.8125" xlink:href="#DejaVuSans-6a"/>
      <use x="615.595703" xlink:href="#DejaVuSans-75"/>
      <use x="678.974609" xlink:href="#DejaVuSans-6e"/>
      <use x="742.353516" xlink:href="#DejaVuSans-63"/>
      <use x="797.333984" xlink:href="#DejaVuSans-74"/>
      <use x="836.542969" xlink:href="#DejaVuSans-69"/>
      <use x="864.326172" xlink:href="#DejaVuSans-6f"/>
      <use x="925.507812" xlink:href="#DejaVuSans-6e"/>
      <use x="988.886719" xlink:href="#DejaVuSans-20"/>
      <use x="1020.673828" xlink:href="#DejaVuSans-32"/>
      <use x="1084.296875" xlink:href="#DejaVuSans-36"/>
      <use x="1147.919922" xlink:href="#DejaVuSans-39"/>
      <use x="1211.542969" xlink:href="#DejaVuSans-20"/>
      <use x="1243.330078" xlink:href="#DejaVuSans-28"/>
      <use x="1282.34375" xlink:href="#DejaVuSans-6d"/>
      <use x="1379.755859" xlink:href="#DejaVuSans-65"/>
      <use x="1441.279297" xlink:href="#DejaVuSans-74"/>
      <use x="1480.488281" xlink:href="#DejaVuSans-65"/>
      <use x="1542.011719" xlink:href="#DejaVuSans-72"/>
      <use x="1583.125" xlink:href="#DejaVuSans-73"/>
      <use x="1635.224609" xlink:href="#DejaVuSans-29"/>
     </g>
    </g>
   </g>
  </g>
 </g>
 <defs>
  <clipPath id="p3d4a026f89">
   <rect height="326.16" width="613.8" x="33.2875" y="22.318125"/>
  </clipPath>
 </defs>
</svg>
