<?xml version="1.0" encoding="utf-8" standalone="no"?>
<!DOCTYPE svg PUBLIC "-//W3C//DTD SVG 1.1//EN"
  "http://www.w3.org/Graphics/SVG/1.1/DTD/svg11.dtd">
<!-- Created with matplotlib (http://matplotlib.org/) -->
<svg height="461pt" version="1.1" viewBox="0 0 877 461" width="877pt" xmlns="http://www.w3.org/2000/svg" xmlns:xlink="http://www.w3.org/1999/xlink">
 <defs>
  <style type="text/css">
*{stroke-linecap:butt;stroke-linejoin:round;}
  </style>
 </defs>
 <g id="figure_1">
  <g id="patch_1">
   <path d="M 0 461.998125 
L 877.803125 461.998125 
L 877.803125 0 
L 0 0 
z
" style="fill:#ffffff;"/>
  </g>
  <g id="axes_1">
   <g id="patch_2">
    <path d="M 30.103125 438.12 
L 867.103125 438.12 
L 867.103125 57.6 
L 30.103125 57.6 
z
" style="fill:#ffffff;"/>
   </g>
   <g id="matplotlib.axis_1">
    <g id="xtick_1">
     <g id="line2d_1">
      <defs>
       <path d="M 0 0 
L 0 3.5 
" id="m117c375066" style="stroke:#000000;stroke-width:0.8;"/>
      </defs>
      <g>
       <use style="stroke:#000000;stroke-width:0.8;" x="126.680048" xlink:href="#m117c375066" y="438.12"/>
      </g>
     </g>
     <g id="text_1">
      <!-- 2014-05-02 -->
      <defs>
       <path d="M 19.1875 8.296875 
L 53.609375 8.296875 
L 53.609375 0 
L 7.328125 0 
L 7.328125 8.296875 
Q 12.9375 14.109375 22.625 23.890625 
Q 32.328125 33.6875 34.8125 36.53125 
Q 39.546875 41.84375 41.421875 45.53125 
Q 43.3125 49.21875 43.3125 52.78125 
Q 43.3125 58.59375 39.234375 62.25 
Q 35.15625 65.921875 28.609375 65.921875 
Q 23.96875 65.921875 18.8125 64.3125 
Q 13.671875 62.703125 7.8125 59.421875 
L 7.8125 69.390625 
Q 13.765625 71.78125 18.9375 73 
Q 24.125 74.21875 28.421875 74.21875 
Q 39.75 74.21875 46.484375 68.546875 
Q 53.21875 62.890625 53.21875 53.421875 
Q 53.21875 48.921875 51.53125 44.890625 
Q 49.859375 40.875 45.40625 35.40625 
Q 44.1875 33.984375 37.640625 27.21875 
Q 31.109375 20.453125 19.1875 8.296875 
z
" id="DejaVuSans-32"/>
       <path d="M 31.78125 66.40625 
Q 24.171875 66.40625 20.328125 58.90625 
Q 16.5 51.421875 16.5 36.375 
Q 16.5 21.390625 20.328125 13.890625 
Q 24.171875 6.390625 31.78125 6.390625 
Q 39.453125 6.390625 43.28125 13.890625 
Q 47.125 21.390625 47.125 36.375 
Q 47.125 51.421875 43.28125 58.90625 
Q 39.453125 66.40625 31.78125 66.40625 
z
M 31.78125 74.21875 
Q 44.046875 74.21875 50.515625 64.515625 
Q 56.984375 54.828125 56.984375 36.375 
Q 56.984375 17.96875 50.515625 8.265625 
Q 44.046875 -1.421875 31.78125 -1.421875 
Q 19.53125 -1.421875 13.0625 8.265625 
Q 6.59375 17.96875 6.59375 36.375 
Q 6.59375 54.828125 13.0625 64.515625 
Q 19.53125 74.21875 31.78125 74.21875 
z
" id="DejaVuSans-30"/>
       <path d="M 12.40625 8.296875 
L 28.515625 8.296875 
L 28.515625 63.921875 
L 10.984375 60.40625 
L 10.984375 69.390625 
L 28.421875 72.90625 
L 38.28125 72.90625 
L 38.28125 8.296875 
L 54.390625 8.296875 
L 54.390625 0 
L 12.40625 0 
z
" id="DejaVuSans-31"/>
       <path d="M 37.796875 64.3125 
L 12.890625 25.390625 
L 37.796875 25.390625 
z
M 35.203125 72.90625 
L 47.609375 72.90625 
L 47.609375 25.390625 
L 58.015625 25.390625 
L 58.015625 17.1875 
L 47.609375 17.1875 
L 47.609375 0 
L 37.796875 0 
L 37.796875 17.1875 
L 4.890625 17.1875 
L 4.890625 26.703125 
z
" id="DejaVuSans-34"/>
       <path d="M 4.890625 31.390625 
L 31.203125 31.390625 
L 31.203125 23.390625 
L 4.890625 23.390625 
z
" id="DejaVuSans-2d"/>
       <path d="M 10.796875 72.90625 
L 49.515625 72.90625 
L 49.515625 64.59375 
L 19.828125 64.59375 
L 19.828125 46.734375 
Q 21.96875 47.46875 24.109375 47.828125 
Q 26.265625 48.1875 28.421875 48.1875 
Q 40.625 48.1875 47.75 41.5 
Q 54.890625 34.8125 54.890625 23.390625 
Q 54.890625 11.625 47.5625 5.09375 
Q 40.234375 -1.421875 26.90625 -1.421875 
Q 22.3125 -1.421875 17.546875 -0.640625 
Q 12.796875 0.140625 7.71875 1.703125 
L 7.71875 11.625 
Q 12.109375 9.234375 16.796875 8.0625 
Q 21.484375 6.890625 26.703125 6.890625 
Q 35.15625 6.890625 40.078125 11.328125 
Q 45.015625 15.765625 45.015625 23.390625 
Q 45.015625 31 40.078125 35.4375 
Q 35.15625 39.890625 26.703125 39.890625 
Q 22.75 39.890625 18.8125 39.015625 
Q 14.890625 38.140625 10.796875 36.28125 
z
" id="DejaVuSans-35"/>
      </defs>
      <g transform="translate(97.622236 452.718437)scale(0.1 -0.1)">
       <use xlink:href="#DejaVuSans-32"/>
       <use x="63.623047" xlink:href="#DejaVuSans-30"/>
       <use x="127.246094" xlink:href="#DejaVuSans-31"/>
       <use x="190.869141" xlink:href="#DejaVuSans-34"/>
       <use x="254.492188" xlink:href="#DejaVuSans-2d"/>
       <use x="290.576172" xlink:href="#DejaVuSans-30"/>
       <use x="354.199219" xlink:href="#DejaVuSans-35"/>
       <use x="417.822266" xlink:href="#DejaVuSans-2d"/>
       <use x="453.90625" xlink:href="#DejaVuSans-30"/>
       <use x="517.529297" xlink:href="#DejaVuSans-32"/>
      </g>
     </g>
    </g>
    <g id="xtick_2">
     <g id="line2d_2">
      <g>
       <use style="stroke:#000000;stroke-width:0.8;" x="243.742985" xlink:href="#m117c375066" y="438.12"/>
      </g>
     </g>
     <g id="text_2">
      <!-- 2014-05-04 -->
      <g transform="translate(214.685173 452.718437)scale(0.1 -0.1)">
       <use xlink:href="#DejaVuSans-32"/>
       <use x="63.623047" xlink:href="#DejaVuSans-30"/>
       <use x="127.246094" xlink:href="#DejaVuSans-31"/>
       <use x="190.869141" xlink:href="#DejaVuSans-34"/>
       <use x="254.492188" xlink:href="#DejaVuSans-2d"/>
       <use x="290.576172" xlink:href="#DejaVuSans-30"/>
       <use x="354.199219" xlink:href="#DejaVuSans-35"/>
       <use x="417.822266" xlink:href="#DejaVuSans-2d"/>
       <use x="453.90625" xlink:href="#DejaVuSans-30"/>
       <use x="517.529297" xlink:href="#DejaVuSans-34"/>
      </g>
     </g>
    </g>
    <g id="xtick_3">
     <g id="line2d_3">
      <g>
       <use style="stroke:#000000;stroke-width:0.8;" x="360.805922" xlink:href="#m117c375066" y="438.12"/>
      </g>
     </g>
     <g id="text_3">
      <!-- 2014-05-06 -->
      <defs>
       <path d="M 33.015625 40.375 
Q 26.375 40.375 22.484375 35.828125 
Q 18.609375 31.296875 18.609375 23.390625 
Q 18.609375 15.53125 22.484375 10.953125 
Q 26.375 6.390625 33.015625 6.390625 
Q 39.65625 6.390625 43.53125 10.953125 
Q 47.40625 15.53125 47.40625 23.390625 
Q 47.40625 31.296875 43.53125 35.828125 
Q 39.65625 40.375 33.015625 40.375 
z
M 52.59375 71.296875 
L 52.59375 62.3125 
Q 48.875 64.0625 45.09375 64.984375 
Q 41.3125 65.921875 37.59375 65.921875 
Q 27.828125 65.921875 22.671875 59.328125 
Q 17.53125 52.734375 16.796875 39.40625 
Q 19.671875 43.65625 24.015625 45.921875 
Q 28.375 48.1875 33.59375 48.1875 
Q 44.578125 48.1875 50.953125 41.515625 
Q 57.328125 34.859375 57.328125 23.390625 
Q 57.328125 12.15625 50.6875 5.359375 
Q 44.046875 -1.421875 33.015625 -1.421875 
Q 20.359375 -1.421875 13.671875 8.265625 
Q 6.984375 17.96875 6.984375 36.375 
Q 6.984375 53.65625 15.1875 63.9375 
Q 23.390625 74.21875 37.203125 74.21875 
Q 40.921875 74.21875 44.703125 73.484375 
Q 48.484375 72.75 52.59375 71.296875 
z
" id="DejaVuSans-36"/>
      </defs>
      <g transform="translate(331.74811 452.718437)scale(0.1 -0.1)">
       <use xlink:href="#DejaVuSans-32"/>
       <use x="63.623047" xlink:href="#DejaVuSans-30"/>
       <use x="127.246094" xlink:href="#DejaVuSans-31"/>
       <use x="190.869141" xlink:href="#DejaVuSans-34"/>
       <use x="254.492188" xlink:href="#DejaVuSans-2d"/>
       <use x="290.576172" xlink:href="#DejaVuSans-30"/>
       <use x="354.199219" xlink:href="#DejaVuSans-35"/>
       <use x="417.822266" xlink:href="#DejaVuSans-2d"/>
       <use x="453.90625" xlink:href="#DejaVuSans-30"/>
       <use x="517.529297" xlink:href="#DejaVuSans-36"/>
      </g>
     </g>
    </g>
    <g id="xtick_4">
     <g id="line2d_4">
      <g>
       <use style="stroke:#000000;stroke-width:0.8;" x="477.868859" xlink:href="#m117c375066" y="438.12"/>
      </g>
     </g>
     <g id="text_4">
      <!-- 2014-05-08 -->
      <defs>
       <path d="M 31.78125 34.625 
Q 24.75 34.625 20.71875 30.859375 
Q 16.703125 27.09375 16.703125 20.515625 
Q 16.703125 13.921875 20.71875 10.15625 
Q 24.75 6.390625 31.78125 6.390625 
Q 38.8125 6.390625 42.859375 10.171875 
Q 46.921875 13.96875 46.921875 20.515625 
Q 46.921875 27.09375 42.890625 30.859375 
Q 38.875 34.625 31.78125 34.625 
z
M 21.921875 38.8125 
Q 15.578125 40.375 12.03125 44.71875 
Q 8.5 49.078125 8.5 55.328125 
Q 8.5 64.0625 14.71875 69.140625 
Q 20.953125 74.21875 31.78125 74.21875 
Q 42.671875 74.21875 48.875 69.140625 
Q 55.078125 64.0625 55.078125 55.328125 
Q 55.078125 49.078125 51.53125 44.71875 
Q 48 40.375 41.703125 38.8125 
Q 48.828125 37.15625 52.796875 32.3125 
Q 56.78125 27.484375 56.78125 20.515625 
Q 56.78125 9.90625 50.3125 4.234375 
Q 43.84375 -1.421875 31.78125 -1.421875 
Q 19.734375 -1.421875 13.25 4.234375 
Q 6.78125 9.90625 6.78125 20.515625 
Q 6.78125 27.484375 10.78125 32.3125 
Q 14.796875 37.15625 21.921875 38.8125 
z
M 18.3125 54.390625 
Q 18.3125 48.734375 21.84375 45.5625 
Q 25.390625 42.390625 31.78125 42.390625 
Q 38.140625 42.390625 41.71875 45.5625 
Q 45.3125 48.734375 45.3125 54.390625 
Q 45.3125 60.0625 41.71875 63.234375 
Q 38.140625 66.40625 31.78125 66.40625 
Q 25.390625 66.40625 21.84375 63.234375 
Q 18.3125 60.0625 18.3125 54.390625 
z
" id="DejaVuSans-38"/>
      </defs>
      <g transform="translate(448.811047 452.718437)scale(0.1 -0.1)">
       <use xlink:href="#DejaVuSans-32"/>
       <use x="63.623047" xlink:href="#DejaVuSans-30"/>
       <use x="127.246094" xlink:href="#DejaVuSans-31"/>
       <use x="190.869141" xlink:href="#DejaVuSans-34"/>
       <use x="254.492188" xlink:href="#DejaVuSans-2d"/>
       <use x="290.576172" xlink:href="#DejaVuSans-30"/>
       <use x="354.199219" xlink:href="#DejaVuSans-35"/>
       <use x="417.822266" xlink:href="#DejaVuSans-2d"/>
       <use x="453.90625" xlink:href="#DejaVuSans-30"/>
       <use x="517.529297" xlink:href="#DejaVuSans-38"/>
      </g>
     </g>
    </g>
    <g id="xtick_5">
     <g id="line2d_5">
      <g>
       <use style="stroke:#000000;stroke-width:0.8;" x="594.931796" xlink:href="#m117c375066" y="438.12"/>
      </g>
     </g>
     <g id="text_5">
      <!-- 2014-05-10 -->
      <g transform="translate(565.873984 452.718437)scale(0.1 -0.1)">
       <use xlink:href="#DejaVuSans-32"/>
       <use x="63.623047" xlink:href="#DejaVuSans-30"/>
       <use x="127.246094" xlink:href="#DejaVuSans-31"/>
       <use x="190.869141" xlink:href="#DejaVuSans-34"/>
       <use x="254.492188" xlink:href="#DejaVuSans-2d"/>
       <use x="290.576172" xlink:href="#DejaVuSans-30"/>
       <use x="354.199219" xlink:href="#DejaVuSans-35"/>
       <use x="417.822266" xlink:href="#DejaVuSans-2d"/>
       <use x="453.90625" xlink:href="#DejaVuSans-31"/>
       <use x="517.529297" xlink:href="#DejaVuSans-30"/>
      </g>
     </g>
    </g>
    <g id="xtick_6">
     <g id="line2d_6">
      <g>
       <use style="stroke:#000000;stroke-width:0.8;" x="711.994733" xlink:href="#m117c375066" y="438.12"/>
      </g>
     </g>
     <g id="text_6">
      <!-- 2014-05-12 -->
      <g transform="translate(682.936921 452.718437)scale(0.1 -0.1)">
       <use xlink:href="#DejaVuSans-32"/>
       <use x="63.623047" xlink:href="#DejaVuSans-30"/>
       <use x="127.246094" xlink:href="#DejaVuSans-31"/>
       <use x="190.869141" xlink:href="#DejaVuSans-34"/>
       <use x="254.492188" xlink:href="#DejaVuSans-2d"/>
       <use x="290.576172" xlink:href="#DejaVuSans-30"/>
       <use x="354.199219" xlink:href="#DejaVuSans-35"/>
       <use x="417.822266" xlink:href="#DejaVuSans-2d"/>
       <use x="453.90625" xlink:href="#DejaVuSans-31"/>
       <use x="517.529297" xlink:href="#DejaVuSans-32"/>
      </g>
     </g>
    </g>
    <g id="xtick_7">
     <g id="line2d_7">
      <g>
       <use style="stroke:#000000;stroke-width:0.8;" x="829.05767" xlink:href="#m117c375066" y="438.12"/>
      </g>
     </g>
     <g id="text_7">
      <!-- 2014-05-14 -->
      <g transform="translate(799.999858 452.718437)scale(0.1 -0.1)">
       <use xlink:href="#DejaVuSans-32"/>
       <use x="63.623047" xlink:href="#DejaVuSans-30"/>
       <use x="127.246094" xlink:href="#DejaVuSans-31"/>
       <use x="190.869141" xlink:href="#DejaVuSans-34"/>
       <use x="254.492188" xlink:href="#DejaVuSans-2d"/>
       <use x="290.576172" xlink:href="#DejaVuSans-30"/>
       <use x="354.199219" xlink:href="#DejaVuSans-35"/>
       <use x="417.822266" xlink:href="#DejaVuSans-2d"/>
       <use x="453.90625" xlink:href="#DejaVuSans-31"/>
       <use x="517.529297" xlink:href="#DejaVuSans-34"/>
      </g>
     </g>
    </g>
   </g>
   <g id="matplotlib.axis_2">
    <g id="ytick_1">
     <g id="line2d_8">
      <defs>
       <path d="M 0 0 
L -3.5 0 
" id="md0970a3f0e" style="stroke:#000000;stroke-width:0.8;"/>
      </defs>
      <g>
       <use style="stroke:#000000;stroke-width:0.8;" x="30.103125" xlink:href="#md0970a3f0e" y="432.406994"/>
      </g>
     </g>
     <g id="text_8">
      <!-- 0.5 -->
      <defs>
       <path d="M 10.6875 12.40625 
L 21 12.40625 
L 21 0 
L 10.6875 0 
z
" id="DejaVuSans-2e"/>
      </defs>
      <g transform="translate(7.2 436.206212)scale(0.1 -0.1)">
       <use xlink:href="#DejaVuSans-30"/>
       <use x="63.623047" xlink:href="#DejaVuSans-2e"/>
       <use x="95.410156" xlink:href="#DejaVuSans-35"/>
      </g>
     </g>
    </g>
    <g id="ytick_2">
     <g id="line2d_9">
      <g>
       <use style="stroke:#000000;stroke-width:0.8;" x="30.103125" xlink:href="#md0970a3f0e" y="389.908228"/>
      </g>
     </g>
     <g id="text_9">
      <!-- 1.0 -->
      <g transform="translate(7.2 393.707447)scale(0.1 -0.1)">
       <use xlink:href="#DejaVuSans-31"/>
       <use x="63.623047" xlink:href="#DejaVuSans-2e"/>
       <use x="95.410156" xlink:href="#DejaVuSans-30"/>
      </g>
     </g>
    </g>
    <g id="ytick_3">
     <g id="line2d_10">
      <g>
       <use style="stroke:#000000;stroke-width:0.8;" x="30.103125" xlink:href="#md0970a3f0e" y="347.409462"/>
      </g>
     </g>
     <g id="text_10">
      <!-- 1.5 -->
      <g transform="translate(7.2 351.208681)scale(0.1 -0.1)">
       <use xlink:href="#DejaVuSans-31"/>
       <use x="63.623047" xlink:href="#DejaVuSans-2e"/>
       <use x="95.410156" xlink:href="#DejaVuSans-35"/>
      </g>
     </g>
    </g>
    <g id="ytick_4">
     <g id="line2d_11">
      <g>
       <use style="stroke:#000000;stroke-width:0.8;" x="30.103125" xlink:href="#md0970a3f0e" y="304.910696"/>
      </g>
     </g>
     <g id="text_11">
      <!-- 2.0 -->
      <g transform="translate(7.2 308.709915)scale(0.1 -0.1)">
       <use xlink:href="#DejaVuSans-32"/>
       <use x="63.623047" xlink:href="#DejaVuSans-2e"/>
       <use x="95.410156" xlink:href="#DejaVuSans-30"/>
      </g>
     </g>
    </g>
    <g id="ytick_5">
     <g id="line2d_12">
      <g>
       <use style="stroke:#000000;stroke-width:0.8;" x="30.103125" xlink:href="#md0970a3f0e" y="262.41193"/>
      </g>
     </g>
     <g id="text_12">
      <!-- 2.5 -->
      <g transform="translate(7.2 266.211149)scale(0.1 -0.1)">
       <use xlink:href="#DejaVuSans-32"/>
       <use x="63.623047" xlink:href="#DejaVuSans-2e"/>
       <use x="95.410156" xlink:href="#DejaVuSans-35"/>
      </g>
     </g>
    </g>
    <g id="ytick_6">
     <g id="line2d_13">
      <g>
       <use style="stroke:#000000;stroke-width:0.8;" x="30.103125" xlink:href="#md0970a3f0e" y="219.913164"/>
      </g>
     </g>
     <g id="text_13">
      <!-- 3.0 -->
      <defs>
       <path d="M 40.578125 39.3125 
Q 47.65625 37.796875 51.625 33 
Q 55.609375 28.21875 55.609375 21.1875 
Q 55.609375 10.40625 48.1875 4.484375 
Q 40.765625 -1.421875 27.09375 -1.421875 
Q 22.515625 -1.421875 17.65625 -0.515625 
Q 12.796875 0.390625 7.625 2.203125 
L 7.625 11.71875 
Q 11.71875 9.328125 16.59375 8.109375 
Q 21.484375 6.890625 26.8125 6.890625 
Q 36.078125 6.890625 40.9375 10.546875 
Q 45.796875 14.203125 45.796875 21.1875 
Q 45.796875 27.640625 41.28125 31.265625 
Q 36.765625 34.90625 28.71875 34.90625 
L 20.21875 34.90625 
L 20.21875 43.015625 
L 29.109375 43.015625 
Q 36.375 43.015625 40.234375 45.921875 
Q 44.09375 48.828125 44.09375 54.296875 
Q 44.09375 59.90625 40.109375 62.90625 
Q 36.140625 65.921875 28.71875 65.921875 
Q 24.65625 65.921875 20.015625 65.03125 
Q 15.375 64.15625 9.8125 62.3125 
L 9.8125 71.09375 
Q 15.4375 72.65625 20.34375 73.4375 
Q 25.25 74.21875 29.59375 74.21875 
Q 40.828125 74.21875 47.359375 69.109375 
Q 53.90625 64.015625 53.90625 55.328125 
Q 53.90625 49.265625 50.4375 45.09375 
Q 46.96875 40.921875 40.578125 39.3125 
z
" id="DejaVuSans-33"/>
      </defs>
      <g transform="translate(7.2 223.712383)scale(0.1 -0.1)">
       <use xlink:href="#DejaVuSans-33"/>
       <use x="63.623047" xlink:href="#DejaVuSans-2e"/>
       <use x="95.410156" xlink:href="#DejaVuSans-30"/>
      </g>
     </g>
    </g>
    <g id="ytick_7">
     <g id="line2d_14">
      <g>
       <use style="stroke:#000000;stroke-width:0.8;" x="30.103125" xlink:href="#md0970a3f0e" y="177.414398"/>
      </g>
     </g>
     <g id="text_14">
      <!-- 3.5 -->
      <g transform="translate(7.2 181.213617)scale(0.1 -0.1)">
       <use xlink:href="#DejaVuSans-33"/>
       <use x="63.623047" xlink:href="#DejaVuSans-2e"/>
       <use x="95.410156" xlink:href="#DejaVuSans-35"/>
      </g>
     </g>
    </g>
    <g id="ytick_8">
     <g id="line2d_15">
      <g>
       <use style="stroke:#000000;stroke-width:0.8;" x="30.103125" xlink:href="#md0970a3f0e" y="134.915633"/>
      </g>
     </g>
     <g id="text_15">
      <!-- 4.0 -->
      <g transform="translate(7.2 138.714851)scale(0.1 -0.1)">
       <use xlink:href="#DejaVuSans-34"/>
       <use x="63.623047" xlink:href="#DejaVuSans-2e"/>
       <use x="95.410156" xlink:href="#DejaVuSans-30"/>
      </g>
     </g>
    </g>
    <g id="ytick_9">
     <g id="line2d_16">
      <g>
       <use style="stroke:#000000;stroke-width:0.8;" x="30.103125" xlink:href="#md0970a3f0e" y="92.416867"/>
      </g>
     </g>
     <g id="text_16">
      <!-- 4.5 -->
      <g transform="translate(7.2 96.216085)scale(0.1 -0.1)">
       <use xlink:href="#DejaVuSans-34"/>
       <use x="63.623047" xlink:href="#DejaVuSans-2e"/>
       <use x="95.410156" xlink:href="#DejaVuSans-35"/>
      </g>
     </g>
    </g>
   </g>
   <g id="line2d_17">
    <path clip-path="url(#pd85636e959)" d="M 73.026202 411.095602 
L 75.465013 412.30144 
L 77.903824 408.479488 
L 80.342635 390.371767 
L 82.781447 359.810846 
L 90.09788 245.947669 
L 92.536691 216.916367 
L 97.414314 185.688959 
L 99.853125 166.325203 
L 102.291936 145.242834 
L 104.730747 126.437571 
L 107.169559 116.285905 
L 109.60837 116.135985 
L 112.047181 120.635826 
L 114.485992 126.13309 
L 116.924803 136.465874 
L 119.363615 150.147691 
L 121.802426 163.078782 
L 124.241237 177.381468 
L 129.118859 212.83743 
L 131.55767 221.945338 
L 133.996482 222.177686 
L 136.435293 214.386577 
L 138.874104 196.058251 
L 141.312915 176.13278 
L 143.751726 162.421061 
L 146.190538 146.097702 
L 148.629349 120.782676 
L 151.06816 97.012298 
L 153.506971 86.229479 
L 155.945782 82.718427 
L 158.384594 77.698951 
L 160.823405 78.118862 
L 163.262216 89.89886 
L 165.701027 115.996399 
L 173.017461 221.458937 
L 175.456272 251.898169 
L 180.333894 302.542869 
L 182.772705 332.945391 
L 185.211517 368.169055 
L 187.650328 392.973845 
L 190.089139 402.884281 
L 192.52795 406.061173 
L 194.966761 406.446879 
L 197.405573 391.64491 
L 199.844384 362.278919 
L 202.283195 341.76319 
L 204.722006 328.882984 
L 207.160817 312.897787 
L 209.599628 302.306989 
L 212.03844 290.673892 
L 214.477251 271.463531 
L 221.793684 217.32039 
L 226.671307 172.968199 
L 229.110118 165.346617 
L 231.548929 168.3378 
L 233.98774 170.168671 
L 236.426552 174.808513 
L 238.865363 185.462508 
L 241.304174 198.903445 
L 243.742985 215.203398 
L 246.181796 232.441995 
L 248.620608 244.582639 
L 251.059419 248.12879 
L 253.49823 242.55538 
L 255.937041 224.708418 
L 258.375852 196.330156 
L 260.814663 159.617309 
L 263.253475 115.702162 
L 265.692286 86.150141 
L 268.131097 82.718062 
L 270.569908 90.575671 
L 273.008719 100.605281 
L 275.447531 111.577395 
L 277.886342 123.615833 
L 280.325153 127.95631 
L 282.763964 134.13769 
L 285.202775 159.713243 
L 287.641587 196.100453 
L 294.95802 318.872596 
L 297.396831 356.011074 
L 299.835642 385.363469 
L 302.274454 401.90247 
L 304.713265 412.841667 
L 307.152076 419.650965 
L 309.590887 417.252879 
L 312.029698 408.900995 
L 314.46851 393.948436 
L 316.907321 368.571721 
L 319.346132 341.277514 
L 321.784943 327.997187 
L 324.223754 328.008697 
L 326.662566 331.109094 
L 329.101377 334.023939 
L 331.540188 335.060483 
L 333.978999 338.753849 
L 336.41781 343.529172 
L 338.856622 340.823578 
L 341.295433 332.960746 
L 343.734244 319.755572 
L 346.173055 309.403409 
L 348.611866 310.964239 
L 351.050677 309.949252 
L 353.489489 296.9454 
L 355.9283 279.956792 
L 363.244733 234.298167 
L 368.122356 189.610772 
L 370.561167 178.187042 
L 372.999978 164.889621 
L 375.438789 141.826694 
L 377.877601 129.875952 
L 380.316412 134.506563 
L 382.755223 143.875251 
L 385.194034 155.739694 
L 387.632845 165.648322 
L 390.071656 162.046372 
L 392.510468 148.176191 
L 394.949279 125.939265 
L 397.38809 100.767887 
L 399.826901 94.876935 
L 402.265712 103.104825 
L 404.704524 112.326754 
L 407.143335 119.423756 
L 409.582146 118.817245 
L 412.020957 131.099025 
L 416.89858 195.920388 
L 419.337391 234.408591 
L 421.776202 275.05698 
L 424.215013 311.683631 
L 426.653824 345.941917 
L 429.092635 375.595333 
L 431.531447 384.980522 
L 433.970258 365.503753 
L 436.409069 338.698424 
L 438.84788 318.42321 
L 441.286691 305.855344 
L 443.725503 300.871731 
L 446.164314 303.902538 
L 451.041936 315.957907 
L 453.480747 320.984167 
L 455.919559 323.239022 
L 458.35837 316.78402 
L 460.797181 306.826199 
L 465.674803 295.100434 
L 468.113615 291.652326 
L 470.552426 284.777853 
L 475.430048 244.72339 
L 480.30767 217.611345 
L 482.746482 202.012652 
L 485.185293 176.826734 
L 487.624104 156.376015 
L 490.062915 149.084002 
L 492.501726 138.168772 
L 494.940538 118.597796 
L 497.379349 103.853049 
L 499.81816 107.805898 
L 502.256971 123.591617 
L 504.695782 137.983012 
L 507.134594 149.87766 
L 509.573405 159.679117 
L 512.012216 167.058573 
L 514.451027 164.420203 
L 516.889838 151.860762 
L 519.328649 146.184872 
L 521.767461 150.116503 
L 524.206272 146.297839 
L 529.083894 111.208856 
L 531.522705 99.784488 
L 533.961517 96.662808 
L 538.839139 99.219236 
L 541.27795 102.994624 
L 543.716761 117.939082 
L 546.155573 145.788438 
L 548.594384 177.782289 
L 551.033195 200.82252 
L 553.472006 211.329826 
L 555.910817 218.647119 
L 558.349629 234.86354 
L 560.78844 262.805112 
L 563.227251 294.247273 
L 565.666062 324.149838 
L 570.543684 377.074964 
L 572.982496 392.558815 
L 575.421307 400.110252 
L 577.860118 402.218277 
L 580.298929 391.831963 
L 582.73774 374.976142 
L 585.176552 361.86141 
L 587.615363 360.390855 
L 590.054174 365.660579 
L 592.492985 374.319085 
L 594.931796 384.528086 
L 597.370608 392.218442 
L 599.809419 394.827891 
L 602.24823 392.46207 
L 604.687041 379.511452 
L 609.564663 328.554089 
L 612.003475 310.127133 
L 614.442286 281.604477 
L 616.881097 243.464964 
L 619.319908 213.34214 
L 621.758719 191.428977 
L 629.075153 141.559814 
L 631.513964 118.148622 
L 633.952775 107.2585 
L 636.391587 125.443472 
L 641.269209 173.02722 
L 643.70802 206.151959 
L 653.463265 351.957731 
L 655.902076 384.835964 
L 658.340887 401.749867 
L 660.779698 399.23752 
L 663.21851 386.469986 
L 665.657321 364.976068 
L 668.096132 334.726881 
L 670.534943 307.881007 
L 672.973754 290.012473 
L 675.412566 278.428234 
L 677.851377 265.277552 
L 682.728999 226.822959 
L 685.16781 210.648456 
L 687.606622 195.558192 
L 690.045433 173.937706 
L 694.923055 119.161649 
L 697.361866 117.80201 
L 702.239489 165.763488 
L 704.6783 186.088058 
L 707.117111 203.617548 
L 711.994733 236.597686 
L 714.433545 250.157113 
L 716.872356 254.716807 
L 719.311167 253.368445 
L 721.749978 249.861001 
L 724.188789 234.359245 
L 726.627601 211.831476 
L 729.066412 200.916215 
L 731.505223 200.282893 
L 733.944034 196.580003 
L 736.382845 186.14563 
L 738.821656 160.535546 
L 741.260468 122.144656 
L 743.699279 93.262018 
L 746.13809 94.252733 
L 748.576901 113.759286 
L 751.015712 127.873873 
L 753.454524 152.342663 
L 755.893335 192.099191 
L 758.332146 229.261942 
L 760.770957 259.760479 
L 765.64858 309.794544 
L 768.087391 337.458348 
L 770.526202 371.36052 
L 772.965013 395.245935 
L 775.403824 405.45043 
L 777.842635 411.655413 
L 780.281447 409.794881 
L 782.720258 396.066482 
L 785.159069 372.174132 
L 787.59788 351.470369 
L 792.475503 318.921323 
L 794.914314 307.863128 
L 797.353125 307.80364 
L 799.791936 306.409571 
L 802.230747 293.151185 
L 804.669559 272.217197 
L 807.10837 253.657353 
L 809.547181 234.174459 
L 811.985992 200.054841 
L 814.424803 171.997009 
L 816.863615 165.208632 
L 819.302426 171.261238 
L 821.741237 184.913316 
L 824.180048 200.856261 
L 829.05767 236.991901 
L 829.05767 236.991901 
" style="fill:none;stroke:#1f77b4;stroke-linecap:square;stroke-width:1.5;"/>
   </g>
   <g id="line2d_18">
    <path clip-path="url(#pd85636e959)" d="M 75.465013 411.718348 
L 77.903824 409.532673 
L 80.342635 397.902458 
L 82.781447 374.538943 
L 85.220258 339.814056 
L 90.09788 263.905271 
L 92.536691 232.964649 
L 94.975503 209.662686 
L 99.853125 175.935243 
L 102.291936 155.569421 
L 104.730747 136.434318 
L 107.169559 122.209889 
L 109.60837 117.029752 
L 112.047181 118.342058 
L 114.485992 123.594541 
L 116.924803 131.895318 
L 119.363615 143.269118 
L 121.802426 156.52578 
L 124.241237 170.546181 
L 126.680048 186.563799 
L 129.118859 203.718613 
L 131.55767 216.273045 
L 133.996482 221.700591 
L 136.435293 217.30581 
L 138.874104 204.442533 
L 141.312915 186.609206 
L 146.190538 153.302174 
L 148.629349 132.898786 
L 151.06816 109.696331 
L 153.506971 92.986637 
L 155.945782 84.320165 
L 158.384594 80.111073 
L 160.823405 78.913087 
L 163.262216 84.898028 
L 165.701027 104.44472 
L 168.139838 133.923337 
L 173.017461 204.231696 
L 175.456272 235.76594 
L 177.895083 264.565633 
L 180.333894 289.821894 
L 182.772705 318.597113 
L 185.211517 350.507763 
L 187.650328 378.884431 
L 190.089139 397.13369 
L 192.52795 404.145843 
L 194.966761 406.115713 
L 197.405573 396.652928 
L 199.844384 376.927544 
L 202.283195 353.530469 
L 204.722006 335.08626 
L 207.160817 320.609714 
L 209.599628 308.782127 
L 214.477251 281.159289 
L 219.354873 244.834678 
L 221.793684 226.55338 
L 226.671307 184.407529 
L 229.110118 171.000191 
L 231.548929 166.768219 
L 233.98774 169.133839 
L 236.426552 173.07615 
L 238.865363 180.550311 
L 241.304174 192.232666 
L 243.742985 207.480234 
L 246.181796 223.552324 
L 248.620608 237.93303 
L 251.059419 245.502585 
L 253.49823 244.675287 
L 255.937041 232.253105 
L 258.375852 210.142865 
L 260.814663 176.961057 
L 263.253475 137.472027 
L 265.692286 103.507714 
L 268.131097 86.205863 
L 270.569908 86.75672 
L 273.008719 95.842623 
L 275.447531 105.996275 
L 277.886342 117.869398 
L 280.325153 124.230295 
L 282.763964 132.909594 
L 285.202775 148.295235 
L 287.641587 178.339022 
L 290.080398 216.767984 
L 294.95802 298.616079 
L 297.396831 337.290743 
L 299.835642 369.540683 
L 302.274454 392.643993 
L 304.713265 407.427745 
L 307.152076 415.502323 
L 309.590887 417.66135 
L 312.029698 412.875209 
L 314.46851 400.526331 
L 316.907321 380.421103 
L 319.346132 355.444011 
L 321.784943 336.453603 
L 324.223754 328.401995 
L 326.662566 329.674657 
L 329.101377 332.41983 
L 331.540188 334.375847 
L 336.41781 340.712669 
L 338.856622 341.358396 
L 341.295433 336.850601 
L 343.734244 325.50933 
L 346.173055 315.903822 
L 348.611866 310.844991 
L 351.050677 309.366275 
L 353.489489 302.539652 
L 355.9283 288.694644 
L 358.367111 272.324246 
L 363.244733 241.885163 
L 365.683545 222.30446 
L 368.122356 201.722363 
L 370.561167 184.897044 
L 372.999978 170.227913 
L 375.438789 153.040992 
L 377.877601 138.02052 
L 380.316412 132.78562 
L 382.755223 139.386225 
L 385.194034 150.028114 
L 387.632845 160.147397 
L 390.071656 162.142195 
L 392.510468 155.105062 
L 394.949279 135.66949 
L 397.38809 114.252739 
L 399.826901 100.136653 
L 402.265712 99.029779 
L 404.704524 107.842564 
L 407.143335 115.394326 
L 409.582146 118.317511 
L 412.020957 127.909174 
L 414.459768 147.534926 
L 416.89858 179.311269 
L 421.776202 253.849337 
L 424.215013 293.583465 
L 426.653824 328.204887 
L 429.092635 360.609033 
L 431.531447 377.069481 
L 433.970258 373.650257 
L 436.409069 352.471542 
L 438.84788 329.278716 
L 441.286691 312.705935 
L 443.725503 304.060921 
L 446.164314 303.025488 
L 448.603125 306.856135 
L 451.041936 313.082939 
L 453.480747 318.243888 
L 455.919559 321.876844 
L 458.35837 318.79463 
L 460.797181 312.438198 
L 463.235992 303.910906 
L 465.674803 297.982474 
L 468.113615 293.794991 
L 470.552426 287.225418 
L 472.991237 273.444103 
L 477.868859 237.755529 
L 480.30767 224.630955 
L 482.746482 209.281704 
L 485.185293 188.352116 
L 487.624104 168.458151 
L 490.062915 153.06635 
L 492.501726 142.686176 
L 497.379349 112.532207 
L 499.81816 107.638955 
L 502.256971 115.861421 
L 504.695782 130.392264 
L 507.134594 143.909262 
L 509.573405 154.450597 
L 512.012216 163.292969 
L 514.451027 164.145626 
L 516.889838 158.080733 
L 519.328649 150.229825 
L 521.767461 148.544933 
L 524.206272 146.52121 
L 526.645083 137.178888 
L 529.083894 120.582779 
L 531.522705 106.169986 
L 533.961517 98.934115 
L 536.400328 97.338571 
L 538.839139 98.55728 
L 541.27795 101.559782 
L 543.716761 111.875513 
L 546.155573 132.605917 
L 548.594384 161.733957 
L 551.033195 187.861542 
L 553.472006 205.428215 
L 555.910817 215.104762 
L 558.349629 228.122228 
L 560.78844 249.421619 
L 568.104873 337.411604 
L 570.543684 364.164278 
L 572.982496 383.017589 
L 575.421307 396.811765 
L 577.860118 399.779798 
L 580.298929 396.327197 
L 585.176552 369.422619 
L 587.615363 362.062986 
L 590.054174 363.212244 
L 592.492985 370.368102 
L 597.370608 388.073344 
L 599.809419 392.976268 
L 602.24823 393.362667 
L 604.687041 384.504941 
L 607.125852 366.070577 
L 609.564663 341.89962 
L 612.003475 319.814364 
L 614.442286 293.709435 
L 616.881097 263.088281 
L 619.319908 229.186107 
L 621.758719 202.971281 
L 624.197531 183.55028 
L 629.075153 150.304171 
L 631.513964 128.845538 
L 633.952775 115.799086 
L 636.391587 118.10131 
L 638.830398 136.406528 
L 641.269209 161.947124 
L 643.70802 190.212186 
L 646.146831 224.368963 
L 655.902076 367.539513 
L 658.340887 391.489529 
L 660.779698 399.059372 
L 663.21851 392.578877 
L 665.657321 374.543506 
L 668.096132 349.571784 
L 670.534943 322.150853 
L 672.973754 299.596054 
L 675.412566 284.618422 
L 677.851377 271.19375 
L 680.290188 255.343927 
L 685.16781 218.92453 
L 687.606622 203.095208 
L 690.045433 183.667695 
L 692.484244 160.112575 
L 694.923055 132.736666 
L 697.361866 122.688777 
L 699.800677 130.172091 
L 702.239489 153.75667 
L 704.6783 175.696123 
L 707.117111 194.616606 
L 709.555922 211.913552 
L 711.994733 228.289691 
L 714.433545 242.939929 
L 716.872356 251.374475 
L 719.311167 254.120435 
L 721.749978 251.177067 
L 724.188789 240.548727 
L 726.627601 223.485754 
L 729.066412 207.91887 
L 731.505223 200.768186 
L 733.944034 197.751222 
L 736.382845 190.92113 
L 738.821656 171.25299 
L 741.260468 141.297565 
L 743.699279 109.330582 
L 746.13809 97.109023 
L 748.576901 103.740336 
L 751.015712 120.183592 
L 753.454524 142.466956 
L 755.893335 172.410195 
L 758.332146 210.059002 
L 760.770957 244.022073 
L 763.209768 272.095799 
L 768.087391 323.894379 
L 770.526202 355.181229 
L 772.965013 380.861973 
L 775.403824 400.509284 
L 777.842635 407.725235 
L 780.281447 410.208581 
L 782.720258 401.46927 
L 785.159069 383.887727 
L 787.59788 362.586261 
L 790.036691 343.37529 
L 792.475503 327.084389 
L 794.914314 314.303796 
L 797.353125 308.754931 
L 799.791936 305.962628 
L 802.230747 298.946969 
L 804.669559 282.238332 
L 807.10837 263.778824 
L 809.547181 242.920515 
L 814.424803 188.480286 
L 816.863615 169.693369 
L 819.302426 169.28455 
L 821.741237 178.304241 
L 824.180048 193.049636 
L 826.618859 209.982941 
L 829.05767 227.768692 
L 829.05767 227.768692 
" style="fill:none;stroke:#ff7f0e;stroke-linecap:square;stroke-width:1.5;"/>
   </g>
   <g id="line2d_19">
    <path clip-path="url(#pd85636e959)" d="M 80.342635 403.179716 
L 82.781447 389.643942 
L 85.220258 367.280229 
L 87.659069 337.699703 
L 92.536691 268.317544 
L 94.975503 238.773949 
L 97.414314 214.054373 
L 99.853125 192.327693 
L 102.291936 173.772439 
L 104.730747 156.136174 
L 107.169559 139.856014 
L 109.60837 128.314985 
L 112.047181 121.580263 
L 114.485992 120.671087 
L 116.924803 125.591585 
L 119.363615 134.215801 
L 121.802426 144.368704 
L 124.241237 156.914058 
L 129.118859 187.462681 
L 131.55767 200.716414 
L 133.996482 211.102242 
L 136.435293 215.518458 
L 138.874104 211.443655 
L 141.312915 200.836598 
L 143.751726 187.633944 
L 146.190538 170.404604 
L 151.06816 130.786223 
L 153.506971 114.231063 
L 155.945782 98.90517 
L 158.384594 86.871563 
L 160.823405 81.839644 
L 163.262216 84.026188 
L 165.701027 93.746412 
L 168.139838 111.601547 
L 170.578649 137.32257 
L 173.017461 168.937577 
L 175.456272 202.122294 
L 177.895083 233.395118 
L 185.211517 321.160758 
L 187.650328 348.347806 
L 190.089139 371.45837 
L 192.52795 389.755128 
L 194.966761 400.858966 
L 197.405573 399.14547 
L 199.844384 388.580996 
L 202.283195 374.697033 
L 204.722006 357.70972 
L 207.160817 337.277396 
L 209.599628 321.974552 
L 212.03844 308.635385 
L 216.916062 278.51208 
L 219.354873 263.170364 
L 221.793684 244.517441 
L 226.671307 205.119308 
L 229.110118 189.528271 
L 231.548929 177.979638 
L 233.98774 170.667583 
L 236.426552 169.984337 
L 238.865363 175.665307 
L 241.304174 183.407068 
L 243.742985 194.411546 
L 248.620608 222.321196 
L 251.059419 233.382911 
L 253.49823 239.78197 
L 255.937041 237.184919 
L 258.375852 225.337235 
L 260.814663 203.198786 
L 265.692286 140.636691 
L 268.131097 115.570441 
L 270.569908 98.334897 
L 273.008719 91.96563 
L 275.447531 96.68499 
L 277.886342 106.951907 
L 280.325153 114.780289 
L 282.763964 124.376715 
L 285.202775 138.423474 
L 287.641587 158.185938 
L 290.080398 183.715866 
L 292.519209 218.594039 
L 297.396831 297.113171 
L 299.835642 333.315035 
L 302.274454 363.135434 
L 304.713265 386.861076 
L 307.152076 403.446782 
L 309.590887 411.357798 
L 312.029698 412.861792 
L 314.46851 408.176185 
L 316.907321 395.153814 
L 319.346132 376.826804 
L 321.784943 359.451536 
L 324.223754 344.469885 
L 326.662566 334.315799 
L 329.101377 330.650773 
L 331.540188 331.828987 
L 336.41781 338.037177 
L 338.856622 338.839231 
L 341.295433 337.6119 
L 343.734244 332.717267 
L 346.173055 325.871724 
L 351.050677 313.521994 
L 353.489489 305.285155 
L 355.9283 297.602482 
L 358.367111 287.374248 
L 360.805922 273.158775 
L 363.244733 257.113815 
L 368.122356 220.975406 
L 370.561167 204.657493 
L 372.999978 186.989266 
L 375.438789 167.668904 
L 377.877601 154.087128 
L 380.316412 145.62722 
L 382.755223 140.362412 
L 385.194034 141.96725 
L 387.632845 149.891064 
L 390.071656 154.835417 
L 392.510468 155.358915 
L 394.949279 147.661023 
L 399.826901 119.352468 
L 402.265712 109.793573 
L 404.704524 105.012693 
L 407.143335 107.18737 
L 409.582146 112.232437 
L 412.020957 121.676206 
L 414.459768 136.290458 
L 416.89858 155.11366 
L 419.337391 182.284392 
L 424.215013 254.518234 
L 429.092635 326.388212 
L 431.531447 350.915141 
L 433.970258 362.566921 
L 436.409069 361.721058 
L 438.84788 351.559438 
L 441.286691 333.825062 
L 443.725503 317.915922 
L 446.164314 309.184577 
L 448.603125 306.455818 
L 451.041936 308.198456 
L 453.480747 312.507348 
L 455.919559 317.145372 
L 458.35837 317.659941 
L 460.797181 315.856586 
L 463.235992 311.642152 
L 465.674803 305.503092 
L 470.552426 292.700626 
L 472.991237 282.106636 
L 475.430048 270.224607 
L 477.868859 256.564459 
L 480.30767 240.608215 
L 482.746482 223.458379 
L 487.624104 188.119428 
L 490.062915 172.644871 
L 492.501726 156.342399 
L 494.940538 139.278928 
L 497.379349 127.152925 
L 499.81816 119.850882 
L 502.256971 116.955971 
L 504.695782 119.776578 
L 507.134594 129.467917 
L 509.573405 142.107005 
L 512.012216 153.168987 
L 514.451027 158.438439 
L 516.889838 158.720086 
L 519.328649 156.961324 
L 521.767461 154.895041 
L 524.206272 148.657031 
L 526.645083 140.781281 
L 529.083894 132.396269 
L 531.522705 122.221128 
L 533.961517 111.01479 
L 536.400328 102.886685 
L 538.839139 99.048163 
L 541.27795 99.600992 
L 543.716761 106.310001 
L 546.155573 119.251245 
L 548.594384 138.238224 
L 553.472006 181.572304 
L 555.910817 200.175773 
L 560.78844 234.184902 
L 563.227251 254.572246 
L 565.666062 279.312906 
L 570.543684 336.197476 
L 572.982496 359.470488 
L 575.421307 378.542668 
L 577.860118 390.697864 
L 580.298929 394.819844 
L 582.73774 389.858335 
L 585.176552 382.540882 
L 587.615363 373.970577 
L 590.054174 367.917803 
L 592.492985 366.965425 
L 594.931796 371.73858 
L 597.370608 379.108238 
L 599.809419 385.513395 
L 602.24823 389.828835 
L 604.687041 387.590341 
L 607.125852 377.573502 
L 609.564663 362.1246 
L 612.003475 343.693199 
L 614.442286 317.781563 
L 619.319908 261.562517 
L 624.197531 207.516154 
L 626.636342 185.389219 
L 631.513964 147.311813 
L 633.952775 133.085903 
L 636.391587 127.484712 
L 638.830398 129.103366 
L 641.269209 140.071674 
L 643.70802 164.3047 
L 648.585642 225.429716 
L 651.024454 260.352511 
L 653.463265 297.001921 
L 655.902076 331.826113 
L 658.340887 360.62485 
L 660.779698 380.218716 
L 663.21851 389.481712 
L 665.657321 385.426051 
L 668.096132 369.438078 
L 675.412566 304.661805 
L 677.851377 285.868653 
L 680.290188 269.211345 
L 685.16781 237.465739 
L 687.606622 220.297417 
L 690.045433 200.9298 
L 692.484244 180.326927 
L 694.923055 157.865277 
L 697.361866 143.188349 
L 699.800677 136.573058 
L 702.239489 139.918662 
L 704.6783 152.538478 
L 707.117111 173.701021 
L 709.555922 193.453527 
L 711.994733 211.409038 
L 714.433545 227.210977 
L 716.872356 238.860538 
L 719.311167 247.111335 
L 721.749978 250.769085 
L 724.188789 246.215959 
L 733.944034 203.383323 
L 736.382845 194.919164 
L 738.821656 182.864951 
L 741.260468 163.41054 
L 743.699279 140.056601 
L 746.13809 122.479632 
L 748.576901 111.102064 
L 751.015712 109.414963 
L 753.454524 123.181267 
L 755.893335 148.949832 
L 758.332146 177.18495 
L 760.770957 207.350309 
L 763.209768 240.097156 
L 765.64858 270.331061 
L 770.526202 327.170492 
L 772.965013 352.435001 
L 775.403824 375.288909 
L 777.842635 393.179349 
L 780.281447 404.223523 
L 782.720258 403.061734 
L 785.159069 394.994801 
L 787.59788 381.469709 
L 790.036691 364.451767 
L 792.475503 345.120286 
L 794.914314 329.170425 
L 797.353125 319.372089 
L 799.791936 311.146106 
L 802.230747 302.513433 
L 804.669559 292.464455 
L 807.10837 280.831123 
L 809.547181 263.012783 
L 814.424803 214.551113 
L 816.863615 195.485805 
L 819.302426 181.592667 
L 821.741237 175.781348 
L 824.180048 181.913234 
L 826.618859 194.49426 
L 829.05767 210.626542 
L 829.05767 210.626542 
" style="fill:none;stroke:#2ca02c;stroke-linecap:square;stroke-width:1.5;"/>
   </g>
   <g id="line2d_20">
    <path clip-path="url(#pd85636e959)" d="M 92.536691 335.74863 
L 94.975503 314.208946 
L 97.414314 290.667301 
L 99.853125 265.013698 
L 104.730747 212.226859 
L 107.169559 189.314982 
L 109.60837 171.184679 
L 112.047181 156.953978 
L 114.485992 147.221763 
L 116.924803 140.86388 
L 119.363615 137.035908 
L 121.802426 136.341844 
L 124.241237 139.247161 
L 126.680048 146.334221 
L 129.118859 156.527133 
L 131.55767 167.466108 
L 133.996482 177.735473 
L 136.435293 186.216258 
L 138.874104 191.720505 
L 141.312915 194.149639 
L 143.751726 194.175179 
L 146.190538 190.753423 
L 148.629349 182.855421 
L 151.06816 171.114939 
L 153.506971 157.533831 
L 158.384594 128.638084 
L 160.823405 116.016014 
L 163.262216 107.406206 
L 165.701027 103.988738 
L 168.139838 105.253358 
L 170.578649 112.097067 
L 173.017461 125.388611 
L 175.456272 143.074241 
L 177.895083 163.570765 
L 180.333894 187.039129 
L 182.772705 214.620053 
L 187.650328 275.23505 
L 190.089139 302.426744 
L 192.52795 326.11592 
L 194.966761 346.388251 
L 197.405573 360.153114 
L 199.844384 368.464401 
L 202.283195 373.077702 
L 204.722006 373.732424 
L 207.160817 369.068181 
L 209.599628 360.560011 
L 212.03844 348.60819 
L 214.477251 334.275861 
L 216.916062 318.1109 
L 219.354873 300.22388 
L 226.671307 249.486998 
L 229.110118 234.020176 
L 233.98774 207.592512 
L 236.426552 197.401925 
L 238.865363 190.392307 
L 241.304174 186.46767 
L 243.742985 186.195592 
L 246.181796 189.49199 
L 248.620608 196.152767 
L 251.059419 204.524109 
L 253.49823 211.594519 
L 255.937041 215.798232 
L 258.375852 216.826816 
L 260.814663 212.759991 
L 263.253475 202.874747 
L 265.692286 190.209331 
L 268.131097 176.37768 
L 273.008719 147.582208 
L 275.447531 134.525787 
L 277.886342 123.794299 
L 280.325153 115.175365 
L 282.763964 111.355806 
L 285.202775 115.194552 
L 287.641587 127.435464 
L 290.080398 145.333887 
L 292.519209 166.687164 
L 294.95802 190.993272 
L 299.835642 245.750486 
L 302.274454 273.42565 
L 304.713265 302.727558 
L 307.152076 330.528305 
L 309.590887 354.235485 
L 312.029698 373.088414 
L 314.46851 385.655809 
L 316.907321 391.007445 
L 319.346132 390.136793 
L 321.784943 385.404667 
L 324.223754 378.665839 
L 326.662566 371.245992 
L 331.540188 354.327896 
L 333.978999 347.202487 
L 336.41781 341.253531 
L 338.856622 336.577515 
L 341.295433 334.131336 
L 346.173055 330.412581 
L 348.611866 328.864235 
L 351.050677 326.180612 
L 353.489489 321.448527 
L 355.9283 315.159874 
L 358.367111 306.622986 
L 360.805922 296.425034 
L 363.244733 285.317904 
L 370.561167 246.015871 
L 372.999978 230.074021 
L 375.438789 212.391359 
L 377.877601 196.660131 
L 380.316412 183.301313 
L 382.755223 172.509953 
L 385.194034 164.478258 
L 387.632845 158.779984 
L 390.071656 154.461273 
L 392.510468 150.493068 
L 397.38809 137.668721 
L 399.826901 134.621766 
L 402.265712 132.314495 
L 404.704524 130.185804 
L 407.143335 127.424196 
L 409.582146 122.801314 
L 412.020957 120.514337 
L 414.459768 123.042016 
L 416.89858 130.063176 
L 419.337391 144.735881 
L 421.776202 164.920995 
L 424.215013 188.09722 
L 426.653824 213.488413 
L 429.092635 240.750936 
L 431.531447 266.599766 
L 433.970258 290.088237 
L 436.409069 308.119646 
L 438.84788 321.122903 
L 441.286691 330.106637 
L 443.725503 334.415532 
L 446.164314 335.875749 
L 448.603125 334.088438 
L 451.041936 329.878947 
L 453.480747 323.166205 
L 455.919559 317.530647 
L 458.35837 313.422259 
L 460.797181 311.156202 
L 463.235992 309.920304 
L 468.113615 308.076423 
L 470.552426 305.180283 
L 472.991237 298.981611 
L 475.430048 290.93338 
L 477.868859 281.033776 
L 482.746482 258.079502 
L 487.624104 229.172018 
L 490.062915 214.604665 
L 492.501726 198.475307 
L 494.940538 181.368653 
L 497.379349 166.331096 
L 499.81816 153.985155 
L 502.256971 144.800421 
L 504.695782 138.059488 
L 507.134594 134.373422 
L 509.573405 134.629965 
L 512.012216 136.509934 
L 514.451027 137.697205 
L 516.889838 139.248332 
L 519.328649 143.21462 
L 521.767461 148.501023 
L 524.206272 150.913009 
L 526.645083 149.60986 
L 529.083894 145.558177 
L 531.522705 139.591226 
L 533.961517 132.954916 
L 536.400328 125.771858 
L 538.839139 119.914722 
L 541.27795 115.99863 
L 543.716761 114.265564 
L 546.155573 115.133017 
L 548.594384 120.562454 
L 551.033195 129.470361 
L 553.472006 140.586648 
L 555.910817 153.242887 
L 558.349629 168.226795 
L 560.78844 186.211563 
L 563.227251 207.232402 
L 570.543684 276.69991 
L 575.421307 316.557457 
L 577.860118 335.005385 
L 580.298929 351.194426 
L 582.73774 363.027906 
L 585.176552 371.005685 
L 587.615363 376.256622 
L 590.054174 379.307834 
L 592.492985 380.892635 
L 594.931796 380.798458 
L 597.370608 380.82456 
L 599.809419 379.741986 
L 602.24823 378.873319 
L 604.687041 377.277883 
L 607.125852 374.656041 
L 609.564663 370.616419 
L 612.003475 364.603297 
L 614.442286 353.805199 
L 616.881097 338.432473 
L 619.319908 319.56801 
L 621.758719 298.27458 
L 624.197531 275.604676 
L 631.513964 204.437165 
L 633.952775 183.755231 
L 636.391587 167.500433 
L 638.830398 157.246293 
L 641.269209 153.412884 
L 643.70802 155.808256 
L 646.146831 163.665597 
L 648.585642 176.457214 
L 651.024454 194.727938 
L 653.463265 218.536798 
L 658.340887 277.435071 
L 660.779698 302.824216 
L 663.21851 324.917111 
L 665.657321 341.213986 
L 668.096132 350.632095 
L 670.534943 354.251678 
L 672.973754 352.983388 
L 675.412566 347.071759 
L 677.851377 335.647352 
L 680.290188 319.324712 
L 687.606622 262.479611 
L 694.923055 205.655355 
L 697.361866 190.327044 
L 699.800677 178.435237 
L 702.239489 170.424231 
L 704.6783 166.432703 
L 707.117111 165.783149 
L 709.555922 168.320938 
L 711.994733 173.991048 
L 714.433545 183.564819 
L 716.872356 195.699508 
L 719.311167 210.406178 
L 721.749978 222.111306 
L 724.188789 228.812499 
L 726.627601 231.324903 
L 729.066412 231.77813 
L 731.505223 230.657972 
L 733.944034 227.076204 
L 736.382845 220.567561 
L 738.821656 209.151891 
L 741.260468 194.053131 
L 743.699279 177.130605 
L 746.13809 162.931478 
L 748.576901 153.010614 
L 751.015712 146.139957 
L 753.454524 143.295903 
L 755.893335 144.503217 
L 758.332146 149.832291 
L 760.770957 159.226186 
L 763.209768 174.756059 
L 765.64858 196.756164 
L 768.087391 223.595325 
L 772.965013 279.892655 
L 775.403824 307.693033 
L 777.842635 331.755205 
L 780.281447 351.232171 
L 782.720258 365.116113 
L 785.159069 373.714901 
L 787.59788 378.379309 
L 790.036691 378.815558 
L 792.475503 374.671904 
L 797.353125 357.183445 
L 799.791936 346.307908 
L 802.230747 333.4826 
L 804.669559 318.792371 
L 809.547181 291.192436 
L 814.424803 258.532273 
L 816.863615 243.97513 
L 819.302426 231.211895 
L 821.741237 219.397066 
L 824.180048 210.101233 
L 826.618859 204.522686 
L 829.05767 203.056174 
L 829.05767 203.056174 
" style="fill:none;stroke:#d62728;stroke-linecap:square;stroke-width:1.5;"/>
   </g>
   <g id="line2d_21">
    <path clip-path="url(#pd85636e959)" d="M 129.118859 228.13754 
L 133.996482 213.024106 
L 136.435293 204.808035 
L 138.874104 196.030407 
L 141.312915 187.668916 
L 143.751726 180.239225 
L 148.629349 167.306571 
L 151.06816 161.734152 
L 153.506971 156.85162 
L 155.945782 152.265469 
L 158.384594 148.21242 
L 160.823405 145.208961 
L 163.262216 143.784902 
L 165.701027 144.373668 
L 168.139838 146.614575 
L 170.578649 150.013937 
L 173.017461 154.680424 
L 175.456272 160.075143 
L 177.895083 165.934374 
L 180.333894 172.266757 
L 182.772705 179.523703 
L 187.650328 195.345233 
L 194.966761 217.475048 
L 202.283195 237.505599 
L 207.160817 250.849606 
L 212.03844 266.342534 
L 214.477251 273.430324 
L 216.916062 280.011037 
L 219.354873 286.109366 
L 221.793684 291.14716 
L 224.232496 294.501199 
L 226.671307 295.704904 
L 229.110118 295.596382 
L 231.548929 294.24078 
L 233.98774 291.493161 
L 236.426552 288.073607 
L 238.865363 284.158941 
L 241.304174 279.782453 
L 243.742985 274.739582 
L 248.620608 262.868285 
L 251.059419 256.543849 
L 253.49823 249.787822 
L 258.375852 234.162642 
L 260.814663 225.791844 
L 265.692286 206.373216 
L 268.131097 197.663381 
L 270.569908 189.434711 
L 273.008719 182.457893 
L 275.447531 176.64382 
L 277.886342 172.061181 
L 280.325153 167.985367 
L 282.763964 165.406565 
L 285.202775 165.178685 
L 287.641587 167.257146 
L 290.080398 170.898701 
L 292.519209 176.108247 
L 294.95802 182.795014 
L 297.396831 190.604452 
L 302.274454 206.844374 
L 304.713265 214.598153 
L 307.152076 221.821091 
L 312.029698 234.682868 
L 319.346132 252.119005 
L 321.784943 259.662322 
L 324.223754 269.103528 
L 329.101377 289.207998 
L 333.978999 308.259884 
L 336.41781 317.373965 
L 341.295433 333.77432 
L 343.734244 340.485934 
L 346.173055 345.749534 
L 348.611866 349.675037 
L 351.050677 351.597729 
L 353.489489 351.112543 
L 355.9283 348.484464 
L 358.367111 343.801749 
L 360.805922 337.643785 
L 363.244733 330.393405 
L 365.683545 321.586955 
L 372.999978 292.469279 
L 375.438789 282.291949 
L 377.877601 273.373618 
L 380.316412 265.750272 
L 382.755223 258.643863 
L 387.632845 245.407001 
L 390.071656 238.210547 
L 392.510468 230.456258 
L 394.949279 221.18538 
L 397.38809 211.035355 
L 399.826901 201.509649 
L 402.265712 192.646881 
L 409.582146 169.543584 
L 412.020957 163.140491 
L 414.459768 158.847942 
L 416.89858 156.417579 
L 419.337391 156.430538 
L 421.776202 158.43374 
L 424.215013 162.621375 
L 426.653824 169.138589 
L 431.531447 185.682068 
L 436.409069 201.431806 
L 438.84788 208.633051 
L 441.286691 215.139708 
L 446.164314 226.992736 
L 448.603125 232.744757 
L 451.041936 239.305659 
L 453.480747 246.569395 
L 460.797181 272.045581 
L 463.235992 279.675375 
L 468.113615 293.45366 
L 470.552426 299.944324 
L 472.991237 304.131666 
L 475.430048 306.462204 
L 477.868859 306.957635 
L 480.30767 305.118425 
L 482.746482 301.114089 
L 485.185293 294.329873 
L 487.624104 285.948816 
L 497.379349 247.416246 
L 499.81816 239.607105 
L 502.256971 232.835148 
L 507.134594 220.513158 
L 512.012216 208.601211 
L 514.451027 202.021366 
L 516.889838 194.89095 
L 519.328649 188.373435 
L 521.767461 182.354175 
L 524.206272 176.004187 
L 526.645083 169.077004 
L 531.522705 154.277535 
L 533.961517 148.135806 
L 536.400328 142.536603 
L 538.839139 137.573745 
L 541.27795 133.367265 
L 543.716761 130.84786 
L 546.155573 130.884201 
L 548.594384 132.560362 
L 551.033195 135.023283 
L 553.472006 138.413246 
L 555.910817 143.027228 
L 558.349629 148.894085 
L 560.78844 155.427166 
L 563.227251 162.546538 
L 565.666062 170.320512 
L 568.104873 178.647447 
L 572.982496 196.687466 
L 580.298929 226.219151 
L 585.176552 243.464236 
L 587.615363 253.205242 
L 590.054174 263.820374 
L 594.931796 286.849596 
L 599.809419 310.498289 
L 602.24823 321.865942 
L 604.687041 331.424078 
L 607.125852 338.514048 
L 609.564663 343.485822 
L 612.003475 347.258417 
L 614.442286 349.107794 
L 616.881097 349.243844 
L 619.319908 347.386082 
L 621.758719 343.533754 
L 624.197531 337.847198 
L 626.636342 330.323057 
L 629.075153 321.080862 
L 633.952775 298.256837 
L 636.391587 287.635607 
L 638.830398 278.004157 
L 641.269209 270.131228 
L 643.70802 264.498223 
L 646.146831 260.597718 
L 648.585642 257.927435 
L 651.024454 256.491099 
L 653.463265 256.138527 
L 658.340887 256.901041 
L 660.779698 256.868499 
L 663.21851 256.421674 
L 668.096132 254.888644 
L 672.973754 253.279471 
L 675.412566 253.797723 
L 677.851377 255.024478 
L 685.16781 259.269388 
L 687.606622 260.779362 
L 692.484244 263.021433 
L 694.923055 262.811872 
L 697.361866 262.410116 
L 699.800677 262.2733 
L 702.239489 261.829017 
L 704.6783 260.668188 
L 707.117111 258.703018 
L 709.555922 256.014878 
L 711.994733 252.484606 
L 714.433545 247.870828 
L 719.311167 236.000315 
L 721.749978 230.124952 
L 724.188789 223.831455 
L 726.627601 217.873384 
L 729.066412 213.126602 
L 731.505223 209.265535 
L 736.382845 201.882927 
L 738.821656 197.272644 
L 743.699279 186.587769 
L 746.13809 182.654783 
L 748.576901 180.043856 
L 751.015712 178.969676 
L 753.454524 180.537309 
L 755.893335 184.80468 
L 760.770957 194.199307 
L 763.209768 199.005375 
L 765.64858 204.095826 
L 768.087391 209.712639 
L 772.965013 222.404499 
L 780.281447 241.135077 
L 787.59788 257.827138 
L 790.036691 262.910797 
L 794.914314 271.813447 
L 797.353125 277.050853 
L 799.791936 283.483369 
L 804.669559 297.799783 
L 807.10837 303.483745 
L 809.547181 307.432997 
L 811.985992 309.258222 
L 814.424803 309.005344 
L 816.863615 307.106978 
L 819.302426 304.365288 
L 821.741237 301.119205 
L 824.180048 297.621438 
L 826.618859 293.837984 
L 829.05767 289.584122 
L 829.05767 289.584122 
" style="fill:none;stroke:#9467bd;stroke-linecap:square;stroke-width:1.5;"/>
   </g>
   <g id="line2d_22">
    <path clip-path="url(#pd85636e959)" d="M 165.701027 193.687722 
L 168.139838 187.668348 
L 170.578649 182.464909 
L 173.017461 178.126223 
L 175.456272 174.635843 
L 177.895083 172.464647 
L 180.333894 171.772444 
L 182.772705 173.044572 
L 185.211517 176.058854 
L 187.650328 180.395881 
L 190.089139 185.35725 
L 192.52795 190.645091 
L 197.405573 201.911077 
L 204.722006 217.876804 
L 209.599628 226.960363 
L 212.03844 230.742488 
L 214.477251 233.710245 
L 216.916062 235.913839 
L 219.354873 237.365655 
L 221.793684 237.910785 
L 224.232496 237.345257 
L 229.110118 234.515321 
L 231.548929 233.22533 
L 233.98774 232.304426 
L 236.426552 232.162843 
L 238.865363 232.770912 
L 241.304174 233.986962 
L 243.742985 236.226197 
L 246.181796 239.569928 
L 253.49823 251.596562 
L 255.937041 255.015367 
L 258.375852 257.507127 
L 260.814663 258.501289 
L 263.253475 257.492415 
L 265.692286 255.225955 
L 268.131097 252.296351 
L 270.569908 248.681792 
L 273.008719 244.731706 
L 275.447531 240.403649 
L 277.886342 235.785354 
L 280.325153 230.154195 
L 282.763964 224.083786 
L 285.202775 218.491165 
L 287.641587 213.744595 
L 290.080398 210.030447 
L 292.519209 207.371079 
L 294.95802 206.391831 
L 297.396831 207.057687 
L 299.835642 208.571845 
L 302.274454 210.708661 
L 307.152076 216.57586 
L 309.590887 219.897988 
L 314.46851 226.916674 
L 319.346132 233.11453 
L 321.784943 236.726991 
L 333.978999 257.348129 
L 336.41781 261.163039 
L 338.856622 264.444135 
L 341.295433 267.050906 
L 343.734244 268.809814 
L 346.173055 270.291945 
L 351.050677 273.661638 
L 353.489489 275.563436 
L 355.9283 277.84297 
L 358.367111 280.813878 
L 363.244733 288.221279 
L 365.683545 291.021272 
L 368.122356 293.173034 
L 370.561167 294.90036 
L 372.999978 295.838645 
L 375.438789 295.810903 
L 377.877601 295.934627 
L 380.316412 295.829347 
L 382.755223 295.142728 
L 385.194034 293.811309 
L 387.632845 291.582803 
L 390.071656 287.9648 
L 392.510468 283.047983 
L 394.949279 276.461209 
L 407.143335 238.439906 
L 409.582146 231.239534 
L 412.020957 225.297435 
L 414.459768 220.973442 
L 416.89858 218.029579 
L 419.337391 216.294012 
L 421.776202 215.381993 
L 424.215013 215.322739 
L 426.653824 215.977892 
L 429.092635 217.349482 
L 431.531447 218.289225 
L 433.970258 218.448211 
L 436.409069 218.182968 
L 438.84788 217.721334 
L 443.725503 217.29475 
L 446.164314 217.134871 
L 448.603125 217.299696 
L 451.041936 218.085497 
L 453.480747 219.351065 
L 458.35837 222.697517 
L 460.797181 224.642542 
L 463.235992 227.136624 
L 468.113615 232.809888 
L 472.991237 238.947259 
L 475.430048 241.653809 
L 477.868859 243.78418 
L 480.30767 245.340614 
L 482.746482 246.097828 
L 485.185293 245.899534 
L 487.624104 245.81431 
L 490.062915 245.944925 
L 494.940538 246.83642 
L 497.379349 246.874591 
L 499.81816 247.071474 
L 502.256971 247.437834 
L 504.695782 247.999437 
L 507.134594 248.990855 
L 509.573405 249.428441 
L 512.012216 249.18129 
L 514.451027 247.853432 
L 516.889838 245.053898 
L 519.328649 241.409826 
L 521.767461 236.975542 
L 524.206272 231.427623 
L 531.522705 211.366602 
L 533.961517 205.637259 
L 538.839139 195.305453 
L 541.27795 190.449673 
L 543.716761 186.00728 
L 546.155573 182.236687 
L 548.594384 179.098499 
L 553.472006 173.50304 
L 555.910817 171.321759 
L 558.349629 169.904907 
L 560.78844 169.416343 
L 563.227251 169.862249 
L 565.666062 171.041219 
L 568.104873 173.180307 
L 570.543684 176.666262 
L 572.982496 180.572078 
L 577.860118 189.802425 
L 580.298929 194.60049 
L 585.176552 204.87476 
L 587.615363 210.275238 
L 590.054174 216.24935 
L 592.492985 223.061302 
L 597.370608 237.28193 
L 599.809419 243.844916 
L 602.24823 250.005882 
L 604.687041 255.326605 
L 607.125852 259.716414 
L 612.003475 267.001761 
L 614.442286 269.888567 
L 616.881097 271.865765 
L 626.636342 276.512686 
L 629.075153 277.432386 
L 631.513964 277.586977 
L 633.952775 277.897225 
L 636.391587 278.898188 
L 638.830398 280.200483 
L 643.70802 283.218659 
L 646.146831 284.898108 
L 648.585642 287.090333 
L 651.024454 290.048008 
L 655.902076 297.54663 
L 658.340887 300.703102 
L 660.779698 302.796142 
L 663.21851 303.819109 
L 665.657321 303.487994 
L 668.096132 301.701705 
L 670.534943 299.254104 
L 675.412566 293.064602 
L 680.290188 286.620831 
L 682.728999 283.117173 
L 685.16781 279.133711 
L 687.606622 274.612053 
L 690.045433 269.114642 
L 692.484244 262.694374 
L 694.923055 255.461803 
L 697.361866 248.84308 
L 699.800677 242.955081 
L 702.239489 238.155682 
L 704.6783 234.564996 
L 707.117111 231.908855 
L 709.555922 230.063121 
L 711.994733 229.658516 
L 714.433545 230.397729 
L 716.872356 231.727249 
L 719.311167 233.494702 
L 721.749978 235.469738 
L 726.627601 238.983321 
L 729.066412 241.400238 
L 731.505223 243.634541 
L 733.944034 244.957064 
L 736.382845 245.488833 
L 738.821656 244.332481 
L 741.260468 241.288468 
L 743.699279 236.860954 
L 746.13809 232.088304 
L 748.576901 226.832527 
L 753.454524 215.207862 
L 755.893335 210.401577 
L 758.332146 206.709083 
L 760.770957 204.066102 
L 763.209768 202.717999 
L 765.64858 202.819485 
L 768.087391 204.196866 
L 770.526202 206.886887 
L 772.965013 210.037751 
L 775.403824 213.895531 
L 777.842635 218.315485 
L 782.720258 227.586387 
L 785.159069 231.874924 
L 787.59788 236.46302 
L 790.036691 241.33109 
L 792.475503 246.451003 
L 794.914314 250.834146 
L 797.353125 254.724803 
L 799.791936 257.86645 
L 802.230747 260.07796 
L 804.669559 261.296433 
L 807.10837 261.756346 
L 809.547181 261.175271 
L 811.985992 259.251232 
L 816.863615 254.843241 
L 819.302426 253.109293 
L 821.741237 252.370945 
L 824.180048 252.560533 
L 826.618859 253.264099 
L 829.05767 254.395983 
L 829.05767 254.395983 
" style="fill:none;stroke:#8c564b;stroke-linecap:square;stroke-width:1.5;"/>
   </g>
   <g id="line2d_23">
    <path clip-path="url(#pd85636e959)" d="M 68.14858 410.552164 
L 70.587391 411.639041 
L 73.026202 412.963839 
L 75.465013 403.995137 
L 77.903824 376.748396 
L 80.342635 342.873296 
L 82.781447 299.820475 
L 85.220258 265.061213 
L 87.659069 226.834125 
L 90.09788 206.99861 
L 92.536691 195.155324 
L 97.414314 156.427812 
L 99.853125 134.057856 
L 102.291936 118.817286 
L 104.730747 113.754524 
L 107.169559 118.517445 
L 109.60837 122.754206 
L 112.047181 129.511973 
L 116.924803 156.875607 
L 119.363615 169.281956 
L 121.802426 185.480979 
L 124.241237 204.92846 
L 126.680048 220.7464 
L 129.118859 223.144275 
L 131.55767 221.211096 
L 133.996482 207.562058 
L 136.435293 184.554444 
L 138.874104 167.711116 
L 141.312915 157.131007 
L 143.751726 135.064398 
L 146.190538 106.500954 
L 148.629349 87.523641 
L 151.06816 84.935316 
L 153.506971 80.501539 
L 155.945782 74.896364 
L 158.384594 81.34136 
L 160.823405 98.456361 
L 170.578649 239.416394 
L 177.895083 315.185178 
L 182.772705 385.632507 
L 185.211517 400.315182 
L 187.650328 405.453381 
L 190.089139 406.668966 
L 192.52795 406.224793 
L 197.405573 347.492812 
L 199.844384 336.033568 
L 202.283195 321.732401 
L 204.722006 304.063174 
L 207.160817 300.550805 
L 209.599628 280.796978 
L 212.03844 262.130085 
L 216.916062 227.354591 
L 219.354873 207.28619 
L 221.793684 182.30734 
L 224.232496 163.629057 
L 226.671307 167.064176 
L 229.110118 169.611425 
L 231.548929 170.725918 
L 233.98774 178.891108 
L 238.865363 205.772983 
L 241.304174 224.633813 
L 243.742985 240.250177 
L 246.181796 248.915102 
L 248.620608 247.342478 
L 251.059419 237.768283 
L 253.49823 211.648554 
L 255.937041 181.011758 
L 258.375852 138.222859 
L 260.814663 93.181465 
L 263.253475 79.118818 
L 265.692286 86.317307 
L 268.131097 94.834034 
L 270.569908 106.376527 
L 273.008719 116.778263 
L 275.447531 130.453403 
L 277.886342 125.459218 
L 280.325153 142.816162 
L 282.763964 176.610324 
L 285.202775 215.590581 
L 290.080398 299.850082 
L 292.519209 337.89511 
L 294.95802 374.127038 
L 297.396831 396.5999 
L 299.835642 407.205041 
L 302.274454 418.478293 
L 304.713265 420.823636 
L 307.152076 413.682122 
L 309.590887 404.119868 
L 312.029698 383.777004 
L 314.46851 353.366437 
L 316.907321 329.188591 
L 319.346132 326.805782 
L 321.784943 329.211612 
L 324.223754 333.006576 
L 326.662566 335.041302 
L 329.101377 335.079664 
L 331.540188 342.428033 
L 333.978999 344.630311 
L 336.41781 337.016845 
L 338.856622 328.904648 
L 341.295433 310.606496 
L 343.734244 308.200322 
L 346.173055 313.728156 
L 348.611866 306.170348 
L 351.050677 287.720452 
L 355.9283 257.059156 
L 358.367111 242.650788 
L 360.805922 225.945545 
L 363.244733 198.317047 
L 365.683545 180.904496 
L 368.122356 175.469588 
L 370.561167 154.309654 
L 372.999978 129.343733 
L 375.438789 130.408172 
L 377.877601 138.604955 
L 380.316412 149.145547 
L 382.755223 162.333841 
L 385.194034 168.962803 
L 390.071656 141.222442 
L 392.510468 110.656088 
L 394.949279 90.879686 
L 397.38809 98.874184 
L 399.826901 107.335467 
L 402.265712 117.318042 
L 404.704524 121.529471 
L 407.143335 116.10502 
L 409.582146 146.093031 
L 412.020957 180.406727 
L 414.459768 211.434049 
L 416.89858 257.383132 
L 419.337391 292.730829 
L 421.776202 330.636433 
L 424.215013 361.247401 
L 426.653824 389.943266 
L 429.092635 380.017777 
L 431.531447 350.989728 
L 433.970258 326.407119 
L 436.409069 310.4393 
L 438.84788 301.271387 
L 441.286691 300.472075 
L 443.725503 307.333001 
L 446.164314 312.763329 
L 448.603125 319.152486 
L 451.041936 322.815849 
L 453.480747 323.662196 
L 455.919559 309.905844 
L 458.35837 303.746553 
L 460.797181 298.08032 
L 463.235992 292.120548 
L 465.674803 291.184103 
L 468.113615 278.371603 
L 470.552426 250.776603 
L 472.991237 238.670176 
L 475.430048 223.819809 
L 477.868859 211.402881 
L 480.30767 192.622423 
L 482.746482 161.031045 
L 485.185293 151.720984 
L 487.624104 146.44702 
L 490.062915 129.890523 
L 492.501726 107.305069 
L 494.940538 100.40103 
L 497.379349 115.210766 
L 499.81816 131.972467 
L 504.695782 155.761762 
L 507.134594 163.596471 
L 509.573405 170.520674 
L 512.012216 158.319731 
L 514.451027 145.401793 
L 516.889838 146.967952 
L 519.328649 153.265055 
L 521.767461 139.330624 
L 524.206272 118.940984 
L 526.645083 103.476729 
L 529.083894 96.092247 
L 531.522705 97.233369 
L 533.961517 98.690097 
L 536.400328 99.748376 
L 538.839139 106.240873 
L 541.27795 129.637291 
L 546.155573 193.624993 
L 548.594384 208.020047 
L 551.033195 214.639606 
L 553.472006 222.654633 
L 555.910817 247.072447 
L 560.78844 309.95677 
L 563.227251 338.342905 
L 568.104873 390.214792 
L 570.543684 394.902839 
L 572.982496 405.317666 
L 575.421307 399.118889 
L 577.860118 384.545037 
L 580.298929 365.407246 
L 582.73774 358.315573 
L 585.176552 362.466137 
L 587.615363 368.85502 
L 590.054174 379.783149 
L 592.492985 389.273022 
L 594.931796 395.163862 
L 597.370608 394.49192 
L 599.809419 390.43222 
L 602.24823 368.590684 
L 604.687041 339.188827 
L 607.125852 317.919351 
L 609.564663 302.334914 
L 612.003475 260.87404 
L 614.442286 226.055888 
L 616.881097 200.628391 
L 619.319908 182.229563 
L 621.758719 167.792885 
L 626.636342 132.880257 
L 629.075153 103.416987 
L 631.513964 111.100013 
L 633.952775 139.786931 
L 636.391587 158.33264 
L 638.830398 187.721801 
L 643.70802 260.802971 
L 646.146831 295.709053 
L 651.024454 370.968851 
L 653.463265 398.703077 
L 655.902076 404.796658 
L 658.340887 393.678382 
L 660.779698 379.261589 
L 663.21851 350.690546 
L 665.657321 318.763216 
L 668.096132 296.998798 
L 670.534943 283.026147 
L 672.973754 273.83032 
L 675.412566 256.724783 
L 677.851377 235.476677 
L 680.290188 218.16924 
L 685.16781 187.988711 
L 690.045433 132.462312 
L 692.484244 105.860986 
L 694.923055 129.743034 
L 697.361866 154.912254 
L 699.800677 176.614722 
L 702.239489 195.561394 
L 707.117111 228.505561 
L 709.555922 244.689811 
L 711.994733 255.624415 
L 714.433545 253.809198 
L 716.872356 252.927692 
L 719.311167 246.79431 
L 721.749978 221.924181 
L 724.188789 201.738771 
L 726.627601 200.093659 
L 729.066412 200.472128 
L 731.505223 192.687879 
L 733.944034 179.603382 
L 738.821656 102.821602 
L 741.260468 83.702434 
L 743.699279 104.803032 
L 746.13809 122.715541 
L 748.576901 133.032204 
L 751.015712 171.653122 
L 753.454524 212.54526 
L 755.893335 245.978624 
L 758.332146 273.542335 
L 760.770957 296.766439 
L 763.209768 322.822648 
L 765.64858 352.094049 
L 768.087391 390.626992 
L 770.526202 399.864879 
L 772.965013 411.03598 
L 775.403824 412.274845 
L 777.842635 407.314918 
L 780.281447 384.818047 
L 782.720258 359.530216 
L 790.036691 310.657513 
L 792.475503 305.068743 
L 794.914314 310.538537 
L 797.353125 302.280604 
L 799.791936 284.021766 
L 802.230747 260.412627 
L 804.669559 246.902079 
L 807.10837 221.446839 
L 809.547181 178.662843 
L 811.985992 165.331175 
L 814.424803 165.08609 
L 816.863615 177.436386 
L 819.302426 192.390247 
L 821.741237 209.322275 
L 824.180048 228.2363 
L 826.618859 245.747501 
L 829.05767 260.661683 
L 829.05767 260.661683 
" style="fill:none;stroke:#e377c2;stroke-linecap:square;stroke-width:1.5;"/>
   </g>
   <g id="patch_3">
    <path d="M 30.103125 438.12 
L 30.103125 57.6 
" style="fill:none;stroke:#000000;stroke-linecap:square;stroke-linejoin:miter;stroke-width:0.8;"/>
   </g>
   <g id="patch_4">
    <path d="M 867.103125 438.12 
L 867.103125 57.6 
" style="fill:none;stroke:#000000;stroke-linecap:square;stroke-linejoin:miter;stroke-width:0.8;"/>
   </g>
   <g id="patch_5">
    <path d="M 30.103125 438.12 
L 867.103125 438.12 
" style="fill:none;stroke:#000000;stroke-linecap:square;stroke-linejoin:miter;stroke-width:0.8;"/>
   </g>
   <g id="patch_6">
    <path d="M 30.103125 57.6 
L 867.103125 57.6 
" style="fill:none;stroke:#000000;stroke-linecap:square;stroke-linejoin:miter;stroke-width:0.8;"/>
   </g>
   <g id="legend_1">
    <g id="patch_7">
     <path d="M 346.861719 433.12 
L 550.344531 433.12 
Q 552.344531 433.12 552.344531 431.12 
L 552.344531 327.42625 
Q 552.344531 325.42625 550.344531 325.42625 
L 346.861719 325.42625 
Q 344.861719 325.42625 344.861719 327.42625 
L 344.861719 431.12 
Q 344.861719 433.12 346.861719 433.12 
z
" style="fill:#ffffff;opacity:0.8;stroke:#cccccc;stroke-linejoin:miter;"/>
    </g>
    <g id="line2d_24">
     <path d="M 348.861719 333.524687 
L 368.861719 333.524687 
" style="fill:none;stroke:#1f77b4;stroke-linecap:square;stroke-width:1.5;"/>
    </g>
    <g id="line2d_25"/>
    <g id="text_17">
     <!-- Prediction (window size 2) (L_T1) -->
     <defs>
      <path d="M 19.671875 64.796875 
L 19.671875 37.40625 
L 32.078125 37.40625 
Q 38.96875 37.40625 42.71875 40.96875 
Q 46.484375 44.53125 46.484375 51.125 
Q 46.484375 57.671875 42.71875 61.234375 
Q 38.96875 64.796875 32.078125 64.796875 
z
M 9.8125 72.90625 
L 32.078125 72.90625 
Q 44.34375 72.90625 50.609375 67.359375 
Q 56.890625 61.8125 56.890625 51.125 
Q 56.890625 40.328125 50.609375 34.8125 
Q 44.34375 29.296875 32.078125 29.296875 
L 19.671875 29.296875 
L 19.671875 0 
L 9.8125 0 
z
" id="DejaVuSans-50"/>
      <path d="M 41.109375 46.296875 
Q 39.59375 47.171875 37.8125 47.578125 
Q 36.03125 48 33.890625 48 
Q 26.265625 48 22.1875 43.046875 
Q 18.109375 38.09375 18.109375 28.8125 
L 18.109375 0 
L 9.078125 0 
L 9.078125 54.6875 
L 18.109375 54.6875 
L 18.109375 46.1875 
Q 20.953125 51.171875 25.484375 53.578125 
Q 30.03125 56 36.53125 56 
Q 37.453125 56 38.578125 55.875 
Q 39.703125 55.765625 41.0625 55.515625 
z
" id="DejaVuSans-72"/>
      <path d="M 56.203125 29.59375 
L 56.203125 25.203125 
L 14.890625 25.203125 
Q 15.484375 15.921875 20.484375 11.0625 
Q 25.484375 6.203125 34.421875 6.203125 
Q 39.59375 6.203125 44.453125 7.46875 
Q 49.3125 8.734375 54.109375 11.28125 
L 54.109375 2.78125 
Q 49.265625 0.734375 44.1875 -0.34375 
Q 39.109375 -1.421875 33.890625 -1.421875 
Q 20.796875 -1.421875 13.15625 6.1875 
Q 5.515625 13.8125 5.515625 26.8125 
Q 5.515625 40.234375 12.765625 48.109375 
Q 20.015625 56 32.328125 56 
Q 43.359375 56 49.78125 48.890625 
Q 56.203125 41.796875 56.203125 29.59375 
z
M 47.21875 32.234375 
Q 47.125 39.59375 43.09375 43.984375 
Q 39.0625 48.390625 32.421875 48.390625 
Q 24.90625 48.390625 20.390625 44.140625 
Q 15.875 39.890625 15.1875 32.171875 
z
" id="DejaVuSans-65"/>
      <path d="M 45.40625 46.390625 
L 45.40625 75.984375 
L 54.390625 75.984375 
L 54.390625 0 
L 45.40625 0 
L 45.40625 8.203125 
Q 42.578125 3.328125 38.25 0.953125 
Q 33.9375 -1.421875 27.875 -1.421875 
Q 17.96875 -1.421875 11.734375 6.484375 
Q 5.515625 14.40625 5.515625 27.296875 
Q 5.515625 40.1875 11.734375 48.09375 
Q 17.96875 56 27.875 56 
Q 33.9375 56 38.25 53.625 
Q 42.578125 51.265625 45.40625 46.390625 
z
M 14.796875 27.296875 
Q 14.796875 17.390625 18.875 11.75 
Q 22.953125 6.109375 30.078125 6.109375 
Q 37.203125 6.109375 41.296875 11.75 
Q 45.40625 17.390625 45.40625 27.296875 
Q 45.40625 37.203125 41.296875 42.84375 
Q 37.203125 48.484375 30.078125 48.484375 
Q 22.953125 48.484375 18.875 42.84375 
Q 14.796875 37.203125 14.796875 27.296875 
z
" id="DejaVuSans-64"/>
      <path d="M 9.421875 54.6875 
L 18.40625 54.6875 
L 18.40625 0 
L 9.421875 0 
z
M 9.421875 75.984375 
L 18.40625 75.984375 
L 18.40625 64.59375 
L 9.421875 64.59375 
z
" id="DejaVuSans-69"/>
      <path d="M 48.78125 52.59375 
L 48.78125 44.1875 
Q 44.96875 46.296875 41.140625 47.34375 
Q 37.3125 48.390625 33.40625 48.390625 
Q 24.65625 48.390625 19.8125 42.84375 
Q 14.984375 37.3125 14.984375 27.296875 
Q 14.984375 17.28125 19.8125 11.734375 
Q 24.65625 6.203125 33.40625 6.203125 
Q 37.3125 6.203125 41.140625 7.25 
Q 44.96875 8.296875 48.78125 10.40625 
L 48.78125 2.09375 
Q 45.015625 0.34375 40.984375 -0.53125 
Q 36.96875 -1.421875 32.421875 -1.421875 
Q 20.0625 -1.421875 12.78125 6.34375 
Q 5.515625 14.109375 5.515625 27.296875 
Q 5.515625 40.671875 12.859375 48.328125 
Q 20.21875 56 33.015625 56 
Q 37.15625 56 41.109375 55.140625 
Q 45.0625 54.296875 48.78125 52.59375 
z
" id="DejaVuSans-63"/>
      <path d="M 18.3125 70.21875 
L 18.3125 54.6875 
L 36.8125 54.6875 
L 36.8125 47.703125 
L 18.3125 47.703125 
L 18.3125 18.015625 
Q 18.3125 11.328125 20.140625 9.421875 
Q 21.96875 7.515625 27.59375 7.515625 
L 36.8125 7.515625 
L 36.8125 0 
L 27.59375 0 
Q 17.1875 0 13.234375 3.875 
Q 9.28125 7.765625 9.28125 18.015625 
L 9.28125 47.703125 
L 2.6875 47.703125 
L 2.6875 54.6875 
L 9.28125 54.6875 
L 9.28125 70.21875 
z
" id="DejaVuSans-74"/>
      <path d="M 30.609375 48.390625 
Q 23.390625 48.390625 19.1875 42.75 
Q 14.984375 37.109375 14.984375 27.296875 
Q 14.984375 17.484375 19.15625 11.84375 
Q 23.34375 6.203125 30.609375 6.203125 
Q 37.796875 6.203125 41.984375 11.859375 
Q 46.1875 17.53125 46.1875 27.296875 
Q 46.1875 37.015625 41.984375 42.703125 
Q 37.796875 48.390625 30.609375 48.390625 
z
M 30.609375 56 
Q 42.328125 56 49.015625 48.375 
Q 55.71875 40.765625 55.71875 27.296875 
Q 55.71875 13.875 49.015625 6.21875 
Q 42.328125 -1.421875 30.609375 -1.421875 
Q 18.84375 -1.421875 12.171875 6.21875 
Q 5.515625 13.875 5.515625 27.296875 
Q 5.515625 40.765625 12.171875 48.375 
Q 18.84375 56 30.609375 56 
z
" id="DejaVuSans-6f"/>
      <path d="M 54.890625 33.015625 
L 54.890625 0 
L 45.90625 0 
L 45.90625 32.71875 
Q 45.90625 40.484375 42.875 44.328125 
Q 39.84375 48.1875 33.796875 48.1875 
Q 26.515625 48.1875 22.3125 43.546875 
Q 18.109375 38.921875 18.109375 30.90625 
L 18.109375 0 
L 9.078125 0 
L 9.078125 54.6875 
L 18.109375 54.6875 
L 18.109375 46.1875 
Q 21.34375 51.125 25.703125 53.5625 
Q 30.078125 56 35.796875 56 
Q 45.21875 56 50.046875 50.171875 
Q 54.890625 44.34375 54.890625 33.015625 
z
" id="DejaVuSans-6e"/>
      <path id="DejaVuSans-20"/>
      <path d="M 31 75.875 
Q 24.46875 64.65625 21.28125 53.65625 
Q 18.109375 42.671875 18.109375 31.390625 
Q 18.109375 20.125 21.3125 9.0625 
Q 24.515625 -2 31 -13.1875 
L 23.1875 -13.1875 
Q 15.875 -1.703125 12.234375 9.375 
Q 8.59375 20.453125 8.59375 31.390625 
Q 8.59375 42.28125 12.203125 53.3125 
Q 15.828125 64.359375 23.1875 75.875 
z
" id="DejaVuSans-28"/>
      <path d="M 4.203125 54.6875 
L 13.1875 54.6875 
L 24.421875 12.015625 
L 35.59375 54.6875 
L 46.1875 54.6875 
L 57.421875 12.015625 
L 68.609375 54.6875 
L 77.59375 54.6875 
L 63.28125 0 
L 52.6875 0 
L 40.921875 44.828125 
L 29.109375 0 
L 18.5 0 
z
" id="DejaVuSans-77"/>
      <path d="M 44.28125 53.078125 
L 44.28125 44.578125 
Q 40.484375 46.53125 36.375 47.5 
Q 32.28125 48.484375 27.875 48.484375 
Q 21.1875 48.484375 17.84375 46.4375 
Q 14.5 44.390625 14.5 40.28125 
Q 14.5 37.15625 16.890625 35.375 
Q 19.28125 33.59375 26.515625 31.984375 
L 29.59375 31.296875 
Q 39.15625 29.25 43.1875 25.515625 
Q 47.21875 21.78125 47.21875 15.09375 
Q 47.21875 7.46875 41.1875 3.015625 
Q 35.15625 -1.421875 24.609375 -1.421875 
Q 20.21875 -1.421875 15.453125 -0.5625 
Q 10.6875 0.296875 5.421875 2 
L 5.421875 11.28125 
Q 10.40625 8.6875 15.234375 7.390625 
Q 20.0625 6.109375 24.8125 6.109375 
Q 31.15625 6.109375 34.5625 8.28125 
Q 37.984375 10.453125 37.984375 14.40625 
Q 37.984375 18.0625 35.515625 20.015625 
Q 33.0625 21.96875 24.703125 23.78125 
L 21.578125 24.515625 
Q 13.234375 26.265625 9.515625 29.90625 
Q 5.8125 33.546875 5.8125 39.890625 
Q 5.8125 47.609375 11.28125 51.796875 
Q 16.75 56 26.8125 56 
Q 31.78125 56 36.171875 55.265625 
Q 40.578125 54.546875 44.28125 53.078125 
z
" id="DejaVuSans-73"/>
      <path d="M 5.515625 54.6875 
L 48.1875 54.6875 
L 48.1875 46.484375 
L 14.40625 7.171875 
L 48.1875 7.171875 
L 48.1875 0 
L 4.296875 0 
L 4.296875 8.203125 
L 38.09375 47.515625 
L 5.515625 47.515625 
z
" id="DejaVuSans-7a"/>
      <path d="M 8.015625 75.875 
L 15.828125 75.875 
Q 23.140625 64.359375 26.78125 53.3125 
Q 30.421875 42.28125 30.421875 31.390625 
Q 30.421875 20.453125 26.78125 9.375 
Q 23.140625 -1.703125 15.828125 -13.1875 
L 8.015625 -13.1875 
Q 14.5 -2 17.703125 9.0625 
Q 20.90625 20.125 20.90625 31.390625 
Q 20.90625 42.671875 17.703125 53.65625 
Q 14.5 64.65625 8.015625 75.875 
z
" id="DejaVuSans-29"/>
      <path d="M 9.8125 72.90625 
L 19.671875 72.90625 
L 19.671875 8.296875 
L 55.171875 8.296875 
L 55.171875 0 
L 9.8125 0 
z
" id="DejaVuSans-4c"/>
      <path d="M 50.984375 -16.609375 
L 50.984375 -23.578125 
L -0.984375 -23.578125 
L -0.984375 -16.609375 
z
" id="DejaVuSans-5f"/>
      <path d="M -0.296875 72.90625 
L 61.375 72.90625 
L 61.375 64.59375 
L 35.5 64.59375 
L 35.5 0 
L 25.59375 0 
L 25.59375 64.59375 
L -0.296875 64.59375 
z
" id="DejaVuSans-54"/>
     </defs>
     <g transform="translate(376.861719 337.024687)scale(0.1 -0.1)">
      <use xlink:href="#DejaVuSans-50"/>
      <use x="60.287109" xlink:href="#DejaVuSans-72"/>
      <use x="101.369141" xlink:href="#DejaVuSans-65"/>
      <use x="162.892578" xlink:href="#DejaVuSans-64"/>
      <use x="226.369141" xlink:href="#DejaVuSans-69"/>
      <use x="254.152344" xlink:href="#DejaVuSans-63"/>
      <use x="309.132812" xlink:href="#DejaVuSans-74"/>
      <use x="348.341797" xlink:href="#DejaVuSans-69"/>
      <use x="376.125" xlink:href="#DejaVuSans-6f"/>
      <use x="437.306641" xlink:href="#DejaVuSans-6e"/>
      <use x="500.685547" xlink:href="#DejaVuSans-20"/>
      <use x="532.472656" xlink:href="#DejaVuSans-28"/>
      <use x="571.486328" xlink:href="#DejaVuSans-77"/>
      <use x="653.273438" xlink:href="#DejaVuSans-69"/>
      <use x="681.056641" xlink:href="#DejaVuSans-6e"/>
      <use x="744.435547" xlink:href="#DejaVuSans-64"/>
      <use x="807.912109" xlink:href="#DejaVuSans-6f"/>
      <use x="869.09375" xlink:href="#DejaVuSans-77"/>
      <use x="950.880859" xlink:href="#DejaVuSans-20"/>
      <use x="982.667969" xlink:href="#DejaVuSans-73"/>
      <use x="1034.767578" xlink:href="#DejaVuSans-69"/>
      <use x="1062.550781" xlink:href="#DejaVuSans-7a"/>
      <use x="1115.041016" xlink:href="#DejaVuSans-65"/>
      <use x="1176.564453" xlink:href="#DejaVuSans-20"/>
      <use x="1208.351562" xlink:href="#DejaVuSans-32"/>
      <use x="1271.974609" xlink:href="#DejaVuSans-29"/>
      <use x="1310.988281" xlink:href="#DejaVuSans-20"/>
      <use x="1342.775391" xlink:href="#DejaVuSans-28"/>
      <use x="1381.789062" xlink:href="#DejaVuSans-4c"/>
      <use x="1437.501953" xlink:href="#DejaVuSans-5f"/>
      <use x="1487.501953" xlink:href="#DejaVuSans-54"/>
      <use x="1548.585938" xlink:href="#DejaVuSans-31"/>
      <use x="1612.208984" xlink:href="#DejaVuSans-29"/>
     </g>
    </g>
    <g id="line2d_26">
     <path d="M 348.861719 348.480937 
L 368.861719 348.480937 
" style="fill:none;stroke:#ff7f0e;stroke-linecap:square;stroke-width:1.5;"/>
    </g>
    <g id="line2d_27"/>
    <g id="text_18">
     <!-- Prediction (window size 3) (L_T1) -->
     <g transform="translate(376.861719 351.980937)scale(0.1 -0.1)">
      <use xlink:href="#DejaVuSans-50"/>
      <use x="60.287109" xlink:href="#DejaVuSans-72"/>
      <use x="101.369141" xlink:href="#DejaVuSans-65"/>
      <use x="162.892578" xlink:href="#DejaVuSans-64"/>
      <use x="226.369141" xlink:href="#DejaVuSans-69"/>
      <use x="254.152344" xlink:href="#DejaVuSans-63"/>
      <use x="309.132812" xlink:href="#DejaVuSans-74"/>
      <use x="348.341797" xlink:href="#DejaVuSans-69"/>
      <use x="376.125" xlink:href="#DejaVuSans-6f"/>
      <use x="437.306641" xlink:href="#DejaVuSans-6e"/>
      <use x="500.685547" xlink:href="#DejaVuSans-20"/>
      <use x="532.472656" xlink:href="#DejaVuSans-28"/>
      <use x="571.486328" xlink:href="#DejaVuSans-77"/>
      <use x="653.273438" xlink:href="#DejaVuSans-69"/>
      <use x="681.056641" xlink:href="#DejaVuSans-6e"/>
      <use x="744.435547" xlink:href="#DejaVuSans-64"/>
      <use x="807.912109" xlink:href="#DejaVuSans-6f"/>
      <use x="869.09375" xlink:href="#DejaVuSans-77"/>
      <use x="950.880859" xlink:href="#DejaVuSans-20"/>
      <use x="982.667969" xlink:href="#DejaVuSans-73"/>
      <use x="1034.767578" xlink:href="#DejaVuSans-69"/>
      <use x="1062.550781" xlink:href="#DejaVuSans-7a"/>
      <use x="1115.041016" xlink:href="#DejaVuSans-65"/>
      <use x="1176.564453" xlink:href="#DejaVuSans-20"/>
      <use x="1208.351562" xlink:href="#DejaVuSans-33"/>
      <use x="1271.974609" xlink:href="#DejaVuSans-29"/>
      <use x="1310.988281" xlink:href="#DejaVuSans-20"/>
      <use x="1342.775391" xlink:href="#DejaVuSans-28"/>
      <use x="1381.789062" xlink:href="#DejaVuSans-4c"/>
      <use x="1437.501953" xlink:href="#DejaVuSans-5f"/>
      <use x="1487.501953" xlink:href="#DejaVuSans-54"/>
      <use x="1548.585938" xlink:href="#DejaVuSans-31"/>
      <use x="1612.208984" xlink:href="#DejaVuSans-29"/>
     </g>
    </g>
    <g id="line2d_28">
     <path d="M 348.861719 363.437187 
L 368.861719 363.437187 
" style="fill:none;stroke:#2ca02c;stroke-linecap:square;stroke-width:1.5;"/>
    </g>
    <g id="line2d_29"/>
    <g id="text_19">
     <!-- Prediction (window size 5) (L_T1) -->
     <g transform="translate(376.861719 366.937187)scale(0.1 -0.1)">
      <use xlink:href="#DejaVuSans-50"/>
      <use x="60.287109" xlink:href="#DejaVuSans-72"/>
      <use x="101.369141" xlink:href="#DejaVuSans-65"/>
      <use x="162.892578" xlink:href="#DejaVuSans-64"/>
      <use x="226.369141" xlink:href="#DejaVuSans-69"/>
      <use x="254.152344" xlink:href="#DejaVuSans-63"/>
      <use x="309.132812" xlink:href="#DejaVuSans-74"/>
      <use x="348.341797" xlink:href="#DejaVuSans-69"/>
      <use x="376.125" xlink:href="#DejaVuSans-6f"/>
      <use x="437.306641" xlink:href="#DejaVuSans-6e"/>
      <use x="500.685547" xlink:href="#DejaVuSans-20"/>
      <use x="532.472656" xlink:href="#DejaVuSans-28"/>
      <use x="571.486328" xlink:href="#DejaVuSans-77"/>
      <use x="653.273438" xlink:href="#DejaVuSans-69"/>
      <use x="681.056641" xlink:href="#DejaVuSans-6e"/>
      <use x="744.435547" xlink:href="#DejaVuSans-64"/>
      <use x="807.912109" xlink:href="#DejaVuSans-6f"/>
      <use x="869.09375" xlink:href="#DejaVuSans-77"/>
      <use x="950.880859" xlink:href="#DejaVuSans-20"/>
      <use x="982.667969" xlink:href="#DejaVuSans-73"/>
      <use x="1034.767578" xlink:href="#DejaVuSans-69"/>
      <use x="1062.550781" xlink:href="#DejaVuSans-7a"/>
      <use x="1115.041016" xlink:href="#DejaVuSans-65"/>
      <use x="1176.564453" xlink:href="#DejaVuSans-20"/>
      <use x="1208.351562" xlink:href="#DejaVuSans-35"/>
      <use x="1271.974609" xlink:href="#DejaVuSans-29"/>
      <use x="1310.988281" xlink:href="#DejaVuSans-20"/>
      <use x="1342.775391" xlink:href="#DejaVuSans-28"/>
      <use x="1381.789062" xlink:href="#DejaVuSans-4c"/>
      <use x="1437.501953" xlink:href="#DejaVuSans-5f"/>
      <use x="1487.501953" xlink:href="#DejaVuSans-54"/>
      <use x="1548.585938" xlink:href="#DejaVuSans-31"/>
      <use x="1612.208984" xlink:href="#DejaVuSans-29"/>
     </g>
    </g>
    <g id="line2d_30">
     <path d="M 348.861719 378.393438 
L 368.861719 378.393438 
" style="fill:none;stroke:#d62728;stroke-linecap:square;stroke-width:1.5;"/>
    </g>
    <g id="line2d_31"/>
    <g id="text_20">
     <!-- Prediction (window size 10) (L_T1) -->
     <g transform="translate(376.861719 381.893438)scale(0.1 -0.1)">
      <use xlink:href="#DejaVuSans-50"/>
      <use x="60.287109" xlink:href="#DejaVuSans-72"/>
      <use x="101.369141" xlink:href="#DejaVuSans-65"/>
      <use x="162.892578" xlink:href="#DejaVuSans-64"/>
      <use x="226.369141" xlink:href="#DejaVuSans-69"/>
      <use x="254.152344" xlink:href="#DejaVuSans-63"/>
      <use x="309.132812" xlink:href="#DejaVuSans-74"/>
      <use x="348.341797" xlink:href="#DejaVuSans-69"/>
      <use x="376.125" xlink:href="#DejaVuSans-6f"/>
      <use x="437.306641" xlink:href="#DejaVuSans-6e"/>
      <use x="500.685547" xlink:href="#DejaVuSans-20"/>
      <use x="532.472656" xlink:href="#DejaVuSans-28"/>
      <use x="571.486328" xlink:href="#DejaVuSans-77"/>
      <use x="653.273438" xlink:href="#DejaVuSans-69"/>
      <use x="681.056641" xlink:href="#DejaVuSans-6e"/>
      <use x="744.435547" xlink:href="#DejaVuSans-64"/>
      <use x="807.912109" xlink:href="#DejaVuSans-6f"/>
      <use x="869.09375" xlink:href="#DejaVuSans-77"/>
      <use x="950.880859" xlink:href="#DejaVuSans-20"/>
      <use x="982.667969" xlink:href="#DejaVuSans-73"/>
      <use x="1034.767578" xlink:href="#DejaVuSans-69"/>
      <use x="1062.550781" xlink:href="#DejaVuSans-7a"/>
      <use x="1115.041016" xlink:href="#DejaVuSans-65"/>
      <use x="1176.564453" xlink:href="#DejaVuSans-20"/>
      <use x="1208.351562" xlink:href="#DejaVuSans-31"/>
      <use x="1271.974609" xlink:href="#DejaVuSans-30"/>
      <use x="1335.597656" xlink:href="#DejaVuSans-29"/>
      <use x="1374.611328" xlink:href="#DejaVuSans-20"/>
      <use x="1406.398438" xlink:href="#DejaVuSans-28"/>
      <use x="1445.412109" xlink:href="#DejaVuSans-4c"/>
      <use x="1501.125" xlink:href="#DejaVuSans-5f"/>
      <use x="1551.125" xlink:href="#DejaVuSans-54"/>
      <use x="1612.208984" xlink:href="#DejaVuSans-31"/>
      <use x="1675.832031" xlink:href="#DejaVuSans-29"/>
     </g>
    </g>
    <g id="line2d_32">
     <path d="M 348.861719 393.349687 
L 368.861719 393.349687 
" style="fill:none;stroke:#9467bd;stroke-linecap:square;stroke-width:1.5;"/>
    </g>
    <g id="line2d_33"/>
    <g id="text_21">
     <!-- Prediction (window size 25) (L_T1) -->
     <g transform="translate(376.861719 396.849687)scale(0.1 -0.1)">
      <use xlink:href="#DejaVuSans-50"/>
      <use x="60.287109" xlink:href="#DejaVuSans-72"/>
      <use x="101.369141" xlink:href="#DejaVuSans-65"/>
      <use x="162.892578" xlink:href="#DejaVuSans-64"/>
      <use x="226.369141" xlink:href="#DejaVuSans-69"/>
      <use x="254.152344" xlink:href="#DejaVuSans-63"/>
      <use x="309.132812" xlink:href="#DejaVuSans-74"/>
      <use x="348.341797" xlink:href="#DejaVuSans-69"/>
      <use x="376.125" xlink:href="#DejaVuSans-6f"/>
      <use x="437.306641" xlink:href="#DejaVuSans-6e"/>
      <use x="500.685547" xlink:href="#DejaVuSans-20"/>
      <use x="532.472656" xlink:href="#DejaVuSans-28"/>
      <use x="571.486328" xlink:href="#DejaVuSans-77"/>
      <use x="653.273438" xlink:href="#DejaVuSans-69"/>
      <use x="681.056641" xlink:href="#DejaVuSans-6e"/>
      <use x="744.435547" xlink:href="#DejaVuSans-64"/>
      <use x="807.912109" xlink:href="#DejaVuSans-6f"/>
      <use x="869.09375" xlink:href="#DejaVuSans-77"/>
      <use x="950.880859" xlink:href="#DejaVuSans-20"/>
      <use x="982.667969" xlink:href="#DejaVuSans-73"/>
      <use x="1034.767578" xlink:href="#DejaVuSans-69"/>
      <use x="1062.550781" xlink:href="#DejaVuSans-7a"/>
      <use x="1115.041016" xlink:href="#DejaVuSans-65"/>
      <use x="1176.564453" xlink:href="#DejaVuSans-20"/>
      <use x="1208.351562" xlink:href="#DejaVuSans-32"/>
      <use x="1271.974609" xlink:href="#DejaVuSans-35"/>
      <use x="1335.597656" xlink:href="#DejaVuSans-29"/>
      <use x="1374.611328" xlink:href="#DejaVuSans-20"/>
      <use x="1406.398438" xlink:href="#DejaVuSans-28"/>
      <use x="1445.412109" xlink:href="#DejaVuSans-4c"/>
      <use x="1501.125" xlink:href="#DejaVuSans-5f"/>
      <use x="1551.125" xlink:href="#DejaVuSans-54"/>
      <use x="1612.208984" xlink:href="#DejaVuSans-31"/>
      <use x="1675.832031" xlink:href="#DejaVuSans-29"/>
     </g>
    </g>
    <g id="line2d_34">
     <path d="M 348.861719 408.305937 
L 368.861719 408.305937 
" style="fill:none;stroke:#8c564b;stroke-linecap:square;stroke-width:1.5;"/>
    </g>
    <g id="line2d_35"/>
    <g id="text_22">
     <!-- Prediction (window size 40) (L_T1) -->
     <g transform="translate(376.861719 411.805937)scale(0.1 -0.1)">
      <use xlink:href="#DejaVuSans-50"/>
      <use x="60.287109" xlink:href="#DejaVuSans-72"/>
      <use x="101.369141" xlink:href="#DejaVuSans-65"/>
      <use x="162.892578" xlink:href="#DejaVuSans-64"/>
      <use x="226.369141" xlink:href="#DejaVuSans-69"/>
      <use x="254.152344" xlink:href="#DejaVuSans-63"/>
      <use x="309.132812" xlink:href="#DejaVuSans-74"/>
      <use x="348.341797" xlink:href="#DejaVuSans-69"/>
      <use x="376.125" xlink:href="#DejaVuSans-6f"/>
      <use x="437.306641" xlink:href="#DejaVuSans-6e"/>
      <use x="500.685547" xlink:href="#DejaVuSans-20"/>
      <use x="532.472656" xlink:href="#DejaVuSans-28"/>
      <use x="571.486328" xlink:href="#DejaVuSans-77"/>
      <use x="653.273438" xlink:href="#DejaVuSans-69"/>
      <use x="681.056641" xlink:href="#DejaVuSans-6e"/>
      <use x="744.435547" xlink:href="#DejaVuSans-64"/>
      <use x="807.912109" xlink:href="#DejaVuSans-6f"/>
      <use x="869.09375" xlink:href="#DejaVuSans-77"/>
      <use x="950.880859" xlink:href="#DejaVuSans-20"/>
      <use x="982.667969" xlink:href="#DejaVuSans-73"/>
      <use x="1034.767578" xlink:href="#DejaVuSans-69"/>
      <use x="1062.550781" xlink:href="#DejaVuSans-7a"/>
      <use x="1115.041016" xlink:href="#DejaVuSans-65"/>
      <use x="1176.564453" xlink:href="#DejaVuSans-20"/>
      <use x="1208.351562" xlink:href="#DejaVuSans-34"/>
      <use x="1271.974609" xlink:href="#DejaVuSans-30"/>
      <use x="1335.597656" xlink:href="#DejaVuSans-29"/>
      <use x="1374.611328" xlink:href="#DejaVuSans-20"/>
      <use x="1406.398438" xlink:href="#DejaVuSans-28"/>
      <use x="1445.412109" xlink:href="#DejaVuSans-4c"/>
      <use x="1501.125" xlink:href="#DejaVuSans-5f"/>
      <use x="1551.125" xlink:href="#DejaVuSans-54"/>
      <use x="1612.208984" xlink:href="#DejaVuSans-31"/>
      <use x="1675.832031" xlink:href="#DejaVuSans-29"/>
     </g>
    </g>
    <g id="line2d_36">
     <path d="M 348.861719 423.262187 
L 368.861719 423.262187 
" style="fill:none;stroke:#e377c2;stroke-linecap:square;stroke-width:1.5;"/>
    </g>
    <g id="line2d_37"/>
    <g id="text_23">
     <!-- Original data (L_T1) -->
     <defs>
      <path d="M 39.40625 66.21875 
Q 28.65625 66.21875 22.328125 58.203125 
Q 16.015625 50.203125 16.015625 36.375 
Q 16.015625 22.609375 22.328125 14.59375 
Q 28.65625 6.59375 39.40625 6.59375 
Q 50.140625 6.59375 56.421875 14.59375 
Q 62.703125 22.609375 62.703125 36.375 
Q 62.703125 50.203125 56.421875 58.203125 
Q 50.140625 66.21875 39.40625 66.21875 
z
M 39.40625 74.21875 
Q 54.734375 74.21875 63.90625 63.9375 
Q 73.09375 53.65625 73.09375 36.375 
Q 73.09375 19.140625 63.90625 8.859375 
Q 54.734375 -1.421875 39.40625 -1.421875 
Q 24.03125 -1.421875 14.8125 8.828125 
Q 5.609375 19.09375 5.609375 36.375 
Q 5.609375 53.65625 14.8125 63.9375 
Q 24.03125 74.21875 39.40625 74.21875 
z
" id="DejaVuSans-4f"/>
      <path d="M 45.40625 27.984375 
Q 45.40625 37.75 41.375 43.109375 
Q 37.359375 48.484375 30.078125 48.484375 
Q 22.859375 48.484375 18.828125 43.109375 
Q 14.796875 37.75 14.796875 27.984375 
Q 14.796875 18.265625 18.828125 12.890625 
Q 22.859375 7.515625 30.078125 7.515625 
Q 37.359375 7.515625 41.375 12.890625 
Q 45.40625 18.265625 45.40625 27.984375 
z
M 54.390625 6.78125 
Q 54.390625 -7.171875 48.1875 -13.984375 
Q 42 -20.796875 29.203125 -20.796875 
Q 24.46875 -20.796875 20.265625 -20.09375 
Q 16.0625 -19.390625 12.109375 -17.921875 
L 12.109375 -9.1875 
Q 16.0625 -11.328125 19.921875 -12.34375 
Q 23.78125 -13.375 27.78125 -13.375 
Q 36.625 -13.375 41.015625 -8.765625 
Q 45.40625 -4.15625 45.40625 5.171875 
L 45.40625 9.625 
Q 42.625 4.78125 38.28125 2.390625 
Q 33.9375 0 27.875 0 
Q 17.828125 0 11.671875 7.65625 
Q 5.515625 15.328125 5.515625 27.984375 
Q 5.515625 40.671875 11.671875 48.328125 
Q 17.828125 56 27.875 56 
Q 33.9375 56 38.28125 53.609375 
Q 42.625 51.21875 45.40625 46.390625 
L 45.40625 54.6875 
L 54.390625 54.6875 
z
" id="DejaVuSans-67"/>
      <path d="M 34.28125 27.484375 
Q 23.390625 27.484375 19.1875 25 
Q 14.984375 22.515625 14.984375 16.5 
Q 14.984375 11.71875 18.140625 8.90625 
Q 21.296875 6.109375 26.703125 6.109375 
Q 34.1875 6.109375 38.703125 11.40625 
Q 43.21875 16.703125 43.21875 25.484375 
L 43.21875 27.484375 
z
M 52.203125 31.203125 
L 52.203125 0 
L 43.21875 0 
L 43.21875 8.296875 
Q 40.140625 3.328125 35.546875 0.953125 
Q 30.953125 -1.421875 24.3125 -1.421875 
Q 15.921875 -1.421875 10.953125 3.296875 
Q 6 8.015625 6 15.921875 
Q 6 25.140625 12.171875 29.828125 
Q 18.359375 34.515625 30.609375 34.515625 
L 43.21875 34.515625 
L 43.21875 35.40625 
Q 43.21875 41.609375 39.140625 45 
Q 35.0625 48.390625 27.6875 48.390625 
Q 23 48.390625 18.546875 47.265625 
Q 14.109375 46.140625 10.015625 43.890625 
L 10.015625 52.203125 
Q 14.9375 54.109375 19.578125 55.046875 
Q 24.21875 56 28.609375 56 
Q 40.484375 56 46.34375 49.84375 
Q 52.203125 43.703125 52.203125 31.203125 
z
" id="DejaVuSans-61"/>
      <path d="M 9.421875 75.984375 
L 18.40625 75.984375 
L 18.40625 0 
L 9.421875 0 
z
" id="DejaVuSans-6c"/>
     </defs>
     <g transform="translate(376.861719 426.762187)scale(0.1 -0.1)">
      <use xlink:href="#DejaVuSans-4f"/>
      <use x="78.710938" xlink:href="#DejaVuSans-72"/>
      <use x="119.824219" xlink:href="#DejaVuSans-69"/>
      <use x="147.607422" xlink:href="#DejaVuSans-67"/>
      <use x="211.083984" xlink:href="#DejaVuSans-69"/>
      <use x="238.867188" xlink:href="#DejaVuSans-6e"/>
      <use x="302.246094" xlink:href="#DejaVuSans-61"/>
      <use x="363.525391" xlink:href="#DejaVuSans-6c"/>
      <use x="391.308594" xlink:href="#DejaVuSans-20"/>
      <use x="423.095703" xlink:href="#DejaVuSans-64"/>
      <use x="486.572266" xlink:href="#DejaVuSans-61"/>
      <use x="547.851562" xlink:href="#DejaVuSans-74"/>
      <use x="587.060547" xlink:href="#DejaVuSans-61"/>
      <use x="648.339844" xlink:href="#DejaVuSans-20"/>
      <use x="680.126953" xlink:href="#DejaVuSans-28"/>
      <use x="719.140625" xlink:href="#DejaVuSans-4c"/>
      <use x="774.853516" xlink:href="#DejaVuSans-5f"/>
      <use x="824.853516" xlink:href="#DejaVuSans-54"/>
      <use x="885.9375" xlink:href="#DejaVuSans-31"/>
      <use x="949.560547" xlink:href="#DejaVuSans-29"/>
     </g>
    </g>
   </g>
  </g>
  <g id="text_24">
   <!-- Moving average prediction for the water level in tank 1 -->
   <defs>
    <path d="M 9.8125 72.90625 
L 24.515625 72.90625 
L 43.109375 23.296875 
L 61.8125 72.90625 
L 76.515625 72.90625 
L 76.515625 0 
L 66.890625 0 
L 66.890625 64.015625 
L 48.09375 14.015625 
L 38.1875 14.015625 
L 19.390625 64.015625 
L 19.390625 0 
L 9.8125 0 
z
" id="DejaVuSans-4d"/>
    <path d="M 2.984375 54.6875 
L 12.5 54.6875 
L 29.59375 8.796875 
L 46.6875 54.6875 
L 56.203125 54.6875 
L 35.6875 0 
L 23.484375 0 
z
" id="DejaVuSans-76"/>
    <path d="M 18.109375 8.203125 
L 18.109375 -20.796875 
L 9.078125 -20.796875 
L 9.078125 54.6875 
L 18.109375 54.6875 
L 18.109375 46.390625 
Q 20.953125 51.265625 25.265625 53.625 
Q 29.59375 56 35.59375 56 
Q 45.5625 56 51.78125 48.09375 
Q 58.015625 40.1875 58.015625 27.296875 
Q 58.015625 14.40625 51.78125 6.484375 
Q 45.5625 -1.421875 35.59375 -1.421875 
Q 29.59375 -1.421875 25.265625 0.953125 
Q 20.953125 3.328125 18.109375 8.203125 
z
M 48.6875 27.296875 
Q 48.6875 37.203125 44.609375 42.84375 
Q 40.53125 48.484375 33.40625 48.484375 
Q 26.265625 48.484375 22.1875 42.84375 
Q 18.109375 37.203125 18.109375 27.296875 
Q 18.109375 17.390625 22.1875 11.75 
Q 26.265625 6.109375 33.40625 6.109375 
Q 40.53125 6.109375 44.609375 11.75 
Q 48.6875 17.390625 48.6875 27.296875 
z
" id="DejaVuSans-70"/>
    <path d="M 37.109375 75.984375 
L 37.109375 68.5 
L 28.515625 68.5 
Q 23.6875 68.5 21.796875 66.546875 
Q 19.921875 64.59375 19.921875 59.515625 
L 19.921875 54.6875 
L 34.71875 54.6875 
L 34.71875 47.703125 
L 19.921875 47.703125 
L 19.921875 0 
L 10.890625 0 
L 10.890625 47.703125 
L 2.296875 47.703125 
L 2.296875 54.6875 
L 10.890625 54.6875 
L 10.890625 58.5 
Q 10.890625 67.625 15.140625 71.796875 
Q 19.390625 75.984375 28.609375 75.984375 
z
" id="DejaVuSans-66"/>
    <path d="M 54.890625 33.015625 
L 54.890625 0 
L 45.90625 0 
L 45.90625 32.71875 
Q 45.90625 40.484375 42.875 44.328125 
Q 39.84375 48.1875 33.796875 48.1875 
Q 26.515625 48.1875 22.3125 43.546875 
Q 18.109375 38.921875 18.109375 30.90625 
L 18.109375 0 
L 9.078125 0 
L 9.078125 75.984375 
L 18.109375 75.984375 
L 18.109375 46.1875 
Q 21.34375 51.125 25.703125 53.5625 
Q 30.078125 56 35.796875 56 
Q 45.21875 56 50.046875 50.171875 
Q 54.890625 44.34375 54.890625 33.015625 
z
" id="DejaVuSans-68"/>
    <path d="M 9.078125 75.984375 
L 18.109375 75.984375 
L 18.109375 31.109375 
L 44.921875 54.6875 
L 56.390625 54.6875 
L 27.390625 29.109375 
L 57.625 0 
L 45.90625 0 
L 18.109375 26.703125 
L 18.109375 0 
L 9.078125 0 
z
" id="DejaVuSans-6b"/>
   </defs>
   <g transform="translate(269.413125 16.318125)scale(0.12 -0.12)">
    <use xlink:href="#DejaVuSans-4d"/>
    <use x="86.279297" xlink:href="#DejaVuSans-6f"/>
    <use x="147.460938" xlink:href="#DejaVuSans-76"/>
    <use x="206.640625" xlink:href="#DejaVuSans-69"/>
    <use x="234.423828" xlink:href="#DejaVuSans-6e"/>
    <use x="297.802734" xlink:href="#DejaVuSans-67"/>
    <use x="361.279297" xlink:href="#DejaVuSans-20"/>
    <use x="393.066406" xlink:href="#DejaVuSans-61"/>
    <use x="454.345703" xlink:href="#DejaVuSans-76"/>
    <use x="513.525391" xlink:href="#DejaVuSans-65"/>
    <use x="575.048828" xlink:href="#DejaVuSans-72"/>
    <use x="616.162109" xlink:href="#DejaVuSans-61"/>
    <use x="677.441406" xlink:href="#DejaVuSans-67"/>
    <use x="740.917969" xlink:href="#DejaVuSans-65"/>
    <use x="802.441406" xlink:href="#DejaVuSans-20"/>
    <use x="834.228516" xlink:href="#DejaVuSans-70"/>
    <use x="897.705078" xlink:href="#DejaVuSans-72"/>
    <use x="938.787109" xlink:href="#DejaVuSans-65"/>
    <use x="1000.310547" xlink:href="#DejaVuSans-64"/>
    <use x="1063.787109" xlink:href="#DejaVuSans-69"/>
    <use x="1091.570312" xlink:href="#DejaVuSans-63"/>
    <use x="1146.550781" xlink:href="#DejaVuSans-74"/>
    <use x="1185.759766" xlink:href="#DejaVuSans-69"/>
    <use x="1213.542969" xlink:href="#DejaVuSans-6f"/>
    <use x="1274.724609" xlink:href="#DejaVuSans-6e"/>
    <use x="1338.103516" xlink:href="#DejaVuSans-20"/>
    <use x="1369.890625" xlink:href="#DejaVuSans-66"/>
    <use x="1405.095703" xlink:href="#DejaVuSans-6f"/>
    <use x="1466.277344" xlink:href="#DejaVuSans-72"/>
    <use x="1507.390625" xlink:href="#DejaVuSans-20"/>
    <use x="1539.177734" xlink:href="#DejaVuSans-74"/>
    <use x="1578.386719" xlink:href="#DejaVuSans-68"/>
    <use x="1641.765625" xlink:href="#DejaVuSans-65"/>
    <use x="1703.289062" xlink:href="#DejaVuSans-20"/>
    <use x="1735.076172" xlink:href="#DejaVuSans-77"/>
    <use x="1816.863281" xlink:href="#DejaVuSans-61"/>
    <use x="1878.142578" xlink:href="#DejaVuSans-74"/>
    <use x="1917.351562" xlink:href="#DejaVuSans-65"/>
    <use x="1978.875" xlink:href="#DejaVuSans-72"/>
    <use x="2019.988281" xlink:href="#DejaVuSans-20"/>
    <use x="2051.775391" xlink:href="#DejaVuSans-6c"/>
    <use x="2079.558594" xlink:href="#DejaVuSans-65"/>
    <use x="2141.082031" xlink:href="#DejaVuSans-76"/>
    <use x="2200.261719" xlink:href="#DejaVuSans-65"/>
    <use x="2261.785156" xlink:href="#DejaVuSans-6c"/>
    <use x="2289.568359" xlink:href="#DejaVuSans-20"/>
    <use x="2321.355469" xlink:href="#DejaVuSans-69"/>
    <use x="2349.138672" xlink:href="#DejaVuSans-6e"/>
    <use x="2412.517578" xlink:href="#DejaVuSans-20"/>
    <use x="2444.304688" xlink:href="#DejaVuSans-74"/>
    <use x="2483.513672" xlink:href="#DejaVuSans-61"/>
    <use x="2544.792969" xlink:href="#DejaVuSans-6e"/>
    <use x="2608.171875" xlink:href="#DejaVuSans-6b"/>
    <use x="2666.082031" xlink:href="#DejaVuSans-20"/>
    <use x="2697.869141" xlink:href="#DejaVuSans-31"/>
   </g>
  </g>
 </g>
 <defs>
  <clipPath id="pd85636e959">
   <rect height="380.52" width="837" x="30.103125" y="57.6"/>
  </clipPath>
 </defs>
</svg>
