<?xml version="1.0" encoding="utf-8" standalone="no"?>
<!DOCTYPE svg PUBLIC "-//W3C//DTD SVG 1.1//EN"
  "http://www.w3.org/Graphics/SVG/1.1/DTD/svg11.dtd">
<!-- Created with matplotlib (http://matplotlib.org/) -->
<svg height="246pt" version="1.1" viewBox="0 0 465 246" width="465pt" xmlns="http://www.w3.org/2000/svg" xmlns:xlink="http://www.w3.org/1999/xlink">
 <defs>
  <style type="text/css">
*{stroke-linecap:butt;stroke-linejoin:round;}
  </style>
 </defs>
 <g id="figure_1">
  <g id="patch_1">
   <path d="M 0 246.538125 
L 465.83821 246.538125 
L 465.83821 0 
L 0 0 
z
" style="fill:#ffffff;"/>
  </g>
  <g id="axes_1">
   <g id="patch_2">
    <path d="M 30.103125 222.66 
L 448.603125 222.66 
L 448.603125 32.4 
L 30.103125 32.4 
z
" style="fill:#ffffff;"/>
   </g>
   <g id="matplotlib.axis_1">
    <g id="xtick_1">
     <g id="line2d_1">
      <defs>
       <path d="M 0 0 
L 0 3.5 
" id="m2fc00df28c" style="stroke:#000000;stroke-width:0.8;"/>
      </defs>
      <g>
       <use style="stroke:#000000;stroke-width:0.8;" x="78.391587" xlink:href="#m2fc00df28c" y="222.66"/>
      </g>
     </g>
     <g id="text_1">
      <!-- 2014-05-02 -->
      <defs>
       <path d="M 19.1875 8.296875 
L 53.609375 8.296875 
L 53.609375 0 
L 7.328125 0 
L 7.328125 8.296875 
Q 12.9375 14.109375 22.625 23.890625 
Q 32.328125 33.6875 34.8125 36.53125 
Q 39.546875 41.84375 41.421875 45.53125 
Q 43.3125 49.21875 43.3125 52.78125 
Q 43.3125 58.59375 39.234375 62.25 
Q 35.15625 65.921875 28.609375 65.921875 
Q 23.96875 65.921875 18.8125 64.3125 
Q 13.671875 62.703125 7.8125 59.421875 
L 7.8125 69.390625 
Q 13.765625 71.78125 18.9375 73 
Q 24.125 74.21875 28.421875 74.21875 
Q 39.75 74.21875 46.484375 68.546875 
Q 53.21875 62.890625 53.21875 53.421875 
Q 53.21875 48.921875 51.53125 44.890625 
Q 49.859375 40.875 45.40625 35.40625 
Q 44.1875 33.984375 37.640625 27.21875 
Q 31.109375 20.453125 19.1875 8.296875 
z
" id="DejaVuSans-32"/>
       <path d="M 31.78125 66.40625 
Q 24.171875 66.40625 20.328125 58.90625 
Q 16.5 51.421875 16.5 36.375 
Q 16.5 21.390625 20.328125 13.890625 
Q 24.171875 6.390625 31.78125 6.390625 
Q 39.453125 6.390625 43.28125 13.890625 
Q 47.125 21.390625 47.125 36.375 
Q 47.125 51.421875 43.28125 58.90625 
Q 39.453125 66.40625 31.78125 66.40625 
z
M 31.78125 74.21875 
Q 44.046875 74.21875 50.515625 64.515625 
Q 56.984375 54.828125 56.984375 36.375 
Q 56.984375 17.96875 50.515625 8.265625 
Q 44.046875 -1.421875 31.78125 -1.421875 
Q 19.53125 -1.421875 13.0625 8.265625 
Q 6.59375 17.96875 6.59375 36.375 
Q 6.59375 54.828125 13.0625 64.515625 
Q 19.53125 74.21875 31.78125 74.21875 
z
" id="DejaVuSans-30"/>
       <path d="M 12.40625 8.296875 
L 28.515625 8.296875 
L 28.515625 63.921875 
L 10.984375 60.40625 
L 10.984375 69.390625 
L 28.421875 72.90625 
L 38.28125 72.90625 
L 38.28125 8.296875 
L 54.390625 8.296875 
L 54.390625 0 
L 12.40625 0 
z
" id="DejaVuSans-31"/>
       <path d="M 37.796875 64.3125 
L 12.890625 25.390625 
L 37.796875 25.390625 
z
M 35.203125 72.90625 
L 47.609375 72.90625 
L 47.609375 25.390625 
L 58.015625 25.390625 
L 58.015625 17.1875 
L 47.609375 17.1875 
L 47.609375 0 
L 37.796875 0 
L 37.796875 17.1875 
L 4.890625 17.1875 
L 4.890625 26.703125 
z
" id="DejaVuSans-34"/>
       <path d="M 4.890625 31.390625 
L 31.203125 31.390625 
L 31.203125 23.390625 
L 4.890625 23.390625 
z
" id="DejaVuSans-2d"/>
       <path d="M 10.796875 72.90625 
L 49.515625 72.90625 
L 49.515625 64.59375 
L 19.828125 64.59375 
L 19.828125 46.734375 
Q 21.96875 47.46875 24.109375 47.828125 
Q 26.265625 48.1875 28.421875 48.1875 
Q 40.625 48.1875 47.75 41.5 
Q 54.890625 34.8125 54.890625 23.390625 
Q 54.890625 11.625 47.5625 5.09375 
Q 40.234375 -1.421875 26.90625 -1.421875 
Q 22.3125 -1.421875 17.546875 -0.640625 
Q 12.796875 0.140625 7.71875 1.703125 
L 7.71875 11.625 
Q 12.109375 9.234375 16.796875 8.0625 
Q 21.484375 6.890625 26.703125 6.890625 
Q 35.15625 6.890625 40.078125 11.328125 
Q 45.015625 15.765625 45.015625 23.390625 
Q 45.015625 31 40.078125 35.4375 
Q 35.15625 39.890625 26.703125 39.890625 
Q 22.75 39.890625 18.8125 39.015625 
Q 14.890625 38.140625 10.796875 36.28125 
z
" id="DejaVuSans-35"/>
      </defs>
      <g transform="translate(49.333774 237.258437)scale(0.1 -0.1)">
       <use xlink:href="#DejaVuSans-32"/>
       <use x="63.623047" xlink:href="#DejaVuSans-30"/>
       <use x="127.246094" xlink:href="#DejaVuSans-31"/>
       <use x="190.869141" xlink:href="#DejaVuSans-34"/>
       <use x="254.492188" xlink:href="#DejaVuSans-2d"/>
       <use x="290.576172" xlink:href="#DejaVuSans-30"/>
       <use x="354.199219" xlink:href="#DejaVuSans-35"/>
       <use x="417.822266" xlink:href="#DejaVuSans-2d"/>
       <use x="453.90625" xlink:href="#DejaVuSans-30"/>
       <use x="517.529297" xlink:href="#DejaVuSans-32"/>
      </g>
     </g>
    </g>
    <g id="xtick_2">
     <g id="line2d_2">
      <g>
       <use style="stroke:#000000;stroke-width:0.8;" x="136.923055" xlink:href="#m2fc00df28c" y="222.66"/>
      </g>
     </g>
     <g id="text_2">
      <!-- 2014-05-04 -->
      <g transform="translate(107.865243 237.258437)scale(0.1 -0.1)">
       <use xlink:href="#DejaVuSans-32"/>
       <use x="63.623047" xlink:href="#DejaVuSans-30"/>
       <use x="127.246094" xlink:href="#DejaVuSans-31"/>
       <use x="190.869141" xlink:href="#DejaVuSans-34"/>
       <use x="254.492188" xlink:href="#DejaVuSans-2d"/>
       <use x="290.576172" xlink:href="#DejaVuSans-30"/>
       <use x="354.199219" xlink:href="#DejaVuSans-35"/>
       <use x="417.822266" xlink:href="#DejaVuSans-2d"/>
       <use x="453.90625" xlink:href="#DejaVuSans-30"/>
       <use x="517.529297" xlink:href="#DejaVuSans-34"/>
      </g>
     </g>
    </g>
    <g id="xtick_3">
     <g id="line2d_3">
      <g>
       <use style="stroke:#000000;stroke-width:0.8;" x="195.454524" xlink:href="#m2fc00df28c" y="222.66"/>
      </g>
     </g>
     <g id="text_3">
      <!-- 2014-05-06 -->
      <defs>
       <path d="M 33.015625 40.375 
Q 26.375 40.375 22.484375 35.828125 
Q 18.609375 31.296875 18.609375 23.390625 
Q 18.609375 15.53125 22.484375 10.953125 
Q 26.375 6.390625 33.015625 6.390625 
Q 39.65625 6.390625 43.53125 10.953125 
Q 47.40625 15.53125 47.40625 23.390625 
Q 47.40625 31.296875 43.53125 35.828125 
Q 39.65625 40.375 33.015625 40.375 
z
M 52.59375 71.296875 
L 52.59375 62.3125 
Q 48.875 64.0625 45.09375 64.984375 
Q 41.3125 65.921875 37.59375 65.921875 
Q 27.828125 65.921875 22.671875 59.328125 
Q 17.53125 52.734375 16.796875 39.40625 
Q 19.671875 43.65625 24.015625 45.921875 
Q 28.375 48.1875 33.59375 48.1875 
Q 44.578125 48.1875 50.953125 41.515625 
Q 57.328125 34.859375 57.328125 23.390625 
Q 57.328125 12.15625 50.6875 5.359375 
Q 44.046875 -1.421875 33.015625 -1.421875 
Q 20.359375 -1.421875 13.671875 8.265625 
Q 6.984375 17.96875 6.984375 36.375 
Q 6.984375 53.65625 15.1875 63.9375 
Q 23.390625 74.21875 37.203125 74.21875 
Q 40.921875 74.21875 44.703125 73.484375 
Q 48.484375 72.75 52.59375 71.296875 
z
" id="DejaVuSans-36"/>
      </defs>
      <g transform="translate(166.396711 237.258437)scale(0.1 -0.1)">
       <use xlink:href="#DejaVuSans-32"/>
       <use x="63.623047" xlink:href="#DejaVuSans-30"/>
       <use x="127.246094" xlink:href="#DejaVuSans-31"/>
       <use x="190.869141" xlink:href="#DejaVuSans-34"/>
       <use x="254.492188" xlink:href="#DejaVuSans-2d"/>
       <use x="290.576172" xlink:href="#DejaVuSans-30"/>
       <use x="354.199219" xlink:href="#DejaVuSans-35"/>
       <use x="417.822266" xlink:href="#DejaVuSans-2d"/>
       <use x="453.90625" xlink:href="#DejaVuSans-30"/>
       <use x="517.529297" xlink:href="#DejaVuSans-36"/>
      </g>
     </g>
    </g>
    <g id="xtick_4">
     <g id="line2d_4">
      <g>
       <use style="stroke:#000000;stroke-width:0.8;" x="253.985992" xlink:href="#m2fc00df28c" y="222.66"/>
      </g>
     </g>
     <g id="text_4">
      <!-- 2014-05-08 -->
      <defs>
       <path d="M 31.78125 34.625 
Q 24.75 34.625 20.71875 30.859375 
Q 16.703125 27.09375 16.703125 20.515625 
Q 16.703125 13.921875 20.71875 10.15625 
Q 24.75 6.390625 31.78125 6.390625 
Q 38.8125 6.390625 42.859375 10.171875 
Q 46.921875 13.96875 46.921875 20.515625 
Q 46.921875 27.09375 42.890625 30.859375 
Q 38.875 34.625 31.78125 34.625 
z
M 21.921875 38.8125 
Q 15.578125 40.375 12.03125 44.71875 
Q 8.5 49.078125 8.5 55.328125 
Q 8.5 64.0625 14.71875 69.140625 
Q 20.953125 74.21875 31.78125 74.21875 
Q 42.671875 74.21875 48.875 69.140625 
Q 55.078125 64.0625 55.078125 55.328125 
Q 55.078125 49.078125 51.53125 44.71875 
Q 48 40.375 41.703125 38.8125 
Q 48.828125 37.15625 52.796875 32.3125 
Q 56.78125 27.484375 56.78125 20.515625 
Q 56.78125 9.90625 50.3125 4.234375 
Q 43.84375 -1.421875 31.78125 -1.421875 
Q 19.734375 -1.421875 13.25 4.234375 
Q 6.78125 9.90625 6.78125 20.515625 
Q 6.78125 27.484375 10.78125 32.3125 
Q 14.796875 37.15625 21.921875 38.8125 
z
M 18.3125 54.390625 
Q 18.3125 48.734375 21.84375 45.5625 
Q 25.390625 42.390625 31.78125 42.390625 
Q 38.140625 42.390625 41.71875 45.5625 
Q 45.3125 48.734375 45.3125 54.390625 
Q 45.3125 60.0625 41.71875 63.234375 
Q 38.140625 66.40625 31.78125 66.40625 
Q 25.390625 66.40625 21.84375 63.234375 
Q 18.3125 60.0625 18.3125 54.390625 
z
" id="DejaVuSans-38"/>
      </defs>
      <g transform="translate(224.92818 237.258437)scale(0.1 -0.1)">
       <use xlink:href="#DejaVuSans-32"/>
       <use x="63.623047" xlink:href="#DejaVuSans-30"/>
       <use x="127.246094" xlink:href="#DejaVuSans-31"/>
       <use x="190.869141" xlink:href="#DejaVuSans-34"/>
       <use x="254.492188" xlink:href="#DejaVuSans-2d"/>
       <use x="290.576172" xlink:href="#DejaVuSans-30"/>
       <use x="354.199219" xlink:href="#DejaVuSans-35"/>
       <use x="417.822266" xlink:href="#DejaVuSans-2d"/>
       <use x="453.90625" xlink:href="#DejaVuSans-30"/>
       <use x="517.529297" xlink:href="#DejaVuSans-38"/>
      </g>
     </g>
    </g>
    <g id="xtick_5">
     <g id="line2d_5">
      <g>
       <use style="stroke:#000000;stroke-width:0.8;" x="312.517461" xlink:href="#m2fc00df28c" y="222.66"/>
      </g>
     </g>
     <g id="text_5">
      <!-- 2014-05-10 -->
      <g transform="translate(283.459648 237.258437)scale(0.1 -0.1)">
       <use xlink:href="#DejaVuSans-32"/>
       <use x="63.623047" xlink:href="#DejaVuSans-30"/>
       <use x="127.246094" xlink:href="#DejaVuSans-31"/>
       <use x="190.869141" xlink:href="#DejaVuSans-34"/>
       <use x="254.492188" xlink:href="#DejaVuSans-2d"/>
       <use x="290.576172" xlink:href="#DejaVuSans-30"/>
       <use x="354.199219" xlink:href="#DejaVuSans-35"/>
       <use x="417.822266" xlink:href="#DejaVuSans-2d"/>
       <use x="453.90625" xlink:href="#DejaVuSans-31"/>
       <use x="517.529297" xlink:href="#DejaVuSans-30"/>
      </g>
     </g>
    </g>
    <g id="xtick_6">
     <g id="line2d_6">
      <g>
       <use style="stroke:#000000;stroke-width:0.8;" x="371.048929" xlink:href="#m2fc00df28c" y="222.66"/>
      </g>
     </g>
     <g id="text_6">
      <!-- 2014-05-12 -->
      <g transform="translate(341.991117 237.258437)scale(0.1 -0.1)">
       <use xlink:href="#DejaVuSans-32"/>
       <use x="63.623047" xlink:href="#DejaVuSans-30"/>
       <use x="127.246094" xlink:href="#DejaVuSans-31"/>
       <use x="190.869141" xlink:href="#DejaVuSans-34"/>
       <use x="254.492188" xlink:href="#DejaVuSans-2d"/>
       <use x="290.576172" xlink:href="#DejaVuSans-30"/>
       <use x="354.199219" xlink:href="#DejaVuSans-35"/>
       <use x="417.822266" xlink:href="#DejaVuSans-2d"/>
       <use x="453.90625" xlink:href="#DejaVuSans-31"/>
       <use x="517.529297" xlink:href="#DejaVuSans-32"/>
      </g>
     </g>
    </g>
    <g id="xtick_7">
     <g id="line2d_7">
      <g>
       <use style="stroke:#000000;stroke-width:0.8;" x="429.580398" xlink:href="#m2fc00df28c" y="222.66"/>
      </g>
     </g>
     <g id="text_7">
      <!-- 2014-05-14 -->
      <g transform="translate(400.522585 237.258437)scale(0.1 -0.1)">
       <use xlink:href="#DejaVuSans-32"/>
       <use x="63.623047" xlink:href="#DejaVuSans-30"/>
       <use x="127.246094" xlink:href="#DejaVuSans-31"/>
       <use x="190.869141" xlink:href="#DejaVuSans-34"/>
       <use x="254.492188" xlink:href="#DejaVuSans-2d"/>
       <use x="290.576172" xlink:href="#DejaVuSans-30"/>
       <use x="354.199219" xlink:href="#DejaVuSans-35"/>
       <use x="417.822266" xlink:href="#DejaVuSans-2d"/>
       <use x="453.90625" xlink:href="#DejaVuSans-31"/>
       <use x="517.529297" xlink:href="#DejaVuSans-34"/>
      </g>
     </g>
    </g>
   </g>
   <g id="matplotlib.axis_2">
    <g id="ytick_1">
     <g id="line2d_8">
      <defs>
       <path d="M 0 0 
L -3.5 0 
" id="m756f2b40fe" style="stroke:#000000;stroke-width:0.8;"/>
      </defs>
      <g>
       <use style="stroke:#000000;stroke-width:0.8;" x="30.103125" xlink:href="#m756f2b40fe" y="219.803497"/>
      </g>
     </g>
     <g id="text_8">
      <!-- 0.5 -->
      <defs>
       <path d="M 10.6875 12.40625 
L 21 12.40625 
L 21 0 
L 10.6875 0 
z
" id="DejaVuSans-2e"/>
      </defs>
      <g transform="translate(7.2 223.602716)scale(0.1 -0.1)">
       <use xlink:href="#DejaVuSans-30"/>
       <use x="63.623047" xlink:href="#DejaVuSans-2e"/>
       <use x="95.410156" xlink:href="#DejaVuSans-35"/>
      </g>
     </g>
    </g>
    <g id="ytick_2">
     <g id="line2d_9">
      <g>
       <use style="stroke:#000000;stroke-width:0.8;" x="30.103125" xlink:href="#m756f2b40fe" y="198.554114"/>
      </g>
     </g>
     <g id="text_9">
      <!-- 1.0 -->
      <g transform="translate(7.2 202.353333)scale(0.1 -0.1)">
       <use xlink:href="#DejaVuSans-31"/>
       <use x="63.623047" xlink:href="#DejaVuSans-2e"/>
       <use x="95.410156" xlink:href="#DejaVuSans-30"/>
      </g>
     </g>
    </g>
    <g id="ytick_3">
     <g id="line2d_10">
      <g>
       <use style="stroke:#000000;stroke-width:0.8;" x="30.103125" xlink:href="#m756f2b40fe" y="177.304731"/>
      </g>
     </g>
     <g id="text_10">
      <!-- 1.5 -->
      <g transform="translate(7.2 181.10395)scale(0.1 -0.1)">
       <use xlink:href="#DejaVuSans-31"/>
       <use x="63.623047" xlink:href="#DejaVuSans-2e"/>
       <use x="95.410156" xlink:href="#DejaVuSans-35"/>
      </g>
     </g>
    </g>
    <g id="ytick_4">
     <g id="line2d_11">
      <g>
       <use style="stroke:#000000;stroke-width:0.8;" x="30.103125" xlink:href="#m756f2b40fe" y="156.055348"/>
      </g>
     </g>
     <g id="text_11">
      <!-- 2.0 -->
      <g transform="translate(7.2 159.854567)scale(0.1 -0.1)">
       <use xlink:href="#DejaVuSans-32"/>
       <use x="63.623047" xlink:href="#DejaVuSans-2e"/>
       <use x="95.410156" xlink:href="#DejaVuSans-30"/>
      </g>
     </g>
    </g>
    <g id="ytick_5">
     <g id="line2d_12">
      <g>
       <use style="stroke:#000000;stroke-width:0.8;" x="30.103125" xlink:href="#m756f2b40fe" y="134.805965"/>
      </g>
     </g>
     <g id="text_12">
      <!-- 2.5 -->
      <g transform="translate(7.2 138.605184)scale(0.1 -0.1)">
       <use xlink:href="#DejaVuSans-32"/>
       <use x="63.623047" xlink:href="#DejaVuSans-2e"/>
       <use x="95.410156" xlink:href="#DejaVuSans-35"/>
      </g>
     </g>
    </g>
    <g id="ytick_6">
     <g id="line2d_13">
      <g>
       <use style="stroke:#000000;stroke-width:0.8;" x="30.103125" xlink:href="#m756f2b40fe" y="113.556582"/>
      </g>
     </g>
     <g id="text_13">
      <!-- 3.0 -->
      <defs>
       <path d="M 40.578125 39.3125 
Q 47.65625 37.796875 51.625 33 
Q 55.609375 28.21875 55.609375 21.1875 
Q 55.609375 10.40625 48.1875 4.484375 
Q 40.765625 -1.421875 27.09375 -1.421875 
Q 22.515625 -1.421875 17.65625 -0.515625 
Q 12.796875 0.390625 7.625 2.203125 
L 7.625 11.71875 
Q 11.71875 9.328125 16.59375 8.109375 
Q 21.484375 6.890625 26.8125 6.890625 
Q 36.078125 6.890625 40.9375 10.546875 
Q 45.796875 14.203125 45.796875 21.1875 
Q 45.796875 27.640625 41.28125 31.265625 
Q 36.765625 34.90625 28.71875 34.90625 
L 20.21875 34.90625 
L 20.21875 43.015625 
L 29.109375 43.015625 
Q 36.375 43.015625 40.234375 45.921875 
Q 44.09375 48.828125 44.09375 54.296875 
Q 44.09375 59.90625 40.109375 62.90625 
Q 36.140625 65.921875 28.71875 65.921875 
Q 24.65625 65.921875 20.015625 65.03125 
Q 15.375 64.15625 9.8125 62.3125 
L 9.8125 71.09375 
Q 15.4375 72.65625 20.34375 73.4375 
Q 25.25 74.21875 29.59375 74.21875 
Q 40.828125 74.21875 47.359375 69.109375 
Q 53.90625 64.015625 53.90625 55.328125 
Q 53.90625 49.265625 50.4375 45.09375 
Q 46.96875 40.921875 40.578125 39.3125 
z
" id="DejaVuSans-33"/>
      </defs>
      <g transform="translate(7.2 117.355801)scale(0.1 -0.1)">
       <use xlink:href="#DejaVuSans-33"/>
       <use x="63.623047" xlink:href="#DejaVuSans-2e"/>
       <use x="95.410156" xlink:href="#DejaVuSans-30"/>
      </g>
     </g>
    </g>
    <g id="ytick_7">
     <g id="line2d_14">
      <g>
       <use style="stroke:#000000;stroke-width:0.8;" x="30.103125" xlink:href="#m756f2b40fe" y="92.307199"/>
      </g>
     </g>
     <g id="text_14">
      <!-- 3.5 -->
      <g transform="translate(7.2 96.106418)scale(0.1 -0.1)">
       <use xlink:href="#DejaVuSans-33"/>
       <use x="63.623047" xlink:href="#DejaVuSans-2e"/>
       <use x="95.410156" xlink:href="#DejaVuSans-35"/>
      </g>
     </g>
    </g>
    <g id="ytick_8">
     <g id="line2d_15">
      <g>
       <use style="stroke:#000000;stroke-width:0.8;" x="30.103125" xlink:href="#m756f2b40fe" y="71.057816"/>
      </g>
     </g>
     <g id="text_15">
      <!-- 4.0 -->
      <g transform="translate(7.2 74.857035)scale(0.1 -0.1)">
       <use xlink:href="#DejaVuSans-34"/>
       <use x="63.623047" xlink:href="#DejaVuSans-2e"/>
       <use x="95.410156" xlink:href="#DejaVuSans-30"/>
      </g>
     </g>
    </g>
    <g id="ytick_9">
     <g id="line2d_16">
      <g>
       <use style="stroke:#000000;stroke-width:0.8;" x="30.103125" xlink:href="#m756f2b40fe" y="49.808433"/>
      </g>
     </g>
     <g id="text_16">
      <!-- 4.5 -->
      <g transform="translate(7.2 53.607652)scale(0.1 -0.1)">
       <use xlink:href="#DejaVuSans-34"/>
       <use x="63.623047" xlink:href="#DejaVuSans-2e"/>
       <use x="95.410156" xlink:href="#DejaVuSans-35"/>
      </g>
     </g>
    </g>
   </g>
   <g id="line2d_17">
    <path clip-path="url(#pc19368d0c9)" d="M 52.784069 209.459174 
L 54.003475 208.366336 
L 55.22288 202.551229 
L 56.442286 190.869472 
L 58.881097 154.892497 
L 60.100503 135.552635 
L 61.319908 120.082325 
L 62.539314 108.431343 
L 64.978125 91.567622 
L 67.416936 71.817159 
L 68.636342 64.704944 
L 69.855747 62.114876 
L 71.075153 62.771029 
L 72.294559 65.397271 
L 73.513964 69.547659 
L 74.73337 75.234559 
L 77.172181 88.873091 
L 79.610992 105.459307 
L 80.830398 111.736523 
L 82.049803 114.450295 
L 83.269209 112.252905 
L 84.488615 105.821266 
L 86.927426 88.499428 
L 88.146831 80.251087 
L 89.366237 70.049393 
L 90.585642 58.448166 
L 91.805048 50.093319 
L 93.024454 45.760083 
L 94.243859 43.655536 
L 95.463265 43.056544 
L 96.68267 46.049014 
L 97.902076 55.82236 
L 99.121482 70.561669 
L 101.560293 105.715848 
L 103.999104 135.882816 
L 105.21851 148.510947 
L 106.437915 162.898557 
L 107.657321 178.853881 
L 108.876726 193.042215 
L 110.096132 202.166845 
L 111.315538 205.672921 
L 112.534943 206.657857 
L 113.754349 201.926464 
L 114.973754 192.063772 
L 116.19316 180.365234 
L 117.412566 171.14313 
L 118.631971 163.904857 
L 119.851377 157.991063 
L 122.290188 144.179645 
L 127.16781 106.424687 
L 128.387216 95.803765 
L 129.606622 89.100096 
L 130.826027 86.98411 
L 132.045433 88.16692 
L 133.264838 90.138075 
L 134.484244 93.875156 
L 135.703649 99.716333 
L 139.361866 122.566515 
L 140.581272 126.351293 
L 141.800677 125.937644 
L 143.020083 119.726552 
L 144.239489 108.671433 
L 145.458894 92.080529 
L 146.6783 72.336014 
L 147.897705 55.353857 
L 149.117111 46.702932 
L 150.336517 46.97836 
L 151.555922 51.521311 
L 152.775328 56.598137 
L 153.994733 62.534699 
L 155.214139 65.715147 
L 156.433545 70.054797 
L 157.65295 77.747617 
L 158.872356 92.769511 
L 161.311167 132.523952 
L 163.749978 172.245372 
L 164.969384 188.370341 
L 166.188789 199.921997 
L 167.408195 207.313872 
L 168.627601 211.351162 
L 169.847006 212.430675 
L 171.066412 210.037604 
L 172.285817 203.863166 
L 173.505223 193.810552 
L 174.724628 181.322005 
L 175.944034 171.826802 
L 177.16344 167.800997 
L 178.382845 168.437328 
L 179.602251 169.809915 
L 180.821656 170.787924 
L 183.260468 173.956335 
L 184.479873 174.279198 
L 185.699279 172.025301 
L 186.918684 166.354665 
L 188.13809 161.551911 
L 189.357496 159.022496 
L 190.576901 158.283138 
L 191.796307 154.869826 
L 193.015712 147.947322 
L 195.454524 132.250513 
L 196.673929 124.542582 
L 200.332146 96.048522 
L 201.551552 88.713956 
L 202.770957 80.120496 
L 203.990363 72.61026 
L 205.209768 69.99281 
L 206.429174 73.293112 
L 208.867985 83.673698 
L 210.087391 84.671097 
L 211.306796 81.152531 
L 212.526202 71.434745 
L 213.745608 60.726369 
L 214.965013 53.668326 
L 216.184419 53.11489 
L 217.403824 57.521282 
L 218.62323 61.297163 
L 219.842635 62.758755 
L 221.062041 67.554587 
L 222.281447 77.367463 
L 223.500852 93.255635 
L 228.378475 167.702444 
L 229.59788 183.904517 
L 230.817286 192.134741 
L 232.036691 190.425129 
L 233.256097 179.835771 
L 234.475503 168.239358 
L 235.694908 159.952968 
L 236.914314 155.63046 
L 238.133719 155.112744 
L 239.353125 157.028068 
L 240.572531 160.141469 
L 241.791936 162.721944 
L 243.011342 164.538422 
L 244.230747 162.997315 
L 245.450153 159.819099 
L 246.669559 155.555453 
L 247.888964 152.591237 
L 249.10837 150.497495 
L 250.327775 147.212709 
L 251.547181 140.322052 
L 253.985992 122.477765 
L 255.205398 115.915478 
L 256.424803 108.240852 
L 258.863615 87.829075 
L 260.08302 80.133175 
L 261.302426 74.943088 
L 263.741237 59.866104 
L 264.960642 57.419478 
L 266.180048 61.53071 
L 268.618859 75.554631 
L 269.838265 80.825299 
L 271.05767 85.246485 
L 272.277076 85.672813 
L 273.496482 82.640366 
L 274.715887 78.714913 
L 275.935293 77.872467 
L 277.154698 76.860605 
L 278.374104 72.189444 
L 279.59351 63.891389 
L 280.812915 56.684993 
L 282.032321 53.067057 
L 283.251726 52.269285 
L 284.471132 52.87864 
L 285.690538 54.379891 
L 286.909943 59.537757 
L 288.129349 69.902958 
L 289.348754 84.466978 
L 290.56816 97.530771 
L 291.787566 106.314107 
L 293.006971 111.152381 
L 294.226377 117.661114 
L 295.445782 128.310809 
L 300.323405 185.682139 
L 301.54281 195.108794 
L 302.762216 202.005883 
L 303.981622 203.489899 
L 305.201027 201.763599 
L 307.639838 188.311309 
L 308.859244 184.631493 
L 310.078649 185.206122 
L 311.298055 188.784051 
L 313.736866 197.636672 
L 314.956272 200.088134 
L 316.175677 200.281334 
L 317.395083 195.852471 
L 318.614489 186.635288 
L 322.272705 150.454718 
L 323.492111 135.144141 
L 324.711517 118.193053 
L 325.930922 105.08564 
L 327.150328 95.37514 
L 329.589139 78.752085 
L 330.808545 68.022769 
L 332.02795 61.499543 
L 333.247356 62.650655 
L 334.466761 71.803264 
L 335.686167 84.573562 
L 336.905573 98.706093 
L 339.344384 133.782357 
L 343.002601 187.369757 
L 344.222006 199.344764 
L 345.441412 203.129686 
L 346.660817 199.889438 
L 347.880223 190.871753 
L 349.099628 178.385892 
L 350.319034 164.675427 
L 351.53844 153.398027 
L 352.757845 145.909211 
L 353.977251 139.196875 
L 355.196656 131.271963 
L 357.635468 113.062265 
L 358.854873 105.147604 
L 360.074279 95.433847 
L 361.293684 83.656287 
L 362.51309 69.968333 
L 363.732496 64.944389 
L 364.951901 68.686046 
L 367.390712 91.448062 
L 369.829524 109.556776 
L 371.048929 117.744846 
L 372.268335 125.069964 
L 373.48774 129.287237 
L 374.707146 130.660217 
L 375.926552 129.188533 
L 377.145957 123.874364 
L 379.584768 107.559435 
L 380.804174 103.984093 
L 382.02358 102.475611 
L 383.242985 99.060565 
L 384.462391 89.226495 
L 386.901202 58.265291 
L 388.120608 52.154511 
L 389.340013 55.470168 
L 390.559419 63.691796 
L 391.778824 74.833478 
L 392.99823 89.805098 
L 394.217635 108.629501 
L 395.437041 125.611036 
L 397.875852 152.455237 
L 399.095258 165.547189 
L 400.314663 181.190615 
L 401.534069 194.030987 
L 402.753475 203.854642 
L 403.97288 207.462617 
L 405.192286 208.70429 
L 406.411691 204.334635 
L 407.631097 195.543864 
L 408.850503 184.893131 
L 410.069908 175.287645 
L 411.289314 167.142194 
L 412.508719 160.751898 
L 413.728125 157.977466 
L 414.947531 156.581314 
L 416.166936 153.073485 
L 417.386342 144.719166 
L 418.605747 135.489412 
L 419.825153 125.060257 
L 422.263964 97.840143 
L 423.48337 88.446685 
L 424.702775 88.242275 
L 425.922181 92.75212 
L 427.141587 100.124818 
L 429.580398 117.484346 
L 429.580398 117.484346 
" style="fill:none;stroke:#1f77b4;stroke-linecap:square;stroke-width:1.5;"/>
   </g>
   <g id="line2d_18">
    <path clip-path="url(#pc19368d0c9)" d="M 49.125852 208.876082 
L 51.564663 210.08192 
L 52.784069 205.597569 
L 54.003475 191.974198 
L 55.22288 175.036648 
L 56.442286 153.510237 
L 57.661691 136.130606 
L 58.881097 117.017062 
L 60.100503 107.099305 
L 61.319908 101.177662 
L 63.758719 81.813906 
L 64.978125 70.628928 
L 66.197531 63.008643 
L 67.416936 60.477262 
L 68.636342 62.858723 
L 69.855747 64.977103 
L 71.075153 68.355986 
L 73.513964 82.037804 
L 74.73337 88.240978 
L 75.952775 96.34049 
L 77.172181 106.06423 
L 78.391587 113.9732 
L 79.610992 115.172138 
L 80.830398 114.205548 
L 82.049803 107.381029 
L 83.269209 95.877222 
L 84.488615 87.455558 
L 85.70802 82.165504 
L 86.927426 71.132199 
L 88.146831 56.850477 
L 89.366237 47.361821 
L 90.585642 46.067658 
L 91.805048 43.850769 
L 93.024454 41.048182 
L 94.243859 44.27068 
L 95.463265 52.82818 
L 100.340887 123.308197 
L 103.999104 161.192589 
L 106.437915 196.416254 
L 107.657321 203.757591 
L 108.876726 206.32669 
L 110.096132 206.934483 
L 111.315538 206.712396 
L 113.754349 177.346406 
L 114.973754 171.616784 
L 116.19316 164.466201 
L 117.412566 155.631587 
L 118.631971 153.875402 
L 121.070782 134.665042 
L 123.509594 117.277295 
L 124.728999 107.243095 
L 125.948405 94.75367 
L 127.16781 85.414529 
L 128.387216 87.132088 
L 129.606622 88.405712 
L 130.826027 88.962959 
L 132.045433 93.045554 
L 134.484244 106.486492 
L 135.703649 115.916906 
L 136.923055 123.725088 
L 138.142461 128.057551 
L 139.361866 127.271239 
L 140.581272 122.484141 
L 141.800677 109.424277 
L 143.020083 94.105879 
L 145.458894 50.190732 
L 146.6783 43.159409 
L 147.897705 46.758654 
L 149.117111 51.017017 
L 150.336517 56.788264 
L 151.555922 61.989132 
L 152.775328 68.826702 
L 153.994733 66.329609 
L 155.214139 75.008081 
L 156.433545 91.905162 
L 158.872356 132.651523 
L 161.311167 172.547555 
L 162.530573 190.663519 
L 163.749978 201.89995 
L 166.188789 212.839147 
L 167.408195 214.011818 
L 168.627601 210.441061 
L 169.847006 205.659934 
L 171.066412 195.488502 
L 172.285817 180.283219 
L 173.505223 168.194295 
L 174.724628 167.002891 
L 175.944034 168.205806 
L 177.16344 170.103288 
L 178.382845 171.120651 
L 179.602251 171.139832 
L 180.821656 174.814017 
L 182.041062 175.915155 
L 184.479873 168.052324 
L 185.699279 158.903248 
L 186.918684 157.700161 
L 188.13809 160.464078 
L 189.357496 156.685174 
L 190.576901 147.460226 
L 193.015712 132.129578 
L 194.235118 124.925394 
L 195.454524 116.572773 
L 196.673929 102.758524 
L 197.893335 94.052248 
L 199.11274 91.334794 
L 200.332146 80.754827 
L 201.551552 68.271866 
L 202.770957 68.804086 
L 203.990363 72.902478 
L 205.209768 78.172773 
L 206.429174 84.76692 
L 207.64858 88.081401 
L 210.087391 74.211221 
L 211.306796 58.928044 
L 212.526202 49.039843 
L 214.965013 57.267733 
L 216.184419 62.259021 
L 217.403824 64.364736 
L 218.62323 61.65251 
L 219.842635 76.646516 
L 221.062041 93.803363 
L 222.281447 109.317024 
L 223.500852 132.291566 
L 227.159069 184.2237 
L 228.378475 198.571633 
L 229.59788 193.608889 
L 230.817286 179.094864 
L 232.036691 166.80356 
L 233.256097 158.81965 
L 234.475503 154.235694 
L 235.694908 153.836038 
L 236.914314 157.2665 
L 238.133719 159.981665 
L 239.353125 163.176243 
L 240.572531 165.007924 
L 241.791936 165.431098 
L 243.011342 158.552922 
L 245.450153 152.64016 
L 246.669559 149.660274 
L 247.888964 149.192052 
L 249.10837 142.785802 
L 250.327775 128.988302 
L 251.547181 122.935088 
L 252.766587 115.509904 
L 253.985992 109.301441 
L 255.205398 99.911211 
L 256.424803 84.115523 
L 257.644209 79.460492 
L 258.863615 76.82351 
L 260.08302 68.545261 
L 261.302426 57.252535 
L 262.521831 53.800515 
L 263.741237 61.205383 
L 264.960642 69.586233 
L 267.399454 81.480881 
L 268.618859 85.398236 
L 269.838265 88.860337 
L 272.277076 76.300896 
L 273.496482 77.083976 
L 274.715887 80.232527 
L 275.935293 73.265312 
L 277.154698 63.070492 
L 278.374104 55.338364 
L 279.59351 51.646124 
L 280.812915 52.216684 
L 282.032321 52.945049 
L 283.251726 53.474188 
L 284.471132 56.720437 
L 285.690538 68.418646 
L 288.129349 100.412496 
L 289.348754 107.610023 
L 290.56816 110.919803 
L 291.787566 114.927316 
L 293.006971 127.136223 
L 295.445782 158.578385 
L 296.665188 172.771453 
L 299.103999 198.707396 
L 300.323405 201.051419 
L 301.54281 206.258833 
L 302.762216 203.159445 
L 303.981622 195.872519 
L 305.201027 186.303623 
L 306.420433 182.757787 
L 307.639838 184.833069 
L 308.859244 188.02751 
L 310.078649 193.491575 
L 311.298055 198.236511 
L 312.517461 201.181931 
L 313.736866 200.84596 
L 314.956272 198.81611 
L 316.175677 187.895342 
L 317.395083 173.194413 
L 318.614489 162.559675 
L 319.833894 154.767457 
L 321.0533 134.03702 
L 322.272705 116.627944 
L 323.492111 103.914196 
L 324.711517 94.714781 
L 325.930922 87.496442 
L 328.369733 70.040129 
L 329.589139 55.308494 
L 330.808545 59.150006 
L 332.02795 73.493466 
L 333.247356 82.76632 
L 334.466761 97.4609 
L 340.563789 189.084426 
L 341.783195 202.951538 
L 343.002601 205.998329 
L 344.222006 200.439191 
L 345.441412 193.230795 
L 346.660817 178.945273 
L 347.880223 162.981608 
L 349.099628 152.099399 
L 350.319034 145.113074 
L 351.53844 140.51516 
L 352.757845 131.962392 
L 353.977251 121.338339 
L 355.196656 112.68462 
L 357.635468 97.594356 
L 361.293684 56.530493 
L 364.951901 91.907361 
L 366.171307 101.380697 
L 369.829524 125.944905 
L 371.048929 131.412207 
L 372.268335 130.504599 
L 373.48774 130.063846 
L 374.707146 126.997155 
L 375.926552 114.56209 
L 377.145957 104.469385 
L 378.365363 103.646829 
L 379.584768 103.836064 
L 380.804174 99.943939 
L 382.02358 93.401691 
L 384.462391 55.010801 
L 385.681796 45.451217 
L 386.901202 56.001516 
L 388.120608 64.95777 
L 389.340013 70.116102 
L 392.99823 126.589312 
L 394.217635 140.371167 
L 395.437041 151.98322 
L 396.656447 165.011324 
L 397.875852 179.647024 
L 399.095258 198.913496 
L 400.314663 203.532439 
L 401.534069 209.11799 
L 402.753475 209.737422 
L 403.97288 207.257459 
L 405.192286 196.009024 
L 406.411691 183.365108 
L 410.069908 158.928757 
L 411.289314 156.134371 
L 412.508719 158.869269 
L 413.728125 154.740302 
L 414.947531 145.610883 
L 416.166936 133.806313 
L 417.386342 127.05104 
L 418.605747 114.32342 
L 419.825153 92.931422 
L 421.044559 86.265587 
L 422.263964 86.143045 
L 423.48337 92.318193 
L 424.702775 99.795123 
L 425.922181 108.261137 
L 428.360992 126.473751 
L 429.580398 133.930842 
L 429.580398 133.930842 
" style="fill:none;stroke:#ff7f0e;stroke-linecap:square;stroke-width:1.5;"/>
   </g>
   <g id="patch_3">
    <path d="M 30.103125 222.66 
L 30.103125 32.4 
" style="fill:none;stroke:#000000;stroke-linecap:square;stroke-linejoin:miter;stroke-width:0.8;"/>
   </g>
   <g id="patch_4">
    <path d="M 448.603125 222.66 
L 448.603125 32.4 
" style="fill:none;stroke:#000000;stroke-linecap:square;stroke-linejoin:miter;stroke-width:0.8;"/>
   </g>
   <g id="patch_5">
    <path d="M 30.103125 222.66 
L 448.603125 222.66 
" style="fill:none;stroke:#000000;stroke-linecap:square;stroke-linejoin:miter;stroke-width:0.8;"/>
   </g>
   <g id="patch_6">
    <path d="M 30.103125 32.4 
L 448.603125 32.4 
" style="fill:none;stroke:#000000;stroke-linecap:square;stroke-linejoin:miter;stroke-width:0.8;"/>
   </g>
   <g id="legend_1">
    <g id="patch_7">
     <path d="M 37.103125 217.66 
L 234.223438 217.66 
Q 236.223438 217.66 236.223438 215.66 
L 236.223438 186.7475 
Q 236.223438 184.7475 234.223438 184.7475 
L 37.103125 184.7475 
Q 35.103125 184.7475 35.103125 186.7475 
L 35.103125 215.66 
Q 35.103125 217.66 37.103125 217.66 
z
" style="fill:#ffffff;opacity:0.8;stroke:#cccccc;stroke-linejoin:miter;"/>
    </g>
    <g id="line2d_19">
     <path d="M 39.103125 192.845937 
L 59.103125 192.845937 
" style="fill:none;stroke:#1f77b4;stroke-linecap:square;stroke-width:1.5;"/>
    </g>
    <g id="line2d_20"/>
    <g id="text_17">
     <!-- Prediction (window size 3) (L_T1) -->
     <defs>
      <path d="M 19.671875 64.796875 
L 19.671875 37.40625 
L 32.078125 37.40625 
Q 38.96875 37.40625 42.71875 40.96875 
Q 46.484375 44.53125 46.484375 51.125 
Q 46.484375 57.671875 42.71875 61.234375 
Q 38.96875 64.796875 32.078125 64.796875 
z
M 9.8125 72.90625 
L 32.078125 72.90625 
Q 44.34375 72.90625 50.609375 67.359375 
Q 56.890625 61.8125 56.890625 51.125 
Q 56.890625 40.328125 50.609375 34.8125 
Q 44.34375 29.296875 32.078125 29.296875 
L 19.671875 29.296875 
L 19.671875 0 
L 9.8125 0 
z
" id="DejaVuSans-50"/>
      <path d="M 41.109375 46.296875 
Q 39.59375 47.171875 37.8125 47.578125 
Q 36.03125 48 33.890625 48 
Q 26.265625 48 22.1875 43.046875 
Q 18.109375 38.09375 18.109375 28.8125 
L 18.109375 0 
L 9.078125 0 
L 9.078125 54.6875 
L 18.109375 54.6875 
L 18.109375 46.1875 
Q 20.953125 51.171875 25.484375 53.578125 
Q 30.03125 56 36.53125 56 
Q 37.453125 56 38.578125 55.875 
Q 39.703125 55.765625 41.0625 55.515625 
z
" id="DejaVuSans-72"/>
      <path d="M 56.203125 29.59375 
L 56.203125 25.203125 
L 14.890625 25.203125 
Q 15.484375 15.921875 20.484375 11.0625 
Q 25.484375 6.203125 34.421875 6.203125 
Q 39.59375 6.203125 44.453125 7.46875 
Q 49.3125 8.734375 54.109375 11.28125 
L 54.109375 2.78125 
Q 49.265625 0.734375 44.1875 -0.34375 
Q 39.109375 -1.421875 33.890625 -1.421875 
Q 20.796875 -1.421875 13.15625 6.1875 
Q 5.515625 13.8125 5.515625 26.8125 
Q 5.515625 40.234375 12.765625 48.109375 
Q 20.015625 56 32.328125 56 
Q 43.359375 56 49.78125 48.890625 
Q 56.203125 41.796875 56.203125 29.59375 
z
M 47.21875 32.234375 
Q 47.125 39.59375 43.09375 43.984375 
Q 39.0625 48.390625 32.421875 48.390625 
Q 24.90625 48.390625 20.390625 44.140625 
Q 15.875 39.890625 15.1875 32.171875 
z
" id="DejaVuSans-65"/>
      <path d="M 45.40625 46.390625 
L 45.40625 75.984375 
L 54.390625 75.984375 
L 54.390625 0 
L 45.40625 0 
L 45.40625 8.203125 
Q 42.578125 3.328125 38.25 0.953125 
Q 33.9375 -1.421875 27.875 -1.421875 
Q 17.96875 -1.421875 11.734375 6.484375 
Q 5.515625 14.40625 5.515625 27.296875 
Q 5.515625 40.1875 11.734375 48.09375 
Q 17.96875 56 27.875 56 
Q 33.9375 56 38.25 53.625 
Q 42.578125 51.265625 45.40625 46.390625 
z
M 14.796875 27.296875 
Q 14.796875 17.390625 18.875 11.75 
Q 22.953125 6.109375 30.078125 6.109375 
Q 37.203125 6.109375 41.296875 11.75 
Q 45.40625 17.390625 45.40625 27.296875 
Q 45.40625 37.203125 41.296875 42.84375 
Q 37.203125 48.484375 30.078125 48.484375 
Q 22.953125 48.484375 18.875 42.84375 
Q 14.796875 37.203125 14.796875 27.296875 
z
" id="DejaVuSans-64"/>
      <path d="M 9.421875 54.6875 
L 18.40625 54.6875 
L 18.40625 0 
L 9.421875 0 
z
M 9.421875 75.984375 
L 18.40625 75.984375 
L 18.40625 64.59375 
L 9.421875 64.59375 
z
" id="DejaVuSans-69"/>
      <path d="M 48.78125 52.59375 
L 48.78125 44.1875 
Q 44.96875 46.296875 41.140625 47.34375 
Q 37.3125 48.390625 33.40625 48.390625 
Q 24.65625 48.390625 19.8125 42.84375 
Q 14.984375 37.3125 14.984375 27.296875 
Q 14.984375 17.28125 19.8125 11.734375 
Q 24.65625 6.203125 33.40625 6.203125 
Q 37.3125 6.203125 41.140625 7.25 
Q 44.96875 8.296875 48.78125 10.40625 
L 48.78125 2.09375 
Q 45.015625 0.34375 40.984375 -0.53125 
Q 36.96875 -1.421875 32.421875 -1.421875 
Q 20.0625 -1.421875 12.78125 6.34375 
Q 5.515625 14.109375 5.515625 27.296875 
Q 5.515625 40.671875 12.859375 48.328125 
Q 20.21875 56 33.015625 56 
Q 37.15625 56 41.109375 55.140625 
Q 45.0625 54.296875 48.78125 52.59375 
z
" id="DejaVuSans-63"/>
      <path d="M 18.3125 70.21875 
L 18.3125 54.6875 
L 36.8125 54.6875 
L 36.8125 47.703125 
L 18.3125 47.703125 
L 18.3125 18.015625 
Q 18.3125 11.328125 20.140625 9.421875 
Q 21.96875 7.515625 27.59375 7.515625 
L 36.8125 7.515625 
L 36.8125 0 
L 27.59375 0 
Q 17.1875 0 13.234375 3.875 
Q 9.28125 7.765625 9.28125 18.015625 
L 9.28125 47.703125 
L 2.6875 47.703125 
L 2.6875 54.6875 
L 9.28125 54.6875 
L 9.28125 70.21875 
z
" id="DejaVuSans-74"/>
      <path d="M 30.609375 48.390625 
Q 23.390625 48.390625 19.1875 42.75 
Q 14.984375 37.109375 14.984375 27.296875 
Q 14.984375 17.484375 19.15625 11.84375 
Q 23.34375 6.203125 30.609375 6.203125 
Q 37.796875 6.203125 41.984375 11.859375 
Q 46.1875 17.53125 46.1875 27.296875 
Q 46.1875 37.015625 41.984375 42.703125 
Q 37.796875 48.390625 30.609375 48.390625 
z
M 30.609375 56 
Q 42.328125 56 49.015625 48.375 
Q 55.71875 40.765625 55.71875 27.296875 
Q 55.71875 13.875 49.015625 6.21875 
Q 42.328125 -1.421875 30.609375 -1.421875 
Q 18.84375 -1.421875 12.171875 6.21875 
Q 5.515625 13.875 5.515625 27.296875 
Q 5.515625 40.765625 12.171875 48.375 
Q 18.84375 56 30.609375 56 
z
" id="DejaVuSans-6f"/>
      <path d="M 54.890625 33.015625 
L 54.890625 0 
L 45.90625 0 
L 45.90625 32.71875 
Q 45.90625 40.484375 42.875 44.328125 
Q 39.84375 48.1875 33.796875 48.1875 
Q 26.515625 48.1875 22.3125 43.546875 
Q 18.109375 38.921875 18.109375 30.90625 
L 18.109375 0 
L 9.078125 0 
L 9.078125 54.6875 
L 18.109375 54.6875 
L 18.109375 46.1875 
Q 21.34375 51.125 25.703125 53.5625 
Q 30.078125 56 35.796875 56 
Q 45.21875 56 50.046875 50.171875 
Q 54.890625 44.34375 54.890625 33.015625 
z
" id="DejaVuSans-6e"/>
      <path id="DejaVuSans-20"/>
      <path d="M 31 75.875 
Q 24.46875 64.65625 21.28125 53.65625 
Q 18.109375 42.671875 18.109375 31.390625 
Q 18.109375 20.125 21.3125 9.0625 
Q 24.515625 -2 31 -13.1875 
L 23.1875 -13.1875 
Q 15.875 -1.703125 12.234375 9.375 
Q 8.59375 20.453125 8.59375 31.390625 
Q 8.59375 42.28125 12.203125 53.3125 
Q 15.828125 64.359375 23.1875 75.875 
z
" id="DejaVuSans-28"/>
      <path d="M 4.203125 54.6875 
L 13.1875 54.6875 
L 24.421875 12.015625 
L 35.59375 54.6875 
L 46.1875 54.6875 
L 57.421875 12.015625 
L 68.609375 54.6875 
L 77.59375 54.6875 
L 63.28125 0 
L 52.6875 0 
L 40.921875 44.828125 
L 29.109375 0 
L 18.5 0 
z
" id="DejaVuSans-77"/>
      <path d="M 44.28125 53.078125 
L 44.28125 44.578125 
Q 40.484375 46.53125 36.375 47.5 
Q 32.28125 48.484375 27.875 48.484375 
Q 21.1875 48.484375 17.84375 46.4375 
Q 14.5 44.390625 14.5 40.28125 
Q 14.5 37.15625 16.890625 35.375 
Q 19.28125 33.59375 26.515625 31.984375 
L 29.59375 31.296875 
Q 39.15625 29.25 43.1875 25.515625 
Q 47.21875 21.78125 47.21875 15.09375 
Q 47.21875 7.46875 41.1875 3.015625 
Q 35.15625 -1.421875 24.609375 -1.421875 
Q 20.21875 -1.421875 15.453125 -0.5625 
Q 10.6875 0.296875 5.421875 2 
L 5.421875 11.28125 
Q 10.40625 8.6875 15.234375 7.390625 
Q 20.0625 6.109375 24.8125 6.109375 
Q 31.15625 6.109375 34.5625 8.28125 
Q 37.984375 10.453125 37.984375 14.40625 
Q 37.984375 18.0625 35.515625 20.015625 
Q 33.0625 21.96875 24.703125 23.78125 
L 21.578125 24.515625 
Q 13.234375 26.265625 9.515625 29.90625 
Q 5.8125 33.546875 5.8125 39.890625 
Q 5.8125 47.609375 11.28125 51.796875 
Q 16.75 56 26.8125 56 
Q 31.78125 56 36.171875 55.265625 
Q 40.578125 54.546875 44.28125 53.078125 
z
" id="DejaVuSans-73"/>
      <path d="M 5.515625 54.6875 
L 48.1875 54.6875 
L 48.1875 46.484375 
L 14.40625 7.171875 
L 48.1875 7.171875 
L 48.1875 0 
L 4.296875 0 
L 4.296875 8.203125 
L 38.09375 47.515625 
L 5.515625 47.515625 
z
" id="DejaVuSans-7a"/>
      <path d="M 8.015625 75.875 
L 15.828125 75.875 
Q 23.140625 64.359375 26.78125 53.3125 
Q 30.421875 42.28125 30.421875 31.390625 
Q 30.421875 20.453125 26.78125 9.375 
Q 23.140625 -1.703125 15.828125 -13.1875 
L 8.015625 -13.1875 
Q 14.5 -2 17.703125 9.0625 
Q 20.90625 20.125 20.90625 31.390625 
Q 20.90625 42.671875 17.703125 53.65625 
Q 14.5 64.65625 8.015625 75.875 
z
" id="DejaVuSans-29"/>
      <path d="M 9.8125 72.90625 
L 19.671875 72.90625 
L 19.671875 8.296875 
L 55.171875 8.296875 
L 55.171875 0 
L 9.8125 0 
z
" id="DejaVuSans-4c"/>
      <path d="M 50.984375 -16.609375 
L 50.984375 -23.578125 
L -0.984375 -23.578125 
L -0.984375 -16.609375 
z
" id="DejaVuSans-5f"/>
      <path d="M -0.296875 72.90625 
L 61.375 72.90625 
L 61.375 64.59375 
L 35.5 64.59375 
L 35.5 0 
L 25.59375 0 
L 25.59375 64.59375 
L -0.296875 64.59375 
z
" id="DejaVuSans-54"/>
     </defs>
     <g transform="translate(67.103125 196.345937)scale(0.1 -0.1)">
      <use xlink:href="#DejaVuSans-50"/>
      <use x="60.287109" xlink:href="#DejaVuSans-72"/>
      <use x="101.369141" xlink:href="#DejaVuSans-65"/>
      <use x="162.892578" xlink:href="#DejaVuSans-64"/>
      <use x="226.369141" xlink:href="#DejaVuSans-69"/>
      <use x="254.152344" xlink:href="#DejaVuSans-63"/>
      <use x="309.132812" xlink:href="#DejaVuSans-74"/>
      <use x="348.341797" xlink:href="#DejaVuSans-69"/>
      <use x="376.125" xlink:href="#DejaVuSans-6f"/>
      <use x="437.306641" xlink:href="#DejaVuSans-6e"/>
      <use x="500.685547" xlink:href="#DejaVuSans-20"/>
      <use x="532.472656" xlink:href="#DejaVuSans-28"/>
      <use x="571.486328" xlink:href="#DejaVuSans-77"/>
      <use x="653.273438" xlink:href="#DejaVuSans-69"/>
      <use x="681.056641" xlink:href="#DejaVuSans-6e"/>
      <use x="744.435547" xlink:href="#DejaVuSans-64"/>
      <use x="807.912109" xlink:href="#DejaVuSans-6f"/>
      <use x="869.09375" xlink:href="#DejaVuSans-77"/>
      <use x="950.880859" xlink:href="#DejaVuSans-20"/>
      <use x="982.667969" xlink:href="#DejaVuSans-73"/>
      <use x="1034.767578" xlink:href="#DejaVuSans-69"/>
      <use x="1062.550781" xlink:href="#DejaVuSans-7a"/>
      <use x="1115.041016" xlink:href="#DejaVuSans-65"/>
      <use x="1176.564453" xlink:href="#DejaVuSans-20"/>
      <use x="1208.351562" xlink:href="#DejaVuSans-33"/>
      <use x="1271.974609" xlink:href="#DejaVuSans-29"/>
      <use x="1310.988281" xlink:href="#DejaVuSans-20"/>
      <use x="1342.775391" xlink:href="#DejaVuSans-28"/>
      <use x="1381.789062" xlink:href="#DejaVuSans-4c"/>
      <use x="1437.501953" xlink:href="#DejaVuSans-5f"/>
      <use x="1487.501953" xlink:href="#DejaVuSans-54"/>
      <use x="1548.585938" xlink:href="#DejaVuSans-31"/>
      <use x="1612.208984" xlink:href="#DejaVuSans-29"/>
     </g>
    </g>
    <g id="line2d_21">
     <path d="M 39.103125 207.802187 
L 59.103125 207.802187 
" style="fill:none;stroke:#ff7f0e;stroke-linecap:square;stroke-width:1.5;"/>
    </g>
    <g id="line2d_22"/>
    <g id="text_18">
     <!-- Original data (L_T1) -->
     <defs>
      <path d="M 39.40625 66.21875 
Q 28.65625 66.21875 22.328125 58.203125 
Q 16.015625 50.203125 16.015625 36.375 
Q 16.015625 22.609375 22.328125 14.59375 
Q 28.65625 6.59375 39.40625 6.59375 
Q 50.140625 6.59375 56.421875 14.59375 
Q 62.703125 22.609375 62.703125 36.375 
Q 62.703125 50.203125 56.421875 58.203125 
Q 50.140625 66.21875 39.40625 66.21875 
z
M 39.40625 74.21875 
Q 54.734375 74.21875 63.90625 63.9375 
Q 73.09375 53.65625 73.09375 36.375 
Q 73.09375 19.140625 63.90625 8.859375 
Q 54.734375 -1.421875 39.40625 -1.421875 
Q 24.03125 -1.421875 14.8125 8.828125 
Q 5.609375 19.09375 5.609375 36.375 
Q 5.609375 53.65625 14.8125 63.9375 
Q 24.03125 74.21875 39.40625 74.21875 
z
" id="DejaVuSans-4f"/>
      <path d="M 45.40625 27.984375 
Q 45.40625 37.75 41.375 43.109375 
Q 37.359375 48.484375 30.078125 48.484375 
Q 22.859375 48.484375 18.828125 43.109375 
Q 14.796875 37.75 14.796875 27.984375 
Q 14.796875 18.265625 18.828125 12.890625 
Q 22.859375 7.515625 30.078125 7.515625 
Q 37.359375 7.515625 41.375 12.890625 
Q 45.40625 18.265625 45.40625 27.984375 
z
M 54.390625 6.78125 
Q 54.390625 -7.171875 48.1875 -13.984375 
Q 42 -20.796875 29.203125 -20.796875 
Q 24.46875 -20.796875 20.265625 -20.09375 
Q 16.0625 -19.390625 12.109375 -17.921875 
L 12.109375 -9.1875 
Q 16.0625 -11.328125 19.921875 -12.34375 
Q 23.78125 -13.375 27.78125 -13.375 
Q 36.625 -13.375 41.015625 -8.765625 
Q 45.40625 -4.15625 45.40625 5.171875 
L 45.40625 9.625 
Q 42.625 4.78125 38.28125 2.390625 
Q 33.9375 0 27.875 0 
Q 17.828125 0 11.671875 7.65625 
Q 5.515625 15.328125 5.515625 27.984375 
Q 5.515625 40.671875 11.671875 48.328125 
Q 17.828125 56 27.875 56 
Q 33.9375 56 38.28125 53.609375 
Q 42.625 51.21875 45.40625 46.390625 
L 45.40625 54.6875 
L 54.390625 54.6875 
z
" id="DejaVuSans-67"/>
      <path d="M 34.28125 27.484375 
Q 23.390625 27.484375 19.1875 25 
Q 14.984375 22.515625 14.984375 16.5 
Q 14.984375 11.71875 18.140625 8.90625 
Q 21.296875 6.109375 26.703125 6.109375 
Q 34.1875 6.109375 38.703125 11.40625 
Q 43.21875 16.703125 43.21875 25.484375 
L 43.21875 27.484375 
z
M 52.203125 31.203125 
L 52.203125 0 
L 43.21875 0 
L 43.21875 8.296875 
Q 40.140625 3.328125 35.546875 0.953125 
Q 30.953125 -1.421875 24.3125 -1.421875 
Q 15.921875 -1.421875 10.953125 3.296875 
Q 6 8.015625 6 15.921875 
Q 6 25.140625 12.171875 29.828125 
Q 18.359375 34.515625 30.609375 34.515625 
L 43.21875 34.515625 
L 43.21875 35.40625 
Q 43.21875 41.609375 39.140625 45 
Q 35.0625 48.390625 27.6875 48.390625 
Q 23 48.390625 18.546875 47.265625 
Q 14.109375 46.140625 10.015625 43.890625 
L 10.015625 52.203125 
Q 14.9375 54.109375 19.578125 55.046875 
Q 24.21875 56 28.609375 56 
Q 40.484375 56 46.34375 49.84375 
Q 52.203125 43.703125 52.203125 31.203125 
z
" id="DejaVuSans-61"/>
      <path d="M 9.421875 75.984375 
L 18.40625 75.984375 
L 18.40625 0 
L 9.421875 0 
z
" id="DejaVuSans-6c"/>
     </defs>
     <g transform="translate(67.103125 211.302187)scale(0.1 -0.1)">
      <use xlink:href="#DejaVuSans-4f"/>
      <use x="78.710938" xlink:href="#DejaVuSans-72"/>
      <use x="119.824219" xlink:href="#DejaVuSans-69"/>
      <use x="147.607422" xlink:href="#DejaVuSans-67"/>
      <use x="211.083984" xlink:href="#DejaVuSans-69"/>
      <use x="238.867188" xlink:href="#DejaVuSans-6e"/>
      <use x="302.246094" xlink:href="#DejaVuSans-61"/>
      <use x="363.525391" xlink:href="#DejaVuSans-6c"/>
      <use x="391.308594" xlink:href="#DejaVuSans-20"/>
      <use x="423.095703" xlink:href="#DejaVuSans-64"/>
      <use x="486.572266" xlink:href="#DejaVuSans-61"/>
      <use x="547.851562" xlink:href="#DejaVuSans-74"/>
      <use x="587.060547" xlink:href="#DejaVuSans-61"/>
      <use x="648.339844" xlink:href="#DejaVuSans-20"/>
      <use x="680.126953" xlink:href="#DejaVuSans-28"/>
      <use x="719.140625" xlink:href="#DejaVuSans-4c"/>
      <use x="774.853516" xlink:href="#DejaVuSans-5f"/>
      <use x="824.853516" xlink:href="#DejaVuSans-54"/>
      <use x="885.9375" xlink:href="#DejaVuSans-31"/>
      <use x="949.560547" xlink:href="#DejaVuSans-29"/>
     </g>
    </g>
   </g>
  </g>
  <g id="text_19">
   <!-- Data and predictions -->
   <defs>
    <path d="M 19.671875 64.796875 
L 19.671875 8.109375 
L 31.59375 8.109375 
Q 46.6875 8.109375 53.6875 14.9375 
Q 60.6875 21.78125 60.6875 36.53125 
Q 60.6875 51.171875 53.6875 57.984375 
Q 46.6875 64.796875 31.59375 64.796875 
z
M 9.8125 72.90625 
L 30.078125 72.90625 
Q 51.265625 72.90625 61.171875 64.09375 
Q 71.09375 55.28125 71.09375 36.53125 
Q 71.09375 17.671875 61.125 8.828125 
Q 51.171875 0 30.078125 0 
L 9.8125 0 
z
" id="DejaVuSans-44"/>
    <path d="M 18.109375 8.203125 
L 18.109375 -20.796875 
L 9.078125 -20.796875 
L 9.078125 54.6875 
L 18.109375 54.6875 
L 18.109375 46.390625 
Q 20.953125 51.265625 25.265625 53.625 
Q 29.59375 56 35.59375 56 
Q 45.5625 56 51.78125 48.09375 
Q 58.015625 40.1875 58.015625 27.296875 
Q 58.015625 14.40625 51.78125 6.484375 
Q 45.5625 -1.421875 35.59375 -1.421875 
Q 29.59375 -1.421875 25.265625 0.953125 
Q 20.953125 3.328125 18.109375 8.203125 
z
M 48.6875 27.296875 
Q 48.6875 37.203125 44.609375 42.84375 
Q 40.53125 48.484375 33.40625 48.484375 
Q 26.265625 48.484375 22.1875 42.84375 
Q 18.109375 37.203125 18.109375 27.296875 
Q 18.109375 17.390625 22.1875 11.75 
Q 26.265625 6.109375 33.40625 6.109375 
Q 40.53125 6.109375 44.609375 11.75 
Q 48.6875 17.390625 48.6875 27.296875 
z
" id="DejaVuSans-70"/>
   </defs>
   <g transform="translate(169.815938 16.318125)scale(0.12 -0.12)">
    <use xlink:href="#DejaVuSans-44"/>
    <use x="77.001953" xlink:href="#DejaVuSans-61"/>
    <use x="138.28125" xlink:href="#DejaVuSans-74"/>
    <use x="177.490234" xlink:href="#DejaVuSans-61"/>
    <use x="238.769531" xlink:href="#DejaVuSans-20"/>
    <use x="270.556641" xlink:href="#DejaVuSans-61"/>
    <use x="331.835938" xlink:href="#DejaVuSans-6e"/>
    <use x="395.214844" xlink:href="#DejaVuSans-64"/>
    <use x="458.691406" xlink:href="#DejaVuSans-20"/>
    <use x="490.478516" xlink:href="#DejaVuSans-70"/>
    <use x="553.955078" xlink:href="#DejaVuSans-72"/>
    <use x="595.037109" xlink:href="#DejaVuSans-65"/>
    <use x="656.560547" xlink:href="#DejaVuSans-64"/>
    <use x="720.037109" xlink:href="#DejaVuSans-69"/>
    <use x="747.820312" xlink:href="#DejaVuSans-63"/>
    <use x="802.800781" xlink:href="#DejaVuSans-74"/>
    <use x="842.009766" xlink:href="#DejaVuSans-69"/>
    <use x="869.792969" xlink:href="#DejaVuSans-6f"/>
    <use x="930.974609" xlink:href="#DejaVuSans-6e"/>
    <use x="994.353516" xlink:href="#DejaVuSans-73"/>
   </g>
  </g>
 </g>
 <defs>
  <clipPath id="pc19368d0c9">
   <rect height="190.26" width="418.5" x="30.103125" y="32.4"/>
  </clipPath>
 </defs>
</svg>
