<?xml version="1.0" encoding="utf-8" standalone="no"?>
<!DOCTYPE svg PUBLIC "-//W3C//DTD SVG 1.1//EN"
  "http://www.w3.org/Graphics/SVG/1.1/DTD/svg11.dtd">
<!-- Created with matplotlib (http://matplotlib.org/) -->
<svg height="461pt" version="1.1" viewBox="0 0 868 461" width="868pt" xmlns="http://www.w3.org/2000/svg" xmlns:xlink="http://www.w3.org/1999/xlink">
 <defs>
  <style type="text/css">
*{stroke-linecap:butt;stroke-linejoin:round;}
  </style>
 </defs>
 <g id="figure_1">
  <g id="patch_1">
   <path d="M 0 461.998125 
L 868.2625 461.998125 
L 868.2625 0 
L 0 0 
z
" style="fill:#ffffff;"/>
  </g>
  <g id="axes_1">
   <g id="patch_2">
    <path d="M 20.5625 438.12 
L 857.5625 438.12 
L 857.5625 57.6 
L 20.5625 57.6 
z
" style="fill:#ffffff;"/>
   </g>
   <g id="matplotlib.axis_1">
    <g id="xtick_1">
     <g id="line2d_1">
      <defs>
       <path d="M 0 0 
L 0 3.5 
" id="m3608d6b1ae" style="stroke:#000000;stroke-width:0.8;"/>
      </defs>
      <g>
       <use style="stroke:#000000;stroke-width:0.8;" x="112.607955" xlink:href="#m3608d6b1ae" y="438.12"/>
      </g>
     </g>
     <g id="text_1">
      <!-- 2014-05-02 -->
      <defs>
       <path d="M 19.1875 8.296875 
L 53.609375 8.296875 
L 53.609375 0 
L 7.328125 0 
L 7.328125 8.296875 
Q 12.9375 14.109375 22.625 23.890625 
Q 32.328125 33.6875 34.8125 36.53125 
Q 39.546875 41.84375 41.421875 45.53125 
Q 43.3125 49.21875 43.3125 52.78125 
Q 43.3125 58.59375 39.234375 62.25 
Q 35.15625 65.921875 28.609375 65.921875 
Q 23.96875 65.921875 18.8125 64.3125 
Q 13.671875 62.703125 7.8125 59.421875 
L 7.8125 69.390625 
Q 13.765625 71.78125 18.9375 73 
Q 24.125 74.21875 28.421875 74.21875 
Q 39.75 74.21875 46.484375 68.546875 
Q 53.21875 62.890625 53.21875 53.421875 
Q 53.21875 48.921875 51.53125 44.890625 
Q 49.859375 40.875 45.40625 35.40625 
Q 44.1875 33.984375 37.640625 27.21875 
Q 31.109375 20.453125 19.1875 8.296875 
z
" id="DejaVuSans-32"/>
       <path d="M 31.78125 66.40625 
Q 24.171875 66.40625 20.328125 58.90625 
Q 16.5 51.421875 16.5 36.375 
Q 16.5 21.390625 20.328125 13.890625 
Q 24.171875 6.390625 31.78125 6.390625 
Q 39.453125 6.390625 43.28125 13.890625 
Q 47.125 21.390625 47.125 36.375 
Q 47.125 51.421875 43.28125 58.90625 
Q 39.453125 66.40625 31.78125 66.40625 
z
M 31.78125 74.21875 
Q 44.046875 74.21875 50.515625 64.515625 
Q 56.984375 54.828125 56.984375 36.375 
Q 56.984375 17.96875 50.515625 8.265625 
Q 44.046875 -1.421875 31.78125 -1.421875 
Q 19.53125 -1.421875 13.0625 8.265625 
Q 6.59375 17.96875 6.59375 36.375 
Q 6.59375 54.828125 13.0625 64.515625 
Q 19.53125 74.21875 31.78125 74.21875 
z
" id="DejaVuSans-30"/>
       <path d="M 12.40625 8.296875 
L 28.515625 8.296875 
L 28.515625 63.921875 
L 10.984375 60.40625 
L 10.984375 69.390625 
L 28.421875 72.90625 
L 38.28125 72.90625 
L 38.28125 8.296875 
L 54.390625 8.296875 
L 54.390625 0 
L 12.40625 0 
z
" id="DejaVuSans-31"/>
       <path d="M 37.796875 64.3125 
L 12.890625 25.390625 
L 37.796875 25.390625 
z
M 35.203125 72.90625 
L 47.609375 72.90625 
L 47.609375 25.390625 
L 58.015625 25.390625 
L 58.015625 17.1875 
L 47.609375 17.1875 
L 47.609375 0 
L 37.796875 0 
L 37.796875 17.1875 
L 4.890625 17.1875 
L 4.890625 26.703125 
z
" id="DejaVuSans-34"/>
       <path d="M 4.890625 31.390625 
L 31.203125 31.390625 
L 31.203125 23.390625 
L 4.890625 23.390625 
z
" id="DejaVuSans-2d"/>
       <path d="M 10.796875 72.90625 
L 49.515625 72.90625 
L 49.515625 64.59375 
L 19.828125 64.59375 
L 19.828125 46.734375 
Q 21.96875 47.46875 24.109375 47.828125 
Q 26.265625 48.1875 28.421875 48.1875 
Q 40.625 48.1875 47.75 41.5 
Q 54.890625 34.8125 54.890625 23.390625 
Q 54.890625 11.625 47.5625 5.09375 
Q 40.234375 -1.421875 26.90625 -1.421875 
Q 22.3125 -1.421875 17.546875 -0.640625 
Q 12.796875 0.140625 7.71875 1.703125 
L 7.71875 11.625 
Q 12.109375 9.234375 16.796875 8.0625 
Q 21.484375 6.890625 26.703125 6.890625 
Q 35.15625 6.890625 40.078125 11.328125 
Q 45.015625 15.765625 45.015625 23.390625 
Q 45.015625 31 40.078125 35.4375 
Q 35.15625 39.890625 26.703125 39.890625 
Q 22.75 39.890625 18.8125 39.015625 
Q 14.890625 38.140625 10.796875 36.28125 
z
" id="DejaVuSans-35"/>
      </defs>
      <g transform="translate(83.550142 452.718437)scale(0.1 -0.1)">
       <use xlink:href="#DejaVuSans-32"/>
       <use x="63.623047" xlink:href="#DejaVuSans-30"/>
       <use x="127.246094" xlink:href="#DejaVuSans-31"/>
       <use x="190.869141" xlink:href="#DejaVuSans-34"/>
       <use x="254.492188" xlink:href="#DejaVuSans-2d"/>
       <use x="290.576172" xlink:href="#DejaVuSans-30"/>
       <use x="354.199219" xlink:href="#DejaVuSans-35"/>
       <use x="417.822266" xlink:href="#DejaVuSans-2d"/>
       <use x="453.90625" xlink:href="#DejaVuSans-30"/>
       <use x="517.529297" xlink:href="#DejaVuSans-32"/>
      </g>
     </g>
    </g>
    <g id="xtick_2">
     <g id="line2d_2">
      <g>
       <use style="stroke:#000000;stroke-width:0.8;" x="230.426136" xlink:href="#m3608d6b1ae" y="438.12"/>
      </g>
     </g>
     <g id="text_2">
      <!-- 2014-05-04 -->
      <g transform="translate(201.368324 452.718437)scale(0.1 -0.1)">
       <use xlink:href="#DejaVuSans-32"/>
       <use x="63.623047" xlink:href="#DejaVuSans-30"/>
       <use x="127.246094" xlink:href="#DejaVuSans-31"/>
       <use x="190.869141" xlink:href="#DejaVuSans-34"/>
       <use x="254.492188" xlink:href="#DejaVuSans-2d"/>
       <use x="290.576172" xlink:href="#DejaVuSans-30"/>
       <use x="354.199219" xlink:href="#DejaVuSans-35"/>
       <use x="417.822266" xlink:href="#DejaVuSans-2d"/>
       <use x="453.90625" xlink:href="#DejaVuSans-30"/>
       <use x="517.529297" xlink:href="#DejaVuSans-34"/>
      </g>
     </g>
    </g>
    <g id="xtick_3">
     <g id="line2d_3">
      <g>
       <use style="stroke:#000000;stroke-width:0.8;" x="348.244318" xlink:href="#m3608d6b1ae" y="438.12"/>
      </g>
     </g>
     <g id="text_3">
      <!-- 2014-05-06 -->
      <defs>
       <path d="M 33.015625 40.375 
Q 26.375 40.375 22.484375 35.828125 
Q 18.609375 31.296875 18.609375 23.390625 
Q 18.609375 15.53125 22.484375 10.953125 
Q 26.375 6.390625 33.015625 6.390625 
Q 39.65625 6.390625 43.53125 10.953125 
Q 47.40625 15.53125 47.40625 23.390625 
Q 47.40625 31.296875 43.53125 35.828125 
Q 39.65625 40.375 33.015625 40.375 
z
M 52.59375 71.296875 
L 52.59375 62.3125 
Q 48.875 64.0625 45.09375 64.984375 
Q 41.3125 65.921875 37.59375 65.921875 
Q 27.828125 65.921875 22.671875 59.328125 
Q 17.53125 52.734375 16.796875 39.40625 
Q 19.671875 43.65625 24.015625 45.921875 
Q 28.375 48.1875 33.59375 48.1875 
Q 44.578125 48.1875 50.953125 41.515625 
Q 57.328125 34.859375 57.328125 23.390625 
Q 57.328125 12.15625 50.6875 5.359375 
Q 44.046875 -1.421875 33.015625 -1.421875 
Q 20.359375 -1.421875 13.671875 8.265625 
Q 6.984375 17.96875 6.984375 36.375 
Q 6.984375 53.65625 15.1875 63.9375 
Q 23.390625 74.21875 37.203125 74.21875 
Q 40.921875 74.21875 44.703125 73.484375 
Q 48.484375 72.75 52.59375 71.296875 
z
" id="DejaVuSans-36"/>
      </defs>
      <g transform="translate(319.186506 452.718437)scale(0.1 -0.1)">
       <use xlink:href="#DejaVuSans-32"/>
       <use x="63.623047" xlink:href="#DejaVuSans-30"/>
       <use x="127.246094" xlink:href="#DejaVuSans-31"/>
       <use x="190.869141" xlink:href="#DejaVuSans-34"/>
       <use x="254.492188" xlink:href="#DejaVuSans-2d"/>
       <use x="290.576172" xlink:href="#DejaVuSans-30"/>
       <use x="354.199219" xlink:href="#DejaVuSans-35"/>
       <use x="417.822266" xlink:href="#DejaVuSans-2d"/>
       <use x="453.90625" xlink:href="#DejaVuSans-30"/>
       <use x="517.529297" xlink:href="#DejaVuSans-36"/>
      </g>
     </g>
    </g>
    <g id="xtick_4">
     <g id="line2d_4">
      <g>
       <use style="stroke:#000000;stroke-width:0.8;" x="466.0625" xlink:href="#m3608d6b1ae" y="438.12"/>
      </g>
     </g>
     <g id="text_4">
      <!-- 2014-05-08 -->
      <defs>
       <path d="M 31.78125 34.625 
Q 24.75 34.625 20.71875 30.859375 
Q 16.703125 27.09375 16.703125 20.515625 
Q 16.703125 13.921875 20.71875 10.15625 
Q 24.75 6.390625 31.78125 6.390625 
Q 38.8125 6.390625 42.859375 10.171875 
Q 46.921875 13.96875 46.921875 20.515625 
Q 46.921875 27.09375 42.890625 30.859375 
Q 38.875 34.625 31.78125 34.625 
z
M 21.921875 38.8125 
Q 15.578125 40.375 12.03125 44.71875 
Q 8.5 49.078125 8.5 55.328125 
Q 8.5 64.0625 14.71875 69.140625 
Q 20.953125 74.21875 31.78125 74.21875 
Q 42.671875 74.21875 48.875 69.140625 
Q 55.078125 64.0625 55.078125 55.328125 
Q 55.078125 49.078125 51.53125 44.71875 
Q 48 40.375 41.703125 38.8125 
Q 48.828125 37.15625 52.796875 32.3125 
Q 56.78125 27.484375 56.78125 20.515625 
Q 56.78125 9.90625 50.3125 4.234375 
Q 43.84375 -1.421875 31.78125 -1.421875 
Q 19.734375 -1.421875 13.25 4.234375 
Q 6.78125 9.90625 6.78125 20.515625 
Q 6.78125 27.484375 10.78125 32.3125 
Q 14.796875 37.15625 21.921875 38.8125 
z
M 18.3125 54.390625 
Q 18.3125 48.734375 21.84375 45.5625 
Q 25.390625 42.390625 31.78125 42.390625 
Q 38.140625 42.390625 41.71875 45.5625 
Q 45.3125 48.734375 45.3125 54.390625 
Q 45.3125 60.0625 41.71875 63.234375 
Q 38.140625 66.40625 31.78125 66.40625 
Q 25.390625 66.40625 21.84375 63.234375 
Q 18.3125 60.0625 18.3125 54.390625 
z
" id="DejaVuSans-38"/>
      </defs>
      <g transform="translate(437.004687 452.718437)scale(0.1 -0.1)">
       <use xlink:href="#DejaVuSans-32"/>
       <use x="63.623047" xlink:href="#DejaVuSans-30"/>
       <use x="127.246094" xlink:href="#DejaVuSans-31"/>
       <use x="190.869141" xlink:href="#DejaVuSans-34"/>
       <use x="254.492188" xlink:href="#DejaVuSans-2d"/>
       <use x="290.576172" xlink:href="#DejaVuSans-30"/>
       <use x="354.199219" xlink:href="#DejaVuSans-35"/>
       <use x="417.822266" xlink:href="#DejaVuSans-2d"/>
       <use x="453.90625" xlink:href="#DejaVuSans-30"/>
       <use x="517.529297" xlink:href="#DejaVuSans-38"/>
      </g>
     </g>
    </g>
    <g id="xtick_5">
     <g id="line2d_5">
      <g>
       <use style="stroke:#000000;stroke-width:0.8;" x="583.880682" xlink:href="#m3608d6b1ae" y="438.12"/>
      </g>
     </g>
     <g id="text_5">
      <!-- 2014-05-10 -->
      <g transform="translate(554.822869 452.718437)scale(0.1 -0.1)">
       <use xlink:href="#DejaVuSans-32"/>
       <use x="63.623047" xlink:href="#DejaVuSans-30"/>
       <use x="127.246094" xlink:href="#DejaVuSans-31"/>
       <use x="190.869141" xlink:href="#DejaVuSans-34"/>
       <use x="254.492188" xlink:href="#DejaVuSans-2d"/>
       <use x="290.576172" xlink:href="#DejaVuSans-30"/>
       <use x="354.199219" xlink:href="#DejaVuSans-35"/>
       <use x="417.822266" xlink:href="#DejaVuSans-2d"/>
       <use x="453.90625" xlink:href="#DejaVuSans-31"/>
       <use x="517.529297" xlink:href="#DejaVuSans-30"/>
      </g>
     </g>
    </g>
    <g id="xtick_6">
     <g id="line2d_6">
      <g>
       <use style="stroke:#000000;stroke-width:0.8;" x="701.698864" xlink:href="#m3608d6b1ae" y="438.12"/>
      </g>
     </g>
     <g id="text_6">
      <!-- 2014-05-12 -->
      <g transform="translate(672.641051 452.718437)scale(0.1 -0.1)">
       <use xlink:href="#DejaVuSans-32"/>
       <use x="63.623047" xlink:href="#DejaVuSans-30"/>
       <use x="127.246094" xlink:href="#DejaVuSans-31"/>
       <use x="190.869141" xlink:href="#DejaVuSans-34"/>
       <use x="254.492188" xlink:href="#DejaVuSans-2d"/>
       <use x="290.576172" xlink:href="#DejaVuSans-30"/>
       <use x="354.199219" xlink:href="#DejaVuSans-35"/>
       <use x="417.822266" xlink:href="#DejaVuSans-2d"/>
       <use x="453.90625" xlink:href="#DejaVuSans-31"/>
       <use x="517.529297" xlink:href="#DejaVuSans-32"/>
      </g>
     </g>
    </g>
    <g id="xtick_7">
     <g id="line2d_7">
      <g>
       <use style="stroke:#000000;stroke-width:0.8;" x="819.517045" xlink:href="#m3608d6b1ae" y="438.12"/>
      </g>
     </g>
     <g id="text_7">
      <!-- 2014-05-14 -->
      <g transform="translate(790.459233 452.718437)scale(0.1 -0.1)">
       <use xlink:href="#DejaVuSans-32"/>
       <use x="63.623047" xlink:href="#DejaVuSans-30"/>
       <use x="127.246094" xlink:href="#DejaVuSans-31"/>
       <use x="190.869141" xlink:href="#DejaVuSans-34"/>
       <use x="254.492188" xlink:href="#DejaVuSans-2d"/>
       <use x="290.576172" xlink:href="#DejaVuSans-30"/>
       <use x="354.199219" xlink:href="#DejaVuSans-35"/>
       <use x="417.822266" xlink:href="#DejaVuSans-2d"/>
       <use x="453.90625" xlink:href="#DejaVuSans-31"/>
       <use x="517.529297" xlink:href="#DejaVuSans-34"/>
      </g>
     </g>
    </g>
   </g>
   <g id="matplotlib.axis_2">
    <g id="ytick_1">
     <g id="line2d_8">
      <defs>
       <path d="M 0 0 
L -3.5 0 
" id="mffa0073453" style="stroke:#000000;stroke-width:0.8;"/>
      </defs>
      <g>
       <use style="stroke:#000000;stroke-width:0.8;" x="20.5625" xlink:href="#mffa0073453" y="420.823656"/>
      </g>
     </g>
     <g id="text_8">
      <!-- 0 -->
      <g transform="translate(7.2 424.622875)scale(0.1 -0.1)">
       <use xlink:href="#DejaVuSans-30"/>
      </g>
     </g>
    </g>
    <g id="ytick_2">
     <g id="line2d_9">
      <g>
       <use style="stroke:#000000;stroke-width:0.8;" x="20.5625" xlink:href="#mffa0073453" y="371.482369"/>
      </g>
     </g>
     <g id="text_9">
      <!-- 1 -->
      <g transform="translate(7.2 375.281588)scale(0.1 -0.1)">
       <use xlink:href="#DejaVuSans-31"/>
      </g>
     </g>
    </g>
    <g id="ytick_3">
     <g id="line2d_10">
      <g>
       <use style="stroke:#000000;stroke-width:0.8;" x="20.5625" xlink:href="#mffa0073453" y="322.141081"/>
      </g>
     </g>
     <g id="text_10">
      <!-- 2 -->
      <g transform="translate(7.2 325.9403)scale(0.1 -0.1)">
       <use xlink:href="#DejaVuSans-32"/>
      </g>
     </g>
    </g>
    <g id="ytick_4">
     <g id="line2d_11">
      <g>
       <use style="stroke:#000000;stroke-width:0.8;" x="20.5625" xlink:href="#mffa0073453" y="272.799794"/>
      </g>
     </g>
     <g id="text_11">
      <!-- 3 -->
      <defs>
       <path d="M 40.578125 39.3125 
Q 47.65625 37.796875 51.625 33 
Q 55.609375 28.21875 55.609375 21.1875 
Q 55.609375 10.40625 48.1875 4.484375 
Q 40.765625 -1.421875 27.09375 -1.421875 
Q 22.515625 -1.421875 17.65625 -0.515625 
Q 12.796875 0.390625 7.625 2.203125 
L 7.625 11.71875 
Q 11.71875 9.328125 16.59375 8.109375 
Q 21.484375 6.890625 26.8125 6.890625 
Q 36.078125 6.890625 40.9375 10.546875 
Q 45.796875 14.203125 45.796875 21.1875 
Q 45.796875 27.640625 41.28125 31.265625 
Q 36.765625 34.90625 28.71875 34.90625 
L 20.21875 34.90625 
L 20.21875 43.015625 
L 29.109375 43.015625 
Q 36.375 43.015625 40.234375 45.921875 
Q 44.09375 48.828125 44.09375 54.296875 
Q 44.09375 59.90625 40.109375 62.90625 
Q 36.140625 65.921875 28.71875 65.921875 
Q 24.65625 65.921875 20.015625 65.03125 
Q 15.375 64.15625 9.8125 62.3125 
L 9.8125 71.09375 
Q 15.4375 72.65625 20.34375 73.4375 
Q 25.25 74.21875 29.59375 74.21875 
Q 40.828125 74.21875 47.359375 69.109375 
Q 53.90625 64.015625 53.90625 55.328125 
Q 53.90625 49.265625 50.4375 45.09375 
Q 46.96875 40.921875 40.578125 39.3125 
z
" id="DejaVuSans-33"/>
      </defs>
      <g transform="translate(7.2 276.599013)scale(0.1 -0.1)">
       <use xlink:href="#DejaVuSans-33"/>
      </g>
     </g>
    </g>
    <g id="ytick_5">
     <g id="line2d_12">
      <g>
       <use style="stroke:#000000;stroke-width:0.8;" x="20.5625" xlink:href="#mffa0073453" y="223.458507"/>
      </g>
     </g>
     <g id="text_12">
      <!-- 4 -->
      <g transform="translate(7.2 227.257725)scale(0.1 -0.1)">
       <use xlink:href="#DejaVuSans-34"/>
      </g>
     </g>
    </g>
    <g id="ytick_6">
     <g id="line2d_13">
      <g>
       <use style="stroke:#000000;stroke-width:0.8;" x="20.5625" xlink:href="#mffa0073453" y="174.117219"/>
      </g>
     </g>
     <g id="text_13">
      <!-- 5 -->
      <g transform="translate(7.2 177.916438)scale(0.1 -0.1)">
       <use xlink:href="#DejaVuSans-35"/>
      </g>
     </g>
    </g>
    <g id="ytick_7">
     <g id="line2d_14">
      <g>
       <use style="stroke:#000000;stroke-width:0.8;" x="20.5625" xlink:href="#mffa0073453" y="124.775932"/>
      </g>
     </g>
     <g id="text_14">
      <!-- 6 -->
      <g transform="translate(7.2 128.575151)scale(0.1 -0.1)">
       <use xlink:href="#DejaVuSans-36"/>
      </g>
     </g>
    </g>
    <g id="ytick_8">
     <g id="line2d_15">
      <g>
       <use style="stroke:#000000;stroke-width:0.8;" x="20.5625" xlink:href="#mffa0073453" y="75.434644"/>
      </g>
     </g>
     <g id="text_15">
      <!-- 7 -->
      <defs>
       <path d="M 8.203125 72.90625 
L 55.078125 72.90625 
L 55.078125 68.703125 
L 28.609375 0 
L 18.3125 0 
L 43.21875 64.59375 
L 8.203125 64.59375 
z
" id="DejaVuSans-37"/>
      </defs>
      <g transform="translate(7.2 79.233863)scale(0.1 -0.1)">
       <use xlink:href="#DejaVuSans-37"/>
      </g>
     </g>
    </g>
   </g>
   <g id="line2d_16">
    <path clip-path="url(#pc9877e5c67)" d="M 58.607955 420.799819 
L 61.0625 420.352448 
L 63.517045 413.947149 
L 65.971591 405.415272 
L 68.426136 396.244841 
L 70.880682 399.18683 
L 73.335227 399.705675 
L 75.789773 410.462892 
L 78.244318 417.589528 
L 80.698864 416.604715 
L 83.153409 414.976017 
L 85.607955 413.71276 
L 88.0625 416.054453 
L 90.517045 419.725042 
L 92.971591 420.789646 
L 97.880682 420.285576 
L 100.335227 418.782758 
L 102.789773 417.97872 
L 105.244318 418.323188 
L 107.698864 417.396143 
L 110.153409 415.641074 
L 112.607955 416.368153 
L 115.0625 420.098136 
L 117.517045 420.819974 
L 119.971591 419.364732 
L 122.426136 414.745575 
L 124.880682 415.33563 
L 127.335227 418.357696 
L 129.789773 415.712442 
L 132.244318 410.115446 
L 134.698864 413.268958 
L 137.153409 419.827529 
L 139.607955 420.599581 
L 142.0625 420.405787 
L 144.517045 420.733046 
L 146.971591 417.998822 
L 149.426136 407.818394 
L 151.880682 401.069769 
L 154.335227 402.466482 
L 156.789773 401.800261 
L 159.244318 408.242005 
L 161.698864 410.960415 
L 164.153409 410.938322 
L 166.607955 404.981287 
L 169.0625 401.865037 
L 171.517045 413.766087 
L 173.971591 419.760016 
L 176.426136 420.72583 
L 178.880682 420.823473 
L 181.335227 414.927673 
L 183.789773 407.509902 
L 186.244318 416.119274 
L 188.698864 418.083383 
L 191.153409 416.616441 
L 193.607955 419.782491 
L 196.0625 417.663714 
L 198.517045 415.259214 
L 200.971591 416.047728 
L 203.426136 416.12831 
L 205.880682 415.119162 
L 208.335227 412.451106 
L 210.789773 414.189166 
L 213.244318 420.585592 
L 218.153409 420.784706 
L 220.607955 420.304051 
L 223.0625 418.797205 
L 225.517045 418.006324 
L 227.971591 416.30208 
L 230.426136 416.539142 
L 232.880682 418.970343 
L 235.335227 420.771637 
L 237.789773 420.090562 
L 240.244318 414.299766 
L 242.698864 407.783154 
L 245.153409 397.763662 
L 247.607955 390.679526 
L 250.0625 411.683268 
L 252.517045 420.823465 
L 254.971591 419.821087 
L 257.426136 419.11852 
L 259.880682 419.037259 
L 262.335227 418.39023 
L 264.789773 420.800449 
L 267.244318 419.315568 
L 269.698864 408.503499 
L 272.153409 399.499627 
L 274.607955 394.568322 
L 277.0625 393.714 
L 279.517045 397.115276 
L 281.971591 399.972399 
L 284.426136 409.572146 
L 286.880682 417.565547 
L 291.789773 420.388527 
L 294.244318 420.580336 
L 296.698864 419.645707 
L 299.153409 416.512685 
L 301.607955 409.57593 
L 304.0625 410.230673 
L 306.517045 419.393318 
L 308.971591 420.813584 
L 311.426136 420.65306 
L 316.335227 420.816044 
L 318.789773 420.452938 
L 321.244318 420.58781 
L 323.698864 420.534008 
L 326.153409 419.853431 
L 328.607955 417.410799 
L 331.0625 419.911737 
L 333.517045 420.695919 
L 335.971591 420.666702 
L 338.426136 417.448997 
L 340.880682 416.639308 
L 343.335227 417.242864 
L 345.789773 417.525512 
L 348.244318 416.919419 
L 350.698864 411.981724 
L 353.153409 414.163985 
L 355.607955 419.457912 
L 358.0625 416.929876 
L 360.517045 412.194336 
L 362.971591 419.93319 
L 365.426136 420.303268 
L 370.335227 418.496664 
L 372.789773 419.629489 
L 375.244318 420.06805 
L 377.698864 417.862078 
L 380.153409 411.209174 
L 382.607955 412.428839 
L 385.0625 420.799164 
L 387.517045 419.763594 
L 389.971591 419.443963 
L 392.426136 420.245254 
L 394.880682 420.748435 
L 397.335227 415.742619 
L 399.789773 404.219097 
L 402.244318 404.967183 
L 404.698864 395.023535 
L 407.153409 397.592747 
L 409.607955 399.726381 
L 412.0625 404.046185 
L 414.517045 407.600661 
L 416.971591 420.690082 
L 419.426136 412.932867 
L 421.880682 410.384231 
L 424.335227 415.369655 
L 426.789773 418.814478 
L 429.244318 420.625736 
L 431.698864 420.538532 
L 434.153409 420.287436 
L 436.607955 420.257557 
L 441.517045 420.774675 
L 443.971591 419.609526 
L 446.426136 419.662784 
L 448.880682 420.301254 
L 451.335227 420.295623 
L 453.789773 420.718906 
L 456.244318 419.619061 
L 458.698864 412.928011 
L 461.153409 416.240876 
L 463.607955 417.839379 
L 466.0625 418.134763 
L 468.517045 416.558913 
L 470.971591 409.353329 
L 473.426136 416.518943 
L 475.880682 420.150357 
L 478.335227 418.307687 
L 480.789773 414.317958 
L 483.244318 418.56221 
L 485.698864 419.942648 
L 488.153409 416.834989 
L 490.607955 417.980892 
L 493.0625 418.664917 
L 495.517045 419.538278 
L 497.971591 420.020905 
L 500.426136 420.302095 
L 502.880682 418.353376 
L 505.335227 420.660158 
L 507.789773 420.481293 
L 510.244318 420.029129 
L 512.698864 415.71237 
L 515.153409 416.327102 
L 517.607955 419.263002 
L 520.0625 420.779208 
L 524.971591 420.801855 
L 527.426136 420.486932 
L 529.880682 415.975761 
L 532.335227 407.60117 
L 534.789773 405.195144 
L 537.244318 414.579166 
L 539.698864 419.519797 
L 542.153409 419.947746 
L 544.607955 415.305312 
L 547.0625 407.796534 
L 549.517045 405.639461 
L 551.971591 407.543934 
L 554.426136 410.013223 
L 556.880682 410.39537 
L 559.335227 418.65297 
L 564.244318 420.816944 
L 566.698864 418.690463 
L 569.153409 416.054753 
L 571.607955 418.927922 
L 574.0625 420.821159 
L 576.517045 420.334367 
L 578.971591 419.461505 
L 581.426136 419.296411 
L 586.335227 420.788356 
L 588.789773 420.691694 
L 591.244318 416.931833 
L 593.698864 409.719247 
L 596.153409 411.986989 
L 598.607955 416.128653 
L 601.0625 404.255856 
L 603.517045 399.749805 
L 605.971591 408.291457 
L 608.426136 414.212616 
L 610.880682 417.008176 
L 615.789773 416.15844 
L 618.244318 410.887382 
L 620.698864 420.48434 
L 623.153409 413.597222 
L 625.607955 413.436052 
L 628.0625 410.615041 
L 630.517045 402.671104 
L 632.971591 400.425343 
L 635.426136 401.627243 
L 637.880682 400.39578 
L 640.335227 398.912769 
L 642.789773 405.900022 
L 645.244318 418.102527 
L 647.698864 420.378713 
L 650.153409 418.098371 
L 655.0625 406.238087 
L 657.517045 411.10229 
L 659.971591 416.60455 
L 662.426136 419.035233 
L 664.880682 417.606624 
L 667.335227 414.758306 
L 669.789773 415.495388 
L 672.244318 416.989041 
L 674.698864 417.316881 
L 677.153409 412.133244 
L 679.607955 409.075252 
L 682.0625 409.724261 
L 684.517045 420.058971 
L 686.971591 411.418079 
L 689.426136 412.794706 
L 691.880682 414.759515 
L 694.335227 416.352801 
L 696.789773 416.593287 
L 699.244318 416.690571 
L 701.698864 418.351214 
L 704.153409 420.732564 
L 706.607955 420.801795 
L 709.0625 420.528484 
L 711.517045 415.493355 
L 713.971591 413.556267 
L 716.426136 419.882693 
L 718.880682 420.822309 
L 721.335227 420.429694 
L 723.789773 418.855315 
L 726.244318 407.190897 
L 728.698864 398.074811 
L 731.153409 410.730784 
L 733.607955 419.913982 
L 736.0625 415.29075 
L 738.517045 418.286818 
L 740.971591 407.733812 
L 743.426136 396.070631 
L 745.880682 400.997256 
L 748.335227 407.432417 
L 750.789773 411.470866 
L 753.244318 411.133094 
L 755.698864 408.603735 
L 758.153409 401.516914 
L 760.607955 415.274584 
L 763.0625 419.120853 
L 765.517045 420.505582 
L 767.971591 420.694987 
L 770.426136 416.563038 
L 772.880682 411.706778 
L 775.335227 415.173185 
L 777.789773 416.795721 
L 780.244318 416.677074 
L 782.698864 419.513089 
L 785.153409 420.774771 
L 787.607955 420.615325 
L 790.0625 417.400546 
L 792.517045 413.503557 
L 794.971591 416.446846 
L 797.426136 413.737787 
L 799.880682 399.777849 
L 802.335227 412.588933 
L 804.789773 420.497467 
L 807.244318 419.802502 
L 809.698864 417.774666 
L 814.607955 415.703703 
L 817.0625 415.856564 
L 819.517045 416.997291 
L 819.517045 416.997291 
" style="fill:none;stroke:#1f77b4;stroke-linecap:square;stroke-width:1.5;"/>
   </g>
   <g id="line2d_17">
    <path clip-path="url(#pc9877e5c67)" d="M 61.0625 420.416282 
L 63.517045 413.483099 
L 65.971591 400.14208 
L 68.426136 382.694801 
L 70.880682 382.65971 
L 73.335227 381.633852 
L 75.789773 398.706766 
L 78.244318 411.060377 
L 80.698864 413.186481 
L 83.153409 411.792365 
L 85.607955 408.846409 
L 88.0625 411.598728 
L 90.517045 417.310673 
L 92.971591 420.73054 
L 95.426136 420.599853 
L 97.880682 419.971543 
L 100.335227 418.139335 
L 102.789773 416.561859 
L 105.244318 416.202259 
L 107.698864 415.097661 
L 110.153409 412.750057 
L 112.607955 412.843561 
L 115.0625 418.246448 
L 117.517045 420.65712 
L 119.971591 419.458424 
L 122.426136 413.497829 
L 124.880682 411.609126 
L 127.335227 414.888943 
L 129.789773 412.583814 
L 132.244318 405.864325 
L 134.698864 406.762084 
L 137.153409 416.63635 
L 139.607955 419.759068 
L 142.0625 420.217129 
L 144.517045 420.813319 
L 146.971591 418.215147 
L 151.880682 391.672465 
L 154.335227 387.76056 
L 156.789773 386.899801 
L 159.244318 396.115302 
L 161.698864 400.809005 
L 164.153409 403.323806 
L 166.607955 395.507367 
L 169.0625 390.133 
L 171.517045 403.880827 
L 173.971591 416.002551 
L 176.426136 420.202695 
L 178.880682 420.794138 
L 181.335227 415.059833 
L 183.789773 404.318347 
L 186.244318 409.40233 
L 188.698864 413.91809 
L 191.153409 414.250592 
L 193.607955 418.075683 
L 196.0625 415.474897 
L 198.517045 413.383067 
L 200.971591 411.9035 
L 203.426136 412.316098 
L 205.880682 411.194622 
L 208.335227 407.453186 
L 210.789773 408.764512 
L 213.244318 418.769356 
L 215.698864 420.810484 
L 218.153409 420.716681 
L 220.607955 420.173445 
L 225.517045 416.478754 
L 227.971591 413.653665 
L 230.426136 413.489516 
L 232.880682 416.43035 
L 235.335227 420.218976 
L 237.789773 420.415111 
L 240.244318 413.374123 
L 242.698864 402.891236 
L 245.153409 385.497427 
L 247.607955 372.886272 
L 250.0625 397.568067 
L 252.517045 418.805429 
L 254.971591 420.315221 
L 257.426136 418.194676 
L 259.880682 417.830218 
L 262.335227 416.738499 
L 264.789773 420.430232 
L 267.244318 418.464463 
L 269.698864 407.780724 
L 272.153409 389.894511 
L 274.607955 377.371438 
L 277.0625 373.68114 
L 279.517045 377.062357 
L 281.971591 381.881695 
L 286.880682 411.135102 
L 289.335227 416.265479 
L 291.789773 419.598078 
L 294.244318 420.801029 
L 296.698864 419.571293 
L 299.153409 415.040962 
L 301.607955 405.634156 
L 304.0625 402.897418 
L 306.517045 415.222339 
L 308.971591 420.465466 
L 311.426136 420.678853 
L 313.880682 420.626957 
L 316.335227 420.775339 
L 318.789773 420.380838 
L 321.244318 420.478017 
L 323.698864 420.730369 
L 326.153409 419.764407 
L 328.607955 416.11972 
L 331.0625 418.777484 
L 333.517045 420.791328 
L 335.971591 420.674413 
L 340.880682 414.534163 
L 343.335227 413.988524 
L 345.789773 414.810061 
L 348.244318 414.108985 
L 350.698864 407.859764 
L 353.153409 409.117946 
L 355.607955 416.116612 
L 358.0625 414.433924 
L 360.517045 409.407802 
L 362.971591 417.32521 
L 365.426136 420.821324 
L 370.335227 417.227215 
L 372.789773 418.375077 
L 375.244318 420.651721 
L 377.698864 417.834759 
L 380.153409 407.330258 
L 382.607955 407.122533 
L 385.0625 419.208447 
L 387.517045 420.469724 
L 389.971591 418.539411 
L 392.426136 419.54425 
L 394.880682 420.820207 
L 397.335227 415.554728 
L 399.789773 402.001214 
L 402.244318 392.937565 
L 404.698864 379.195523 
L 407.153409 381.039779 
L 409.607955 380.554332 
L 412.0625 389.554774 
L 414.517045 394.791611 
L 416.971591 418.250935 
L 419.426136 416.178452 
L 421.880682 405.580485 
L 424.335227 408.757666 
L 426.789773 415.466415 
L 429.244318 419.801482 
L 431.698864 420.750535 
L 434.153409 420.176032 
L 436.607955 419.791013 
L 441.517045 420.623151 
L 443.971591 419.844936 
L 446.426136 419.277121 
L 448.880682 419.415735 
L 451.335227 419.874251 
L 453.789773 420.508005 
L 456.244318 419.199015 
L 458.698864 411.750369 
L 461.153409 412.565077 
L 463.607955 413.777707 
L 466.0625 416.08073 
L 468.517045 413.826374 
L 470.971591 404.923392 
L 473.426136 411.659372 
L 475.880682 417.514765 
L 478.335227 417.155327 
L 480.789773 412.274157 
L 483.244318 415.66631 
L 485.698864 420.774656 
L 488.153409 416.779691 
L 490.607955 415.418562 
L 493.0625 416.428021 
L 495.517045 418.176582 
L 497.971591 419.05992 
L 500.426136 420.654738 
L 502.880682 418.42419 
L 505.335227 419.980237 
L 507.789773 420.760737 
L 510.244318 420.243796 
L 512.698864 415.628561 
L 515.153409 413.066308 
L 520.0625 420.27822 
L 522.517045 420.82325 
L 524.971591 420.783996 
L 527.426136 420.420451 
L 529.880682 415.439533 
L 532.335227 403.705768 
L 534.789773 395.394667 
L 537.244318 406.19182 
L 539.698864 415.926362 
L 542.153409 418.796964 
L 544.607955 413.844222 
L 547.0625 403.464571 
L 549.517045 395.796407 
L 551.971591 396.38378 
L 554.426136 400.172017 
L 556.880682 401.781412 
L 559.335227 414.370608 
L 561.789773 417.427321 
L 564.244318 420.787303 
L 566.698864 419.238511 
L 569.153409 414.294224 
L 571.607955 416.654211 
L 574.0625 420.493152 
L 576.517045 420.508593 
L 578.971591 418.948272 
L 581.426136 418.38277 
L 583.880682 419.105703 
L 586.335227 420.542288 
L 588.789773 420.779454 
L 591.244318 416.632639 
L 593.698864 406.798646 
L 596.153409 404.988858 
L 598.607955 410.132769 
L 601.0625 397.097746 
L 603.517045 389.564375 
L 605.971591 394.179604 
L 608.426136 405.764866 
L 610.880682 412.371843 
L 613.335227 413.245373 
L 615.789773 412.987147 
L 618.244318 405.80932 
L 620.698864 418.672977 
L 623.153409 416.893767 
L 628.0625 402.839456 
L 630.517045 394.030004 
L 632.971591 386.791155 
L 635.426136 386.064826 
L 637.880682 384.844209 
L 640.335227 382.935108 
L 642.789773 391.527349 
L 645.244318 411.343467 
L 647.698864 420.790935 
L 650.153409 418.146764 
L 655.0625 399.573634 
L 657.517045 401.947084 
L 659.971591 410.369235 
L 662.426136 416.289642 
L 664.880682 415.50982 
L 667.335227 412.11102 
L 669.789773 411.385384 
L 672.244318 413.084526 
L 674.698864 414.28752 
L 677.153409 408.072888 
L 679.607955 402.916399 
L 682.0625 400.72242 
L 684.517045 420.76245 
L 686.971591 413.732082 
L 689.426136 406.092682 
L 691.880682 408.887938 
L 694.335227 411.983464 
L 696.789773 412.980079 
L 699.244318 413.486689 
L 701.698864 415.720637 
L 704.153409 420.016796 
L 706.607955 420.80718 
L 709.0625 420.457095 
L 711.517045 414.979319 
L 713.971591 410.536765 
L 716.426136 417.086545 
L 718.880682 420.444926 
L 721.335227 420.37774 
L 723.789773 418.574355 
L 726.244318 404.120809 
L 728.698864 388.841441 
L 731.153409 398.168379 
L 733.607955 420.683657 
L 736.0625 416.345504 
L 738.517045 414.963732 
L 740.971591 402.73117 
L 743.426136 387.283506 
L 745.880682 383.8595 
L 748.335227 393.299293 
L 750.789773 401.823813 
L 753.244318 403.249535 
L 755.698864 400.624494 
L 758.153409 390.409617 
L 760.607955 407.187401 
L 763.0625 414.605469 
L 765.517045 419.87824 
L 767.971591 420.822506 
L 770.426136 416.420729 
L 772.880682 408.811109 
L 775.335227 409.633944 
L 777.789773 412.264478 
L 780.244318 413.512848 
L 782.698864 417.513407 
L 785.153409 420.726831 
L 787.607955 420.537379 
L 790.0625 417.535858 
L 792.517045 410.682353 
L 794.971591 412.29582 
L 797.426136 408.584961 
L 799.880682 392.62374 
L 802.335227 403.516962 
L 804.789773 417.085873 
L 807.244318 420.41419 
L 809.698864 417.177494 
L 812.153409 414.252733 
L 814.607955 412.367869 
L 817.0625 412.087837 
L 819.517045 413.434334 
L 819.517045 413.434334 
" style="fill:none;stroke:#ff7f0e;stroke-linecap:square;stroke-width:1.5;"/>
   </g>
   <g id="line2d_18">
    <path clip-path="url(#pc9877e5c67)" d="M 65.971591 395.985181 
L 68.426136 365.720373 
L 70.880682 349.462605 
L 73.335227 336.879338 
L 75.789773 358.836735 
L 78.244318 384.266568 
L 80.698864 394.101513 
L 83.153409 398.143646 
L 85.607955 397.634473 
L 88.0625 400.197672 
L 90.517045 408.556227 
L 92.971591 417.713885 
L 95.426136 420.612468 
L 97.880682 420.39399 
L 102.789773 414.139555 
L 105.244318 412.42569 
L 107.698864 409.280067 
L 110.153409 405.07872 
L 112.607955 404.593225 
L 115.0625 412.12832 
L 117.517045 417.954989 
L 119.971591 420.738061 
L 124.880682 407.76173 
L 127.335227 407.777823 
L 129.789773 401.949554 
L 132.244318 392.933614 
L 134.698864 394.001122 
L 137.153409 406.465664 
L 139.607955 413.053705 
L 144.517045 420.614784 
L 146.971591 418.937888 
L 149.426136 404.082398 
L 151.880682 381.343672 
L 154.335227 363.143259 
L 156.789773 349.637296 
L 159.244318 358.610784 
L 161.698864 368.201113 
L 164.153409 375.135998 
L 166.607955 367.65943 
L 169.0625 360.842366 
L 171.517045 378.033071 
L 173.971591 398.55188 
L 176.426136 412.356363 
L 178.880682 418.971117 
L 181.335227 416.957045 
L 183.789773 402.602195 
L 186.244318 401.965433 
L 188.698864 401.664792 
L 191.153409 401.168279 
L 193.607955 411.611547 
L 196.0625 409.243369 
L 198.517045 406.052899 
L 203.426136 402.949881 
L 205.880682 399.49441 
L 208.335227 394.392287 
L 210.789773 395.251625 
L 213.244318 410.933018 
L 215.698864 418.114469 
L 218.153409 420.464305 
L 220.607955 420.361793 
L 225.517045 414.632777 
L 227.971591 409.215696 
L 230.426136 406.473352 
L 232.880682 409.566669 
L 235.335227 416.547861 
L 237.789773 420.692312 
L 240.244318 415.41807 
L 242.698864 399.273245 
L 247.607955 338.158977 
L 250.0625 361.438935 
L 252.517045 400.67215 
L 254.971591 417.886921 
L 257.426136 420.381998 
L 262.335227 413.035778 
L 264.789773 418.484364 
L 267.244318 415.455489 
L 269.698864 402.190007 
L 272.153409 380.15477 
L 274.607955 352.640428 
L 277.0625 328.711228 
L 279.517045 323.619121 
L 281.971591 328.102679 
L 284.426136 353.226543 
L 286.880682 383.535643 
L 289.335227 399.905614 
L 291.789773 412.94597 
L 294.244318 420.108168 
L 296.698864 420.465868 
L 299.153409 415.046293 
L 301.607955 400.306675 
L 304.0625 391.105086 
L 306.517045 403.735195 
L 308.971591 414.578271 
L 311.426136 419.926191 
L 313.880682 420.820061 
L 316.335227 420.689692 
L 318.789773 420.056416 
L 321.244318 420.184116 
L 323.698864 420.816546 
L 326.153409 420.149598 
L 328.607955 415.842855 
L 331.0625 416.718492 
L 333.517045 419.816515 
L 335.971591 419.575089 
L 338.426136 416.277031 
L 340.880682 413.34464 
L 343.335227 409.597358 
L 345.789773 407.163092 
L 348.244318 405.599779 
L 350.698864 397.21318 
L 353.153409 397.587648 
L 355.607955 406.680976 
L 358.0625 403.511167 
L 360.517045 398.128709 
L 362.971591 411.341642 
L 365.426136 419.186607 
L 367.880682 420.739115 
L 370.335227 417.526691 
L 372.789773 415.846488 
L 375.244318 420.636211 
L 377.698864 419.558034 
L 380.153409 407.175694 
L 382.607955 398.804074 
L 385.0625 412.696558 
L 387.517045 419.837399 
L 389.971591 420.436978 
L 392.426136 418.960503 
L 394.880682 420.280533 
L 397.335227 412.993201 
L 402.244318 382.259686 
L 404.698864 349.392138 
L 407.153409 337.512864 
L 409.607955 333.574483 
L 412.0625 343.026435 
L 414.517045 353.538504 
L 416.971591 401.18072 
L 419.426136 420.823618 
L 424.335227 402.862939 
L 426.789773 403.55226 
L 429.244318 413.226216 
L 431.698864 420.058749 
L 434.153409 420.736186 
L 436.607955 419.722682 
L 439.0625 419.364379 
L 441.517045 419.97384 
L 443.971591 420.46571 
L 446.426136 419.501558 
L 448.880682 418.66552 
L 451.335227 418.220928 
L 453.789773 419.423352 
L 456.244318 417.915328 
L 458.698864 408.819719 
L 461.153409 407.937996 
L 463.607955 406.116672 
L 466.0625 406.894139 
L 468.517045 405.097479 
L 470.971591 394.207373 
L 473.426136 401.064281 
L 475.880682 408.963373 
L 478.335227 408.339522 
L 480.789773 404.400695 
L 483.244318 410.500716 
L 485.698864 419.849646 
L 488.153409 419.820158 
L 493.0625 411.979726 
L 495.517045 412.868776 
L 497.971591 415.309838 
L 500.426136 420.642465 
L 502.880682 419.66293 
L 505.335227 419.880396 
L 507.789773 420.730347 
L 510.244318 419.169169 
L 512.698864 414.792787 
L 515.153409 411.319326 
L 517.607955 411.822313 
L 520.0625 416.55931 
L 522.517045 419.786247 
L 524.971591 420.756391 
L 527.426136 420.470324 
L 529.880682 414.662096 
L 532.335227 399.688305 
L 534.789773 383.045811 
L 537.244318 387.566702 
L 539.698864 400.35359 
L 542.153409 409.296878 
L 544.607955 405.803241 
L 547.0625 395.130308 
L 549.517045 381.612122 
L 551.971591 372.896495 
L 554.426136 371.917134 
L 556.880682 374.174987 
L 559.335227 397.286532 
L 561.789773 406.468 
L 564.244318 417.932117 
L 566.698864 420.565105 
L 569.153409 414.915328 
L 571.607955 414.028534 
L 574.0625 418.071343 
L 576.517045 420.644932 
L 578.971591 419.862135 
L 581.426136 417.42503 
L 583.880682 417.075933 
L 586.335227 419.207369 
L 588.789773 420.658414 
L 591.244318 417.743085 
L 593.698864 404.823812 
L 596.153409 396.519576 
L 598.607955 396.409013 
L 601.0625 373.979062 
L 603.517045 363.361796 
L 605.971591 367.155309 
L 608.426136 377.839827 
L 610.880682 390.501554 
L 613.335227 398.418133 
L 615.789773 401.993032 
L 618.244318 393.425945 
L 620.698864 411.867987 
L 623.153409 420.51698 
L 625.607955 414.324607 
L 628.0625 397.356185 
L 630.517045 372.046262 
L 632.971591 357.226615 
L 635.426136 350.513225 
L 637.880682 341.873812 
L 640.335227 337.256346 
L 642.789773 350.183829 
L 645.244318 384.457866 
L 647.698864 413.362028 
L 650.153409 420.8174 
L 652.607955 410.546724 
L 655.0625 390.473187 
L 657.517045 384.985463 
L 659.971591 392.09936 
L 662.426136 402.414691 
L 664.880682 405.129429 
L 667.335227 403.4808 
L 669.789773 403.030418 
L 674.698864 404.104858 
L 677.153409 395.899193 
L 679.607955 388.807688 
L 682.0625 382.952094 
L 684.517045 415.422363 
L 686.971591 419.884923 
L 691.880682 399.678313 
L 694.335227 396.940575 
L 696.789773 400.310574 
L 699.244318 402.894779 
L 701.698864 407.471712 
L 704.153409 415.991922 
L 706.607955 419.472174 
L 709.0625 420.82297 
L 711.517045 415.141201 
L 713.971591 407.313123 
L 716.426136 412.291515 
L 718.880682 416.816143 
L 721.335227 417.66174 
L 723.789773 416.961593 
L 726.244318 401.310977 
L 728.698864 377.066574 
L 731.153409 377.43234 
L 733.607955 412.335682 
L 736.0625 420.823276 
L 738.517045 417.53907 
L 740.971591 394.368439 
L 743.426136 366.282671 
L 745.880682 356.525415 
L 748.335227 357.412182 
L 750.789773 366.219011 
L 753.244318 374.084963 
L 755.698864 375.166237 
L 758.153409 362.531275 
L 760.607955 384.7326 
L 763.0625 397.37016 
L 765.517045 411.480985 
L 767.971591 419.458996 
L 770.426136 418.251802 
L 772.880682 407.881535 
L 775.335227 402.650406 
L 777.789773 400.697967 
L 780.244318 401.059894 
L 785.153409 418.452765 
L 787.607955 418.828589 
L 790.0625 415.798886 
L 792.517045 408.71827 
L 794.971591 406.6458 
L 797.426136 396.738976 
L 799.880682 372.231362 
L 802.335227 384.470313 
L 804.789773 404.112971 
L 807.244318 418.598685 
L 809.698864 420.027404 
L 814.607955 406.168433 
L 817.0625 402.882909 
L 819.517045 403.725546 
L 819.517045 403.725546 
" style="fill:none;stroke:#2ca02c;stroke-linecap:square;stroke-width:1.5;"/>
   </g>
   <g id="line2d_19">
    <path clip-path="url(#pc9877e5c67)" d="M 78.244318 285.825719 
L 80.698864 290.785707 
L 83.153409 297.751891 
L 85.607955 303.699196 
L 88.0625 323.779382 
L 92.971591 386.591509 
L 95.426136 404.804661 
L 97.880682 415.680502 
L 100.335227 420.724933 
L 102.789773 419.072704 
L 105.244318 413.722144 
L 107.698864 404.332433 
L 110.153409 391.360361 
L 112.607955 383.006759 
L 115.0625 390.514779 
L 117.517045 401.096077 
L 119.971591 414.747836 
L 122.426136 420.804795 
L 124.880682 416.886705 
L 127.335227 411.464459 
L 129.789773 396.960315 
L 132.244318 372.343599 
L 134.698864 358.754871 
L 137.153409 370.100411 
L 139.607955 380.296747 
L 142.0625 388.895814 
L 144.517045 405.545887 
L 146.971591 418.717795 
L 149.426136 416.160453 
L 151.880682 391.264129 
L 154.335227 354.899229 
L 156.789773 310.11374 
L 159.244318 288.884624 
L 161.698864 273.590485 
L 164.153409 263.831185 
L 166.607955 237.880023 
L 169.0625 221.089046 
L 171.517045 256.177856 
L 173.971591 305.014714 
L 176.426136 346.609771 
L 178.880682 376.994905 
L 181.335227 414.396524 
L 183.789773 419.728979 
L 186.244318 413.640521 
L 188.698864 402.818403 
L 191.153409 387.673917 
L 193.607955 388.761015 
L 196.0625 377.372518 
L 198.517045 369.748444 
L 200.971591 366.413802 
L 203.426136 364.569903 
L 205.880682 361.833222 
L 208.335227 351.239096 
L 210.789773 348.229506 
L 213.244318 374.426346 
L 215.698864 392.49098 
L 220.607955 415.197599 
L 223.0625 420.626856 
L 225.517045 419.208001 
L 227.971591 410.87523 
L 230.426136 400.868142 
L 232.880682 396.70747 
L 235.335227 402.927358 
L 237.789773 413.275707 
L 240.244318 420.823636 
L 242.698864 412.559117 
L 245.153409 378.626161 
L 247.607955 323.166462 
L 250.0625 316.224091 
L 252.517045 347.107572 
L 254.971591 375.410875 
L 257.426136 399.817318 
L 259.880682 414.343126 
L 262.335227 420.710391 
L 264.789773 420.804725 
L 267.244318 415.605718 
L 269.698864 391.742007 
L 272.153409 351.985233 
L 277.0625 257.764248 
L 279.517045 220.632135 
L 281.971591 191.771331 
L 284.426136 202.406745 
L 286.880682 242.791501 
L 289.335227 277.12618 
L 294.244318 373.599716 
L 296.698864 403.828426 
L 299.153409 420.043397 
L 301.607955 413.703049 
L 304.0625 394.723702 
L 306.517045 393.431218 
L 308.971591 399.257977 
L 311.426136 406.585438 
L 313.880682 411.871503 
L 316.335227 415.536841 
L 318.789773 419.856533 
L 321.244318 420.778471 
L 323.698864 420.701068 
L 326.153409 420.421576 
L 328.607955 417.044009 
L 331.0625 416.86588 
L 333.517045 418.922489 
L 335.971591 417.306306 
L 343.335227 397.768883 
L 345.789773 392.873747 
L 348.244318 386.898384 
L 350.698864 369.129089 
L 353.153409 363.825718 
L 355.607955 372.840756 
L 358.0625 363.386173 
L 360.517045 351.526088 
L 365.426136 397.805012 
L 367.880682 412.856086 
L 370.335227 420.116425 
L 372.789773 420.686304 
L 375.244318 420.732666 
L 377.698864 419.626648 
L 380.153409 409.98512 
L 382.607955 401.543494 
L 385.0625 410.544938 
L 387.517045 415.738701 
L 389.971591 419.287714 
L 392.426136 420.311897 
L 394.880682 419.948617 
L 397.335227 417.118548 
L 399.789773 396.325064 
L 402.244318 367.46264 
L 404.698864 310.112648 
L 409.607955 233.270755 
L 412.0625 216.064304 
L 414.517045 208.173816 
L 416.971591 288.361048 
L 419.426136 372.185239 
L 421.880682 411.814942 
L 424.335227 420.786907 
L 426.789773 418.132213 
L 429.244318 414.825816 
L 431.698864 415.814364 
L 434.153409 417.175372 
L 436.607955 419.300082 
L 439.0625 420.482944 
L 441.517045 420.821976 
L 443.971591 420.426597 
L 446.426136 420.18427 
L 448.880682 419.655933 
L 451.335227 418.659812 
L 453.789773 418.654616 
L 456.244318 414.797343 
L 458.698864 400.609557 
L 461.153409 395.98105 
L 463.607955 390.061375 
L 466.0625 387.710407 
L 468.517045 380.135463 
L 470.971591 356.499349 
L 473.426136 362.908239 
L 475.880682 374.085522 
L 478.335227 371.810837 
L 480.789773 364.0556 
L 483.244318 376.050199 
L 485.698864 402.975838 
L 488.153409 417.514296 
L 490.607955 420.81921 
L 493.0625 418.683448 
L 495.517045 414.991235 
L 497.971591 412.026103 
L 500.426136 417.57502 
L 502.880682 420.418244 
L 505.335227 420.416661 
L 507.789773 420.133786 
L 510.244318 420.249309 
L 512.698864 413.842327 
L 515.153409 406.288365 
L 517.607955 404.112357 
L 522.517045 412.805127 
L 527.426136 419.54669 
L 529.880682 419.553254 
L 532.335227 405.301165 
L 534.789773 378.746308 
L 537.244318 368.584894 
L 539.698864 371.282807 
L 542.153409 374.824975 
L 544.607955 360.695594 
L 547.0625 337.717089 
L 549.517045 316.242215 
L 551.971591 303.422381 
L 554.426136 299.117714 
L 556.880682 293.865757 
L 559.335227 325.400381 
L 561.789773 340.438283 
L 564.244318 374.270162 
L 566.698864 404.062509 
L 569.153409 419.44404 
L 571.607955 420.671997 
L 574.0625 420.325612 
L 576.517045 420.449503 
L 578.971591 420.822113 
L 581.426136 420.344005 
L 583.880682 419.414259 
L 586.335227 419.547902 
L 588.789773 420.043157 
L 591.244318 420.101541 
L 593.698864 410.915376 
L 596.153409 398.838688 
L 598.607955 388.981387 
L 601.0625 347.338372 
L 603.517045 309.364698 
L 605.971591 291.129022 
L 608.426136 292.004007 
L 610.880682 304.545797 
L 613.335227 313.485884 
L 615.789773 324.587814 
L 618.244318 314.796885 
L 623.153409 407.620517 
L 625.607955 420.249636 
L 628.0625 414.480583 
L 630.517045 386.231119 
L 632.971591 345.534449 
L 635.426136 301.745635 
L 637.880682 253.573056 
L 640.335227 208.689151 
L 642.789773 199.134287 
L 645.244318 253.055685 
L 647.698864 328.538087 
L 650.153409 380.920306 
L 652.607955 416.286931 
L 655.0625 417.381264 
L 657.517045 401.177986 
L 659.971591 386.176369 
L 662.426136 378.034537 
L 667.335227 352.293923 
L 669.789773 350.939841 
L 674.698864 360.966193 
L 679.607955 336.771277 
L 682.0625 324.258356 
L 684.517045 381.46662 
L 686.971591 412.257871 
L 689.426136 420.801021 
L 691.880682 416.508164 
L 694.335227 406.845102 
L 699.244318 380.991794 
L 701.698864 375.310886 
L 706.607955 398.456139 
L 709.0625 411.780556 
L 711.517045 420.823417 
L 713.971591 415.81762 
L 716.426136 414.162089 
L 718.880682 414.130159 
L 721.335227 410.977172 
L 723.789773 405.431908 
L 726.244318 378.092053 
L 728.698864 343.60685 
L 731.153409 337.657236 
L 733.607955 385.095908 
L 736.0625 409.777931 
L 738.517045 418.097695 
L 740.971591 416.378096 
L 743.426136 388.072297 
L 745.880682 350.497084 
L 748.335227 316.301643 
L 750.789773 291.625152 
L 753.244318 271.092565 
L 755.698864 256.025396 
L 758.153409 230.27957 
L 760.607955 271.858975 
L 763.0625 303.363593 
L 765.517045 346.12545 
L 767.971591 381.831393 
L 770.426136 413.119746 
L 772.880682 420.610556 
L 775.335227 414.551618 
L 777.789773 402.924236 
L 780.244318 389.096431 
L 782.698864 387.736779 
L 785.153409 399.727831 
L 787.607955 400.236921 
L 790.0625 394.327633 
L 792.517045 384.358696 
L 794.971591 385.526612 
L 797.426136 373.14416 
L 799.880682 334.340538 
L 802.335227 339.104241 
L 804.789773 361.185944 
L 807.244318 390.586075 
L 809.698864 410.530566 
L 812.153409 420.130438 
L 814.607955 418.57752 
L 817.0625 409.216782 
L 819.517045 398.160213 
L 819.517045 398.160213 
" style="fill:none;stroke:#d62728;stroke-linecap:square;stroke-width:1.5;"/>
   </g>
   <g id="line2d_20">
    <path clip-path="url(#pc9877e5c67)" d="M 115.0625 420.653375 
L 117.517045 420.821438 
L 119.971591 420.619901 
L 124.880682 415.346406 
L 127.335227 414.45458 
L 129.789773 406.885965 
L 132.244318 390.02978 
L 134.698864 377.350837 
L 137.153409 380.542018 
L 139.607955 381.011394 
L 142.0625 379.941575 
L 144.517045 390.283289 
L 146.971591 405.895389 
L 149.426136 420.106332 
L 151.880682 416.416215 
L 154.335227 398.72212 
L 156.789773 366.235709 
L 159.244318 338.635866 
L 161.698864 305.712532 
L 164.153409 268.687933 
L 166.607955 203.36502 
L 169.0625 130.694794 
L 171.517045 111.59369 
L 173.971591 119.326212 
L 176.426136 136.781164 
L 178.880682 158.053663 
L 181.335227 246.879805 
L 183.789773 317.098373 
L 188.698864 372.373133 
L 191.153409 396.258649 
L 193.607955 403.953016 
L 196.0625 417.462169 
L 198.517045 420.702466 
L 200.971591 415.310887 
L 203.426136 401.887102 
L 205.880682 378.390464 
L 208.335227 339.919008 
L 210.789773 303.848869 
L 213.244318 307.803781 
L 215.698864 312.42217 
L 218.153409 316.631199 
L 220.607955 334.229126 
L 223.0625 357.82962 
L 227.971591 400.052175 
L 230.426136 412.699669 
L 232.880682 418.08929 
L 235.335227 419.177367 
L 237.789773 418.416058 
L 240.244318 410.889235 
L 242.698864 395.416384 
L 245.153409 357.960626 
L 247.607955 300.720926 
L 250.0625 292.714954 
L 252.517045 322.38517 
L 257.426136 373.708276 
L 259.880682 391.361859 
L 262.335227 406.252245 
L 264.789773 405.991432 
L 267.244318 416.497155 
L 269.698864 419.966371 
L 272.153409 403.467086 
L 274.607955 364.458786 
L 277.0625 307.257259 
L 279.517045 242.05789 
L 281.971591 170.804561 
L 284.426136 131.013837 
L 286.880682 124.157445 
L 289.335227 114.93146 
L 291.789773 130.366214 
L 296.698864 209.969875 
L 299.153409 269.007156 
L 301.607955 333.857797 
L 304.0625 373.77805 
L 306.517045 382.727138 
L 311.426136 392.934139 
L 316.335227 406.45266 
L 318.789773 407.834702 
L 321.244318 411.789353 
L 323.698864 418.188489 
L 326.153409 420.75071 
L 331.0625 413.704707 
L 333.517045 413.820757 
L 335.971591 407.897483 
L 343.335227 363.737511 
L 345.789773 350.946073 
L 348.244318 335.613669 
L 350.698864 301.686285 
L 353.153409 285.654454 
L 355.607955 293.533671 
L 358.0625 270.919704 
L 360.517045 239.087304 
L 362.971591 263.272852 
L 365.426136 296.779678 
L 367.880682 327.963342 
L 370.335227 357.474503 
L 372.789773 373.767517 
L 377.698864 356.579328 
L 380.153409 322.804103 
L 382.607955 304.859269 
L 385.0625 334.905902 
L 387.517045 360.2531 
L 389.971591 382.069311 
L 392.426136 393.38374 
L 394.880682 395.123557 
L 397.335227 417.067843 
L 399.789773 418.787584 
L 402.244318 401.937661 
L 404.698864 351.202007 
L 407.153409 293.94417 
L 409.607955 218.299082 
L 412.0625 151.378641 
L 414.517045 87.846543 
L 416.971591 140.71692 
L 419.426136 234.192645 
L 421.880682 300.27225 
L 424.335227 339.669539 
L 426.789773 362.212628 
L 429.244318 371.092858 
L 431.698864 370.146771 
L 434.153409 370.580759 
L 436.607955 369.831541 
L 439.0625 373.194072 
L 441.517045 380.233054 
L 443.971591 400.301841 
L 446.426136 409.953052 
L 448.880682 416.194474 
L 451.335227 419.765866 
L 453.789773 420.684332 
L 456.244318 419.270129 
L 458.698864 404.313241 
L 461.153409 391.557235 
L 463.607955 374.178812 
L 466.0625 358.464183 
L 468.517045 334.392161 
L 470.971591 286.80385 
L 473.426136 281.92724 
L 475.880682 287.913721 
L 478.335227 274.607287 
L 480.789773 248.383216 
L 483.244318 254.499325 
L 485.698864 301.453225 
L 488.153409 341.7008 
L 490.607955 366.918477 
L 493.0625 386.575349 
L 495.517045 398.698973 
L 497.971591 407.585956 
L 500.426136 403.556773 
L 502.880682 398.929357 
L 505.335227 405.13861 
L 507.789773 412.405453 
L 510.244318 408.181815 
L 512.698864 398.584918 
L 515.153409 391.433007 
L 517.607955 391.543846 
L 520.0625 398.599754 
L 522.517045 404.126018 
L 524.971591 408.319729 
L 527.426136 414.118664 
L 529.880682 420.728638 
L 532.335227 414.221474 
L 534.789773 393.939412 
L 537.244318 381.934562 
L 539.698864 377.532211 
L 542.153409 372.356352 
L 544.607955 346.890014 
L 547.0625 306.034564 
L 551.971591 209.757966 
L 554.426136 164.803496 
L 556.880682 115.12388 
L 559.335227 127.641055 
L 561.789773 123.552894 
L 564.244318 167.60734 
L 569.153409 288.510804 
L 571.607955 316.469386 
L 574.0625 324.106026 
L 576.517045 329.478094 
L 578.971591 328.982985 
L 581.426136 331.902052 
L 583.880682 340.698449 
L 586.335227 358.165428 
L 588.789773 377.186123 
L 591.244318 405.913175 
L 593.698864 420.411888 
L 596.153409 417.926922 
L 598.607955 409.258362 
L 601.0625 369.859099 
L 603.517045 317.410799 
L 605.971591 269.980438 
L 608.426136 234.533764 
L 610.880682 209.891211 
L 613.335227 180.442865 
L 615.789773 154.579277 
L 618.244318 97.251936 
L 620.698864 151.69622 
L 623.153409 249.312867 
L 628.0625 365.155913 
L 630.517045 406.654054 
L 632.971591 420.730398 
L 635.426136 412.404036 
L 637.880682 382.38728 
L 642.789773 282.013596 
L 645.244318 270.658751 
L 647.698864 293.054459 
L 650.153409 318.515173 
L 652.607955 360.131234 
L 655.0625 393.667269 
L 657.517045 408.712893 
L 659.971591 415.090094 
L 664.880682 420.765142 
L 667.335227 418.213938 
L 669.789773 410.831899 
L 672.244318 400.367589 
L 674.698864 386.122697 
L 677.153409 351.302498 
L 679.607955 306.470455 
L 682.0625 252.13559 
L 684.517045 299.889056 
L 686.971591 341.901762 
L 689.426136 370.711905 
L 691.880682 390.831987 
L 694.335227 404.42938 
L 696.789773 414.5958 
L 699.244318 419.947706 
L 701.698864 420.756327 
L 704.153409 420.582814 
L 706.607955 420.019266 
L 709.0625 420.027933 
L 711.517045 420.364345 
L 713.971591 417.490199 
L 718.880682 419.729987 
L 721.335227 418.946743 
L 723.789773 416.189535 
L 726.244318 395.895478 
L 728.698864 359.896437 
L 731.153409 340.772789 
L 733.607955 375.141944 
L 736.0625 396.286719 
L 738.517045 405.729499 
L 740.971591 420.458052 
L 743.426136 413.826629 
L 745.880682 395.265424 
L 750.789773 348.975723 
L 753.244318 316.12037 
L 755.698864 271.230801 
L 758.153409 197.289501 
L 760.607955 190.43456 
L 763.0625 177.812508 
L 765.517045 190.468425 
L 767.971591 217.939897 
L 770.426136 279.82712 
L 772.880682 333.810055 
L 775.335227 363.955912 
L 777.789773 387.969455 
L 780.244318 405.253791 
L 782.698864 411.090718 
L 785.153409 410.581704 
L 787.607955 416.476314 
L 790.0625 420.821677 
L 792.517045 414.54567 
L 794.971591 403.130952 
L 797.426136 374.859807 
L 799.880682 307.576247 
L 802.335227 279.347686 
L 804.789773 279.363006 
L 807.244318 305.986922 
L 812.153409 363.272486 
L 814.607955 387.943736 
L 817.0625 405.028784 
L 819.517045 415.110611 
L 819.517045 415.110611 
" style="fill:none;stroke:#9467bd;stroke-linecap:square;stroke-width:1.5;"/>
   </g>
   <g id="line2d_21">
    <path clip-path="url(#pc9877e5c67)" d="M 151.880682 416.919066 
L 154.335227 419.111547 
L 156.789773 398.67191 
L 159.244318 370.013148 
L 161.698864 330.08536 
L 164.153409 281.709683 
L 166.607955 202.158538 
L 169.0625 112.167406 
L 171.517045 77.354882 
L 173.971591 74.896364 
L 176.426136 86.315541 
L 178.880682 103.41879 
L 181.335227 197.893222 
L 183.789773 276.07597 
L 191.153409 370.09247 
L 193.607955 379.234444 
L 196.0625 401.028755 
L 198.517045 414.095223 
L 200.971591 419.950172 
L 203.426136 420.323312 
L 205.880682 414.644374 
L 208.335227 399.708162 
L 210.789773 383.710856 
L 213.244318 388.445997 
L 215.698864 392.053687 
L 218.153409 394.145875 
L 220.607955 401.338811 
L 223.0625 409.825671 
L 225.517045 415.845612 
L 227.971591 420.22619 
L 230.426136 420.713068 
L 232.880682 420.227208 
L 235.335227 420.72824 
L 237.789773 420.154742 
L 240.244318 409.92462 
L 242.698864 383.420897 
L 245.153409 323.6465 
L 247.607955 234.165179 
L 250.0625 203.524025 
L 252.517045 225.973114 
L 254.971591 251.486945 
L 257.426136 282.518051 
L 259.880682 309.00821 
L 262.335227 338.259745 
L 264.789773 337.694252 
L 267.244318 368.727623 
L 269.698864 405.431493 
L 272.153409 420.766196 
L 274.607955 407.385162 
L 277.0625 365.725074 
L 279.517045 304.470331 
L 281.971591 228.671037 
L 284.426136 175.460278 
L 286.880682 151.359187 
L 289.335227 126.00023 
L 291.789773 127.460078 
L 294.244318 155.48612 
L 296.698864 189.041357 
L 299.153409 245.2645 
L 301.607955 311.620828 
L 304.0625 353.721784 
L 306.517045 360.872725 
L 308.971591 362.406974 
L 311.426136 362.841487 
L 313.880682 365.47137 
L 316.335227 370.395236 
L 318.789773 366.521248 
L 321.244318 368.79423 
L 323.698864 381.527271 
L 326.153409 392.445423 
L 328.607955 407.867218 
L 331.0625 410.226703 
L 333.517045 407.938143 
L 335.971591 412.826669 
L 338.426136 419.473776 
L 340.880682 420.746079 
L 343.335227 417.873477 
L 345.789773 410.876822 
L 348.244318 397.366889 
L 350.698864 365.621237 
L 353.153409 338.009453 
L 355.607955 326.205124 
L 358.0625 285.830711 
L 360.517045 231.502223 
L 362.971591 233.977915 
L 365.426136 251.772119 
L 367.880682 273.876173 
L 370.335227 300.361087 
L 372.789773 314.369028 
L 377.698864 273.758824 
L 380.153409 217.853804 
L 382.607955 185.607409 
L 385.0625 223.577014 
L 389.971591 294.477879 
L 392.426136 315.447902 
L 394.880682 318.612455 
L 397.335227 371.309261 
L 399.789773 407.060731 
L 402.244318 420.202159 
L 404.698864 410.246577 
L 407.153409 380.920888 
L 409.607955 330.101539 
L 412.0625 275.393244 
L 414.517045 214.131746 
L 416.971591 240.104712 
L 419.426136 300.557623 
L 421.880682 341.223335 
L 424.335227 362.695009 
L 426.789773 373.148589 
L 429.244318 373.792265 
L 431.698864 365.456535 
L 434.153409 358.367946 
L 436.607955 349.973028 
L 439.0625 345.913108 
L 441.517045 346.51162 
L 443.971591 366.860075 
L 446.426136 375.960114 
L 451.335227 391.982696 
L 453.789773 395.187543 
L 456.244318 406.646211 
L 458.698864 419.314489 
L 461.153409 420.823132 
L 463.607955 418.651478 
L 466.0625 413.662447 
L 468.517045 401.842667 
L 470.971591 371.401935 
L 473.426136 360.247481 
L 475.880682 353.388753 
L 478.335227 328.837794 
L 480.789773 288.638874 
L 483.244318 274.373464 
L 488.153409 330.346071 
L 490.607955 347.741596 
L 493.0625 362.718519 
L 495.517045 371.020546 
L 497.971591 378.299338 
L 500.426136 364.439354 
L 502.880682 349.137438 
L 505.335227 355.116689 
L 507.789773 367.760759 
L 510.244318 355.706244 
L 512.698864 334.406548 
L 515.153409 320.540059 
L 517.607955 319.759031 
L 520.0625 331.85806 
L 522.517045 342.708308 
L 524.971591 351.711895 
L 527.426136 366.647537 
L 529.880682 395.56665 
L 532.335227 416.86756 
L 534.789773 419.937896 
L 537.244318 415.110963 
L 539.698864 410.74717 
L 542.153409 404.32407 
L 544.607955 381.634041 
L 547.0625 340.226383 
L 549.517045 285.927249 
L 554.426136 166.705957 
L 556.880682 99.120489 
L 559.335227 95.546975 
L 561.789773 75.854556 
L 564.244318 108.026063 
L 566.698864 161.811689 
L 569.153409 221.569249 
L 571.607955 249.01885 
L 574.0625 251.209245 
L 576.517045 249.074947 
L 578.971591 238.176506 
L 581.426136 232.145714 
L 583.880682 235.155336 
L 586.335227 252.029218 
L 588.789773 274.069449 
L 591.244318 324.782826 
L 593.698864 372.791668 
L 596.153409 397.68769 
L 598.607955 410.47115 
L 601.0625 420.56721 
L 603.517045 407.701842 
L 610.880682 343.608086 
L 613.335227 313.932451 
L 615.789773 279.926297 
L 618.244318 214.012858 
L 620.698864 231.5203 
L 623.153409 290.551997 
L 625.607955 321.547649 
L 628.0625 362.414476 
L 630.517045 398.579247 
L 632.971591 417.392014 
L 635.426136 420.025432 
L 637.880682 406.4623 
L 642.789773 345.602558 
L 645.244318 342.265247 
L 650.153409 380.890989 
L 652.607955 405.819403 
L 655.0625 419.23008 
L 657.517045 420.672603 
L 662.426136 417.407059 
L 664.880682 411.804553 
L 667.335227 400.617925 
L 672.244318 377.125429 
L 674.698864 364.087025 
L 677.153409 330.932566 
L 679.607955 293.287909 
L 682.0625 252.836955 
L 684.517045 312.879762 
L 686.971591 360.565737 
L 689.426136 390.766112 
L 691.880682 408.432821 
L 694.335227 417.244847 
L 696.789773 420.744553 
L 699.244318 419.362523 
L 701.698864 416.218922 
L 704.153409 417.080351 
L 706.607955 417.754014 
L 709.0625 419.615632 
L 711.517045 419.570539 
L 713.971591 412.205403 
L 716.426136 410.494468 
L 718.880682 409.383256 
L 721.335227 403.096898 
L 723.789773 391.653553 
L 726.244318 346.924254 
L 728.698864 284.057859 
L 731.153409 251.220748 
L 733.607955 301.71954 
L 736.0625 339.124755 
L 738.517045 360.73306 
L 740.971591 404.270723 
L 743.426136 420.775238 
L 745.880682 412.179201 
L 748.335227 390.317813 
L 750.789773 362.134147 
L 753.244318 322.305226 
L 755.698864 268.639489 
L 758.153409 183.451359 
L 760.607955 166.484391 
L 763.0625 144.904209 
L 765.517045 152.047576 
L 767.971591 176.863531 
L 770.426136 242.086491 
L 772.880682 301.925254 
L 775.335227 335.861635 
L 777.789773 364.612287 
L 780.244318 387.999359 
L 782.698864 397.356742 
L 785.153409 396.478622 
L 787.607955 405.378054 
L 790.0625 416.151495 
L 792.517045 420.822891 
L 794.971591 419.408572 
L 797.426136 409.726472 
L 799.880682 374.325409 
L 802.335227 360.579553 
L 804.789773 363.076386 
L 807.244318 379.901671 
L 809.698864 395.64412 
L 812.153409 408.167048 
L 814.607955 416.782775 
L 817.0625 420.437787 
L 819.517045 420.555531 
L 819.517045 420.555531 
" style="fill:none;stroke:#8c564b;stroke-linecap:square;stroke-width:1.5;"/>
   </g>
   <g id="patch_3">
    <path d="M 20.5625 438.12 
L 20.5625 57.6 
" style="fill:none;stroke:#000000;stroke-linecap:square;stroke-linejoin:miter;stroke-width:0.8;"/>
   </g>
   <g id="patch_4">
    <path d="M 857.5625 438.12 
L 857.5625 57.6 
" style="fill:none;stroke:#000000;stroke-linecap:square;stroke-linejoin:miter;stroke-width:0.8;"/>
   </g>
   <g id="patch_5">
    <path d="M 20.5625 438.12 
L 857.5625 438.12 
" style="fill:none;stroke:#000000;stroke-linecap:square;stroke-linejoin:miter;stroke-width:0.8;"/>
   </g>
   <g id="patch_6">
    <path d="M 20.5625 57.6 
L 857.5625 57.6 
" style="fill:none;stroke:#000000;stroke-linecap:square;stroke-linejoin:miter;stroke-width:0.8;"/>
   </g>
   <g id="legend_1">
    <g id="patch_7">
     <path d="M 661.621875 153.66875 
L 850.5625 153.66875 
Q 852.5625 153.66875 852.5625 151.66875 
L 852.5625 64.6 
Q 852.5625 62.6 850.5625 62.6 
L 661.621875 62.6 
Q 659.621875 62.6 659.621875 64.6 
L 659.621875 151.66875 
Q 659.621875 153.66875 661.621875 153.66875 
z
" style="fill:#ffffff;opacity:0.8;stroke:#cccccc;stroke-linejoin:miter;"/>
    </g>
    <g id="line2d_22">
     <path d="M 663.621875 70.698438 
L 683.621875 70.698438 
" style="fill:none;stroke:#1f77b4;stroke-linecap:square;stroke-width:1.5;"/>
    </g>
    <g id="line2d_23"/>
    <g id="text_16">
     <!-- Squared error (window size 2) -->
     <defs>
      <path d="M 53.515625 70.515625 
L 53.515625 60.890625 
Q 47.90625 63.578125 42.921875 64.890625 
Q 37.9375 66.21875 33.296875 66.21875 
Q 25.25 66.21875 20.875 63.09375 
Q 16.5 59.96875 16.5 54.203125 
Q 16.5 49.359375 19.40625 46.890625 
Q 22.3125 44.4375 30.421875 42.921875 
L 36.375 41.703125 
Q 47.40625 39.59375 52.65625 34.296875 
Q 57.90625 29 57.90625 20.125 
Q 57.90625 9.515625 50.796875 4.046875 
Q 43.703125 -1.421875 29.984375 -1.421875 
Q 24.8125 -1.421875 18.96875 -0.25 
Q 13.140625 0.921875 6.890625 3.21875 
L 6.890625 13.375 
Q 12.890625 10.015625 18.65625 8.296875 
Q 24.421875 6.59375 29.984375 6.59375 
Q 38.421875 6.59375 43.015625 9.90625 
Q 47.609375 13.234375 47.609375 19.390625 
Q 47.609375 24.75 44.3125 27.78125 
Q 41.015625 30.8125 33.5 32.328125 
L 27.484375 33.5 
Q 16.453125 35.6875 11.515625 40.375 
Q 6.59375 45.0625 6.59375 53.421875 
Q 6.59375 63.09375 13.40625 68.65625 
Q 20.21875 74.21875 32.171875 74.21875 
Q 37.3125 74.21875 42.625 73.28125 
Q 47.953125 72.359375 53.515625 70.515625 
z
" id="DejaVuSans-53"/>
      <path d="M 14.796875 27.296875 
Q 14.796875 17.390625 18.875 11.75 
Q 22.953125 6.109375 30.078125 6.109375 
Q 37.203125 6.109375 41.296875 11.75 
Q 45.40625 17.390625 45.40625 27.296875 
Q 45.40625 37.203125 41.296875 42.84375 
Q 37.203125 48.484375 30.078125 48.484375 
Q 22.953125 48.484375 18.875 42.84375 
Q 14.796875 37.203125 14.796875 27.296875 
z
M 45.40625 8.203125 
Q 42.578125 3.328125 38.25 0.953125 
Q 33.9375 -1.421875 27.875 -1.421875 
Q 17.96875 -1.421875 11.734375 6.484375 
Q 5.515625 14.40625 5.515625 27.296875 
Q 5.515625 40.1875 11.734375 48.09375 
Q 17.96875 56 27.875 56 
Q 33.9375 56 38.25 53.625 
Q 42.578125 51.265625 45.40625 46.390625 
L 45.40625 54.6875 
L 54.390625 54.6875 
L 54.390625 -20.796875 
L 45.40625 -20.796875 
z
" id="DejaVuSans-71"/>
      <path d="M 8.5 21.578125 
L 8.5 54.6875 
L 17.484375 54.6875 
L 17.484375 21.921875 
Q 17.484375 14.15625 20.5 10.265625 
Q 23.53125 6.390625 29.59375 6.390625 
Q 36.859375 6.390625 41.078125 11.03125 
Q 45.3125 15.671875 45.3125 23.6875 
L 45.3125 54.6875 
L 54.296875 54.6875 
L 54.296875 0 
L 45.3125 0 
L 45.3125 8.40625 
Q 42.046875 3.421875 37.71875 1 
Q 33.40625 -1.421875 27.6875 -1.421875 
Q 18.265625 -1.421875 13.375 4.4375 
Q 8.5 10.296875 8.5 21.578125 
z
M 31.109375 56 
z
" id="DejaVuSans-75"/>
      <path d="M 34.28125 27.484375 
Q 23.390625 27.484375 19.1875 25 
Q 14.984375 22.515625 14.984375 16.5 
Q 14.984375 11.71875 18.140625 8.90625 
Q 21.296875 6.109375 26.703125 6.109375 
Q 34.1875 6.109375 38.703125 11.40625 
Q 43.21875 16.703125 43.21875 25.484375 
L 43.21875 27.484375 
z
M 52.203125 31.203125 
L 52.203125 0 
L 43.21875 0 
L 43.21875 8.296875 
Q 40.140625 3.328125 35.546875 0.953125 
Q 30.953125 -1.421875 24.3125 -1.421875 
Q 15.921875 -1.421875 10.953125 3.296875 
Q 6 8.015625 6 15.921875 
Q 6 25.140625 12.171875 29.828125 
Q 18.359375 34.515625 30.609375 34.515625 
L 43.21875 34.515625 
L 43.21875 35.40625 
Q 43.21875 41.609375 39.140625 45 
Q 35.0625 48.390625 27.6875 48.390625 
Q 23 48.390625 18.546875 47.265625 
Q 14.109375 46.140625 10.015625 43.890625 
L 10.015625 52.203125 
Q 14.9375 54.109375 19.578125 55.046875 
Q 24.21875 56 28.609375 56 
Q 40.484375 56 46.34375 49.84375 
Q 52.203125 43.703125 52.203125 31.203125 
z
" id="DejaVuSans-61"/>
      <path d="M 41.109375 46.296875 
Q 39.59375 47.171875 37.8125 47.578125 
Q 36.03125 48 33.890625 48 
Q 26.265625 48 22.1875 43.046875 
Q 18.109375 38.09375 18.109375 28.8125 
L 18.109375 0 
L 9.078125 0 
L 9.078125 54.6875 
L 18.109375 54.6875 
L 18.109375 46.1875 
Q 20.953125 51.171875 25.484375 53.578125 
Q 30.03125 56 36.53125 56 
Q 37.453125 56 38.578125 55.875 
Q 39.703125 55.765625 41.0625 55.515625 
z
" id="DejaVuSans-72"/>
      <path d="M 56.203125 29.59375 
L 56.203125 25.203125 
L 14.890625 25.203125 
Q 15.484375 15.921875 20.484375 11.0625 
Q 25.484375 6.203125 34.421875 6.203125 
Q 39.59375 6.203125 44.453125 7.46875 
Q 49.3125 8.734375 54.109375 11.28125 
L 54.109375 2.78125 
Q 49.265625 0.734375 44.1875 -0.34375 
Q 39.109375 -1.421875 33.890625 -1.421875 
Q 20.796875 -1.421875 13.15625 6.1875 
Q 5.515625 13.8125 5.515625 26.8125 
Q 5.515625 40.234375 12.765625 48.109375 
Q 20.015625 56 32.328125 56 
Q 43.359375 56 49.78125 48.890625 
Q 56.203125 41.796875 56.203125 29.59375 
z
M 47.21875 32.234375 
Q 47.125 39.59375 43.09375 43.984375 
Q 39.0625 48.390625 32.421875 48.390625 
Q 24.90625 48.390625 20.390625 44.140625 
Q 15.875 39.890625 15.1875 32.171875 
z
" id="DejaVuSans-65"/>
      <path d="M 45.40625 46.390625 
L 45.40625 75.984375 
L 54.390625 75.984375 
L 54.390625 0 
L 45.40625 0 
L 45.40625 8.203125 
Q 42.578125 3.328125 38.25 0.953125 
Q 33.9375 -1.421875 27.875 -1.421875 
Q 17.96875 -1.421875 11.734375 6.484375 
Q 5.515625 14.40625 5.515625 27.296875 
Q 5.515625 40.1875 11.734375 48.09375 
Q 17.96875 56 27.875 56 
Q 33.9375 56 38.25 53.625 
Q 42.578125 51.265625 45.40625 46.390625 
z
M 14.796875 27.296875 
Q 14.796875 17.390625 18.875 11.75 
Q 22.953125 6.109375 30.078125 6.109375 
Q 37.203125 6.109375 41.296875 11.75 
Q 45.40625 17.390625 45.40625 27.296875 
Q 45.40625 37.203125 41.296875 42.84375 
Q 37.203125 48.484375 30.078125 48.484375 
Q 22.953125 48.484375 18.875 42.84375 
Q 14.796875 37.203125 14.796875 27.296875 
z
" id="DejaVuSans-64"/>
      <path id="DejaVuSans-20"/>
      <path d="M 30.609375 48.390625 
Q 23.390625 48.390625 19.1875 42.75 
Q 14.984375 37.109375 14.984375 27.296875 
Q 14.984375 17.484375 19.15625 11.84375 
Q 23.34375 6.203125 30.609375 6.203125 
Q 37.796875 6.203125 41.984375 11.859375 
Q 46.1875 17.53125 46.1875 27.296875 
Q 46.1875 37.015625 41.984375 42.703125 
Q 37.796875 48.390625 30.609375 48.390625 
z
M 30.609375 56 
Q 42.328125 56 49.015625 48.375 
Q 55.71875 40.765625 55.71875 27.296875 
Q 55.71875 13.875 49.015625 6.21875 
Q 42.328125 -1.421875 30.609375 -1.421875 
Q 18.84375 -1.421875 12.171875 6.21875 
Q 5.515625 13.875 5.515625 27.296875 
Q 5.515625 40.765625 12.171875 48.375 
Q 18.84375 56 30.609375 56 
z
" id="DejaVuSans-6f"/>
      <path d="M 31 75.875 
Q 24.46875 64.65625 21.28125 53.65625 
Q 18.109375 42.671875 18.109375 31.390625 
Q 18.109375 20.125 21.3125 9.0625 
Q 24.515625 -2 31 -13.1875 
L 23.1875 -13.1875 
Q 15.875 -1.703125 12.234375 9.375 
Q 8.59375 20.453125 8.59375 31.390625 
Q 8.59375 42.28125 12.203125 53.3125 
Q 15.828125 64.359375 23.1875 75.875 
z
" id="DejaVuSans-28"/>
      <path d="M 4.203125 54.6875 
L 13.1875 54.6875 
L 24.421875 12.015625 
L 35.59375 54.6875 
L 46.1875 54.6875 
L 57.421875 12.015625 
L 68.609375 54.6875 
L 77.59375 54.6875 
L 63.28125 0 
L 52.6875 0 
L 40.921875 44.828125 
L 29.109375 0 
L 18.5 0 
z
" id="DejaVuSans-77"/>
      <path d="M 9.421875 54.6875 
L 18.40625 54.6875 
L 18.40625 0 
L 9.421875 0 
z
M 9.421875 75.984375 
L 18.40625 75.984375 
L 18.40625 64.59375 
L 9.421875 64.59375 
z
" id="DejaVuSans-69"/>
      <path d="M 54.890625 33.015625 
L 54.890625 0 
L 45.90625 0 
L 45.90625 32.71875 
Q 45.90625 40.484375 42.875 44.328125 
Q 39.84375 48.1875 33.796875 48.1875 
Q 26.515625 48.1875 22.3125 43.546875 
Q 18.109375 38.921875 18.109375 30.90625 
L 18.109375 0 
L 9.078125 0 
L 9.078125 54.6875 
L 18.109375 54.6875 
L 18.109375 46.1875 
Q 21.34375 51.125 25.703125 53.5625 
Q 30.078125 56 35.796875 56 
Q 45.21875 56 50.046875 50.171875 
Q 54.890625 44.34375 54.890625 33.015625 
z
" id="DejaVuSans-6e"/>
      <path d="M 44.28125 53.078125 
L 44.28125 44.578125 
Q 40.484375 46.53125 36.375 47.5 
Q 32.28125 48.484375 27.875 48.484375 
Q 21.1875 48.484375 17.84375 46.4375 
Q 14.5 44.390625 14.5 40.28125 
Q 14.5 37.15625 16.890625 35.375 
Q 19.28125 33.59375 26.515625 31.984375 
L 29.59375 31.296875 
Q 39.15625 29.25 43.1875 25.515625 
Q 47.21875 21.78125 47.21875 15.09375 
Q 47.21875 7.46875 41.1875 3.015625 
Q 35.15625 -1.421875 24.609375 -1.421875 
Q 20.21875 -1.421875 15.453125 -0.5625 
Q 10.6875 0.296875 5.421875 2 
L 5.421875 11.28125 
Q 10.40625 8.6875 15.234375 7.390625 
Q 20.0625 6.109375 24.8125 6.109375 
Q 31.15625 6.109375 34.5625 8.28125 
Q 37.984375 10.453125 37.984375 14.40625 
Q 37.984375 18.0625 35.515625 20.015625 
Q 33.0625 21.96875 24.703125 23.78125 
L 21.578125 24.515625 
Q 13.234375 26.265625 9.515625 29.90625 
Q 5.8125 33.546875 5.8125 39.890625 
Q 5.8125 47.609375 11.28125 51.796875 
Q 16.75 56 26.8125 56 
Q 31.78125 56 36.171875 55.265625 
Q 40.578125 54.546875 44.28125 53.078125 
z
" id="DejaVuSans-73"/>
      <path d="M 5.515625 54.6875 
L 48.1875 54.6875 
L 48.1875 46.484375 
L 14.40625 7.171875 
L 48.1875 7.171875 
L 48.1875 0 
L 4.296875 0 
L 4.296875 8.203125 
L 38.09375 47.515625 
L 5.515625 47.515625 
z
" id="DejaVuSans-7a"/>
      <path d="M 8.015625 75.875 
L 15.828125 75.875 
Q 23.140625 64.359375 26.78125 53.3125 
Q 30.421875 42.28125 30.421875 31.390625 
Q 30.421875 20.453125 26.78125 9.375 
Q 23.140625 -1.703125 15.828125 -13.1875 
L 8.015625 -13.1875 
Q 14.5 -2 17.703125 9.0625 
Q 20.90625 20.125 20.90625 31.390625 
Q 20.90625 42.671875 17.703125 53.65625 
Q 14.5 64.65625 8.015625 75.875 
z
" id="DejaVuSans-29"/>
     </defs>
     <g transform="translate(691.621875 74.198438)scale(0.1 -0.1)">
      <use xlink:href="#DejaVuSans-53"/>
      <use x="63.476562" xlink:href="#DejaVuSans-71"/>
      <use x="126.953125" xlink:href="#DejaVuSans-75"/>
      <use x="190.332031" xlink:href="#DejaVuSans-61"/>
      <use x="251.611328" xlink:href="#DejaVuSans-72"/>
      <use x="292.693359" xlink:href="#DejaVuSans-65"/>
      <use x="354.216797" xlink:href="#DejaVuSans-64"/>
      <use x="417.693359" xlink:href="#DejaVuSans-20"/>
      <use x="449.480469" xlink:href="#DejaVuSans-65"/>
      <use x="511.003906" xlink:href="#DejaVuSans-72"/>
      <use x="552.101562" xlink:href="#DejaVuSans-72"/>
      <use x="593.183594" xlink:href="#DejaVuSans-6f"/>
      <use x="654.365234" xlink:href="#DejaVuSans-72"/>
      <use x="695.478516" xlink:href="#DejaVuSans-20"/>
      <use x="727.265625" xlink:href="#DejaVuSans-28"/>
      <use x="766.279297" xlink:href="#DejaVuSans-77"/>
      <use x="848.066406" xlink:href="#DejaVuSans-69"/>
      <use x="875.849609" xlink:href="#DejaVuSans-6e"/>
      <use x="939.228516" xlink:href="#DejaVuSans-64"/>
      <use x="1002.705078" xlink:href="#DejaVuSans-6f"/>
      <use x="1063.886719" xlink:href="#DejaVuSans-77"/>
      <use x="1145.673828" xlink:href="#DejaVuSans-20"/>
      <use x="1177.460938" xlink:href="#DejaVuSans-73"/>
      <use x="1229.560547" xlink:href="#DejaVuSans-69"/>
      <use x="1257.34375" xlink:href="#DejaVuSans-7a"/>
      <use x="1309.833984" xlink:href="#DejaVuSans-65"/>
      <use x="1371.357422" xlink:href="#DejaVuSans-20"/>
      <use x="1403.144531" xlink:href="#DejaVuSans-32"/>
      <use x="1466.767578" xlink:href="#DejaVuSans-29"/>
     </g>
    </g>
    <g id="line2d_24">
     <path d="M 663.621875 85.376563 
L 683.621875 85.376563 
" style="fill:none;stroke:#ff7f0e;stroke-linecap:square;stroke-width:1.5;"/>
    </g>
    <g id="line2d_25"/>
    <g id="text_17">
     <!-- Squared error (window size 3) -->
     <g transform="translate(691.621875 88.876563)scale(0.1 -0.1)">
      <use xlink:href="#DejaVuSans-53"/>
      <use x="63.476562" xlink:href="#DejaVuSans-71"/>
      <use x="126.953125" xlink:href="#DejaVuSans-75"/>
      <use x="190.332031" xlink:href="#DejaVuSans-61"/>
      <use x="251.611328" xlink:href="#DejaVuSans-72"/>
      <use x="292.693359" xlink:href="#DejaVuSans-65"/>
      <use x="354.216797" xlink:href="#DejaVuSans-64"/>
      <use x="417.693359" xlink:href="#DejaVuSans-20"/>
      <use x="449.480469" xlink:href="#DejaVuSans-65"/>
      <use x="511.003906" xlink:href="#DejaVuSans-72"/>
      <use x="552.101562" xlink:href="#DejaVuSans-72"/>
      <use x="593.183594" xlink:href="#DejaVuSans-6f"/>
      <use x="654.365234" xlink:href="#DejaVuSans-72"/>
      <use x="695.478516" xlink:href="#DejaVuSans-20"/>
      <use x="727.265625" xlink:href="#DejaVuSans-28"/>
      <use x="766.279297" xlink:href="#DejaVuSans-77"/>
      <use x="848.066406" xlink:href="#DejaVuSans-69"/>
      <use x="875.849609" xlink:href="#DejaVuSans-6e"/>
      <use x="939.228516" xlink:href="#DejaVuSans-64"/>
      <use x="1002.705078" xlink:href="#DejaVuSans-6f"/>
      <use x="1063.886719" xlink:href="#DejaVuSans-77"/>
      <use x="1145.673828" xlink:href="#DejaVuSans-20"/>
      <use x="1177.460938" xlink:href="#DejaVuSans-73"/>
      <use x="1229.560547" xlink:href="#DejaVuSans-69"/>
      <use x="1257.34375" xlink:href="#DejaVuSans-7a"/>
      <use x="1309.833984" xlink:href="#DejaVuSans-65"/>
      <use x="1371.357422" xlink:href="#DejaVuSans-20"/>
      <use x="1403.144531" xlink:href="#DejaVuSans-33"/>
      <use x="1466.767578" xlink:href="#DejaVuSans-29"/>
     </g>
    </g>
    <g id="line2d_26">
     <path d="M 663.621875 100.054688 
L 683.621875 100.054688 
" style="fill:none;stroke:#2ca02c;stroke-linecap:square;stroke-width:1.5;"/>
    </g>
    <g id="line2d_27"/>
    <g id="text_18">
     <!-- Squared error (window size 5) -->
     <g transform="translate(691.621875 103.554688)scale(0.1 -0.1)">
      <use xlink:href="#DejaVuSans-53"/>
      <use x="63.476562" xlink:href="#DejaVuSans-71"/>
      <use x="126.953125" xlink:href="#DejaVuSans-75"/>
      <use x="190.332031" xlink:href="#DejaVuSans-61"/>
      <use x="251.611328" xlink:href="#DejaVuSans-72"/>
      <use x="292.693359" xlink:href="#DejaVuSans-65"/>
      <use x="354.216797" xlink:href="#DejaVuSans-64"/>
      <use x="417.693359" xlink:href="#DejaVuSans-20"/>
      <use x="449.480469" xlink:href="#DejaVuSans-65"/>
      <use x="511.003906" xlink:href="#DejaVuSans-72"/>
      <use x="552.101562" xlink:href="#DejaVuSans-72"/>
      <use x="593.183594" xlink:href="#DejaVuSans-6f"/>
      <use x="654.365234" xlink:href="#DejaVuSans-72"/>
      <use x="695.478516" xlink:href="#DejaVuSans-20"/>
      <use x="727.265625" xlink:href="#DejaVuSans-28"/>
      <use x="766.279297" xlink:href="#DejaVuSans-77"/>
      <use x="848.066406" xlink:href="#DejaVuSans-69"/>
      <use x="875.849609" xlink:href="#DejaVuSans-6e"/>
      <use x="939.228516" xlink:href="#DejaVuSans-64"/>
      <use x="1002.705078" xlink:href="#DejaVuSans-6f"/>
      <use x="1063.886719" xlink:href="#DejaVuSans-77"/>
      <use x="1145.673828" xlink:href="#DejaVuSans-20"/>
      <use x="1177.460938" xlink:href="#DejaVuSans-73"/>
      <use x="1229.560547" xlink:href="#DejaVuSans-69"/>
      <use x="1257.34375" xlink:href="#DejaVuSans-7a"/>
      <use x="1309.833984" xlink:href="#DejaVuSans-65"/>
      <use x="1371.357422" xlink:href="#DejaVuSans-20"/>
      <use x="1403.144531" xlink:href="#DejaVuSans-35"/>
      <use x="1466.767578" xlink:href="#DejaVuSans-29"/>
     </g>
    </g>
    <g id="line2d_28">
     <path d="M 663.621875 114.732813 
L 683.621875 114.732813 
" style="fill:none;stroke:#d62728;stroke-linecap:square;stroke-width:1.5;"/>
    </g>
    <g id="line2d_29"/>
    <g id="text_19">
     <!-- Squared error (window size 10) -->
     <g transform="translate(691.621875 118.232813)scale(0.1 -0.1)">
      <use xlink:href="#DejaVuSans-53"/>
      <use x="63.476562" xlink:href="#DejaVuSans-71"/>
      <use x="126.953125" xlink:href="#DejaVuSans-75"/>
      <use x="190.332031" xlink:href="#DejaVuSans-61"/>
      <use x="251.611328" xlink:href="#DejaVuSans-72"/>
      <use x="292.693359" xlink:href="#DejaVuSans-65"/>
      <use x="354.216797" xlink:href="#DejaVuSans-64"/>
      <use x="417.693359" xlink:href="#DejaVuSans-20"/>
      <use x="449.480469" xlink:href="#DejaVuSans-65"/>
      <use x="511.003906" xlink:href="#DejaVuSans-72"/>
      <use x="552.101562" xlink:href="#DejaVuSans-72"/>
      <use x="593.183594" xlink:href="#DejaVuSans-6f"/>
      <use x="654.365234" xlink:href="#DejaVuSans-72"/>
      <use x="695.478516" xlink:href="#DejaVuSans-20"/>
      <use x="727.265625" xlink:href="#DejaVuSans-28"/>
      <use x="766.279297" xlink:href="#DejaVuSans-77"/>
      <use x="848.066406" xlink:href="#DejaVuSans-69"/>
      <use x="875.849609" xlink:href="#DejaVuSans-6e"/>
      <use x="939.228516" xlink:href="#DejaVuSans-64"/>
      <use x="1002.705078" xlink:href="#DejaVuSans-6f"/>
      <use x="1063.886719" xlink:href="#DejaVuSans-77"/>
      <use x="1145.673828" xlink:href="#DejaVuSans-20"/>
      <use x="1177.460938" xlink:href="#DejaVuSans-73"/>
      <use x="1229.560547" xlink:href="#DejaVuSans-69"/>
      <use x="1257.34375" xlink:href="#DejaVuSans-7a"/>
      <use x="1309.833984" xlink:href="#DejaVuSans-65"/>
      <use x="1371.357422" xlink:href="#DejaVuSans-20"/>
      <use x="1403.144531" xlink:href="#DejaVuSans-31"/>
      <use x="1466.767578" xlink:href="#DejaVuSans-30"/>
      <use x="1530.390625" xlink:href="#DejaVuSans-29"/>
     </g>
    </g>
    <g id="line2d_30">
     <path d="M 663.621875 129.410938 
L 683.621875 129.410938 
" style="fill:none;stroke:#9467bd;stroke-linecap:square;stroke-width:1.5;"/>
    </g>
    <g id="line2d_31"/>
    <g id="text_20">
     <!-- Squared error (window size 25) -->
     <g transform="translate(691.621875 132.910938)scale(0.1 -0.1)">
      <use xlink:href="#DejaVuSans-53"/>
      <use x="63.476562" xlink:href="#DejaVuSans-71"/>
      <use x="126.953125" xlink:href="#DejaVuSans-75"/>
      <use x="190.332031" xlink:href="#DejaVuSans-61"/>
      <use x="251.611328" xlink:href="#DejaVuSans-72"/>
      <use x="292.693359" xlink:href="#DejaVuSans-65"/>
      <use x="354.216797" xlink:href="#DejaVuSans-64"/>
      <use x="417.693359" xlink:href="#DejaVuSans-20"/>
      <use x="449.480469" xlink:href="#DejaVuSans-65"/>
      <use x="511.003906" xlink:href="#DejaVuSans-72"/>
      <use x="552.101562" xlink:href="#DejaVuSans-72"/>
      <use x="593.183594" xlink:href="#DejaVuSans-6f"/>
      <use x="654.365234" xlink:href="#DejaVuSans-72"/>
      <use x="695.478516" xlink:href="#DejaVuSans-20"/>
      <use x="727.265625" xlink:href="#DejaVuSans-28"/>
      <use x="766.279297" xlink:href="#DejaVuSans-77"/>
      <use x="848.066406" xlink:href="#DejaVuSans-69"/>
      <use x="875.849609" xlink:href="#DejaVuSans-6e"/>
      <use x="939.228516" xlink:href="#DejaVuSans-64"/>
      <use x="1002.705078" xlink:href="#DejaVuSans-6f"/>
      <use x="1063.886719" xlink:href="#DejaVuSans-77"/>
      <use x="1145.673828" xlink:href="#DejaVuSans-20"/>
      <use x="1177.460938" xlink:href="#DejaVuSans-73"/>
      <use x="1229.560547" xlink:href="#DejaVuSans-69"/>
      <use x="1257.34375" xlink:href="#DejaVuSans-7a"/>
      <use x="1309.833984" xlink:href="#DejaVuSans-65"/>
      <use x="1371.357422" xlink:href="#DejaVuSans-20"/>
      <use x="1403.144531" xlink:href="#DejaVuSans-32"/>
      <use x="1466.767578" xlink:href="#DejaVuSans-35"/>
      <use x="1530.390625" xlink:href="#DejaVuSans-29"/>
     </g>
    </g>
    <g id="line2d_32">
     <path d="M 663.621875 144.089063 
L 683.621875 144.089063 
" style="fill:none;stroke:#8c564b;stroke-linecap:square;stroke-width:1.5;"/>
    </g>
    <g id="line2d_33"/>
    <g id="text_21">
     <!-- Squared error (window size 40) -->
     <g transform="translate(691.621875 147.589063)scale(0.1 -0.1)">
      <use xlink:href="#DejaVuSans-53"/>
      <use x="63.476562" xlink:href="#DejaVuSans-71"/>
      <use x="126.953125" xlink:href="#DejaVuSans-75"/>
      <use x="190.332031" xlink:href="#DejaVuSans-61"/>
      <use x="251.611328" xlink:href="#DejaVuSans-72"/>
      <use x="292.693359" xlink:href="#DejaVuSans-65"/>
      <use x="354.216797" xlink:href="#DejaVuSans-64"/>
      <use x="417.693359" xlink:href="#DejaVuSans-20"/>
      <use x="449.480469" xlink:href="#DejaVuSans-65"/>
      <use x="511.003906" xlink:href="#DejaVuSans-72"/>
      <use x="552.101562" xlink:href="#DejaVuSans-72"/>
      <use x="593.183594" xlink:href="#DejaVuSans-6f"/>
      <use x="654.365234" xlink:href="#DejaVuSans-72"/>
      <use x="695.478516" xlink:href="#DejaVuSans-20"/>
      <use x="727.265625" xlink:href="#DejaVuSans-28"/>
      <use x="766.279297" xlink:href="#DejaVuSans-77"/>
      <use x="848.066406" xlink:href="#DejaVuSans-69"/>
      <use x="875.849609" xlink:href="#DejaVuSans-6e"/>
      <use x="939.228516" xlink:href="#DejaVuSans-64"/>
      <use x="1002.705078" xlink:href="#DejaVuSans-6f"/>
      <use x="1063.886719" xlink:href="#DejaVuSans-77"/>
      <use x="1145.673828" xlink:href="#DejaVuSans-20"/>
      <use x="1177.460938" xlink:href="#DejaVuSans-73"/>
      <use x="1229.560547" xlink:href="#DejaVuSans-69"/>
      <use x="1257.34375" xlink:href="#DejaVuSans-7a"/>
      <use x="1309.833984" xlink:href="#DejaVuSans-65"/>
      <use x="1371.357422" xlink:href="#DejaVuSans-20"/>
      <use x="1403.144531" xlink:href="#DejaVuSans-34"/>
      <use x="1466.767578" xlink:href="#DejaVuSans-30"/>
      <use x="1530.390625" xlink:href="#DejaVuSans-29"/>
     </g>
    </g>
   </g>
  </g>
  <g id="text_22">
   <!-- Squared error per prediction -->
   <defs>
    <path d="M 18.109375 8.203125 
L 18.109375 -20.796875 
L 9.078125 -20.796875 
L 9.078125 54.6875 
L 18.109375 54.6875 
L 18.109375 46.390625 
Q 20.953125 51.265625 25.265625 53.625 
Q 29.59375 56 35.59375 56 
Q 45.5625 56 51.78125 48.09375 
Q 58.015625 40.1875 58.015625 27.296875 
Q 58.015625 14.40625 51.78125 6.484375 
Q 45.5625 -1.421875 35.59375 -1.421875 
Q 29.59375 -1.421875 25.265625 0.953125 
Q 20.953125 3.328125 18.109375 8.203125 
z
M 48.6875 27.296875 
Q 48.6875 37.203125 44.609375 42.84375 
Q 40.53125 48.484375 33.40625 48.484375 
Q 26.265625 48.484375 22.1875 42.84375 
Q 18.109375 37.203125 18.109375 27.296875 
Q 18.109375 17.390625 22.1875 11.75 
Q 26.265625 6.109375 33.40625 6.109375 
Q 40.53125 6.109375 44.609375 11.75 
Q 48.6875 17.390625 48.6875 27.296875 
z
" id="DejaVuSans-70"/>
    <path d="M 48.78125 52.59375 
L 48.78125 44.1875 
Q 44.96875 46.296875 41.140625 47.34375 
Q 37.3125 48.390625 33.40625 48.390625 
Q 24.65625 48.390625 19.8125 42.84375 
Q 14.984375 37.3125 14.984375 27.296875 
Q 14.984375 17.28125 19.8125 11.734375 
Q 24.65625 6.203125 33.40625 6.203125 
Q 37.3125 6.203125 41.140625 7.25 
Q 44.96875 8.296875 48.78125 10.40625 
L 48.78125 2.09375 
Q 45.015625 0.34375 40.984375 -0.53125 
Q 36.96875 -1.421875 32.421875 -1.421875 
Q 20.0625 -1.421875 12.78125 6.34375 
Q 5.515625 14.109375 5.515625 27.296875 
Q 5.515625 40.671875 12.859375 48.328125 
Q 20.21875 56 33.015625 56 
Q 37.15625 56 41.109375 55.140625 
Q 45.0625 54.296875 48.78125 52.59375 
z
" id="DejaVuSans-63"/>
    <path d="M 18.3125 70.21875 
L 18.3125 54.6875 
L 36.8125 54.6875 
L 36.8125 47.703125 
L 18.3125 47.703125 
L 18.3125 18.015625 
Q 18.3125 11.328125 20.140625 9.421875 
Q 21.96875 7.515625 27.59375 7.515625 
L 36.8125 7.515625 
L 36.8125 0 
L 27.59375 0 
Q 17.1875 0 13.234375 3.875 
Q 9.28125 7.765625 9.28125 18.015625 
L 9.28125 47.703125 
L 2.6875 47.703125 
L 2.6875 54.6875 
L 9.28125 54.6875 
L 9.28125 70.21875 
z
" id="DejaVuSans-74"/>
   </defs>
   <g transform="translate(339.817813 16.318125)scale(0.12 -0.12)">
    <use xlink:href="#DejaVuSans-53"/>
    <use x="63.476562" xlink:href="#DejaVuSans-71"/>
    <use x="126.953125" xlink:href="#DejaVuSans-75"/>
    <use x="190.332031" xlink:href="#DejaVuSans-61"/>
    <use x="251.611328" xlink:href="#DejaVuSans-72"/>
    <use x="292.693359" xlink:href="#DejaVuSans-65"/>
    <use x="354.216797" xlink:href="#DejaVuSans-64"/>
    <use x="417.693359" xlink:href="#DejaVuSans-20"/>
    <use x="449.480469" xlink:href="#DejaVuSans-65"/>
    <use x="511.003906" xlink:href="#DejaVuSans-72"/>
    <use x="552.101562" xlink:href="#DejaVuSans-72"/>
    <use x="593.183594" xlink:href="#DejaVuSans-6f"/>
    <use x="654.365234" xlink:href="#DejaVuSans-72"/>
    <use x="695.478516" xlink:href="#DejaVuSans-20"/>
    <use x="727.265625" xlink:href="#DejaVuSans-70"/>
    <use x="790.742188" xlink:href="#DejaVuSans-65"/>
    <use x="852.265625" xlink:href="#DejaVuSans-72"/>
    <use x="893.378906" xlink:href="#DejaVuSans-20"/>
    <use x="925.166016" xlink:href="#DejaVuSans-70"/>
    <use x="988.642578" xlink:href="#DejaVuSans-72"/>
    <use x="1029.724609" xlink:href="#DejaVuSans-65"/>
    <use x="1091.248047" xlink:href="#DejaVuSans-64"/>
    <use x="1154.724609" xlink:href="#DejaVuSans-69"/>
    <use x="1182.507812" xlink:href="#DejaVuSans-63"/>
    <use x="1237.488281" xlink:href="#DejaVuSans-74"/>
    <use x="1276.697266" xlink:href="#DejaVuSans-69"/>
    <use x="1304.480469" xlink:href="#DejaVuSans-6f"/>
    <use x="1365.662109" xlink:href="#DejaVuSans-6e"/>
   </g>
  </g>
 </g>
 <defs>
  <clipPath id="pc9877e5c67">
   <rect height="380.52" width="837" x="20.5625" y="57.6"/>
  </clipPath>
 </defs>
</svg>
