<?xml version="1.0" encoding="utf-8" standalone="no"?>
<!DOCTYPE svg PUBLIC "-//W3C//DTD SVG 1.1//EN"
  "http://www.w3.org/Graphics/SVG/1.1/DTD/svg11.dtd">
<!-- Created with matplotlib (http://matplotlib.org/) -->
<svg height="209pt" version="1.1" viewBox="0 0 455 209" width="455pt" xmlns="http://www.w3.org/2000/svg" xmlns:xlink="http://www.w3.org/1999/xlink">
 <defs>
  <style type="text/css">
*{stroke-linecap:butt;stroke-linejoin:round;}
  </style>
 </defs>
 <g id="figure_1">
  <g id="patch_1">
   <path d="M 0 209.27625 
L 455.710014 209.27625 
L 455.710014 0 
L 0 0 
z
" style="fill:#ffffff;"/>
  </g>
  <g id="axes_1">
   <g id="patch_2">
    <path d="M 26.510014 185.398125 
L 445.010014 185.398125 
L 445.010014 22.318125 
L 26.510014 22.318125 
z
" style="fill:#ffffff;"/>
   </g>
   <g id="matplotlib.axis_1">
    <g id="xtick_1">
     <g id="line2d_1">
      <defs>
       <path d="M 0 0 
L 0 3.5 
" id="mf6941de317" style="stroke:#000000;stroke-width:0.8;"/>
      </defs>
      <g>
       <use style="stroke:#000000;stroke-width:0.8;" x="29.680469" xlink:href="#mf6941de317" y="185.398125"/>
      </g>
     </g>
     <g id="text_1">
      <!-- 01-05 23 -->
      <defs>
       <path d="M 31.78125 66.40625 
Q 24.171875 66.40625 20.328125 58.90625 
Q 16.5 51.421875 16.5 36.375 
Q 16.5 21.390625 20.328125 13.890625 
Q 24.171875 6.390625 31.78125 6.390625 
Q 39.453125 6.390625 43.28125 13.890625 
Q 47.125 21.390625 47.125 36.375 
Q 47.125 51.421875 43.28125 58.90625 
Q 39.453125 66.40625 31.78125 66.40625 
z
M 31.78125 74.21875 
Q 44.046875 74.21875 50.515625 64.515625 
Q 56.984375 54.828125 56.984375 36.375 
Q 56.984375 17.96875 50.515625 8.265625 
Q 44.046875 -1.421875 31.78125 -1.421875 
Q 19.53125 -1.421875 13.0625 8.265625 
Q 6.59375 17.96875 6.59375 36.375 
Q 6.59375 54.828125 13.0625 64.515625 
Q 19.53125 74.21875 31.78125 74.21875 
z
" id="DejaVuSans-30"/>
       <path d="M 12.40625 8.296875 
L 28.515625 8.296875 
L 28.515625 63.921875 
L 10.984375 60.40625 
L 10.984375 69.390625 
L 28.421875 72.90625 
L 38.28125 72.90625 
L 38.28125 8.296875 
L 54.390625 8.296875 
L 54.390625 0 
L 12.40625 0 
z
" id="DejaVuSans-31"/>
       <path d="M 4.890625 31.390625 
L 31.203125 31.390625 
L 31.203125 23.390625 
L 4.890625 23.390625 
z
" id="DejaVuSans-2d"/>
       <path d="M 10.796875 72.90625 
L 49.515625 72.90625 
L 49.515625 64.59375 
L 19.828125 64.59375 
L 19.828125 46.734375 
Q 21.96875 47.46875 24.109375 47.828125 
Q 26.265625 48.1875 28.421875 48.1875 
Q 40.625 48.1875 47.75 41.5 
Q 54.890625 34.8125 54.890625 23.390625 
Q 54.890625 11.625 47.5625 5.09375 
Q 40.234375 -1.421875 26.90625 -1.421875 
Q 22.3125 -1.421875 17.546875 -0.640625 
Q 12.796875 0.140625 7.71875 1.703125 
L 7.71875 11.625 
Q 12.109375 9.234375 16.796875 8.0625 
Q 21.484375 6.890625 26.703125 6.890625 
Q 35.15625 6.890625 40.078125 11.328125 
Q 45.015625 15.765625 45.015625 23.390625 
Q 45.015625 31 40.078125 35.4375 
Q 35.15625 39.890625 26.703125 39.890625 
Q 22.75 39.890625 18.8125 39.015625 
Q 14.890625 38.140625 10.796875 36.28125 
z
" id="DejaVuSans-35"/>
       <path id="DejaVuSans-20"/>
       <path d="M 19.1875 8.296875 
L 53.609375 8.296875 
L 53.609375 0 
L 7.328125 0 
L 7.328125 8.296875 
Q 12.9375 14.109375 22.625 23.890625 
Q 32.328125 33.6875 34.8125 36.53125 
Q 39.546875 41.84375 41.421875 45.53125 
Q 43.3125 49.21875 43.3125 52.78125 
Q 43.3125 58.59375 39.234375 62.25 
Q 35.15625 65.921875 28.609375 65.921875 
Q 23.96875 65.921875 18.8125 64.3125 
Q 13.671875 62.703125 7.8125 59.421875 
L 7.8125 69.390625 
Q 13.765625 71.78125 18.9375 73 
Q 24.125 74.21875 28.421875 74.21875 
Q 39.75 74.21875 46.484375 68.546875 
Q 53.21875 62.890625 53.21875 53.421875 
Q 53.21875 48.921875 51.53125 44.890625 
Q 49.859375 40.875 45.40625 35.40625 
Q 44.1875 33.984375 37.640625 27.21875 
Q 31.109375 20.453125 19.1875 8.296875 
z
" id="DejaVuSans-32"/>
       <path d="M 40.578125 39.3125 
Q 47.65625 37.796875 51.625 33 
Q 55.609375 28.21875 55.609375 21.1875 
Q 55.609375 10.40625 48.1875 4.484375 
Q 40.765625 -1.421875 27.09375 -1.421875 
Q 22.515625 -1.421875 17.65625 -0.515625 
Q 12.796875 0.390625 7.625 2.203125 
L 7.625 11.71875 
Q 11.71875 9.328125 16.59375 8.109375 
Q 21.484375 6.890625 26.8125 6.890625 
Q 36.078125 6.890625 40.9375 10.546875 
Q 45.796875 14.203125 45.796875 21.1875 
Q 45.796875 27.640625 41.28125 31.265625 
Q 36.765625 34.90625 28.71875 34.90625 
L 20.21875 34.90625 
L 20.21875 43.015625 
L 29.109375 43.015625 
Q 36.375 43.015625 40.234375 45.921875 
Q 44.09375 48.828125 44.09375 54.296875 
Q 44.09375 59.90625 40.109375 62.90625 
Q 36.140625 65.921875 28.71875 65.921875 
Q 24.65625 65.921875 20.015625 65.03125 
Q 15.375 64.15625 9.8125 62.3125 
L 9.8125 71.09375 
Q 15.4375 72.65625 20.34375 73.4375 
Q 25.25 74.21875 29.59375 74.21875 
Q 40.828125 74.21875 47.359375 69.109375 
Q 53.90625 64.015625 53.90625 55.328125 
Q 53.90625 49.265625 50.4375 45.09375 
Q 46.96875 40.921875 40.578125 39.3125 
z
" id="DejaVuSans-33"/>
      </defs>
      <g transform="translate(7.2 199.996563)scale(0.1 -0.1)">
       <use xlink:href="#DejaVuSans-30"/>
       <use x="63.623047" xlink:href="#DejaVuSans-31"/>
       <use x="127.246094" xlink:href="#DejaVuSans-2d"/>
       <use x="163.330078" xlink:href="#DejaVuSans-30"/>
       <use x="226.953125" xlink:href="#DejaVuSans-35"/>
       <use x="290.576172" xlink:href="#DejaVuSans-20"/>
       <use x="322.363281" xlink:href="#DejaVuSans-32"/>
       <use x="385.986328" xlink:href="#DejaVuSans-33"/>
      </g>
     </g>
    </g>
    <g id="xtick_2">
     <g id="line2d_2">
      <g>
       <use style="stroke:#000000;stroke-width:0.8;" x="77.237287" xlink:href="#mf6941de317" y="185.398125"/>
      </g>
     </g>
     <g id="text_2">
      <!-- 01-06 02 -->
      <defs>
       <path d="M 33.015625 40.375 
Q 26.375 40.375 22.484375 35.828125 
Q 18.609375 31.296875 18.609375 23.390625 
Q 18.609375 15.53125 22.484375 10.953125 
Q 26.375 6.390625 33.015625 6.390625 
Q 39.65625 6.390625 43.53125 10.953125 
Q 47.40625 15.53125 47.40625 23.390625 
Q 47.40625 31.296875 43.53125 35.828125 
Q 39.65625 40.375 33.015625 40.375 
z
M 52.59375 71.296875 
L 52.59375 62.3125 
Q 48.875 64.0625 45.09375 64.984375 
Q 41.3125 65.921875 37.59375 65.921875 
Q 27.828125 65.921875 22.671875 59.328125 
Q 17.53125 52.734375 16.796875 39.40625 
Q 19.671875 43.65625 24.015625 45.921875 
Q 28.375 48.1875 33.59375 48.1875 
Q 44.578125 48.1875 50.953125 41.515625 
Q 57.328125 34.859375 57.328125 23.390625 
Q 57.328125 12.15625 50.6875 5.359375 
Q 44.046875 -1.421875 33.015625 -1.421875 
Q 20.359375 -1.421875 13.671875 8.265625 
Q 6.984375 17.96875 6.984375 36.375 
Q 6.984375 53.65625 15.1875 63.9375 
Q 23.390625 74.21875 37.203125 74.21875 
Q 40.921875 74.21875 44.703125 73.484375 
Q 48.484375 72.75 52.59375 71.296875 
z
" id="DejaVuSans-36"/>
      </defs>
      <g transform="translate(54.756818 199.996563)scale(0.1 -0.1)">
       <use xlink:href="#DejaVuSans-30"/>
       <use x="63.623047" xlink:href="#DejaVuSans-31"/>
       <use x="127.246094" xlink:href="#DejaVuSans-2d"/>
       <use x="163.330078" xlink:href="#DejaVuSans-30"/>
       <use x="226.953125" xlink:href="#DejaVuSans-36"/>
       <use x="290.576172" xlink:href="#DejaVuSans-20"/>
       <use x="322.363281" xlink:href="#DejaVuSans-30"/>
       <use x="385.986328" xlink:href="#DejaVuSans-32"/>
      </g>
     </g>
    </g>
    <g id="xtick_3">
     <g id="line2d_3">
      <g>
       <use style="stroke:#000000;stroke-width:0.8;" x="124.794105" xlink:href="#mf6941de317" y="185.398125"/>
      </g>
     </g>
     <g id="text_3">
      <!-- 01-06 05 -->
      <g transform="translate(102.313636 199.996563)scale(0.1 -0.1)">
       <use xlink:href="#DejaVuSans-30"/>
       <use x="63.623047" xlink:href="#DejaVuSans-31"/>
       <use x="127.246094" xlink:href="#DejaVuSans-2d"/>
       <use x="163.330078" xlink:href="#DejaVuSans-30"/>
       <use x="226.953125" xlink:href="#DejaVuSans-36"/>
       <use x="290.576172" xlink:href="#DejaVuSans-20"/>
       <use x="322.363281" xlink:href="#DejaVuSans-30"/>
       <use x="385.986328" xlink:href="#DejaVuSans-35"/>
      </g>
     </g>
    </g>
    <g id="xtick_4">
     <g id="line2d_4">
      <g>
       <use style="stroke:#000000;stroke-width:0.8;" x="172.350923" xlink:href="#mf6941de317" y="185.398125"/>
      </g>
     </g>
     <g id="text_4">
      <!-- 01-06 08 -->
      <defs>
       <path d="M 31.78125 34.625 
Q 24.75 34.625 20.71875 30.859375 
Q 16.703125 27.09375 16.703125 20.515625 
Q 16.703125 13.921875 20.71875 10.15625 
Q 24.75 6.390625 31.78125 6.390625 
Q 38.8125 6.390625 42.859375 10.171875 
Q 46.921875 13.96875 46.921875 20.515625 
Q 46.921875 27.09375 42.890625 30.859375 
Q 38.875 34.625 31.78125 34.625 
z
M 21.921875 38.8125 
Q 15.578125 40.375 12.03125 44.71875 
Q 8.5 49.078125 8.5 55.328125 
Q 8.5 64.0625 14.71875 69.140625 
Q 20.953125 74.21875 31.78125 74.21875 
Q 42.671875 74.21875 48.875 69.140625 
Q 55.078125 64.0625 55.078125 55.328125 
Q 55.078125 49.078125 51.53125 44.71875 
Q 48 40.375 41.703125 38.8125 
Q 48.828125 37.15625 52.796875 32.3125 
Q 56.78125 27.484375 56.78125 20.515625 
Q 56.78125 9.90625 50.3125 4.234375 
Q 43.84375 -1.421875 31.78125 -1.421875 
Q 19.734375 -1.421875 13.25 4.234375 
Q 6.78125 9.90625 6.78125 20.515625 
Q 6.78125 27.484375 10.78125 32.3125 
Q 14.796875 37.15625 21.921875 38.8125 
z
M 18.3125 54.390625 
Q 18.3125 48.734375 21.84375 45.5625 
Q 25.390625 42.390625 31.78125 42.390625 
Q 38.140625 42.390625 41.71875 45.5625 
Q 45.3125 48.734375 45.3125 54.390625 
Q 45.3125 60.0625 41.71875 63.234375 
Q 38.140625 66.40625 31.78125 66.40625 
Q 25.390625 66.40625 21.84375 63.234375 
Q 18.3125 60.0625 18.3125 54.390625 
z
" id="DejaVuSans-38"/>
      </defs>
      <g transform="translate(149.870455 199.996563)scale(0.1 -0.1)">
       <use xlink:href="#DejaVuSans-30"/>
       <use x="63.623047" xlink:href="#DejaVuSans-31"/>
       <use x="127.246094" xlink:href="#DejaVuSans-2d"/>
       <use x="163.330078" xlink:href="#DejaVuSans-30"/>
       <use x="226.953125" xlink:href="#DejaVuSans-36"/>
       <use x="290.576172" xlink:href="#DejaVuSans-20"/>
       <use x="322.363281" xlink:href="#DejaVuSans-30"/>
       <use x="385.986328" xlink:href="#DejaVuSans-38"/>
      </g>
     </g>
    </g>
    <g id="xtick_5">
     <g id="line2d_5">
      <g>
       <use style="stroke:#000000;stroke-width:0.8;" x="219.907741" xlink:href="#mf6941de317" y="185.398125"/>
      </g>
     </g>
     <g id="text_5">
      <!-- 01-06 11 -->
      <g transform="translate(197.427273 199.996563)scale(0.1 -0.1)">
       <use xlink:href="#DejaVuSans-30"/>
       <use x="63.623047" xlink:href="#DejaVuSans-31"/>
       <use x="127.246094" xlink:href="#DejaVuSans-2d"/>
       <use x="163.330078" xlink:href="#DejaVuSans-30"/>
       <use x="226.953125" xlink:href="#DejaVuSans-36"/>
       <use x="290.576172" xlink:href="#DejaVuSans-20"/>
       <use x="322.363281" xlink:href="#DejaVuSans-31"/>
       <use x="385.986328" xlink:href="#DejaVuSans-31"/>
      </g>
     </g>
    </g>
    <g id="xtick_6">
     <g id="line2d_6">
      <g>
       <use style="stroke:#000000;stroke-width:0.8;" x="267.46456" xlink:href="#mf6941de317" y="185.398125"/>
      </g>
     </g>
     <g id="text_6">
      <!-- 01-06 14 -->
      <defs>
       <path d="M 37.796875 64.3125 
L 12.890625 25.390625 
L 37.796875 25.390625 
z
M 35.203125 72.90625 
L 47.609375 72.90625 
L 47.609375 25.390625 
L 58.015625 25.390625 
L 58.015625 17.1875 
L 47.609375 17.1875 
L 47.609375 0 
L 37.796875 0 
L 37.796875 17.1875 
L 4.890625 17.1875 
L 4.890625 26.703125 
z
" id="DejaVuSans-34"/>
      </defs>
      <g transform="translate(244.984091 199.996563)scale(0.1 -0.1)">
       <use xlink:href="#DejaVuSans-30"/>
       <use x="63.623047" xlink:href="#DejaVuSans-31"/>
       <use x="127.246094" xlink:href="#DejaVuSans-2d"/>
       <use x="163.330078" xlink:href="#DejaVuSans-30"/>
       <use x="226.953125" xlink:href="#DejaVuSans-36"/>
       <use x="290.576172" xlink:href="#DejaVuSans-20"/>
       <use x="322.363281" xlink:href="#DejaVuSans-31"/>
       <use x="385.986328" xlink:href="#DejaVuSans-34"/>
      </g>
     </g>
    </g>
    <g id="xtick_7">
     <g id="line2d_7">
      <g>
       <use style="stroke:#000000;stroke-width:0.8;" x="315.021378" xlink:href="#mf6941de317" y="185.398125"/>
      </g>
     </g>
     <g id="text_7">
      <!-- 01-06 17 -->
      <defs>
       <path d="M 8.203125 72.90625 
L 55.078125 72.90625 
L 55.078125 68.703125 
L 28.609375 0 
L 18.3125 0 
L 43.21875 64.59375 
L 8.203125 64.59375 
z
" id="DejaVuSans-37"/>
      </defs>
      <g transform="translate(292.540909 199.996563)scale(0.1 -0.1)">
       <use xlink:href="#DejaVuSans-30"/>
       <use x="63.623047" xlink:href="#DejaVuSans-31"/>
       <use x="127.246094" xlink:href="#DejaVuSans-2d"/>
       <use x="163.330078" xlink:href="#DejaVuSans-30"/>
       <use x="226.953125" xlink:href="#DejaVuSans-36"/>
       <use x="290.576172" xlink:href="#DejaVuSans-20"/>
       <use x="322.363281" xlink:href="#DejaVuSans-31"/>
       <use x="385.986328" xlink:href="#DejaVuSans-37"/>
      </g>
     </g>
    </g>
    <g id="xtick_8">
     <g id="line2d_8">
      <g>
       <use style="stroke:#000000;stroke-width:0.8;" x="362.578196" xlink:href="#mf6941de317" y="185.398125"/>
      </g>
     </g>
     <g id="text_8">
      <!-- 01-06 20 -->
      <g transform="translate(340.097727 199.996563)scale(0.1 -0.1)">
       <use xlink:href="#DejaVuSans-30"/>
       <use x="63.623047" xlink:href="#DejaVuSans-31"/>
       <use x="127.246094" xlink:href="#DejaVuSans-2d"/>
       <use x="163.330078" xlink:href="#DejaVuSans-30"/>
       <use x="226.953125" xlink:href="#DejaVuSans-36"/>
       <use x="290.576172" xlink:href="#DejaVuSans-20"/>
       <use x="322.363281" xlink:href="#DejaVuSans-32"/>
       <use x="385.986328" xlink:href="#DejaVuSans-30"/>
      </g>
     </g>
    </g>
    <g id="xtick_9">
     <g id="line2d_9">
      <g>
       <use style="stroke:#000000;stroke-width:0.8;" x="410.135014" xlink:href="#mf6941de317" y="185.398125"/>
      </g>
     </g>
     <g id="text_9">
      <!-- 01-06 23 -->
      <g transform="translate(387.654545 199.996563)scale(0.1 -0.1)">
       <use xlink:href="#DejaVuSans-30"/>
       <use x="63.623047" xlink:href="#DejaVuSans-31"/>
       <use x="127.246094" xlink:href="#DejaVuSans-2d"/>
       <use x="163.330078" xlink:href="#DejaVuSans-30"/>
       <use x="226.953125" xlink:href="#DejaVuSans-36"/>
       <use x="290.576172" xlink:href="#DejaVuSans-20"/>
       <use x="322.363281" xlink:href="#DejaVuSans-32"/>
       <use x="385.986328" xlink:href="#DejaVuSans-33"/>
      </g>
     </g>
    </g>
   </g>
   <g id="matplotlib.axis_2">
    <g id="ytick_1">
     <g id="line2d_10">
      <defs>
       <path d="M 0 0 
L -3.5 0 
" id="mc703601494" style="stroke:#000000;stroke-width:0.8;"/>
      </defs>
      <g>
       <use style="stroke:#000000;stroke-width:0.8;" x="26.510014" xlink:href="#mc703601494" y="151.318698"/>
      </g>
     </g>
     <g id="text_10">
      <!-- 1 -->
      <g transform="translate(13.147514 155.117917)scale(0.1 -0.1)">
       <use xlink:href="#DejaVuSans-31"/>
      </g>
     </g>
    </g>
    <g id="ytick_2">
     <g id="line2d_11">
      <g>
       <use style="stroke:#000000;stroke-width:0.8;" x="26.510014" xlink:href="#mc703601494" y="112.096512"/>
      </g>
     </g>
     <g id="text_11">
      <!-- 2 -->
      <g transform="translate(13.147514 115.895731)scale(0.1 -0.1)">
       <use xlink:href="#DejaVuSans-32"/>
      </g>
     </g>
    </g>
    <g id="ytick_3">
     <g id="line2d_12">
      <g>
       <use style="stroke:#000000;stroke-width:0.8;" x="26.510014" xlink:href="#mc703601494" y="72.874326"/>
      </g>
     </g>
     <g id="text_12">
      <!-- 3 -->
      <g transform="translate(13.147514 76.673545)scale(0.1 -0.1)">
       <use xlink:href="#DejaVuSans-33"/>
      </g>
     </g>
    </g>
    <g id="ytick_4">
     <g id="line2d_13">
      <g>
       <use style="stroke:#000000;stroke-width:0.8;" x="26.510014" xlink:href="#mc703601494" y="33.65214"/>
      </g>
     </g>
     <g id="text_13">
      <!-- 4 -->
      <g transform="translate(13.147514 37.451359)scale(0.1 -0.1)">
       <use xlink:href="#DejaVuSans-34"/>
      </g>
     </g>
    </g>
   </g>
   <g id="line2d_14">
    <path clip-path="url(#p1f932de445)" d="M 45.532741 170.548162 
L 61.385014 174.358575 
L 77.237287 177.985398 
L 93.08956 177.484647 
L 108.941832 171.577123 
L 124.794105 159.511662 
L 140.646378 144.000269 
L 156.49865 134.827773 
L 172.350923 130.341595 
L 188.203196 128.705492 
L 204.055469 129.411155 
L 219.907741 132.466402 
L 235.760014 133.087323 
L 251.612287 132.336877 
L 267.46456 136.269509 
L 283.316832 137.52905 
L 299.169105 133.487414 
L 315.021378 130.46564 
L 330.87365 125.330226 
L 346.725923 118.411163 
L 362.578196 115.847023 
L 378.430469 107.64377 
L 394.282741 100.868708 
L 410.135014 95.745936 
L 425.987287 88.28389 
" style="fill:none;stroke:#1f77b4;stroke-linecap:square;stroke-width:1.5;"/>
    <defs>
     <path d="M 0 3 
C 0.795609 3 1.55874 2.683901 2.12132 2.12132 
C 2.683901 1.55874 3 0.795609 3 0 
C 3 -0.795609 2.683901 -1.55874 2.12132 -2.12132 
C 1.55874 -2.683901 0.795609 -3 0 -3 
C -0.795609 -3 -1.55874 -2.683901 -2.12132 -2.12132 
C -2.683901 -1.55874 -3 -0.795609 -3 0 
C -3 0.795609 -2.683901 1.55874 -2.12132 2.12132 
C -1.55874 2.683901 -0.795609 3 0 3 
z
" id="m6dc1938ba0" style="stroke:#1f77b4;"/>
    </defs>
    <g clip-path="url(#p1f932de445)">
     <use style="fill:#1f77b4;stroke:#1f77b4;" x="45.532741" xlink:href="#m6dc1938ba0" y="170.548162"/>
     <use style="fill:#1f77b4;stroke:#1f77b4;" x="61.385014" xlink:href="#m6dc1938ba0" y="174.358575"/>
     <use style="fill:#1f77b4;stroke:#1f77b4;" x="77.237287" xlink:href="#m6dc1938ba0" y="177.985398"/>
     <use style="fill:#1f77b4;stroke:#1f77b4;" x="93.08956" xlink:href="#m6dc1938ba0" y="177.484647"/>
     <use style="fill:#1f77b4;stroke:#1f77b4;" x="108.941832" xlink:href="#m6dc1938ba0" y="171.577123"/>
     <use style="fill:#1f77b4;stroke:#1f77b4;" x="124.794105" xlink:href="#m6dc1938ba0" y="159.511662"/>
     <use style="fill:#1f77b4;stroke:#1f77b4;" x="140.646378" xlink:href="#m6dc1938ba0" y="144.000269"/>
     <use style="fill:#1f77b4;stroke:#1f77b4;" x="156.49865" xlink:href="#m6dc1938ba0" y="134.827773"/>
     <use style="fill:#1f77b4;stroke:#1f77b4;" x="172.350923" xlink:href="#m6dc1938ba0" y="130.341595"/>
     <use style="fill:#1f77b4;stroke:#1f77b4;" x="188.203196" xlink:href="#m6dc1938ba0" y="128.705492"/>
     <use style="fill:#1f77b4;stroke:#1f77b4;" x="204.055469" xlink:href="#m6dc1938ba0" y="129.411155"/>
     <use style="fill:#1f77b4;stroke:#1f77b4;" x="219.907741" xlink:href="#m6dc1938ba0" y="132.466402"/>
     <use style="fill:#1f77b4;stroke:#1f77b4;" x="235.760014" xlink:href="#m6dc1938ba0" y="133.087323"/>
     <use style="fill:#1f77b4;stroke:#1f77b4;" x="251.612287" xlink:href="#m6dc1938ba0" y="132.336877"/>
     <use style="fill:#1f77b4;stroke:#1f77b4;" x="267.46456" xlink:href="#m6dc1938ba0" y="136.269509"/>
     <use style="fill:#1f77b4;stroke:#1f77b4;" x="283.316832" xlink:href="#m6dc1938ba0" y="137.52905"/>
     <use style="fill:#1f77b4;stroke:#1f77b4;" x="299.169105" xlink:href="#m6dc1938ba0" y="133.487414"/>
     <use style="fill:#1f77b4;stroke:#1f77b4;" x="315.021378" xlink:href="#m6dc1938ba0" y="130.46564"/>
     <use style="fill:#1f77b4;stroke:#1f77b4;" x="330.87365" xlink:href="#m6dc1938ba0" y="125.330226"/>
     <use style="fill:#1f77b4;stroke:#1f77b4;" x="346.725923" xlink:href="#m6dc1938ba0" y="118.411163"/>
     <use style="fill:#1f77b4;stroke:#1f77b4;" x="362.578196" xlink:href="#m6dc1938ba0" y="115.847023"/>
     <use style="fill:#1f77b4;stroke:#1f77b4;" x="378.430469" xlink:href="#m6dc1938ba0" y="107.64377"/>
     <use style="fill:#1f77b4;stroke:#1f77b4;" x="394.282741" xlink:href="#m6dc1938ba0" y="100.868708"/>
     <use style="fill:#1f77b4;stroke:#1f77b4;" x="410.135014" xlink:href="#m6dc1938ba0" y="95.745936"/>
     <use style="fill:#1f77b4;stroke:#1f77b4;" x="425.987287" xlink:href="#m6dc1938ba0" y="88.28389"/>
    </g>
   </g>
   <g id="line2d_15">
    <path clip-path="url(#p1f932de445)" d="M 45.532741 162.623318 
L 53.458878 162.623318 
L 53.458878 162.623318 
L 69.311151 162.623318 
L 69.311151 162.623318 
L 85.163423 162.623318 
L 85.163423 162.623318 
L 101.015696 162.623318 
L 101.015696 162.623318 
L 116.867969 162.623318 
L 116.867969 162.623318 
L 132.720241 162.623318 
L 132.720241 134.076718 
L 148.572514 134.076718 
L 148.572514 134.076718 
L 164.424787 134.076718 
L 164.424787 134.076718 
L 180.27706 134.076718 
L 180.27706 134.076718 
L 196.129332 134.076718 
L 196.129332 134.076718 
L 211.981605 134.076718 
L 211.981605 134.076718 
L 227.833878 134.076718 
L 227.833878 134.076718 
L 243.68615 134.076718 
L 243.68615 134.076718 
L 259.538423 134.076718 
L 259.538423 134.076718 
L 275.390696 134.076718 
L 275.390696 134.076718 
L 291.242969 134.076718 
L 291.242969 134.076718 
L 307.095241 134.076718 
L 307.095241 134.076718 
L 322.947514 134.076718 
L 322.947514 134.076718 
L 338.799787 134.076718 
L 338.799787 108.058679 
L 354.65206 108.058679 
L 354.65206 108.058679 
L 370.504332 108.058679 
L 370.504332 108.058679 
L 386.356605 108.058679 
L 386.356605 108.058679 
L 402.208878 108.058679 
L 402.208878 108.058679 
L 418.061151 108.058679 
L 418.061151 82.292343 
L 425.987287 82.292343 
" style="fill:none;stroke:#ff7f0e;stroke-linecap:square;stroke-width:1.5;"/>
   </g>
   <g id="line2d_16">
    <path clip-path="url(#p1f932de445)" d="M 26.510014 147.261239 
L 445.010014 147.261239 
" style="fill:none;stroke:#808080;stroke-dasharray:3.7,1.6;stroke-dashoffset:0;"/>
   </g>
   <g id="line2d_17">
    <path clip-path="url(#p1f932de445)" d="M 26.510014 120.892198 
L 445.010014 120.892198 
" style="fill:none;stroke:#808080;stroke-dasharray:3.7,1.6;stroke-dashoffset:0;"/>
   </g>
   <g id="line2d_18">
    <path clip-path="url(#p1f932de445)" d="M 26.510014 95.225161 
L 445.010014 95.225161 
" style="fill:none;stroke:#808080;stroke-dasharray:3.7,1.6;stroke-dashoffset:0;"/>
   </g>
   <g id="line2d_19">
    <path clip-path="url(#p1f932de445)" d="M 26.510014 69.359524 
L 445.010014 69.359524 
" style="fill:none;stroke:#808080;stroke-dasharray:3.7,1.6;stroke-dashoffset:0;"/>
   </g>
   <g id="line2d_20">
    <path clip-path="url(#p1f932de445)" d="M 26.510014 47.723007 
L 445.010014 47.723007 
" style="fill:none;stroke:#808080;stroke-dasharray:3.7,1.6;stroke-dashoffset:0;"/>
   </g>
   <g id="line2d_21">
    <path clip-path="url(#p1f932de445)" d="M 26.510014 29.730852 
L 445.010014 29.730852 
" style="fill:none;stroke:#808080;stroke-dasharray:3.7,1.6;stroke-dashoffset:0;"/>
   </g>
   <g id="patch_3">
    <path d="M 26.510014 185.398125 
L 26.510014 22.318125 
" style="fill:none;stroke:#000000;stroke-linecap:square;stroke-linejoin:miter;stroke-width:0.8;"/>
   </g>
   <g id="patch_4">
    <path d="M 445.010014 185.398125 
L 445.010014 22.318125 
" style="fill:none;stroke:#000000;stroke-linecap:square;stroke-linejoin:miter;stroke-width:0.8;"/>
   </g>
   <g id="patch_5">
    <path d="M 26.510014 185.398125 
L 445.010014 185.398125 
" style="fill:none;stroke:#000000;stroke-linecap:square;stroke-linejoin:miter;stroke-width:0.8;"/>
   </g>
   <g id="patch_6">
    <path d="M 26.510014 22.318125 
L 445.010014 22.318125 
" style="fill:none;stroke:#000000;stroke-linecap:square;stroke-linejoin:miter;stroke-width:0.8;"/>
   </g>
   <g id="text_14">
    <!-- Discritization of L_T1 values into 7 percentiles -->
    <defs>
     <path d="M 19.671875 64.796875 
L 19.671875 8.109375 
L 31.59375 8.109375 
Q 46.6875 8.109375 53.6875 14.9375 
Q 60.6875 21.78125 60.6875 36.53125 
Q 60.6875 51.171875 53.6875 57.984375 
Q 46.6875 64.796875 31.59375 64.796875 
z
M 9.8125 72.90625 
L 30.078125 72.90625 
Q 51.265625 72.90625 61.171875 64.09375 
Q 71.09375 55.28125 71.09375 36.53125 
Q 71.09375 17.671875 61.125 8.828125 
Q 51.171875 0 30.078125 0 
L 9.8125 0 
z
" id="DejaVuSans-44"/>
     <path d="M 9.421875 54.6875 
L 18.40625 54.6875 
L 18.40625 0 
L 9.421875 0 
z
M 9.421875 75.984375 
L 18.40625 75.984375 
L 18.40625 64.59375 
L 9.421875 64.59375 
z
" id="DejaVuSans-69"/>
     <path d="M 44.28125 53.078125 
L 44.28125 44.578125 
Q 40.484375 46.53125 36.375 47.5 
Q 32.28125 48.484375 27.875 48.484375 
Q 21.1875 48.484375 17.84375 46.4375 
Q 14.5 44.390625 14.5 40.28125 
Q 14.5 37.15625 16.890625 35.375 
Q 19.28125 33.59375 26.515625 31.984375 
L 29.59375 31.296875 
Q 39.15625 29.25 43.1875 25.515625 
Q 47.21875 21.78125 47.21875 15.09375 
Q 47.21875 7.46875 41.1875 3.015625 
Q 35.15625 -1.421875 24.609375 -1.421875 
Q 20.21875 -1.421875 15.453125 -0.5625 
Q 10.6875 0.296875 5.421875 2 
L 5.421875 11.28125 
Q 10.40625 8.6875 15.234375 7.390625 
Q 20.0625 6.109375 24.8125 6.109375 
Q 31.15625 6.109375 34.5625 8.28125 
Q 37.984375 10.453125 37.984375 14.40625 
Q 37.984375 18.0625 35.515625 20.015625 
Q 33.0625 21.96875 24.703125 23.78125 
L 21.578125 24.515625 
Q 13.234375 26.265625 9.515625 29.90625 
Q 5.8125 33.546875 5.8125 39.890625 
Q 5.8125 47.609375 11.28125 51.796875 
Q 16.75 56 26.8125 56 
Q 31.78125 56 36.171875 55.265625 
Q 40.578125 54.546875 44.28125 53.078125 
z
" id="DejaVuSans-73"/>
     <path d="M 48.78125 52.59375 
L 48.78125 44.1875 
Q 44.96875 46.296875 41.140625 47.34375 
Q 37.3125 48.390625 33.40625 48.390625 
Q 24.65625 48.390625 19.8125 42.84375 
Q 14.984375 37.3125 14.984375 27.296875 
Q 14.984375 17.28125 19.8125 11.734375 
Q 24.65625 6.203125 33.40625 6.203125 
Q 37.3125 6.203125 41.140625 7.25 
Q 44.96875 8.296875 48.78125 10.40625 
L 48.78125 2.09375 
Q 45.015625 0.34375 40.984375 -0.53125 
Q 36.96875 -1.421875 32.421875 -1.421875 
Q 20.0625 -1.421875 12.78125 6.34375 
Q 5.515625 14.109375 5.515625 27.296875 
Q 5.515625 40.671875 12.859375 48.328125 
Q 20.21875 56 33.015625 56 
Q 37.15625 56 41.109375 55.140625 
Q 45.0625 54.296875 48.78125 52.59375 
z
" id="DejaVuSans-63"/>
     <path d="M 41.109375 46.296875 
Q 39.59375 47.171875 37.8125 47.578125 
Q 36.03125 48 33.890625 48 
Q 26.265625 48 22.1875 43.046875 
Q 18.109375 38.09375 18.109375 28.8125 
L 18.109375 0 
L 9.078125 0 
L 9.078125 54.6875 
L 18.109375 54.6875 
L 18.109375 46.1875 
Q 20.953125 51.171875 25.484375 53.578125 
Q 30.03125 56 36.53125 56 
Q 37.453125 56 38.578125 55.875 
Q 39.703125 55.765625 41.0625 55.515625 
z
" id="DejaVuSans-72"/>
     <path d="M 18.3125 70.21875 
L 18.3125 54.6875 
L 36.8125 54.6875 
L 36.8125 47.703125 
L 18.3125 47.703125 
L 18.3125 18.015625 
Q 18.3125 11.328125 20.140625 9.421875 
Q 21.96875 7.515625 27.59375 7.515625 
L 36.8125 7.515625 
L 36.8125 0 
L 27.59375 0 
Q 17.1875 0 13.234375 3.875 
Q 9.28125 7.765625 9.28125 18.015625 
L 9.28125 47.703125 
L 2.6875 47.703125 
L 2.6875 54.6875 
L 9.28125 54.6875 
L 9.28125 70.21875 
z
" id="DejaVuSans-74"/>
     <path d="M 5.515625 54.6875 
L 48.1875 54.6875 
L 48.1875 46.484375 
L 14.40625 7.171875 
L 48.1875 7.171875 
L 48.1875 0 
L 4.296875 0 
L 4.296875 8.203125 
L 38.09375 47.515625 
L 5.515625 47.515625 
z
" id="DejaVuSans-7a"/>
     <path d="M 34.28125 27.484375 
Q 23.390625 27.484375 19.1875 25 
Q 14.984375 22.515625 14.984375 16.5 
Q 14.984375 11.71875 18.140625 8.90625 
Q 21.296875 6.109375 26.703125 6.109375 
Q 34.1875 6.109375 38.703125 11.40625 
Q 43.21875 16.703125 43.21875 25.484375 
L 43.21875 27.484375 
z
M 52.203125 31.203125 
L 52.203125 0 
L 43.21875 0 
L 43.21875 8.296875 
Q 40.140625 3.328125 35.546875 0.953125 
Q 30.953125 -1.421875 24.3125 -1.421875 
Q 15.921875 -1.421875 10.953125 3.296875 
Q 6 8.015625 6 15.921875 
Q 6 25.140625 12.171875 29.828125 
Q 18.359375 34.515625 30.609375 34.515625 
L 43.21875 34.515625 
L 43.21875 35.40625 
Q 43.21875 41.609375 39.140625 45 
Q 35.0625 48.390625 27.6875 48.390625 
Q 23 48.390625 18.546875 47.265625 
Q 14.109375 46.140625 10.015625 43.890625 
L 10.015625 52.203125 
Q 14.9375 54.109375 19.578125 55.046875 
Q 24.21875 56 28.609375 56 
Q 40.484375 56 46.34375 49.84375 
Q 52.203125 43.703125 52.203125 31.203125 
z
" id="DejaVuSans-61"/>
     <path d="M 30.609375 48.390625 
Q 23.390625 48.390625 19.1875 42.75 
Q 14.984375 37.109375 14.984375 27.296875 
Q 14.984375 17.484375 19.15625 11.84375 
Q 23.34375 6.203125 30.609375 6.203125 
Q 37.796875 6.203125 41.984375 11.859375 
Q 46.1875 17.53125 46.1875 27.296875 
Q 46.1875 37.015625 41.984375 42.703125 
Q 37.796875 48.390625 30.609375 48.390625 
z
M 30.609375 56 
Q 42.328125 56 49.015625 48.375 
Q 55.71875 40.765625 55.71875 27.296875 
Q 55.71875 13.875 49.015625 6.21875 
Q 42.328125 -1.421875 30.609375 -1.421875 
Q 18.84375 -1.421875 12.171875 6.21875 
Q 5.515625 13.875 5.515625 27.296875 
Q 5.515625 40.765625 12.171875 48.375 
Q 18.84375 56 30.609375 56 
z
" id="DejaVuSans-6f"/>
     <path d="M 54.890625 33.015625 
L 54.890625 0 
L 45.90625 0 
L 45.90625 32.71875 
Q 45.90625 40.484375 42.875 44.328125 
Q 39.84375 48.1875 33.796875 48.1875 
Q 26.515625 48.1875 22.3125 43.546875 
Q 18.109375 38.921875 18.109375 30.90625 
L 18.109375 0 
L 9.078125 0 
L 9.078125 54.6875 
L 18.109375 54.6875 
L 18.109375 46.1875 
Q 21.34375 51.125 25.703125 53.5625 
Q 30.078125 56 35.796875 56 
Q 45.21875 56 50.046875 50.171875 
Q 54.890625 44.34375 54.890625 33.015625 
z
" id="DejaVuSans-6e"/>
     <path d="M 37.109375 75.984375 
L 37.109375 68.5 
L 28.515625 68.5 
Q 23.6875 68.5 21.796875 66.546875 
Q 19.921875 64.59375 19.921875 59.515625 
L 19.921875 54.6875 
L 34.71875 54.6875 
L 34.71875 47.703125 
L 19.921875 47.703125 
L 19.921875 0 
L 10.890625 0 
L 10.890625 47.703125 
L 2.296875 47.703125 
L 2.296875 54.6875 
L 10.890625 54.6875 
L 10.890625 58.5 
Q 10.890625 67.625 15.140625 71.796875 
Q 19.390625 75.984375 28.609375 75.984375 
z
" id="DejaVuSans-66"/>
     <path d="M 9.8125 72.90625 
L 19.671875 72.90625 
L 19.671875 8.296875 
L 55.171875 8.296875 
L 55.171875 0 
L 9.8125 0 
z
" id="DejaVuSans-4c"/>
     <path d="M 50.984375 -16.609375 
L 50.984375 -23.578125 
L -0.984375 -23.578125 
L -0.984375 -16.609375 
z
" id="DejaVuSans-5f"/>
     <path d="M -0.296875 72.90625 
L 61.375 72.90625 
L 61.375 64.59375 
L 35.5 64.59375 
L 35.5 0 
L 25.59375 0 
L 25.59375 64.59375 
L -0.296875 64.59375 
z
" id="DejaVuSans-54"/>
     <path d="M 2.984375 54.6875 
L 12.5 54.6875 
L 29.59375 8.796875 
L 46.6875 54.6875 
L 56.203125 54.6875 
L 35.6875 0 
L 23.484375 0 
z
" id="DejaVuSans-76"/>
     <path d="M 9.421875 75.984375 
L 18.40625 75.984375 
L 18.40625 0 
L 9.421875 0 
z
" id="DejaVuSans-6c"/>
     <path d="M 8.5 21.578125 
L 8.5 54.6875 
L 17.484375 54.6875 
L 17.484375 21.921875 
Q 17.484375 14.15625 20.5 10.265625 
Q 23.53125 6.390625 29.59375 6.390625 
Q 36.859375 6.390625 41.078125 11.03125 
Q 45.3125 15.671875 45.3125 23.6875 
L 45.3125 54.6875 
L 54.296875 54.6875 
L 54.296875 0 
L 45.3125 0 
L 45.3125 8.40625 
Q 42.046875 3.421875 37.71875 1 
Q 33.40625 -1.421875 27.6875 -1.421875 
Q 18.265625 -1.421875 13.375 4.4375 
Q 8.5 10.296875 8.5 21.578125 
z
M 31.109375 56 
z
" id="DejaVuSans-75"/>
     <path d="M 56.203125 29.59375 
L 56.203125 25.203125 
L 14.890625 25.203125 
Q 15.484375 15.921875 20.484375 11.0625 
Q 25.484375 6.203125 34.421875 6.203125 
Q 39.59375 6.203125 44.453125 7.46875 
Q 49.3125 8.734375 54.109375 11.28125 
L 54.109375 2.78125 
Q 49.265625 0.734375 44.1875 -0.34375 
Q 39.109375 -1.421875 33.890625 -1.421875 
Q 20.796875 -1.421875 13.15625 6.1875 
Q 5.515625 13.8125 5.515625 26.8125 
Q 5.515625 40.234375 12.765625 48.109375 
Q 20.015625 56 32.328125 56 
Q 43.359375 56 49.78125 48.890625 
Q 56.203125 41.796875 56.203125 29.59375 
z
M 47.21875 32.234375 
Q 47.125 39.59375 43.09375 43.984375 
Q 39.0625 48.390625 32.421875 48.390625 
Q 24.90625 48.390625 20.390625 44.140625 
Q 15.875 39.890625 15.1875 32.171875 
z
" id="DejaVuSans-65"/>
     <path d="M 18.109375 8.203125 
L 18.109375 -20.796875 
L 9.078125 -20.796875 
L 9.078125 54.6875 
L 18.109375 54.6875 
L 18.109375 46.390625 
Q 20.953125 51.265625 25.265625 53.625 
Q 29.59375 56 35.59375 56 
Q 45.5625 56 51.78125 48.09375 
Q 58.015625 40.1875 58.015625 27.296875 
Q 58.015625 14.40625 51.78125 6.484375 
Q 45.5625 -1.421875 35.59375 -1.421875 
Q 29.59375 -1.421875 25.265625 0.953125 
Q 20.953125 3.328125 18.109375 8.203125 
z
M 48.6875 27.296875 
Q 48.6875 37.203125 44.609375 42.84375 
Q 40.53125 48.484375 33.40625 48.484375 
Q 26.265625 48.484375 22.1875 42.84375 
Q 18.109375 37.203125 18.109375 27.296875 
Q 18.109375 17.390625 22.1875 11.75 
Q 26.265625 6.109375 33.40625 6.109375 
Q 40.53125 6.109375 44.609375 11.75 
Q 48.6875 17.390625 48.6875 27.296875 
z
" id="DejaVuSans-70"/>
    </defs>
    <g transform="translate(97.439389 16.318125)scale(0.12 -0.12)">
     <use xlink:href="#DejaVuSans-44"/>
     <use x="77.001953" xlink:href="#DejaVuSans-69"/>
     <use x="104.785156" xlink:href="#DejaVuSans-73"/>
     <use x="156.884766" xlink:href="#DejaVuSans-63"/>
     <use x="211.865234" xlink:href="#DejaVuSans-72"/>
     <use x="252.978516" xlink:href="#DejaVuSans-69"/>
     <use x="280.761719" xlink:href="#DejaVuSans-74"/>
     <use x="319.970703" xlink:href="#DejaVuSans-69"/>
     <use x="347.753906" xlink:href="#DejaVuSans-7a"/>
     <use x="400.244141" xlink:href="#DejaVuSans-61"/>
     <use x="461.523438" xlink:href="#DejaVuSans-74"/>
     <use x="500.732422" xlink:href="#DejaVuSans-69"/>
     <use x="528.515625" xlink:href="#DejaVuSans-6f"/>
     <use x="589.697266" xlink:href="#DejaVuSans-6e"/>
     <use x="653.076172" xlink:href="#DejaVuSans-20"/>
     <use x="684.863281" xlink:href="#DejaVuSans-6f"/>
     <use x="746.044922" xlink:href="#DejaVuSans-66"/>
     <use x="781.25" xlink:href="#DejaVuSans-20"/>
     <use x="813.037109" xlink:href="#DejaVuSans-4c"/>
     <use x="868.75" xlink:href="#DejaVuSans-5f"/>
     <use x="918.75" xlink:href="#DejaVuSans-54"/>
     <use x="979.833984" xlink:href="#DejaVuSans-31"/>
     <use x="1043.457031" xlink:href="#DejaVuSans-20"/>
     <use x="1075.244141" xlink:href="#DejaVuSans-76"/>
     <use x="1134.423828" xlink:href="#DejaVuSans-61"/>
     <use x="1195.703125" xlink:href="#DejaVuSans-6c"/>
     <use x="1223.486328" xlink:href="#DejaVuSans-75"/>
     <use x="1286.865234" xlink:href="#DejaVuSans-65"/>
     <use x="1348.388672" xlink:href="#DejaVuSans-73"/>
     <use x="1400.488281" xlink:href="#DejaVuSans-20"/>
     <use x="1432.275391" xlink:href="#DejaVuSans-69"/>
     <use x="1460.058594" xlink:href="#DejaVuSans-6e"/>
     <use x="1523.4375" xlink:href="#DejaVuSans-74"/>
     <use x="1562.646484" xlink:href="#DejaVuSans-6f"/>
     <use x="1623.828125" xlink:href="#DejaVuSans-20"/>
     <use x="1655.615234" xlink:href="#DejaVuSans-37"/>
     <use x="1719.238281" xlink:href="#DejaVuSans-20"/>
     <use x="1751.025391" xlink:href="#DejaVuSans-70"/>
     <use x="1814.501953" xlink:href="#DejaVuSans-65"/>
     <use x="1876.025391" xlink:href="#DejaVuSans-72"/>
     <use x="1917.107422" xlink:href="#DejaVuSans-63"/>
     <use x="1972.087891" xlink:href="#DejaVuSans-65"/>
     <use x="2033.611328" xlink:href="#DejaVuSans-6e"/>
     <use x="2096.990234" xlink:href="#DejaVuSans-74"/>
     <use x="2136.199219" xlink:href="#DejaVuSans-69"/>
     <use x="2163.982422" xlink:href="#DejaVuSans-6c"/>
     <use x="2191.765625" xlink:href="#DejaVuSans-65"/>
     <use x="2253.289062" xlink:href="#DejaVuSans-73"/>
    </g>
   </g>
   <g id="legend_1">
    <g id="patch_7">
     <path d="M 304.955327 74.90875 
L 438.010014 74.90875 
Q 440.010014 74.90875 440.010014 72.90875 
L 440.010014 29.318125 
Q 440.010014 27.318125 438.010014 27.318125 
L 304.955327 27.318125 
Q 302.955327 27.318125 302.955327 29.318125 
L 302.955327 72.90875 
Q 302.955327 74.90875 304.955327 74.90875 
z
" style="fill:#ffffff;opacity:0.8;stroke:#cccccc;stroke-linejoin:miter;"/>
    </g>
    <g id="line2d_22">
     <path d="M 306.955327 35.416562 
L 326.955327 35.416562 
" style="fill:none;stroke:#1f77b4;stroke-linecap:square;stroke-width:1.5;"/>
    </g>
    <g id="line2d_23">
     <g>
      <use style="fill:#1f77b4;stroke:#1f77b4;" x="316.955327" xlink:href="#m6dc1938ba0" y="35.416562"/>
     </g>
    </g>
    <g id="text_15">
     <!-- L_T1 -->
     <g transform="translate(334.955327 38.916562)scale(0.1 -0.1)">
      <use xlink:href="#DejaVuSans-4c"/>
      <use x="55.712891" xlink:href="#DejaVuSans-5f"/>
      <use x="105.712891" xlink:href="#DejaVuSans-54"/>
      <use x="166.796875" xlink:href="#DejaVuSans-31"/>
     </g>
    </g>
    <g id="line2d_24">
     <path d="M 306.955327 50.372813 
L 326.955327 50.372813 
" style="fill:none;stroke:#ff7f0e;stroke-linecap:square;stroke-width:1.5;"/>
    </g>
    <g id="line2d_25"/>
    <g id="text_16">
     <!-- L_T1 (discretized) -->
     <defs>
      <path d="M 31 75.875 
Q 24.46875 64.65625 21.28125 53.65625 
Q 18.109375 42.671875 18.109375 31.390625 
Q 18.109375 20.125 21.3125 9.0625 
Q 24.515625 -2 31 -13.1875 
L 23.1875 -13.1875 
Q 15.875 -1.703125 12.234375 9.375 
Q 8.59375 20.453125 8.59375 31.390625 
Q 8.59375 42.28125 12.203125 53.3125 
Q 15.828125 64.359375 23.1875 75.875 
z
" id="DejaVuSans-28"/>
      <path d="M 45.40625 46.390625 
L 45.40625 75.984375 
L 54.390625 75.984375 
L 54.390625 0 
L 45.40625 0 
L 45.40625 8.203125 
Q 42.578125 3.328125 38.25 0.953125 
Q 33.9375 -1.421875 27.875 -1.421875 
Q 17.96875 -1.421875 11.734375 6.484375 
Q 5.515625 14.40625 5.515625 27.296875 
Q 5.515625 40.1875 11.734375 48.09375 
Q 17.96875 56 27.875 56 
Q 33.9375 56 38.25 53.625 
Q 42.578125 51.265625 45.40625 46.390625 
z
M 14.796875 27.296875 
Q 14.796875 17.390625 18.875 11.75 
Q 22.953125 6.109375 30.078125 6.109375 
Q 37.203125 6.109375 41.296875 11.75 
Q 45.40625 17.390625 45.40625 27.296875 
Q 45.40625 37.203125 41.296875 42.84375 
Q 37.203125 48.484375 30.078125 48.484375 
Q 22.953125 48.484375 18.875 42.84375 
Q 14.796875 37.203125 14.796875 27.296875 
z
" id="DejaVuSans-64"/>
      <path d="M 8.015625 75.875 
L 15.828125 75.875 
Q 23.140625 64.359375 26.78125 53.3125 
Q 30.421875 42.28125 30.421875 31.390625 
Q 30.421875 20.453125 26.78125 9.375 
Q 23.140625 -1.703125 15.828125 -13.1875 
L 8.015625 -13.1875 
Q 14.5 -2 17.703125 9.0625 
Q 20.90625 20.125 20.90625 31.390625 
Q 20.90625 42.671875 17.703125 53.65625 
Q 14.5 64.65625 8.015625 75.875 
z
" id="DejaVuSans-29"/>
     </defs>
     <g transform="translate(334.955327 53.872813)scale(0.1 -0.1)">
      <use xlink:href="#DejaVuSans-4c"/>
      <use x="55.712891" xlink:href="#DejaVuSans-5f"/>
      <use x="105.712891" xlink:href="#DejaVuSans-54"/>
      <use x="166.796875" xlink:href="#DejaVuSans-31"/>
      <use x="230.419922" xlink:href="#DejaVuSans-20"/>
      <use x="262.207031" xlink:href="#DejaVuSans-28"/>
      <use x="301.220703" xlink:href="#DejaVuSans-64"/>
      <use x="364.697266" xlink:href="#DejaVuSans-69"/>
      <use x="392.480469" xlink:href="#DejaVuSans-73"/>
      <use x="444.580078" xlink:href="#DejaVuSans-63"/>
      <use x="499.560547" xlink:href="#DejaVuSans-72"/>
      <use x="540.642578" xlink:href="#DejaVuSans-65"/>
      <use x="602.166016" xlink:href="#DejaVuSans-74"/>
      <use x="641.375" xlink:href="#DejaVuSans-69"/>
      <use x="669.158203" xlink:href="#DejaVuSans-7a"/>
      <use x="721.648438" xlink:href="#DejaVuSans-65"/>
      <use x="783.171875" xlink:href="#DejaVuSans-64"/>
      <use x="846.648438" xlink:href="#DejaVuSans-29"/>
     </g>
    </g>
    <g id="line2d_26">
     <path d="M 306.955327 65.329062 
L 326.955327 65.329062 
" style="fill:none;stroke:#808080;stroke-dasharray:3.7,1.6;stroke-dashoffset:0;"/>
    </g>
    <g id="line2d_27"/>
    <g id="text_17">
     <!-- percentile boundary -->
     <defs>
      <path d="M 48.6875 27.296875 
Q 48.6875 37.203125 44.609375 42.84375 
Q 40.53125 48.484375 33.40625 48.484375 
Q 26.265625 48.484375 22.1875 42.84375 
Q 18.109375 37.203125 18.109375 27.296875 
Q 18.109375 17.390625 22.1875 11.75 
Q 26.265625 6.109375 33.40625 6.109375 
Q 40.53125 6.109375 44.609375 11.75 
Q 48.6875 17.390625 48.6875 27.296875 
z
M 18.109375 46.390625 
Q 20.953125 51.265625 25.265625 53.625 
Q 29.59375 56 35.59375 56 
Q 45.5625 56 51.78125 48.09375 
Q 58.015625 40.1875 58.015625 27.296875 
Q 58.015625 14.40625 51.78125 6.484375 
Q 45.5625 -1.421875 35.59375 -1.421875 
Q 29.59375 -1.421875 25.265625 0.953125 
Q 20.953125 3.328125 18.109375 8.203125 
L 18.109375 0 
L 9.078125 0 
L 9.078125 75.984375 
L 18.109375 75.984375 
z
" id="DejaVuSans-62"/>
      <path d="M 32.171875 -5.078125 
Q 28.375 -14.84375 24.75 -17.8125 
Q 21.140625 -20.796875 15.09375 -20.796875 
L 7.90625 -20.796875 
L 7.90625 -13.28125 
L 13.1875 -13.28125 
Q 16.890625 -13.28125 18.9375 -11.515625 
Q 21 -9.765625 23.484375 -3.21875 
L 25.09375 0.875 
L 2.984375 54.6875 
L 12.5 54.6875 
L 29.59375 11.921875 
L 46.6875 54.6875 
L 56.203125 54.6875 
z
" id="DejaVuSans-79"/>
     </defs>
     <g transform="translate(334.955327 68.829062)scale(0.1 -0.1)">
      <use xlink:href="#DejaVuSans-70"/>
      <use x="63.476562" xlink:href="#DejaVuSans-65"/>
      <use x="125" xlink:href="#DejaVuSans-72"/>
      <use x="166.082031" xlink:href="#DejaVuSans-63"/>
      <use x="221.0625" xlink:href="#DejaVuSans-65"/>
      <use x="282.585938" xlink:href="#DejaVuSans-6e"/>
      <use x="345.964844" xlink:href="#DejaVuSans-74"/>
      <use x="385.173828" xlink:href="#DejaVuSans-69"/>
      <use x="412.957031" xlink:href="#DejaVuSans-6c"/>
      <use x="440.740234" xlink:href="#DejaVuSans-65"/>
      <use x="502.263672" xlink:href="#DejaVuSans-20"/>
      <use x="534.050781" xlink:href="#DejaVuSans-62"/>
      <use x="597.527344" xlink:href="#DejaVuSans-6f"/>
      <use x="658.708984" xlink:href="#DejaVuSans-75"/>
      <use x="722.087891" xlink:href="#DejaVuSans-6e"/>
      <use x="785.466797" xlink:href="#DejaVuSans-64"/>
      <use x="848.943359" xlink:href="#DejaVuSans-61"/>
      <use x="910.222656" xlink:href="#DejaVuSans-72"/>
      <use x="951.335938" xlink:href="#DejaVuSans-79"/>
     </g>
    </g>
   </g>
  </g>
 </g>
 <defs>
  <clipPath id="p1f932de445">
   <rect height="163.08" width="418.5" x="26.510014" y="22.318125"/>
  </clipPath>
 </defs>
</svg>
